<?xml version="1.0" encoding="UTF-8" standalone="no"?>
<!-- Generator: Adobe Illustrator 13.0.0, SVG Export Plug-In . SVG Version: 6.00 Build 14948)  -->

<svg
   xmlns:dc="http://purl.org/dc/elements/1.1/"
   xmlns:cc="http://creativecommons.org/ns#"
   xmlns:rdf="http://www.w3.org/1999/02/22-rdf-syntax-ns#"
   xmlns:svg="http://www.w3.org/2000/svg"
   xmlns="http://www.w3.org/2000/svg"
   xmlns:sodipodi="http://sodipodi.sourceforge.net/DTD/sodipodi-0.dtd"
   xmlns:inkscape="http://www.inkscape.org/namespaces/inkscape"
   version="1.1"
   id="Layer_1"
   x="0px"
   y="0px"
   width="1280"
   height="720"
   viewBox="-68.5 -68.5 1280 720"
   enable-background="new -68.5 -68.5 397.5 673.5"
   xml:space="preserve"
   inkscape:version="0.91 r13725"
   sodipodi:docname="api-server-bb-s3-50pc.svg"><metadata
     id="metadata467"><rdf:RDF><cc:Work
         rdf:about=""><dc:format>image/svg+xml</dc:format><dc:type
           rdf:resource="http://purl.org/dc/dcmitype/StillImage" /><dc:title></dc:title></cc:Work></rdf:RDF></metadata><defs
     id="defs465" /><sodipodi:namedview
     pagecolor="#000000"
     bordercolor="#666666"
     borderopacity="1"
     objecttolerance="10"
     gridtolerance="10"
     guidetolerance="10"
     inkscape:pageopacity="0"
     inkscape:pageshadow="2"
     inkscape:window-width="1373"
     inkscape:window-height="892"
     id="namedview463"
     showgrid="false"
     inkscape:zoom="0.96484375"
     inkscape:cx="489.7166"
     inkscape:cy="368.12523"
     inkscape:window-x="195"
     inkscape:window-y="48"
     inkscape:window-maximized="0"
     inkscape:current-layer="Layer_1" /><g
     id="g3"
     transform="translate(367.45762,8.7689008)"
     style="opacity:0.3"><path
       pointer-events="none"
       d="m 325.509,118.84 0,1.61 -14.135,0 -0.591,-2.11 14.726,0.5 z"
       id="path5"
       inkscape:connector-curvature="0"
       style="fill:#9d5025" /><path
       pointer-events="none"
       d="m 314.211,91.667 0,1.604 -10.51,0 -1.473,-2.027 11.983,0.423 z"
       id="path7"
       inkscape:connector-curvature="0"
       style="fill:#9d5025" /><path
       pointer-events="none"
       d="m 303.701,91.667 0,1.604 c -0.579,0 -1.091,0.333 -1.347,0.811 l 0,-1.609 c 0.256,-0.477 0.768,-0.806 1.347,-0.806"
       id="path9"
       inkscape:connector-curvature="0"
       style="fill:#9d5025" /><path
       pointer-events="none"
       d="m 302.354,92.473 0,1.61 c -0.049,0.083 -0.09,0.173 -0.12,0.268 l 0,-1.602 c 0.031,-0.097 0.072,-0.187 0.12,-0.276"
       id="path11"
       inkscape:connector-curvature="0"
       style="fill:#9d5025" /><path
       pointer-events="none"
       d="m 302.234,92.747 0,1.602 c -0.023,0.083 -0.048,0.162 -0.06,0.245 l 0,-1.604 c 0.013,-0.082 0.037,-0.165 0.06,-0.243"
       id="path13"
       inkscape:connector-curvature="0"
       style="fill:#9d5025" /><path
       pointer-events="none"
       d="m 302.175,92.991 0,1.61 c -0.012,0.065 -0.012,0.143 -0.012,0.214 l 0,-1.604 c 0,-0.077 0.006,-0.148 0.012,-0.22"
       id="path15"
       inkscape:connector-curvature="0"
       style="fill:#9d5025" /><path
       pointer-events="none"
       d="m 303.701,91.667 0,1.604 c -0.847,0 -1.538,0.698 -1.538,1.544 l 0,-1.604 c 0,-0.845 0.691,-1.544 1.538,-1.544 z"
       id="path17"
       inkscape:connector-curvature="0"
       style="fill:#9d5025" /><path
       pointer-events="none"
       d="m 320.53,99.096 0,1.604 -10.617,0 -0.9,-1.831 11.517,0.227 z"
       id="path19"
       inkscape:connector-curvature="0"
       style="fill:#9d5025" /><path
       pointer-events="none"
       d="m 310.021,99.096 0,1.604 c -0.578,0 -1.086,0.328 -1.342,0.805 l 0,-1.609 c 0.256,-0.479 0.763,-0.8 1.342,-0.8"
       id="path21"
       inkscape:connector-curvature="0"
       style="fill:#9d5025" /><path
       pointer-events="none"
       d="m 308.679,99.895 0,1.609 c -0.047,0.083 -0.089,0.179 -0.119,0.268 l 0,-1.604 c 0.03,-0.094 0.072,-0.184 0.119,-0.273"
       id="path23"
       inkscape:connector-curvature="0"
       style="fill:#9d5025" /><path
       pointer-events="none"
       d="m 308.56,100.169 0,1.604 c -0.023,0.083 -0.048,0.167 -0.06,0.256 l 0,-1.609 c 0.012,-0.085 0.036,-0.168 0.06,-0.251"
       id="path25"
       inkscape:connector-curvature="0"
       style="fill:#9d5025" /><path
       pointer-events="none"
       d="m 308.5,100.419 0,1.609 c -0.012,0.071 -0.018,0.143 -0.018,0.221 l 0,-1.603 c 0,-0.078 0.006,-0.155 0.018,-0.227"
       id="path27"
       inkscape:connector-curvature="0"
       style="fill:#9d5025" /><path
       pointer-events="none"
       d="m 310.021,99.096 0,1.604 c -0.847,0 -1.538,0.697 -1.538,1.55 l 0,-1.603 c -10e-4,-0.859 0.691,-1.551 1.538,-1.551 z"
       id="path29"
       inkscape:connector-curvature="0"
       style="fill:#9d5025" /><path
       pointer-events="none"
       d="m 302.163,103.949 0,1.603 -3.512,0 -0.549,-1.949 4.061,0.346 z"
       id="path31"
       inkscape:connector-curvature="0"
       style="fill:#9d5025" /><path
       pointer-events="none"
       d="m 298.651,103.949 0,1.603 c -0.84,0 -1.531,-0.686 -1.531,-1.539 l 0,-1.597 c 0,0.853 0.692,1.533 1.531,1.533"
       id="path33"
       inkscape:connector-curvature="0"
       style="fill:#9d5025" /><path
       pointer-events="none"
       d="m 298.651,103.949 0,1.603 c -0.84,0 -1.531,-0.686 -1.531,-1.539 l 0,-1.597 c 0,0.853 0.692,1.533 1.531,1.533 z"
       id="path35"
       inkscape:connector-curvature="0"
       style="fill:#9d5025" /><rect
       x="304.86401"
       y="111.377"
       pointer-events="none"
       width="3.618"
       height="1.609"
       id="rect37"
       style="fill:#9d5025" /><path
       pointer-events="none"
       d="m 304.978,111.377 0,1.602 c -0.848,0 -1.533,-0.685 -1.533,-1.538 l 0,-1.609 c -10e-4,0.853 0.685,1.545 1.533,1.545"
       id="path39"
       inkscape:connector-curvature="0"
       style="fill:#9d5025" /><path
       pointer-events="none"
       d="m 304.978,111.377 0,1.602 c -0.848,0 -1.533,-0.685 -1.533,-1.538 l 0,-1.609 c -10e-4,0.853 0.685,1.545 1.533,1.545 z"
       id="path41"
       inkscape:connector-curvature="0"
       style="fill:#9d5025" /><path
       pointer-events="none"
       d="m 311.374,118.84 0,1.61 c -0.847,0 -1.533,-0.698 -1.533,-1.544 l 0,-1.604 c 0,0.847 0.686,1.538 1.533,1.538"
       id="path43"
       inkscape:connector-curvature="0"
       style="fill:#9d5125" /><path
       pointer-events="none"
       d="m 311.374,118.84 0,1.61 c -0.847,0 -1.533,-0.698 -1.533,-1.544 l 0,-1.604 c 0,0.847 0.686,1.538 1.533,1.538 z"
       id="path45"
       inkscape:connector-curvature="0"
       style="fill:#9d5125" /><path
       pointer-events="none"
       d="m 326.927,117.302 0,1.604 c 0,0.078 -0.006,0.149 -0.018,0.221 l 0,-1.604 c 0.012,-0.071 0.018,-0.149 0.018,-0.221"
       id="path47"
       inkscape:connector-curvature="0"
       style="fill:#9d5025" /><path
       pointer-events="none"
       d="m 326.909,117.523 0,1.604 c -0.012,0.083 -0.029,0.167 -0.054,0.25 l 0,-1.61 c 0.025,-0.077 0.042,-0.161 0.054,-0.244"
       id="path49"
       inkscape:connector-curvature="0"
       style="fill:#9d5025" /><path
       pointer-events="none"
       d="m 326.855,117.768 0,1.61 c -0.029,0.095 -0.071,0.185 -0.119,0.268 l 0,-1.604 c 0.048,-0.09 0.09,-0.179 0.119,-0.274"
       id="path51"
       inkscape:connector-curvature="0"
       style="fill:#9d5025" /><path
       pointer-events="none"
       d="m 326.736,118.042 0,1.604 c -0.256,0.478 -0.757,0.805 -1.335,0.805 l 0,-1.61 c 0.578,-10e-4 1.079,-0.322 1.335,-0.799"
       id="path53"
       inkscape:connector-curvature="0"
       style="fill:#9d5025" /><path
       pointer-events="none"
       d="m 326.927,117.302 0,1.604 c 0,0.846 -0.686,1.544 -1.526,1.544 l 0,-1.61 c 0.84,0 1.526,-0.691 1.526,-1.538 z"
       id="path55"
       inkscape:connector-curvature="0"
       style="fill:#9d5025" /><path
       pointer-events="none"
       d="m 312.679,86.469 c 0.847,0 1.532,0.686 1.532,1.538 l 0,3.66 -10.51,0 c -0.847,0 -1.538,0.698 -1.538,1.544 l 0,10.737 -3.512,0 c -0.84,0 -1.531,-0.681 -1.531,-1.532 l 0,-14.409 c 0,-0.853 0.691,-1.538 1.531,-1.538 l 14.028,0 z"
       id="path57"
       inkscape:connector-curvature="0"
       style="fill:#f58536" /><path
       pointer-events="none"
       d="m 319.005,93.897 c 0.84,0 1.525,0.692 1.525,1.538 l 0,3.661 -10.51,0 c -0.847,0 -1.538,0.691 -1.538,1.55 l 0,10.731 -3.505,0 c -0.848,0 -1.539,-0.692 -1.539,-1.544 l 0,-14.397 c 0,-0.846 0.691,-1.538 1.539,-1.538 l 14.028,0 z"
       id="path59"
       inkscape:connector-curvature="0"
       style="fill:#f58536" /><path
       pointer-events="none"
       d="m 325.4,101.361 c 0.841,0 1.526,0.692 1.526,1.532 l 0,14.409 c 0,0.847 -0.686,1.538 -1.526,1.538 l -14.026,0 c -0.847,0 -1.533,-0.691 -1.533,-1.538 l 0,-14.409 c 0,-0.84 0.687,-1.532 1.533,-1.532 l 14.026,0 z"
       id="path61"
       inkscape:connector-curvature="0"
       style="fill:#f58536" /><rect
       x="307.409"
       y="149.214"
       pointer-events="none"
       width="2.701"
       height="1.526"
       id="rect63"
       style="fill:#9d5125" /><rect
       x="319.189"
       y="149.214"
       pointer-events="none"
       width="2.694"
       height="1.526"
       id="rect65"
       style="fill:#9d5125" /><path
       pointer-events="none"
       d="m 319.189,154.115 0,1.528 -3.648,3.773 0,-1.532 3.648,-3.769 z"
       id="path67"
       inkscape:connector-curvature="0"
       style="fill:#9d5125" /><path
       pointer-events="none"
       d="m 313.919,157.883 0,1.532 -3.809,-3.893 0,-1.532 3.809,3.893 z"
       id="path69"
       inkscape:connector-curvature="0"
       style="fill:#9d5125" /><rect
       x="326.039"
       y="161.42999"
       pointer-events="none"
       width="6.2540002"
       height="1.5319999"
       id="rect71"
       style="fill:#9d5125" /><rect
       x="297.12"
       y="161.42999"
       pointer-events="none"
       width="6.2529998"
       height="1.5319999"
       id="rect73"
       style="fill:#9d5125" /><path
       pointer-events="none"
       d="m 326.039,165.09 0,1.532 -7.345,-7.244 0,-1.532 7.345,7.244 z"
       id="path75"
       inkscape:connector-curvature="0"
       style="fill:#9d5125" /><path
       pointer-events="none"
       d="m 303.373,150.687 7.345,7.237 -7.345,7.166 0,-3.66 -6.253,0 0,-7.089 6.253,0 0,-3.654 z"
       id="path77"
       inkscape:connector-curvature="0"
       style="fill:#f48334" /><path
       pointer-events="none"
       d="m 310.718,157.924 0,1.532 -7.345,7.167 0,-1.533 7.345,-7.166 z"
       id="path79"
       inkscape:connector-curvature="0"
       style="fill:#9d5125" /><path
       pointer-events="none"
       d="m 326.039,150.687 0,3.66 6.254,0 0,7.083 -6.254,0 0,3.66 -7.345,-7.243 7.345,-7.16 z"
       id="path81"
       inkscape:connector-curvature="0"
       style="fill:#f48334" /><path
       pointer-events="none"
       d="m 321.89,167.063 0,1.532 -7.279,7.297 -0.34,-1.872 7.619,-6.957 z"
       id="path83"
       inkscape:connector-curvature="0"
       style="fill:#9d5125" /><path
       pointer-events="none"
       d="m 314.61,174.366 0,1.526 -7.201,-7.297 0,-1.532 7.201,7.303 z"
       id="path85"
       inkscape:connector-curvature="0"
       style="fill:#9d5125" /><path
       pointer-events="none"
       d="m 314.688,141.912 7.201,7.303 -2.7,0 0,4.9 -3.648,3.768 3.648,3.875 0,5.306 2.7,0 -7.279,7.303 -7.201,-7.303 2.701,0 0,-5.246 3.809,-3.935 -3.809,-3.893 0,-4.775 -2.701,0 7.279,-7.303 z"
       id="path87"
       inkscape:connector-curvature="0"
       style="fill:#f48334" /><path
       pointer-events="none"
       d="m 386.912,118.84 0,1.61 -14.135,0 -0.59,-2.11 14.725,0.5 z"
       id="path89"
       inkscape:connector-curvature="0"
       style="fill:#9d5025" /><path
       pointer-events="none"
       d="m 375.615,91.667 0,1.604 -10.511,0 -1.472,-2.027 11.983,0.423 z"
       id="path91"
       inkscape:connector-curvature="0"
       style="fill:#9d5025" /><path
       pointer-events="none"
       d="m 365.104,91.667 0,1.604 c -0.578,0 -1.091,0.333 -1.347,0.811 l 0,-1.609 c 0.257,-0.477 0.769,-0.806 1.347,-0.806"
       id="path93"
       inkscape:connector-curvature="0"
       style="fill:#9d5025" /><path
       pointer-events="none"
       d="m 363.758,92.473 0,1.61 c -0.048,0.083 -0.09,0.173 -0.119,0.268 l 0,-1.602 c 0.029,-0.097 0.071,-0.187 0.119,-0.276"
       id="path95"
       inkscape:connector-curvature="0"
       style="fill:#9d5025" /><path
       pointer-events="none"
       d="m 363.639,92.747 0,1.602 c -0.024,0.083 -0.048,0.162 -0.06,0.245 l 0,-1.604 c 0.012,-0.082 0.035,-0.165 0.06,-0.243"
       id="path97"
       inkscape:connector-curvature="0"
       style="fill:#9d5025" /><path
       pointer-events="none"
       d="m 363.579,92.991 0,1.61 c -0.013,0.065 -0.013,0.143 -0.013,0.214 l 0,-1.604 c 0.001,-0.077 0.006,-0.148 0.013,-0.22"
       id="path99"
       inkscape:connector-curvature="0"
       style="fill:#9d5025" /><path
       pointer-events="none"
       d="m 365.104,91.667 0,1.604 c -0.846,0 -1.537,0.698 -1.537,1.544 l 0,-1.604 c 0,-0.845 0.692,-1.544 1.537,-1.544 z"
       id="path101"
       inkscape:connector-curvature="0"
       style="fill:#9d5025" /><path
       pointer-events="none"
       d="m 381.935,99.096 0,1.604 -10.617,0 -0.9,-1.831 11.517,0.227 z"
       id="path103"
       inkscape:connector-curvature="0"
       style="fill:#9d5025" /><path
       pointer-events="none"
       d="m 371.425,99.096 0,1.604 c -0.579,0 -1.084,0.328 -1.342,0.805 l 0,-1.609 c 0.256,-0.479 0.763,-0.8 1.342,-0.8"
       id="path105"
       inkscape:connector-curvature="0"
       style="fill:#9d5025" /><path
       pointer-events="none"
       d="m 370.083,99.895 0,1.609 c -0.048,0.083 -0.088,0.179 -0.12,0.268 l 0,-1.604 c 0.03,-0.094 0.072,-0.184 0.12,-0.273"
       id="path107"
       inkscape:connector-curvature="0"
       style="fill:#9d5025" /><path
       pointer-events="none"
       d="m 369.963,100.169 0,1.604 c -0.022,0.083 -0.048,0.167 -0.061,0.256 l 0,-1.609 c 0.013,-0.085 0.038,-0.168 0.061,-0.251"
       id="path109"
       inkscape:connector-curvature="0"
       style="fill:#9d5025" /><path
       pointer-events="none"
       d="m 369.903,100.419 0,1.609 c -0.011,0.071 -0.017,0.143 -0.017,0.221 l 0,-1.603 c 10e-4,-0.078 0.007,-0.155 0.017,-0.227"
       id="path111"
       inkscape:connector-curvature="0"
       style="fill:#9d5025" /><path
       pointer-events="none"
       d="m 371.425,99.096 0,1.604 c -0.848,0 -1.538,0.697 -1.538,1.55 l 0,-1.603 c 0,-0.859 0.69,-1.551 1.538,-1.551 z"
       id="path113"
       inkscape:connector-curvature="0"
       style="fill:#9d5025" /><path
       pointer-events="none"
       d="m 363.567,103.949 0,1.603 -3.512,0 -0.549,-1.949 4.061,0.346 z"
       id="path115"
       inkscape:connector-curvature="0"
       style="fill:#9d5025" /><path
       pointer-events="none"
       d="m 360.056,103.949 0,1.603 c -0.841,0 -1.532,-0.686 -1.532,-1.539 l 0,-1.597 c -10e-4,0.853 0.691,1.533 1.532,1.533"
       id="path117"
       inkscape:connector-curvature="0"
       style="fill:#9d5025" /><path
       pointer-events="none"
       d="m 360.056,103.949 0,1.603 c -0.841,0 -1.532,-0.686 -1.532,-1.539 l 0,-1.597 c -10e-4,0.853 0.691,1.533 1.532,1.533 z"
       id="path119"
       inkscape:connector-curvature="0"
       style="fill:#9d5025" /><rect
       x="366.26801"
       y="111.377"
       pointer-events="none"
       width="3.619"
       height="1.609"
       id="rect121"
       style="fill:#9d5025" /><path
       pointer-events="none"
       d="m 366.381,111.377 0,1.602 c -0.847,0 -1.532,-0.685 -1.532,-1.538 l 0,-1.609 c 0,0.853 0.685,1.545 1.532,1.545"
       id="path123"
       inkscape:connector-curvature="0"
       style="fill:#9d5025" /><path
       pointer-events="none"
       d="m 366.381,111.377 0,1.602 c -0.847,0 -1.532,-0.685 -1.532,-1.538 l 0,-1.609 c 0,0.853 0.685,1.545 1.532,1.545 z"
       id="path125"
       inkscape:connector-curvature="0"
       style="fill:#9d5025" /><path
       pointer-events="none"
       d="m 372.777,118.84 0,1.61 c -0.847,0 -1.532,-0.698 -1.532,-1.544 l 0,-1.604 c 0,0.847 0.686,1.538 1.532,1.538"
       id="path127"
       inkscape:connector-curvature="0"
       style="fill:#9d5125" /><path
       pointer-events="none"
       d="m 372.777,118.84 0,1.61 c -0.847,0 -1.532,-0.698 -1.532,-1.544 l 0,-1.604 c 0,0.847 0.686,1.538 1.532,1.538 z"
       id="path129"
       inkscape:connector-curvature="0"
       style="fill:#9d5125" /><path
       pointer-events="none"
       d="m 388.331,117.302 0,1.604 c 0,0.078 -0.006,0.149 -0.018,0.221 l 0,-1.604 c 0.012,-0.071 0.018,-0.149 0.018,-0.221"
       id="path131"
       inkscape:connector-curvature="0"
       style="fill:#9d5025" /><path
       pointer-events="none"
       d="m 388.313,117.523 0,1.604 c -0.012,0.083 -0.03,0.167 -0.054,0.25 l 0,-1.61 c 0.024,-0.077 0.043,-0.161 0.054,-0.244"
       id="path133"
       inkscape:connector-curvature="0"
       style="fill:#9d5025" /><path
       pointer-events="none"
       d="m 388.26,117.768 0,1.61 c -0.03,0.095 -0.072,0.185 -0.12,0.268 l 0,-1.604 c 0.048,-0.09 0.089,-0.179 0.12,-0.274"
       id="path135"
       inkscape:connector-curvature="0"
       style="fill:#9d5025" /><path
       pointer-events="none"
       d="m 388.14,118.042 0,1.604 c -0.256,0.478 -0.756,0.805 -1.335,0.805 l 0,-1.61 c 0.579,-10e-4 1.079,-0.322 1.335,-0.799"
       id="path137"
       inkscape:connector-curvature="0"
       style="fill:#9d5025" /><path
       pointer-events="none"
       d="m 388.331,117.302 0,1.604 c 0,0.846 -0.686,1.544 -1.526,1.544 l 0,-1.61 c 0.841,0 1.526,-0.691 1.526,-1.538 z"
       id="path139"
       inkscape:connector-curvature="0"
       style="fill:#9d5025" /><path
       pointer-events="none"
       d="m 374.083,86.469 c 0.846,0 1.532,0.686 1.532,1.538 l 0,3.66 -10.511,0 c -0.846,0 -1.537,0.698 -1.537,1.544 l 0,10.737 -3.512,0 c -0.841,0 -1.532,-0.681 -1.532,-1.532 l 0,-14.409 c 0,-0.853 0.691,-1.538 1.532,-1.538 l 14.028,0 z"
       id="path141"
       inkscape:connector-curvature="0"
       style="fill:#f58536" /><path
       pointer-events="none"
       d="m 380.408,93.897 c 0.841,0 1.526,0.692 1.526,1.538 l 0,3.661 -10.51,0 c -0.848,0 -1.538,0.691 -1.538,1.55 l 0,10.731 -3.506,0 c -0.847,0 -1.538,-0.692 -1.538,-1.544 l 0,-14.397 c 0,-0.846 0.691,-1.538 1.538,-1.538 l 14.028,0 z"
       id="path143"
       inkscape:connector-curvature="0"
       style="fill:#f58536" /><path
       pointer-events="none"
       d="m 386.805,101.361 c 0.841,0 1.526,0.692 1.526,1.532 l 0,14.409 c 0,0.847 -0.686,1.538 -1.526,1.538 l -14.027,0 c -0.847,0 -1.532,-0.691 -1.532,-1.538 l 0,-14.409 c 0,-0.84 0.686,-1.532 1.532,-1.532 l 14.027,0 z"
       id="path145"
       inkscape:connector-curvature="0"
       style="fill:#f58536" /><path
       pointer-events="none"
       d="m 261.72,118.84 0,1.61 -14.135,0 -0.59,-2.11 14.725,0.5 z"
       id="path147"
       inkscape:connector-curvature="0"
       style="fill:#9d5025" /><path
       pointer-events="none"
       d="m 250.423,91.667 0,1.604 -10.51,0 -1.473,-2.027 11.983,0.423 z"
       id="path149"
       inkscape:connector-curvature="0"
       style="fill:#9d5025" /><path
       pointer-events="none"
       d="m 239.913,91.667 0,1.604 c -0.579,0 -1.092,0.333 -1.348,0.811 l 0,-1.609 c 0.256,-0.477 0.769,-0.806 1.348,-0.806"
       id="path151"
       inkscape:connector-curvature="0"
       style="fill:#9d5025" /><path
       pointer-events="none"
       d="m 238.565,92.473 0,1.61 c -0.048,0.083 -0.09,0.173 -0.119,0.268 l 0,-1.602 c 0.03,-0.097 0.072,-0.187 0.119,-0.276"
       id="path153"
       inkscape:connector-curvature="0"
       style="fill:#9d5025" /><path
       pointer-events="none"
       d="m 238.446,92.747 0,1.602 c -0.023,0.083 -0.048,0.162 -0.06,0.245 l 0,-1.604 c 0.012,-0.082 0.037,-0.165 0.06,-0.243"
       id="path155"
       inkscape:connector-curvature="0"
       style="fill:#9d5025" /><path
       pointer-events="none"
       d="m 238.387,92.991 0,1.61 c -0.013,0.065 -0.013,0.143 -0.013,0.214 l 0,-1.604 c 0,-0.077 0.006,-0.148 0.013,-0.22"
       id="path157"
       inkscape:connector-curvature="0"
       style="fill:#9d5025" /><path
       pointer-events="none"
       d="m 239.913,91.667 0,1.604 c -0.847,0 -1.539,0.698 -1.539,1.544 l 0,-1.604 c 0,-0.845 0.692,-1.544 1.539,-1.544 z"
       id="path159"
       inkscape:connector-curvature="0"
       style="fill:#9d5025" /><path
       pointer-events="none"
       d="m 256.742,99.096 0,1.604 -10.618,0 -0.899,-1.831 11.517,0.227 z"
       id="path161"
       inkscape:connector-curvature="0"
       style="fill:#9d5025" /><path
       pointer-events="none"
       d="m 246.231,99.096 0,1.604 c -0.578,0 -1.085,0.328 -1.341,0.805 l 0,-1.609 c 0.256,-0.479 0.763,-0.8 1.341,-0.8"
       id="path163"
       inkscape:connector-curvature="0"
       style="fill:#9d5025" /><path
       pointer-events="none"
       d="m 244.891,99.895 0,1.609 c -0.048,0.083 -0.089,0.179 -0.119,0.268 l 0,-1.604 c 0.03,-0.094 0.071,-0.184 0.119,-0.273"
       id="path165"
       inkscape:connector-curvature="0"
       style="fill:#9d5025" /><path
       pointer-events="none"
       d="m 244.771,100.169 0,1.604 c -0.024,0.083 -0.048,0.167 -0.06,0.256 l 0,-1.609 c 0.013,-0.085 0.036,-0.168 0.06,-0.251"
       id="path167"
       inkscape:connector-curvature="0"
       style="fill:#9d5025" /><path
       pointer-events="none"
       d="m 244.712,100.419 0,1.609 c -0.012,0.071 -0.018,0.143 -0.018,0.221 l 0,-1.603 c 0,-0.078 0.006,-0.155 0.018,-0.227"
       id="path169"
       inkscape:connector-curvature="0"
       style="fill:#9d5025" /><path
       pointer-events="none"
       d="m 246.231,99.096 0,1.604 c -0.846,0 -1.537,0.697 -1.537,1.55 l 0,-1.603 c 0,-0.859 0.692,-1.551 1.537,-1.551 z"
       id="path171"
       inkscape:connector-curvature="0"
       style="fill:#9d5025" /><path
       pointer-events="none"
       d="m 238.374,103.949 0,1.603 -3.511,0 -0.549,-1.949 4.06,0.346 z"
       id="path173"
       inkscape:connector-curvature="0"
       style="fill:#9d5025" /><path
       pointer-events="none"
       d="m 234.863,103.949 0,1.603 c -0.841,0 -1.532,-0.686 -1.532,-1.539 l 0,-1.597 c 0,0.853 0.691,1.533 1.532,1.533"
       id="path175"
       inkscape:connector-curvature="0"
       style="fill:#9d5025" /><path
       pointer-events="none"
       d="m 234.863,103.949 0,1.603 c -0.841,0 -1.532,-0.686 -1.532,-1.539 l 0,-1.597 c 0,0.853 0.691,1.533 1.532,1.533 z"
       id="path177"
       inkscape:connector-curvature="0"
       style="fill:#9d5025" /><rect
       x="241.075"
       y="111.377"
       pointer-events="none"
       width="3.619"
       height="1.609"
       id="rect179"
       style="fill:#9d5025" /><path
       pointer-events="none"
       d="m 241.188,111.377 0,1.602 c -0.847,0 -1.532,-0.685 -1.532,-1.538 l 0,-1.609 c 0,0.853 0.686,1.545 1.532,1.545"
       id="path181"
       inkscape:connector-curvature="0"
       style="fill:#9d5025" /><path
       pointer-events="none"
       d="m 241.188,111.377 0,1.602 c -0.847,0 -1.532,-0.685 -1.532,-1.538 l 0,-1.609 c 0,0.853 0.686,1.545 1.532,1.545 z"
       id="path183"
       inkscape:connector-curvature="0"
       style="fill:#9d5025" /><path
       pointer-events="none"
       d="m 247.585,118.84 0,1.61 c -0.846,0 -1.532,-0.698 -1.532,-1.544 l 0,-1.604 c 0,0.847 0.686,1.538 1.532,1.538"
       id="path185"
       inkscape:connector-curvature="0"
       style="fill:#9d5125" /><path
       pointer-events="none"
       d="m 247.585,118.84 0,1.61 c -0.846,0 -1.532,-0.698 -1.532,-1.544 l 0,-1.604 c 0,0.847 0.686,1.538 1.532,1.538 z"
       id="path187"
       inkscape:connector-curvature="0"
       style="fill:#9d5125" /><path
       pointer-events="none"
       d="m 263.139,117.302 0,1.604 c 0,0.078 -0.006,0.149 -0.019,0.221 l 0,-1.604 c 0.013,-0.071 0.019,-0.149 0.019,-0.221"
       id="path189"
       inkscape:connector-curvature="0"
       style="fill:#9d5025" /><path
       pointer-events="none"
       d="m 263.12,117.523 0,1.604 c -0.011,0.083 -0.029,0.167 -0.053,0.25 l 0,-1.61 c 0.024,-0.077 0.042,-0.161 0.053,-0.244"
       id="path191"
       inkscape:connector-curvature="0"
       style="fill:#9d5025" /><path
       pointer-events="none"
       d="m 263.067,117.768 0,1.61 c -0.029,0.095 -0.072,0.185 -0.119,0.268 l 0,-1.604 c 0.047,-0.09 0.09,-0.179 0.119,-0.274"
       id="path193"
       inkscape:connector-curvature="0"
       style="fill:#9d5025" /><path
       pointer-events="none"
       d="m 262.948,118.042 0,1.604 c -0.257,0.478 -0.758,0.805 -1.336,0.805 l 0,-1.61 c 0.578,-10e-4 1.079,-0.322 1.336,-0.799"
       id="path195"
       inkscape:connector-curvature="0"
       style="fill:#9d5025" /><path
       pointer-events="none"
       d="m 263.139,117.302 0,1.604 c 0,0.846 -0.686,1.544 -1.526,1.544 l 0,-1.61 c 0.84,0 1.526,-0.691 1.526,-1.538 z"
       id="path197"
       inkscape:connector-curvature="0"
       style="fill:#9d5025" /><path
       pointer-events="none"
       d="m 248.891,86.469 c 0.847,0 1.532,0.686 1.532,1.538 l 0,3.66 -10.51,0 c -0.847,0 -1.539,0.698 -1.539,1.544 l 0,10.737 -3.511,0 c -0.841,0 -1.532,-0.681 -1.532,-1.532 l 0,-14.409 c 0,-0.853 0.691,-1.538 1.532,-1.538 l 14.028,0 z"
       id="path199"
       inkscape:connector-curvature="0"
       style="fill:#f58536" /><path
       pointer-events="none"
       d="m 255.216,93.897 c 0.841,0 1.526,0.692 1.526,1.538 l 0,3.661 -10.511,0 c -0.846,0 -1.537,0.691 -1.537,1.55 l 0,10.731 -3.506,0 c -0.847,0 -1.538,-0.692 -1.538,-1.544 l 0,-14.397 c 0,-0.846 0.691,-1.538 1.538,-1.538 l 14.028,0 z"
       id="path201"
       inkscape:connector-curvature="0"
       style="fill:#f58536" /><path
       pointer-events="none"
       d="m 261.612,101.361 c 0.841,0 1.526,0.692 1.526,1.532 l 0,14.409 c 0,0.847 -0.686,1.538 -1.526,1.538 l -14.027,0 c -0.846,0 -1.532,-0.691 -1.532,-1.538 l 0,-14.409 c 0,-0.84 0.687,-1.532 1.532,-1.532 l 14.027,0 z"
       id="path203"
       inkscape:connector-curvature="0"
       style="fill:#f58536" /><path
       pointer-events="none"
       d="m 326.117,223.108 -17.378,5.455 0,-29.123 17.378,5.461 0,18.207 z"
       id="path205"
       inkscape:connector-curvature="0"
       style="fill:#f58435" /><path
       pointer-events="none"
       d="m 303.892,224.116 -3.916,0.757 0,-21.652 3.916,0.757 0,20.138 z"
       id="path207"
       inkscape:connector-curvature="0"
       style="fill:#f58435" /><path
       pointer-events="none"
       d="m 308.739,225.374 -4.848,1.18 0,-25.015 4.848,1.18 0,22.655 z"
       id="path209"
       inkscape:connector-curvature="0"
       style="fill:#f58435" /><path
       pointer-events="none"
       d="m 306.192,200.532 2.547,-1.091 0,29.211 -2.547,-1.091 0,-27.029 z"
       id="path211"
       inkscape:connector-curvature="0"
       style="fill:#9d5025" /><path
       pointer-events="none"
       d="m 301.835,202.421 2.057,-0.882 0,25.015 -2.057,-0.882 0,-23.251 z"
       id="path213"
       inkscape:connector-curvature="0"
       style="fill:#9d5025" /><path
       pointer-events="none"
       d="m 299.976,203.22 -1.664,0.715 0,20.221 1.664,0.716 0,-21.652 z"
       id="path215"
       inkscape:connector-curvature="0"
       style="fill:#9d5025" /><path
       pointer-events="none"
       d="m 315.004,210.565 0,-13.807 -3.326,1.425 0,12.674 3.326,-0.292 z"
       id="path217"
       inkscape:connector-curvature="0"
       style="fill:#9d5025" /><path
       pointer-events="none"
       d="m 311.678,217.152 0,12.757 3.326,1.425 0,-13.89 -3.326,-0.292 z"
       id="path219"
       inkscape:connector-curvature="0"
       style="fill:#9d5025" /><path
       pointer-events="none"
       d="m 323.91,211.316 0,-10.736 -8.906,-3.822 0,13.807 8.906,0.751 z"
       id="path221"
       inkscape:connector-curvature="0"
       style="fill:#f58435" /><path
       pointer-events="none"
       d="m 315.004,217.445 0,13.89 8.906,-3.821 0,-10.826 -8.906,0.757 z"
       id="path223"
       inkscape:connector-curvature="0"
       style="fill:#f58435" /><path
       pointer-events="none"
       d="m 331.696,211.99 0,-8.054 -4.745,-2.057 0,9.694 4.745,0.417 z"
       id="path225"
       inkscape:connector-curvature="0"
       style="fill:#f58435" /><path
       pointer-events="none"
       d="m 326.951,216.437 0,9.777 4.745,-2.057 0,-8.137 -4.745,0.417 z"
       id="path227"
       inkscape:connector-curvature="0"
       style="fill:#f58435" /><path
       pointer-events="none"
       d="m 323.91,211.316 -3.278,0.173 -8.955,-0.632 3.327,-0.292 8.906,0.751 z"
       id="path229"
       inkscape:connector-curvature="0"
       style="fill:#6b3b19" /><path
       pointer-events="none"
       d="m 323.91,216.687 -3.082,-0.166 -9.151,0.632 3.178,0.292 9.055,-0.758 z"
       id="path231"
       inkscape:connector-curvature="0"
       style="fill:#fbbf92" /><path
       pointer-events="none"
       d="m 324.841,202.337 2.11,-0.459 0,9.693 -2.11,0.126 0,-9.36 z"
       id="path233"
       inkscape:connector-curvature="0"
       style="fill:#9d5025" /><path
       pointer-events="none"
       d="m 324.841,225.755 2.11,0.459 0,-9.777 -2.11,-0.125 0,9.443 z"
       id="path235"
       inkscape:connector-curvature="0"
       style="fill:#9d5025" /><path
       pointer-events="none"
       d="m 331.696,216.02 -1.908,-0.084 -4.947,0.375 2.11,0.125 4.745,-0.416 z"
       id="path237"
       inkscape:connector-curvature="0"
       style="fill:#fbbf92" /><path
       pointer-events="none"
       d="m 331.696,211.99 -1.908,0.083 -4.947,-0.375 2.11,-0.125 4.745,0.417 z"
       id="path239"
       inkscape:connector-curvature="0"
       style="fill:#6b3b19" /><g
       id="g241"
       style=""><path
         pointer-events="none"
         d="m 322.73,287.195 -7.429,3.755 0,-42.923 7.429,3.756 0,35.412 z"
         id="path243"
         inkscape:connector-curvature="0"
         style="fill:#f58536" /><path
         pointer-events="none"
         d="m 307.868,287.195 7.434,3.755 0,-42.923 -7.434,3.756 0,35.412 z"
         id="path245"
         inkscape:connector-curvature="0"
         style="fill:#9d5025" /><path
         pointer-events="none"
         d="m 312.5,263.652 -12.549,-1.616 0,-6.254 12.549,2.975 0,4.895 z"
         id="path247"
         inkscape:connector-curvature="0"
         style="fill:#f58536" /><path
         pointer-events="none"
         d="m 330.642,259.444 -12.544,2.18 0,5.115 12.544,-0.757 0,-6.538 z"
         id="path249"
         inkscape:connector-curvature="0"
         style="fill:#9d5025" /><path
         pointer-events="none"
         d="m 332.889,266.228 -2.247,-0.298 0,-6.486 2.247,0.832 0,5.952 z"
         id="path251"
         inkscape:connector-curvature="0"
         style="fill:#f58536" /><path
         pointer-events="none"
         d="m 297.716,256.916 2.235,-1.133 0,6.254 -2.235,0.614 0,-5.735 z"
         id="path253"
         inkscape:connector-curvature="0"
         style="fill:#9d5025" /><path
         pointer-events="none"
         d="m 312.5,263.652 -2.61,0.381 -12.174,-1.381 2.235,-0.614 12.549,1.614 z"
         id="path255"
         inkscape:connector-curvature="0"
         style="fill:#6b3a19" /><path
         pointer-events="none"
         d="m 332.889,266.228 -12.46,0.673 -2.33,-0.162 12.8,-0.775 1.99,0.264 z"
         id="path257"
         inkscape:connector-curvature="0"
         style="fill:#6b3a19" /></g><path
       pointer-events="none"
       d="m 298.33,34.067 0,0.036 -0.019,-0.023 0.019,-0.013 z"
       id="path259"
       inkscape:connector-curvature="0"
       style="fill:#19486f" /><path
       pointer-events="none"
       d="m 323.946,30.157 0,1.365 c 0,0.042 0,0.083 -0.006,0.131 l 0,-1.359 c 0.006,-0.048 0.006,-0.089 0.006,-0.137"
       id="path261"
       inkscape:connector-curvature="0"
       style="fill:#19486f" /><path
       pointer-events="none"
       d="m 323.94,30.294 0,1.359 c -0.006,0.048 -0.023,0.096 -0.042,0.155 l 0,-1.359 c 0.019,-0.048 0.037,-0.108 0.042,-0.155"
       id="path263"
       inkscape:connector-curvature="0"
       style="fill:#19486f" /><path
       pointer-events="none"
       d="m 323.898,30.449 0,1.359 c -0.023,0.065 -0.054,0.137 -0.089,0.209 l 0,-1.365 c 0.036,-0.072 0.066,-0.132 0.089,-0.203"
       id="path265"
       inkscape:connector-curvature="0"
       style="fill:#19486f" /><path
       pointer-events="none"
       d="m 323.81,30.652 0,1.365 c -0.93,1.585 -6.242,2.802 -12.656,2.802 -7.059,0 -12.793,-1.484 -12.793,-3.297 l 0,-1.365 c 0,1.824 5.734,3.309 12.793,3.309 6.413,-10e-4 11.726,-1.229 12.656,-2.814"
       id="path267"
       inkscape:connector-curvature="0"
       style="fill:#19486f" /><path
       pointer-events="none"
       d="m 323.946,30.157 0,1.365 c 0,1.812 -5.723,3.297 -12.793,3.297 -7.059,0 -12.794,-1.484 -12.794,-3.297 l 0,-1.365 c 0,1.824 5.735,3.309 12.794,3.309 7.071,-10e-4 12.793,-1.485 12.793,-3.309 z"
       id="path269"
       inkscape:connector-curvature="0"
       style="fill:#19486f" /><path
       pointer-events="none"
       d="m 311.153,26.854 c 7.07,0 12.793,1.473 12.793,3.303 0,1.824 -5.723,3.309 -12.793,3.309 -7.059,0 -12.794,-1.484 -12.794,-3.309 0,-1.83 5.736,-3.303 12.794,-3.303 z"
       id="path271"
       inkscape:connector-curvature="0"
       style="fill:#2e73b7" /><path
       pointer-events="none"
       d="m 323.923,55.094 0,1.359 c 0,0.054 -0.006,0.107 -0.013,0.161 l 0,-1.353 c 0.007,-0.054 0.013,-0.114 0.013,-0.167"
       id="path273"
       inkscape:connector-curvature="0"
       style="fill:#19486f" /><path
       pointer-events="none"
       d="m 323.91,55.261 0,1.353 c -0.012,0.072 -0.029,0.149 -0.06,0.221 l 0,-1.365 c 0.032,-0.072 0.043,-0.137 0.06,-0.209"
       id="path275"
       inkscape:connector-curvature="0"
       style="fill:#19486f" /><path
       pointer-events="none"
       d="m 323.851,55.469 0,1.365 c -0.029,0.084 -0.059,0.167 -0.106,0.25 l 0,-1.353 c 0.047,-0.089 0.076,-0.172 0.106,-0.262"
       id="path277"
       inkscape:connector-curvature="0"
       style="fill:#19486f" /><path
       pointer-events="none"
       d="m 323.744,55.732 0,1.353 c -1.032,1.794 -6.296,3.16 -12.633,3.16 -7.064,0 -12.794,-1.693 -12.794,-3.773 l 0,-1.365 c 0,2.086 5.729,3.773 12.794,3.773 6.337,-0.001 11.601,-1.354 12.633,-3.148"
       id="path279"
       inkscape:connector-curvature="0"
       style="fill:#19486f" /><path
       pointer-events="none"
       d="m 323.923,55.094 0,1.359 c -0.013,2.099 -5.747,3.792 -12.812,3.792 -7.065,0 -12.794,-1.693 -12.794,-3.773 l 0,-1.365 c 0,2.086 5.729,3.773 12.794,3.773 7.065,0 12.799,-1.688 12.812,-3.786 z"
       id="path281"
       inkscape:connector-curvature="0"
       style="fill:#19486f" /><path
       pointer-events="none"
       d="m 323.91,32.845 c -0.715,1.979 -5.729,3.166 -12.8,3.166 -7.04,0 -11.857,-1.347 -12.779,-3.267 l -0.014,22.362 c 0,2.086 5.729,3.773 12.794,3.773 7.065,0 12.8,-1.687 12.812,-3.786 L 323.91,32.845 Z"
       id="path283"
       inkscape:connector-curvature="0"
       style="fill:#2e73b7" /><path
       pointer-events="none"
       d="m 302.771,39.725 4.806,0 3.63,10.677 0.049,0 3.428,-10.677 4.811,0 0,15.536 -3.195,0 0,-11.011 -0.048,0 -3.804,11.011 -2.635,0 -3.797,-10.904 -0.049,0 0,10.904 -3.195,0 0,-15.536 z"
       id="path285"
       inkscape:connector-curvature="0"
       style="fill:#ffffff" /></g><g
     id="g287"
     transform="translate(367.45762,8.7689008)"
     style="opacity:0.3"><g
       id="layer1"
       transform="translate(-273.27313,-435.95455)"
       inkscape:groupmode="layer"
       inkscape:label="Red1"
       style=""><path
         id="path3907"
         sodipodi:nodetypes="cszcszc"
         inkscape:connector-curvature="0"
         d="m 332.735,633.647 c 0,0 0.238,-37.322 0.238,-75.263 0,-73.488 -6.192,-78.962 26.781,-78.962 32.973,0 91.779,0 91.779,0 0,0 0,71.106 0,106 0,34.895 6.522,48.564 -30.148,48.564 -36.67,0 -88.65,-0.339 -88.65,-0.339 l 0,0 z"
         style="fill:#a62c39" /></g><g
       id="layer4"
       transform="translate(-273.27313,-435.95455)"
       inkscape:groupmode="layer"
       inkscape:label="Red2"
       style=""><linearGradient
         id="path3947_1_"
         gradientUnits="userSpaceOnUse"
         x1="-141.9691"
         y1="1281.4927"
         x2="-113.5241"
         y2="1296.3914"
         gradientTransform="matrix(1,0,0,-1,563.0854,1821.0303)"><stop
           offset="0"
           style="stop-color:#FFFFFF"
           id="stop293" /><stop
           offset="1"
           style="stop-color:#C0815E"
           id="stop295" /></linearGradient><path
         id="path3947"
         inkscape:connector-curvature="0"
         d="m 408.404,493.286 c 0,0 5.881,1.177 10.979,9.802 5.097,8.626 32.149,75.67 32.149,75.67 l 0,-54.498 -25.093,-40.775 7.058,8.626 13.33,-10.978 -17.251,-1.177 -21.172,13.33 z"
         style="fill:url(#path3947_1_)" /></g><g
       id="layer3"
       transform="translate(-273.27313,-435.95455)"
       inkscape:groupmode="layer"
       inkscape:label="Red3"
       style=""><radialGradient
         id="path3934_1_"
         cx="-158.7982"
         cy="1311.4702"
         r="48.529598"
         gradientTransform="matrix(1,0,0,-1.5817,563.0854,2630.5657)"
         gradientUnits="userSpaceOnUse"><stop
           offset="0"
           style="stop-color:#FFFFFF"
           id="stop300" /><stop
           offset="1"
           style="stop-color:#A94436"
           id="stop302" /></radialGradient><path
         id="path3934"
         inkscape:connector-curvature="0"
         enable-background="new    "
         d="m 356.258,480.348 c 0,0 38.815,25.876 57.635,30.974 18.819,5.097 38.423,10.585 38.423,10.585 l -44.696,109.78 19.212,0.784 25.092,-61.947 -0.783,-90.568 -94.883,0.392 z"
         style="opacity:0.66820003;fill:url(#path3934_1_)" /><path
         id="path3960"
         sodipodi:nodetypes="cccscc"
         inkscape:connector-curvature="0"
         d="m 392.33,596.008 40.377,38.835 -75.272,-1.588 c 0,0 -2.352,-23.916 -1.568,-36.463 0.784,-12.546 4.705,-12.546 4.705,-12.546 l 31.758,11.762 z"
         style="fill:#ffffff;fill-opacity:0.43960003" /></g><g
       id="layer5"
       transform="translate(-273.27313,-435.95455)"
       inkscape:groupmode="layer"
       inkscape:label="Red4"
       style=""><path
         id="path3958"
         sodipodi:nodetypes="cccccccccc"
         inkscape:connector-curvature="0"
         d="m 429.576,634.04 -36.463,-37.639 -33.326,-12.547 -25.876,-57.634 27.445,-45.872 -18.427,-0.784 -7.449,7.057 -2.745,5.489 -1.96,142.714 98.801,-0.784 z"
         style="fill-opacity:0.36230002" /><path
         id="path3962"
         inkscape:connector-curvature="0"
         enable-background="new    "
         d="m 451.924,574.052 c 0,0 -36.854,11.763 -58.811,22.74 -21.956,10.979 -33.718,37.639 -33.718,37.639 0,0 47.048,-2.353 64.691,-1.568 17.643,0.785 25.877,0.784 27.445,-23.916 1.568,-24.7 0.393,-34.895 0.393,-34.895 l 0,0 z"
         style="opacity:0.5;fill:#83222d" /></g><g
       id="layer7"
       transform="translate(-273.27313,-435.95455)"
       inkscape:groupmode="layer"
       inkscape:label="RAILS"
       style=""><path
         id="path3993"
         inkscape:connector-curvature="0"
         d="m 344.095,597.468 0,23.156 5.906,0 0,-6.031 5.375,5.375 9.062,0 -7.188,-7.188 c 0,0 5.17,-0.084 5.562,-7.562 0,-6.861 -5.177,-7.75 -11.156,-7.75 l -7.561,0 z m 6.187,6.282 5.094,0 0,4.125 -5.094,0 0,-4.125 z"
         style="fill:#ffffff" /><path
         id="path3997"
         inkscape:connector-curvature="0"
         d="m 375.845,597.562 c -3.234,-0.019 -7.719,0.281 -7.719,6.375 l 0,16.094 6.062,0 0,-3.938 5.875,0 0,3.844 6.094,0 0,-16.875 c 0,-5.293 -5.881,-5.5 -9.031,-5.5 -0.394,0 -0.82,0.003 -1.281,0 z m -1.563,5.813 5.688,0 0,6.344 -5.688,0 0,-6.344 z"
         style="fill:#ffffff" /><rect
         id="rect4001"
         x="392.23099"
         y="597.57703"
         width="6.2719998"
         height="22.152"
         style="fill:#ffffff" /><path
         id="path4003"
         inkscape:connector-curvature="0"
         d="m 405.072,597.871 0,22.152 15.094,0 0,-5.881 -8.919,0 0,-16.369 -6.175,0.098 z"
         style="fill:#ffffff" /><path
         id="path4005"
         sodipodi:nodetypes="ccccsssccsssssc"
         inkscape:connector-curvature="0"
         d="m 440.162,597.675 0,5.979 -10.096,0 0,2.156 c 0,0 2.059,0 4.312,0 2.253,0 6.959,-0.098 6.959,6.959 0,7.058 -3.234,7.45 -9.801,7.45 -6.568,0 -7.939,0 -7.939,0 l 0,-5.392 c 0,0 6.371,0 9.115,0 2.744,0 2.896,-0.894 2.896,-1.672 0,-0.778 -1.403,-1.141 -4.257,-1.141 -2.854,0 -8.146,-1.402 -8.146,-6.891 0,-5.489 2.744,-7.548 8.233,-7.548 5.489,0 8.724,0.099 8.724,0.1 l 0,0 z"
         style="fill:#ffffff" /></g><g
       id="layer6"
       transform="translate(-273.27313,-435.95455)"
       inkscape:groupmode="layer"
       inkscape:label="Logo (white part)"
       style=""><path
         id="path3966"
         sodipodi:nodetypes="ccssccsszc"
         inkscape:connector-curvature="0"
         d="m 349.593,590.912 52.146,0 c 0,0 -11.566,-26.269 -8.626,-50.381 2.941,-24.112 21.956,-35.091 32.738,-36.267 10.781,-1.177 16.663,5.489 16.663,5.489 l 2.353,-3.529 c 0,0 -15.487,-15.683 -35.091,-13.918 -19.604,1.764 -33.13,14.702 -41.559,30.385 -8.43,15.684 -13.331,26.661 -16.663,43.128 -3.332,16.467 -1.961,25.093 -1.961,25.093 z"
         style="fill:#ffffff" /><path
         id="path3968"
         inkscape:connector-curvature="0"
         d="m 339.204,564.643 10.194,0.784 -1.765,10.193 -9.605,-1.176 1.176,-9.801 z"
         style="fill:#ffffff" /><path
         id="path3970"
         inkscape:connector-curvature="0"
         d="m 355.279,543.079 2.745,-7.645 -9.018,-3.529 -2.94,8.233 9.213,2.941 z"
         style="fill:#ffffff" /><path
         id="path3972"
         inkscape:connector-curvature="0"
         d="m 368.021,516.81 5.293,-6.272 -6.861,-4.509 -5.489,6.076 7.057,4.705 z"
         style="fill:#ffffff" /><path
         id="path3974"
         inkscape:connector-curvature="0"
         d="m 381.939,492.501 4.705,5.686 6.469,-3.725 -4.705,-5.293 -6.469,3.332 z"
         style="fill:#ffffff" /><path
         id="path3976"
         inkscape:connector-curvature="0"
         d="m 404.876,486.033 1.176,5.686 8.038,-0.196 -0.785,-5.097 -8.429,-0.393 z"
         style="fill:#ffffff" /><path
         id="path3978"
         inkscape:connector-curvature="0"
         d="m 432.125,492.11 -0.196,3.528 5.489,2.94 1.176,-1.764 -6.469,-4.704 z"
         style="fill:#ffffff" /><path
         id="path3980"
         inkscape:connector-curvature="0"
         d="m 430.948,507.205 0,2.94 5.293,0.588 0,-2.353 -5.293,-1.175 z"
         style="fill:#ffffff" /><path
         id="path3982"
         inkscape:connector-curvature="0"
         d="m 414.09,509.753 2.548,4.704 3.725,-2.94 -0.784,-3.137 -5.489,1.373 z"
         style="fill:#ffffff" /><path
         id="path3984"
         inkscape:connector-curvature="0"
         d="m 406.051,515.831 3.921,5.881 -2.353,4.116 -5.685,-6.272 4.117,-3.725 z"
         style="fill:#ffffff" /><path
         id="path3986"
         inkscape:connector-curvature="0"
         d="m 398.211,532.101 -2.549,5.097 6.665,5.686 1.568,-6.47 -5.684,-4.313 z"
         style="fill:#ffffff" /><path
         id="path3988"
         inkscape:connector-curvature="0"
         d="m 395.466,549.94 -0.392,6.861 8.233,3.529 -0.392,-6.47 -7.449,-3.92 z"
         style="fill:#ffffff" /><path
         id="path3990"
         inkscape:connector-curvature="0"
         d="m 397.818,574.249 1.961,7.058 10.39,0.588 -3.726,-7.646 -8.625,0 z"
         style="fill:#ffffff" /></g><g
       id="g3911"
       transform="translate(-273.27313,-435.95455)"
       inkscape:groupmode="layer"
       inkscape:label="Red.border"
       style=""><path
         id="path3913"
         sodipodi:nodetypes="cszcszc"
         inkscape:connector-curvature="0"
         d="m 332.735,633.647 c 0,0 0.238,-37.322 0.238,-75.263 0,-73.488 -6.192,-78.962 26.781,-78.962 32.973,0 91.779,0 91.779,0 0,0 0,71.106 0,106 0,34.895 4.954,48.564 -30.148,48.564 -35.102,0 -88.65,-0.339 -88.65,-0.339 l 0,0 z"
         style="fill:none;stroke:#5e000e;stroke-width:3" /></g></g><g
     style="fill:#d8d8d8;fill-rule:evenodd;opacity:0.3"
     id="Page 1"
     transform="matrix(0.05781293,0,0,0.05781293,85.778868,441.6095)"><g
       id="BackBone.JS"
       style=""><path
         inkscape:connector-curvature="0"
         style="fill:#002a41;stroke:#848484;stroke-width:1"
         id="Path"
         d="M 0,0 0,485 361,690.78502 361,550.90277 119.49609,413.23549 119.49609,197 361,334.66728 361,205.78502 0,0 Z m 0,0" /><path
         inkscape:connector-curvature="0"
         style="fill:#0071b5;stroke:#848484;stroke-width:1"
         id="path2996"
         d="M 722,0 722,485 361,690.78502 361,550.90277 602.50391,413.23549 602.50391,197 361,334.66728 361,205.78502 722,0 Z m 0,0" /><path
         inkscape:connector-curvature="0"
         style="fill:#0071b5;stroke:#848484;stroke-width:1"
         id="path2998"
         d="m 0,896.78502 0,-485 L 361,206 l 0,139.88225 -241.50391,137.66728 0,205.23549 L 361,551.11775 361,691 0,896.78502 Z m 0,0" /><path
         inkscape:connector-curvature="0"
         style="fill:#002a41;stroke:#848484;stroke-width:1"
         id="path3000"
         d="m 722,896.78502 0,-485 L 361,206 l 0,139.88225 241.50391,137.66728 0,205.23549 L 361,551.11775 361,691 722,896.78502 Z m 0,0" /></g></g><path
     style="font-style:normal;font-variant:normal;font-weight:normal;font-stretch:normal;font-size:medium;line-height:125%;font-family:'Open Sans Light';-inkscape-font-specification:'Open Sans Light';letter-spacing:0px;word-spacing:0px;fill:#999999;fill-opacity:1;stroke:none;opacity:0.3"
     d="m 144.72197,454.05588 7.59767,0 c 3.42304,3e-5 5.93664,0.58107 7.54082,1.74313 1.60414,1.1621 2.40622,2.91783 2.40624,5.26719 -2e-5,1.60419 -0.48948,2.93992 -1.46837,4.00725 -0.97894,1.06737 -2.40942,1.7526 -4.29145,2.05573 l 0,0.11367 c 2.21044,0.32843 3.8367,1.02633 4.8788,2.09363 1.04205,1.06736 1.56308,2.55469 1.56311,4.46198 -3e-5,2.5515 -0.84631,4.51566 -2.53887,5.89245 -1.6926,1.3768 -4.09253,2.0652 -7.19978,2.0652 l -8.48817,0 z m 1.93258,12.33437 6.10086,0 c 2.60201,3e-5 4.49354,-0.4326 5.67457,-1.29786 1.181,-0.8652 1.7715,-2.2199 1.77152,-4.06406 -2e-5,-1.84416 -0.66631,-3.18306 -1.99888,-4.01672 -1.33261,-0.83363 -3.31886,-1.25047 -5.95877,-1.2505 l -5.5893,0 z m 0,1.70523 0,11.9554 6.51769,0 c 5.12825,3e-5 7.69238,-2.08413 7.6924,-6.25242 -2e-5,-3.80199 -2.70309,-5.70298 -8.10923,-5.70298 z"
     id="path3014"
     inkscape:connector-curvature="0" /><path
     style="font-style:normal;font-variant:normal;font-weight:normal;font-stretch:normal;font-size:medium;line-height:125%;font-family:'Open Sans Light';-inkscape-font-specification:'Open Sans Light';letter-spacing:0px;word-spacing:0px;fill:#999999;fill-opacity:1;stroke:none;opacity:0.3"
     d="m 182.3882,471.97957 -11.2544,0 -3.86514,9.77654 -2.14099,0 11.14071,-27.81389 1.23154,0 10.91336,27.81389 -2.17888,0 z m -10.55337,-1.7431 9.90918,0 -3.77042,-9.98497 c -0.31579,-0.7831 -0.69472,-1.8694 -1.1368,-3.25886 -0.34106,1.21263 -0.71367,2.31153 -1.11786,3.29676 z"
     id="path3016"
     inkscape:connector-curvature="0" /><path
     style="font-style:normal;font-variant:normal;font-weight:normal;font-stretch:normal;font-size:medium;line-height:125%;font-family:'Open Sans Light';-inkscape-font-specification:'Open Sans Light';letter-spacing:0px;word-spacing:0px;fill:#999999;fill-opacity:1;stroke:none;opacity:0.3"
     d="m 204.13911,455.40111 c -3.47359,3e-5 -6.20824,1.11157 -8.20396,3.33466 -1.99573,2.22309 -2.99359,5.26722 -2.99359,9.13234 0,3.95356 0.94102,7.02295 2.82307,9.20814 1.88204,2.1852 4.57248,3.2778 8.07133,3.2778 2.32413,0 4.4588,-0.29684 6.40402,-0.8905 l 0,1.70519 c -1.83154,0.6442 -4.11778,0.9663 -6.85874,0.9663 -3.89042,0 -6.95348,-1.2568 -9.18919,-3.77042 -2.23573,-2.5136 -3.35359,-6.02505 -3.35358,-10.53441 -1e-5,-2.81672 0.53366,-5.29875 1.601,-7.44608 1.06733,-2.14729 2.60202,-3.80512 4.60407,-4.97355 2.00203,-1.16833 4.32933,-1.75253 6.98189,-1.75256 2.70306,3e-5 5.12193,0.50526 7.25662,1.51573 l -0.77681,1.74312 c -2.02101,-1.01049 -4.14305,-1.51573 -6.36613,-1.51576 z"
     id="path3018"
     inkscape:connector-curvature="0" /><path
     style="font-style:normal;font-variant:normal;font-weight:normal;font-stretch:normal;font-size:medium;line-height:125%;font-family:'Open Sans Light';-inkscape-font-specification:'Open Sans Light';letter-spacing:0px;word-spacing:0px;fill:#999999;fill-opacity:1;stroke:none;opacity:0.3"
     d="m 235.04133,481.75611 -2.36835,0 -10.62915,-14.62693 -3.69462,3.25886 0,11.36807 -1.93258,0 0,-27.70023 1.93258,0 0,14.39956 3.06938,-3.06935 10.85651,-11.33021 2.46308,0 -11.34913,11.70914 z"
     id="path3020"
     inkscape:connector-curvature="0" /><path
     style="font-style:normal;font-variant:normal;font-weight:normal;font-stretch:normal;font-size:medium;line-height:125%;font-family:'Open Sans Light';-inkscape-font-specification:'Open Sans Light';letter-spacing:0px;word-spacing:0px;fill:#999999;fill-opacity:1;stroke:none;opacity:0.3"
     d="m 239.00122,454.05588 7.59766,0 c 3.42304,3e-5 5.93664,0.58107 7.54082,1.74313 1.60415,1.1621 2.40623,2.91783 2.40625,5.26719 -2e-5,1.60419 -0.48948,2.93992 -1.46838,4.00725 -0.97894,1.06737 -2.40942,1.7526 -4.29145,2.05573 l 0,0.11367 c 2.21044,0.32843 3.83671,1.02633 4.8788,2.09363 1.04205,1.06736 1.56309,2.55469 1.56311,4.46198 -2e-5,2.5515 -0.84631,4.51566 -2.53887,5.89245 -1.6926,1.3768 -4.09252,2.0652 -7.19978,2.0652 l -8.48816,0 z m 1.93257,12.33437 6.10087,0 c 2.60201,3e-5 4.49353,-0.4326 5.67456,-1.29786 1.181,-0.8652 1.77151,-2.2199 1.77153,-4.06406 -2e-5,-1.84416 -0.66632,-3.18306 -1.99889,-4.01672 -1.33261,-0.83363 -3.31886,-1.25047 -5.95877,-1.2505 l -5.5893,0 z m 0,1.70523 0,11.9554 6.5177,0 c 5.12824,3e-5 7.69237,-2.08413 7.69239,-6.25242 -2e-5,-3.80199 -2.70309,-5.70298 -8.10922,-5.70298 z"
     id="path3022"
     inkscape:connector-curvature="0" /><path
     style="font-style:normal;font-variant:normal;font-weight:normal;font-stretch:normal;font-size:medium;line-height:125%;font-family:'Open Sans Light';-inkscape-font-specification:'Open Sans Light';letter-spacing:0px;word-spacing:0px;fill:#999999;fill-opacity:1;stroke:none;opacity:0.3"
     d="m 286.61451,467.86811 c -3e-5,4.39566 -1.09895,7.87238 -3.29675,10.43021 -2.19784,2.55782 -5.22933,3.83672 -9.09446,3.83672 -3.85252,0 -6.87769,-1.2789 -9.07551,-3.83672 -2.19783,-2.55783 -3.29674,-6.04719 -3.29674,-10.46811 0,-4.40825 1.10838,-7.87868 3.32516,-10.41127 2.21676,-2.53253 5.24509,-3.79879 9.08499,-3.79882 3.86512,3e-5 6.89029,1.27263 9.07551,3.81779 2.18517,2.54519 3.27777,6.02191 3.2778,10.4302 z m -22.66037,0 c 0,3.96619 0.88418,7.03242 2.65255,9.19868 1.76836,2.16623 4.30723,3.24936 7.61661,3.24936 3.33462,0 5.88296,-1.07364 7.64503,-3.22096 1.76203,-2.1473 2.64306,-5.22299 2.64308,-9.22708 -2e-5,-3.99145 -0.88105,-7.05135 -2.64308,-9.17974 -1.76207,-2.12833 -4.29778,-3.19249 -7.60713,-3.19252 -3.29676,3e-5 -5.83878,1.07369 -7.62609,3.22095 -1.78732,2.14733 -2.68097,5.19776 -2.68097,9.15131 z"
     id="path3024"
     inkscape:connector-curvature="0" /><path
     style="font-style:normal;font-variant:normal;font-weight:normal;font-stretch:normal;font-size:medium;line-height:125%;font-family:'Open Sans Light';-inkscape-font-specification:'Open Sans Light';letter-spacing:0px;word-spacing:0px;fill:#999999;fill-opacity:1;stroke:none;opacity:0.3"
     d="m 313.10212,481.75611 -1.95152,0 -16.40792,-24.59294 -0.15158,0 c 0.15157,2.93046 0.22736,5.14092 0.22736,6.63139 l 0,17.96155 -1.85678,0 0,-27.70023 1.93257,0 16.38897,24.55507 0.11369,0 c -0.11371,-2.27363 -0.17055,-4.43355 -0.17053,-6.47982 l 0,-18.07525 1.87574,0 z"
     id="path3026"
     inkscape:connector-curvature="0" /><path
     style="font-style:normal;font-variant:normal;font-weight:normal;font-stretch:normal;font-size:medium;line-height:125%;font-family:'Open Sans Light';-inkscape-font-specification:'Open Sans Light';letter-spacing:0px;word-spacing:0px;fill:#999999;fill-opacity:1;stroke:none;opacity:0.3"
     d="m 336.06563,481.75611 -15.13848,0 0,-27.70023 15.13848,0 0,1.78103 -13.20591,0 0,10.47757 12.46699,0 0,1.781 -12.46699,0 0,11.87963 13.20591,0 z"
     id="path3028"
     inkscape:connector-curvature="0" /><path
     style="font-style:normal;font-variant:normal;font-weight:normal;font-stretch:normal;font-size:medium;line-height:125%;font-family:'Open Sans Light';-inkscape-font-specification:'Open Sans Light';letter-spacing:0px;word-spacing:0px;fill:#999999;fill-opacity:1;stroke:none;opacity:0.3"
     d="m 341.5223,480.27825 c 0,-1.23783 0.50524,-1.85677 1.51574,-1.85677 1.03575,0 1.55363,0.61894 1.55364,1.85677 -10e-6,1.23786 -0.51789,1.85679 -1.55364,1.85679 -1.0105,0 -1.51574,-0.61893 -1.51574,-1.85679 z"
     id="path3030"
     inkscape:connector-curvature="0" /><path
     style="font-style:normal;font-variant:normal;font-weight:normal;font-stretch:normal;font-size:medium;line-height:125%;font-family:'Open Sans Light';-inkscape-font-specification:'Open Sans Light';letter-spacing:0px;word-spacing:0px;fill:#999999;fill-opacity:1;stroke:none;opacity:0.3"
     d="m 347.07371,488.74746 c -1.16207,0 -2.11572,-0.1705 -2.86097,-0.51154 l 0,-1.66732 c 0.98524,0.2526 1.92626,0.37893 2.82308,0.37893 3.05674,0 4.58512,-1.66733 4.58512,-5.00196 l 0,-27.88969 1.93257,0 0,27.70023 c 0,4.66089 -2.15994,6.99135 -6.4798,6.99135 z"
     id="path3032"
     inkscape:connector-curvature="0" /><path
     style="font-style:normal;font-variant:normal;font-weight:normal;font-stretch:normal;font-size:medium;line-height:125%;font-family:'Open Sans Light';-inkscape-font-specification:'Open Sans Light';letter-spacing:0px;word-spacing:0px;fill:#999999;fill-opacity:1;stroke:none;opacity:0.3"
     d="m 376.53598,474.61316 c -2e-5,2.31153 -0.84946,4.14306 -2.54834,5.49459 -1.69891,1.35153 -3.95673,2.02729 -6.77348,2.02729 -3.38516,0 -5.98087,-0.37263 -7.78713,-1.11786 l 0,-1.93256 c 1.99573,0.84629 4.54091,1.26943 7.63556,1.26943 2.2736,0 4.0767,-0.52104 5.40931,-1.5631 1.33257,-1.0421 1.99887,-2.40943 1.99889,-4.10199 -2e-5,-1.0484 -0.22107,-1.91679 -0.66314,-2.60519 -0.44211,-0.6884 -1.16209,-1.3168 -2.15994,-1.8852 -0.99788,-0.5684 -2.46309,-1.181 -4.39566,-1.83786 -2.82939,-0.97256 -4.78407,-2.02413 -5.86403,-3.15462 -1.07997,-1.13047 -1.61995,-2.63676 -1.61995,-4.51883 0,-2.07149 0.81155,-3.76089 2.43466,-5.06825 1.62311,-1.3073 3.71041,-1.96096 6.26192,-1.96099 2.60201,3e-5 5.04615,0.49263 7.33241,1.47786 l -0.70103,1.6673 c -2.2989,-0.95994 -4.49672,-1.43994 -6.59349,-1.43997 -2.04626,3e-5 -3.67568,0.4737 -4.88827,1.42103 -1.2126,0.94736 -1.81889,2.23573 -1.81889,3.86513 0,1.02316 0.18631,1.86312 0.55893,2.51992 0.37261,0.65687 0.98207,1.24736 1.82837,1.77153 0.84628,0.52423 2.29886,1.15263 4.35776,1.88523 2.15992,0.74523 3.78303,1.46836 4.86933,2.16939 1.08626,0.70103 1.87887,1.4968 2.37782,2.3873 0.49891,0.89049 0.74837,1.96732 0.74839,3.23042 z"
     id="path3034"
     inkscape:connector-curvature="0" /><g
     transform="matrix(0.05781293,0,0,0.05781293,442.31328,441.6095)"
     id="g5083"
     style="fill:#d8d8d8;fill-rule:evenodd;opacity:0.3"><g
       id="g5085"
       style=""><path
         d="M 0,0 0,485 361,690.78502 361,550.90277 119.49609,413.23549 119.49609,197 361,334.66728 361,205.78502 0,0 Z m 0,0"
         id="path5087"
         style="fill:#002a41;stroke:#848484;stroke-width:1"
         inkscape:connector-curvature="0" /><path
         d="M 722,0 722,485 361,690.78502 361,550.90277 602.50391,413.23549 602.50391,197 361,334.66728 361,205.78502 722,0 Z m 0,0"
         id="path5089"
         style="fill:#0071b5;stroke:#848484;stroke-width:1"
         inkscape:connector-curvature="0" /><path
         d="m 0,896.78502 0,-485 L 361,206 l 0,139.88225 -241.50391,137.66728 0,205.23549 L 361,551.11775 361,691 0,896.78502 Z m 0,0"
         id="path5091"
         style="fill:#0071b5;stroke:#848484;stroke-width:1"
         inkscape:connector-curvature="0" /><path
         d="m 722,896.78502 0,-485 L 361,206 l 0,139.88225 241.50391,137.66728 0,205.23549 L 361,551.11775 361,691 722,896.78502 Z m 0,0"
         id="path5093"
         style="fill:#002a41;stroke:#848484;stroke-width:1"
         inkscape:connector-curvature="0" /></g></g><path
     inkscape:connector-curvature="0"
     id="path5095"
     d="m 501.25638,454.05588 7.59767,0 c 3.42304,3e-5 5.93664,0.58107 7.54082,1.74313 1.60414,1.1621 2.40622,2.91783 2.40624,5.26719 -2e-5,1.60419 -0.48948,2.93992 -1.46837,4.00725 -0.97894,1.06737 -2.40942,1.7526 -4.29145,2.05573 l 0,0.11367 c 2.21044,0.32843 3.8367,1.02633 4.8788,2.09363 1.04205,1.06736 1.56308,2.55469 1.56311,4.46198 -3e-5,2.5515 -0.84631,4.51566 -2.53887,5.89245 -1.6926,1.3768 -4.09253,2.0652 -7.19978,2.0652 l -8.48817,0 z m 1.93258,12.33437 6.10086,0 c 2.60201,3e-5 4.49354,-0.4326 5.67457,-1.29786 1.181,-0.8652 1.7715,-2.2199 1.77152,-4.06406 -2e-5,-1.84416 -0.66631,-3.18306 -1.99888,-4.01672 -1.33261,-0.83363 -3.31886,-1.25047 -5.95877,-1.2505 l -5.5893,0 z m 0,1.70523 0,11.9554 6.51769,0 c 5.12825,3e-5 7.69238,-2.08413 7.6924,-6.25242 -2e-5,-3.80199 -2.70309,-5.70298 -8.10923,-5.70298 z"
     style="font-style:normal;font-variant:normal;font-weight:normal;font-stretch:normal;font-size:medium;line-height:125%;font-family:'Open Sans Light';-inkscape-font-specification:'Open Sans Light';letter-spacing:0px;word-spacing:0px;fill:#999999;fill-opacity:1;stroke:none;opacity:0.3" /><path
     inkscape:connector-curvature="0"
     id="path5097"
     d="m 538.92261,471.97957 -11.2544,0 -3.86514,9.77654 -2.14099,0 11.14071,-27.81389 1.23154,0 10.91336,27.81389 -2.17888,0 z m -10.55337,-1.7431 9.90918,0 -3.77042,-9.98497 c -0.31579,-0.7831 -0.69472,-1.8694 -1.1368,-3.25886 -0.34106,1.21263 -0.71367,2.31153 -1.11786,3.29676 z"
     style="font-style:normal;font-variant:normal;font-weight:normal;font-stretch:normal;font-size:medium;line-height:125%;font-family:'Open Sans Light';-inkscape-font-specification:'Open Sans Light';letter-spacing:0px;word-spacing:0px;fill:#999999;fill-opacity:1;stroke:none;opacity:0.3" /><path
     inkscape:connector-curvature="0"
     id="path5099"
     d="m 560.67352,455.40111 c -3.47359,3e-5 -6.20824,1.11157 -8.20396,3.33466 -1.99573,2.22309 -2.99359,5.26722 -2.99359,9.13234 0,3.95356 0.94102,7.02295 2.82307,9.20814 1.88204,2.1852 4.57248,3.2778 8.07133,3.2778 2.32413,0 4.4588,-0.29684 6.40402,-0.8905 l 0,1.70519 c -1.83154,0.6442 -4.11778,0.9663 -6.85874,0.9663 -3.89042,0 -6.95348,-1.2568 -9.18919,-3.77042 -2.23573,-2.5136 -3.35359,-6.02505 -3.35358,-10.53441 -10e-6,-2.81672 0.53366,-5.29875 1.601,-7.44608 1.06733,-2.14729 2.60202,-3.80512 4.60407,-4.97355 2.00203,-1.16833 4.32933,-1.75253 6.98189,-1.75256 2.70306,3e-5 5.12193,0.50526 7.25662,1.51573 l -0.77681,1.74312 c -2.02101,-1.01049 -4.14305,-1.51573 -6.36613,-1.51576 z"
     style="font-style:normal;font-variant:normal;font-weight:normal;font-stretch:normal;font-size:medium;line-height:125%;font-family:'Open Sans Light';-inkscape-font-specification:'Open Sans Light';letter-spacing:0px;word-spacing:0px;fill:#999999;fill-opacity:1;stroke:none;opacity:0.3" /><path
     inkscape:connector-curvature="0"
     id="path5101"
     d="m 591.57574,481.75611 -2.36835,0 -10.62915,-14.62693 -3.69462,3.25886 0,11.36807 -1.93258,0 0,-27.70023 1.93258,0 0,14.39956 3.06938,-3.06935 10.85651,-11.33021 2.46308,0 -11.34913,11.70914 z"
     style="font-style:normal;font-variant:normal;font-weight:normal;font-stretch:normal;font-size:medium;line-height:125%;font-family:'Open Sans Light';-inkscape-font-specification:'Open Sans Light';letter-spacing:0px;word-spacing:0px;fill:#999999;fill-opacity:1;stroke:none;opacity:0.3" /><path
     inkscape:connector-curvature="0"
     id="path5103"
     d="m 595.53563,454.05588 7.59766,0 c 3.42304,3e-5 5.93664,0.58107 7.54082,1.74313 1.60415,1.1621 2.40623,2.91783 2.40625,5.26719 -2e-5,1.60419 -0.48948,2.93992 -1.46838,4.00725 -0.97894,1.06737 -2.40942,1.7526 -4.29145,2.05573 l 0,0.11367 c 2.21044,0.32843 3.83671,1.02633 4.8788,2.09363 1.04205,1.06736 1.56309,2.55469 1.56311,4.46198 -2e-5,2.5515 -0.84631,4.51566 -2.53887,5.89245 -1.6926,1.3768 -4.09252,2.0652 -7.19978,2.0652 l -8.48816,0 z m 1.93257,12.33437 6.10087,0 c 2.60201,3e-5 4.49353,-0.4326 5.67456,-1.29786 1.181,-0.8652 1.77151,-2.2199 1.77153,-4.06406 -2e-5,-1.84416 -0.66632,-3.18306 -1.99889,-4.01672 -1.33261,-0.83363 -3.31886,-1.25047 -5.95877,-1.2505 l -5.5893,0 z m 0,1.70523 0,11.9554 6.5177,0 c 5.12824,3e-5 7.69237,-2.08413 7.69239,-6.25242 -2e-5,-3.80199 -2.70309,-5.70298 -8.10922,-5.70298 z"
     style="font-style:normal;font-variant:normal;font-weight:normal;font-stretch:normal;font-size:medium;line-height:125%;font-family:'Open Sans Light';-inkscape-font-specification:'Open Sans Light';letter-spacing:0px;word-spacing:0px;fill:#999999;fill-opacity:1;stroke:none;opacity:0.3" /><path
     inkscape:connector-curvature="0"
     id="path5105"
     d="m 643.14892,467.86811 c -3e-5,4.39566 -1.09895,7.87238 -3.29675,10.43021 -2.19784,2.55782 -5.22933,3.83672 -9.09446,3.83672 -3.85252,0 -6.87769,-1.2789 -9.07551,-3.83672 -2.19783,-2.55783 -3.29674,-6.04719 -3.29674,-10.46811 0,-4.40825 1.10838,-7.87868 3.32516,-10.41127 2.21676,-2.53253 5.24509,-3.79879 9.08499,-3.79882 3.86512,3e-5 6.89029,1.27263 9.07551,3.81779 2.18517,2.54519 3.27777,6.02191 3.2778,10.4302 z m -22.66037,0 c 0,3.96619 0.88418,7.03242 2.65255,9.19868 1.76836,2.16623 4.30723,3.24936 7.61661,3.24936 3.33462,0 5.88296,-1.07364 7.64503,-3.22096 1.76203,-2.1473 2.64306,-5.22299 2.64308,-9.22708 -2e-5,-3.99145 -0.88105,-7.05135 -2.64308,-9.17974 -1.76207,-2.12833 -4.29778,-3.19249 -7.60713,-3.19252 -3.29676,3e-5 -5.83878,1.07369 -7.62609,3.22095 -1.78732,2.14733 -2.68097,5.19776 -2.68097,9.15131 z"
     style="font-style:normal;font-variant:normal;font-weight:normal;font-stretch:normal;font-size:medium;line-height:125%;font-family:'Open Sans Light';-inkscape-font-specification:'Open Sans Light';letter-spacing:0px;word-spacing:0px;fill:#999999;fill-opacity:1;stroke:none;opacity:0.3" /><path
     inkscape:connector-curvature="0"
     id="path5107"
     d="m 669.63653,481.75611 -1.95152,0 -16.40792,-24.59294 -0.15158,0 c 0.15157,2.93046 0.22736,5.14092 0.22736,6.63139 l 0,17.96155 -1.85678,0 0,-27.70023 1.93257,0 16.38897,24.55507 0.11369,0 c -0.11371,-2.27363 -0.17055,-4.43355 -0.17053,-6.47982 l 0,-18.07525 1.87574,0 z"
     style="font-style:normal;font-variant:normal;font-weight:normal;font-stretch:normal;font-size:medium;line-height:125%;font-family:'Open Sans Light';-inkscape-font-specification:'Open Sans Light';letter-spacing:0px;word-spacing:0px;fill:#999999;fill-opacity:1;stroke:none;opacity:0.3" /><path
     inkscape:connector-curvature="0"
     id="path5109"
     d="m 692.60004,481.75611 -15.13848,0 0,-27.70023 15.13848,0 0,1.78103 -13.20591,0 0,10.47757 12.46699,0 0,1.781 -12.46699,0 0,11.87963 13.20591,0 z"
     style="font-style:normal;font-variant:normal;font-weight:normal;font-stretch:normal;font-size:medium;line-height:125%;font-family:'Open Sans Light';-inkscape-font-specification:'Open Sans Light';letter-spacing:0px;word-spacing:0px;fill:#999999;fill-opacity:1;stroke:none;opacity:0.3" /><path
     inkscape:connector-curvature="0"
     id="path5111"
     d="m 698.05671,480.27825 c 0,-1.23783 0.50524,-1.85677 1.51574,-1.85677 1.03575,0 1.55363,0.61894 1.55364,1.85677 -10e-6,1.23786 -0.51789,1.85679 -1.55364,1.85679 -1.0105,0 -1.51574,-0.61893 -1.51574,-1.85679 z"
     style="font-style:normal;font-variant:normal;font-weight:normal;font-stretch:normal;font-size:medium;line-height:125%;font-family:'Open Sans Light';-inkscape-font-specification:'Open Sans Light';letter-spacing:0px;word-spacing:0px;fill:#999999;fill-opacity:1;stroke:none;opacity:0.3" /><path
     inkscape:connector-curvature="0"
     id="path5113"
     d="m 703.60812,488.74746 c -1.16207,0 -2.11572,-0.1705 -2.86097,-0.51154 l 0,-1.66732 c 0.98524,0.2526 1.92626,0.37893 2.82308,0.37893 3.05674,0 4.58512,-1.66733 4.58512,-5.00196 l 0,-27.88969 1.93257,0 0,27.70023 c 0,4.66089 -2.15994,6.99135 -6.4798,6.99135 z"
     style="font-style:normal;font-variant:normal;font-weight:normal;font-stretch:normal;font-size:medium;line-height:125%;font-family:'Open Sans Light';-inkscape-font-specification:'Open Sans Light';letter-spacing:0px;word-spacing:0px;fill:#999999;fill-opacity:1;stroke:none;opacity:0.3" /><path
     inkscape:connector-curvature="0"
     id="path5115"
     d="m 733.07039,474.61316 c -2e-5,2.31153 -0.84946,4.14306 -2.54834,5.49459 -1.69891,1.35153 -3.95673,2.02729 -6.77348,2.02729 -3.38516,0 -5.98087,-0.37263 -7.78713,-1.11786 l 0,-1.93256 c 1.99573,0.84629 4.54091,1.26943 7.63556,1.26943 2.2736,0 4.0767,-0.52104 5.40931,-1.5631 1.33257,-1.0421 1.99887,-2.40943 1.99889,-4.10199 -2e-5,-1.0484 -0.22107,-1.91679 -0.66314,-2.60519 -0.44211,-0.6884 -1.16209,-1.3168 -2.15994,-1.8852 -0.99788,-0.5684 -2.46309,-1.181 -4.39566,-1.83786 -2.82939,-0.97256 -4.78407,-2.02413 -5.86403,-3.15462 -1.07997,-1.13047 -1.61995,-2.63676 -1.61995,-4.51883 0,-2.07149 0.81155,-3.76089 2.43466,-5.06825 1.62311,-1.3073 3.71041,-1.96096 6.26192,-1.96099 2.60201,3e-5 5.04615,0.49263 7.33241,1.47786 l -0.70103,1.6673 c -2.2989,-0.95994 -4.49672,-1.43994 -6.59349,-1.43997 -2.04626,3e-5 -3.67568,0.4737 -4.88827,1.42103 -1.2126,0.94736 -1.81889,2.23573 -1.81889,3.86513 0,1.02316 0.18631,1.86312 0.55893,2.51992 0.37261,0.65687 0.98207,1.24736 1.82837,1.77153 0.84628,0.52423 2.29886,1.15263 4.35776,1.88523 2.15992,0.74523 3.78303,1.46836 4.86933,2.16939 1.08626,0.70103 1.87887,1.4968 2.37782,2.3873 0.49891,0.89049 0.74837,1.96732 0.74839,3.23042 z"
     style="font-style:normal;font-variant:normal;font-weight:normal;font-stretch:normal;font-size:medium;line-height:125%;font-family:'Open Sans Light';-inkscape-font-specification:'Open Sans Light';letter-spacing:0px;word-spacing:0px;fill:#999999;fill-opacity:1;stroke:none;opacity:0.3" /><g
     transform="matrix(0.05781293,0,0,0.05781293,791.59264,441.6095)"
     id="g5119"
     style="fill:#d8d8d8;fill-rule:evenodd;opacity:0.3"><g
       id="g5121"
       style=""><path
         d="M 0,0 0,485 361,690.78502 361,550.90277 119.49609,413.23549 119.49609,197 361,334.66728 361,205.78502 0,0 Z m 0,0"
         id="path5123"
         style="fill:#002a41;stroke:#848484;stroke-width:1"
         inkscape:connector-curvature="0" /><path
         d="M 722,0 722,485 361,690.78502 361,550.90277 602.50391,413.23549 602.50391,197 361,334.66728 361,205.78502 722,0 Z m 0,0"
         id="path5125"
         style="fill:#0071b5;stroke:#848484;stroke-width:1"
         inkscape:connector-curvature="0" /><path
         d="m 0,896.78502 0,-485 L 361,206 l 0,139.88225 -241.50391,137.66728 0,205.23549 L 361,551.11775 361,691 0,896.78502 Z m 0,0"
         id="path5127"
         style="fill:#0071b5;stroke:#848484;stroke-width:1"
         inkscape:connector-curvature="0" /><path
         d="m 722,896.78502 0,-485 L 361,206 l 0,139.88225 241.50391,137.66728 0,205.23549 L 361,551.11775 361,691 722,896.78502 Z m 0,0"
         id="path5129"
         style="fill:#002a41;stroke:#848484;stroke-width:1"
         inkscape:connector-curvature="0" /></g></g><path
     inkscape:connector-curvature="0"
     id="path5131"
     d="m 850.53574,454.05588 7.59767,0 c 3.42304,3e-5 5.93664,0.58107 7.54082,1.74313 1.60414,1.1621 2.40622,2.91783 2.40624,5.26719 -2e-5,1.60419 -0.48948,2.93992 -1.46837,4.00725 -0.97894,1.06737 -2.40942,1.7526 -4.29145,2.05573 l 0,0.11367 c 2.21044,0.32843 3.8367,1.02633 4.8788,2.09363 1.04205,1.06736 1.56308,2.55469 1.56311,4.46198 -3e-5,2.5515 -0.84631,4.51566 -2.53887,5.89245 -1.6926,1.3768 -4.09253,2.0652 -7.19978,2.0652 l -8.48817,0 z m 1.93258,12.33437 6.10086,0 c 2.60201,3e-5 4.49354,-0.4326 5.67457,-1.29786 1.181,-0.8652 1.7715,-2.2199 1.77152,-4.06406 -2e-5,-1.84416 -0.66631,-3.18306 -1.99888,-4.01672 -1.33261,-0.83363 -3.31886,-1.25047 -5.95877,-1.2505 l -5.5893,0 z m 0,1.70523 0,11.9554 6.51769,0 c 5.12825,3e-5 7.69238,-2.08413 7.6924,-6.25242 -2e-5,-3.80199 -2.70309,-5.70298 -8.10923,-5.70298 z"
     style="font-style:normal;font-variant:normal;font-weight:normal;font-stretch:normal;font-size:medium;line-height:125%;font-family:'Open Sans Light';-inkscape-font-specification:'Open Sans Light';letter-spacing:0px;word-spacing:0px;fill:#999999;fill-opacity:1;stroke:none;opacity:0.3" /><path
     inkscape:connector-curvature="0"
     id="path5133"
     d="m 888.20197,471.97957 -11.2544,0 -3.86514,9.77654 -2.14099,0 11.14071,-27.81389 1.23154,0 10.91336,27.81389 -2.17888,0 z m -10.55337,-1.7431 9.90918,0 -3.77042,-9.98497 c -0.31579,-0.7831 -0.69472,-1.8694 -1.1368,-3.25886 -0.34106,1.21263 -0.71367,2.31153 -1.11786,3.29676 z"
     style="font-style:normal;font-variant:normal;font-weight:normal;font-stretch:normal;font-size:medium;line-height:125%;font-family:'Open Sans Light';-inkscape-font-specification:'Open Sans Light';letter-spacing:0px;word-spacing:0px;fill:#999999;fill-opacity:1;stroke:none;opacity:0.3" /><path
     inkscape:connector-curvature="0"
     id="path5135"
     d="m 909.95288,455.40111 c -3.47359,3e-5 -6.20824,1.11157 -8.20396,3.33466 -1.99573,2.22309 -2.99359,5.26722 -2.99359,9.13234 0,3.95356 0.94102,7.02295 2.82307,9.20814 1.88204,2.1852 4.57248,3.2778 8.07133,3.2778 2.32413,0 4.4588,-0.29684 6.40402,-0.8905 l 0,1.70519 c -1.83154,0.6442 -4.11778,0.9663 -6.85874,0.9663 -3.89042,0 -6.95348,-1.2568 -9.18919,-3.77042 -2.23573,-2.5136 -3.35359,-6.02505 -3.35358,-10.53441 -10e-6,-2.81672 0.53366,-5.29875 1.601,-7.44608 1.06733,-2.14729 2.60202,-3.80512 4.60407,-4.97355 2.00203,-1.16833 4.32933,-1.75253 6.98189,-1.75256 2.70306,3e-5 5.12193,0.50526 7.25662,1.51573 l -0.77681,1.74312 c -2.02101,-1.01049 -4.14305,-1.51573 -6.36613,-1.51576 z"
     style="font-style:normal;font-variant:normal;font-weight:normal;font-stretch:normal;font-size:medium;line-height:125%;font-family:'Open Sans Light';-inkscape-font-specification:'Open Sans Light';letter-spacing:0px;word-spacing:0px;fill:#999999;fill-opacity:1;stroke:none;opacity:0.3" /><path
     inkscape:connector-curvature="0"
     id="path5137"
     d="m 940.8551,481.75611 -2.36835,0 -10.62915,-14.62693 -3.69462,3.25886 0,11.36807 -1.93258,0 0,-27.70023 1.93258,0 0,14.39956 3.06938,-3.06935 10.85651,-11.33021 2.46308,0 -11.34913,11.70914 z"
     style="font-style:normal;font-variant:normal;font-weight:normal;font-stretch:normal;font-size:medium;line-height:125%;font-family:'Open Sans Light';-inkscape-font-specification:'Open Sans Light';letter-spacing:0px;word-spacing:0px;fill:#999999;fill-opacity:1;stroke:none;opacity:0.3" /><path
     inkscape:connector-curvature="0"
     id="path5139"
     d="m 944.81499,454.05588 7.59766,0 c 3.42304,3e-5 5.93664,0.58107 7.54082,1.74313 1.60415,1.1621 2.40623,2.91783 2.40625,5.26719 -2e-5,1.60419 -0.48948,2.93992 -1.46838,4.00725 -0.97894,1.06737 -2.40942,1.7526 -4.29145,2.05573 l 0,0.11367 c 2.21044,0.32843 3.83671,1.02633 4.8788,2.09363 1.04205,1.06736 1.56309,2.55469 1.56311,4.46198 -2e-5,2.5515 -0.84631,4.51566 -2.53887,5.89245 -1.6926,1.3768 -4.09252,2.0652 -7.19978,2.0652 l -8.48816,0 z m 1.93257,12.33437 6.10087,0 c 2.60201,3e-5 4.49353,-0.4326 5.67456,-1.29786 1.181,-0.8652 1.77151,-2.2199 1.77153,-4.06406 -2e-5,-1.84416 -0.66632,-3.18306 -1.99889,-4.01672 -1.33261,-0.83363 -3.31886,-1.25047 -5.95877,-1.2505 l -5.5893,0 z m 0,1.70523 0,11.9554 6.5177,0 c 5.12824,3e-5 7.69237,-2.08413 7.69239,-6.25242 -2e-5,-3.80199 -2.70309,-5.70298 -8.10922,-5.70298 z"
     style="font-style:normal;font-variant:normal;font-weight:normal;font-stretch:normal;font-size:medium;line-height:125%;font-family:'Open Sans Light';-inkscape-font-specification:'Open Sans Light';letter-spacing:0px;word-spacing:0px;fill:#999999;fill-opacity:1;stroke:none;opacity:0.3" /><path
     inkscape:connector-curvature="0"
     id="path5141"
     d="m 992.42831,467.86811 c -10e-5,4.39566 -1.099,7.87238 -3.2968,10.43021 -2.1978,2.55782 -5.2293,3.83672 -9.0944,3.83672 -3.8526,0 -6.8777,-1.2789 -9.0756,-3.83672 -2.1978,-2.55783 -3.2967,-6.04719 -3.2967,-10.46811 0,-4.40825 1.1084,-7.87868 3.3252,-10.41127 2.2167,-2.53253 5.2451,-3.79879 9.085,-3.79882 3.8651,3e-5 6.8903,1.27263 9.0755,3.81779 2.1851,2.54519 3.2777,6.02191 3.2778,10.4302 z m -22.6604,0 c 0,3.96619 0.8842,7.03242 2.6526,9.19868 1.7683,2.16623 4.3072,3.24936 7.6166,3.24936 3.3346,0 5.8829,-1.07364 7.645,-3.22096 1.762,-2.1473 2.643,-5.22299 2.6431,-9.22708 -10e-5,-3.99145 -0.8811,-7.05135 -2.6431,-9.17974 -1.7621,-2.12833 -4.2978,-3.19249 -7.6071,-3.19252 -3.2968,3e-5 -5.8388,1.07369 -7.6261,3.22095 -1.7873,2.14733 -2.681,5.19776 -2.681,9.15131 z"
     style="font-style:normal;font-variant:normal;font-weight:normal;font-stretch:normal;font-size:medium;line-height:125%;font-family:'Open Sans Light';-inkscape-font-specification:'Open Sans Light';letter-spacing:0px;word-spacing:0px;fill:#999999;fill-opacity:1;stroke:none;opacity:0.3" /><path
     inkscape:connector-curvature="0"
     id="path5143"
     d="m 1018.9159,481.75611 -1.9515,0 -16.408,-24.59294 -0.1515,0 c 0.1515,2.93046 0.2273,5.14092 0.2273,6.63139 l 0,17.96155 -1.85679,0 0,-27.70023 1.93259,0 16.389,24.55507 0.1137,0 c -0.1137,-2.27363 -0.1706,-4.43355 -0.1706,-6.47982 l 0,-18.07525 1.8758,0 z"
     style="font-style:normal;font-variant:normal;font-weight:normal;font-stretch:normal;font-size:medium;line-height:125%;font-family:'Open Sans Light';-inkscape-font-specification:'Open Sans Light';letter-spacing:0px;word-spacing:0px;fill:#999999;fill-opacity:1;stroke:none;opacity:0.3" /><path
     inkscape:connector-curvature="0"
     id="path5145"
     d="m 1041.8794,481.75611 -15.1385,0 0,-27.70023 15.1385,0 0,1.78103 -13.2059,0 0,10.47757 12.467,0 0,1.781 -12.467,0 0,11.87963 13.2059,0 z"
     style="font-style:normal;font-variant:normal;font-weight:normal;font-stretch:normal;font-size:medium;line-height:125%;font-family:'Open Sans Light';-inkscape-font-specification:'Open Sans Light';letter-spacing:0px;word-spacing:0px;fill:#999999;fill-opacity:1;stroke:none;opacity:0.3" /><path
     inkscape:connector-curvature="0"
     id="path5147"
     d="m 1047.3361,480.27825 c 0,-1.23783 0.5052,-1.85677 1.5157,-1.85677 1.0358,0 1.5536,0.61894 1.5536,1.85677 0,1.23786 -0.5178,1.85679 -1.5536,1.85679 -1.0105,0 -1.5157,-0.61893 -1.5157,-1.85679 z"
     style="font-style:normal;font-variant:normal;font-weight:normal;font-stretch:normal;font-size:medium;line-height:125%;font-family:'Open Sans Light';-inkscape-font-specification:'Open Sans Light';letter-spacing:0px;word-spacing:0px;fill:#999999;fill-opacity:1;stroke:none;opacity:0.3" /><path
     inkscape:connector-curvature="0"
     id="path5149"
     d="m 1052.8875,488.74746 c -1.1621,0 -2.1158,-0.1705 -2.861,-0.51154 l 0,-1.66732 c 0.9852,0.2526 1.9263,0.37893 2.8231,0.37893 3.0567,0 4.5851,-1.66733 4.5851,-5.00196 l 0,-27.88969 1.9326,0 0,27.70023 c 0,4.66089 -2.16,6.99135 -6.4798,6.99135 z"
     style="font-style:normal;font-variant:normal;font-weight:normal;font-stretch:normal;font-size:medium;line-height:125%;font-family:'Open Sans Light';-inkscape-font-specification:'Open Sans Light';letter-spacing:0px;word-spacing:0px;fill:#999999;fill-opacity:1;stroke:none;opacity:0.3" /><path
     inkscape:connector-curvature="0"
     id="path5151"
     d="m 1082.3497,474.61316 c 0,2.31153 -0.8494,4.14306 -2.5483,5.49459 -1.6989,1.35153 -3.9567,2.02729 -6.7735,2.02729 -3.3851,0 -5.9809,-0.37263 -7.7871,-1.11786 l 0,-1.93256 c 1.9957,0.84629 4.5409,1.26943 7.6355,1.26943 2.2736,0 4.0768,-0.52104 5.4094,-1.5631 1.3325,-1.0421 1.9988,-2.40943 1.9988,-4.10199 0,-1.0484 -0.221,-1.91679 -0.6631,-2.60519 -0.4421,-0.6884 -1.1621,-1.3168 -2.1599,-1.8852 -0.9979,-0.5684 -2.4631,-1.181 -4.3957,-1.83786 -2.8294,-0.97256 -4.7841,-2.02413 -5.864,-3.15462 -1.08,-1.13047 -1.62,-2.63676 -1.62,-4.51883 0,-2.07149 0.8116,-3.76089 2.4347,-5.06825 1.6231,-1.3073 3.7104,-1.96096 6.2619,-1.96099 2.602,3e-5 5.0462,0.49263 7.3324,1.47786 l -0.701,1.6673 c -2.2989,-0.95994 -4.4967,-1.43994 -6.5935,-1.43997 -2.0463,3e-5 -3.6757,0.4737 -4.8883,1.42103 -1.2126,0.94736 -1.8189,2.23573 -1.8189,3.86513 0,1.02316 0.1863,1.86312 0.559,2.51992 0.3726,0.65687 0.982,1.24736 1.8283,1.77153 0.8463,0.52423 2.2989,1.15263 4.3578,1.88523 2.1599,0.74523 3.783,1.46836 4.8693,2.16939 1.0863,0.70103 1.8789,1.4968 2.3778,2.3873 0.499,0.89049 0.7484,1.96732 0.7484,3.23042 z"
     style="font-style:normal;font-variant:normal;font-weight:normal;font-stretch:normal;font-size:medium;line-height:125%;font-family:'Open Sans Light';-inkscape-font-specification:'Open Sans Light';letter-spacing:0px;word-spacing:0px;fill:#999999;fill-opacity:1;stroke:none;opacity:0.3" /><g
     id="g5241"
     transform="translate(-203.1417,209.36032)"
     style="opacity:0.3"><path
       id="path203-5"
       d="m 419.77931,179.20474 c -0.109,-0.23 -0.17,-0.471 -0.17,-0.711 l 0.17,0.711 z"
       pointer-events="none"
       style="fill:#8c3323"
       inkscape:connector-curvature="0" /><path
       id="path205-5"
       d="m 473.34931,179.20474 0.17,-0.711 c 0,0.241 -0.06,0.481 -0.17,0.711 z"
       pointer-events="none"
       style="fill:#8c3323"
       inkscape:connector-curvature="0" /><path
       id="path207-9"
       d="m 473.51931,176.18474 0,2.31 -0.17,0.711 0,-2.311 0.17,-0.71 z"
       pointer-events="none"
       style="fill:#8c3323"
       inkscape:connector-curvature="0" /><path
       id="path209-8"
       d="m 419.77931,176.89474 0,2.311 -0.17,-0.711 0,-2.31 0.17,0.71 z"
       pointer-events="none"
       style="fill:#8c3323"
       inkscape:connector-curvature="0" /><path
       id="path211-8"
       d="m 473.51931,171.77474 0,2.31 c 0,0.08 -0.01,0.17 -0.03,0.25 l 0,-2.31 c 0.02,-0.09 0.03,-0.17 0.03,-0.25"
       pointer-events="none"
       style="fill:#8c3323"
       inkscape:connector-curvature="0" /><path
       id="path213-9"
       d="m 473.48931,172.02474 0,2.31 c -0.01,0.101 -0.04,0.201 -0.069,0.301 l 0,-2.32 c 0.029,-0.101 0.059,-0.191 0.069,-0.291"
       pointer-events="none"
       style="fill:#8c3323"
       inkscape:connector-curvature="0" /><path
       id="path215-0"
       d="m 473.42031,172.31474 0,2.32 c -0.051,0.119 -0.11,0.25 -0.19,0.39 l 0,-2.31 c 0.079,-0.131 0.139,-0.26 0.19,-0.4"
       pointer-events="none"
       style="fill:#8c3323"
       inkscape:connector-curvature="0" /><path
       id="path217-5"
       d="m 473.22931,172.71474 0,2.31 c -1.92,3.09 -13.13,5.45 -26.67,5.45 -14.88,0 -26.95,-2.86 -26.95,-6.391 l 0,-2.31 c 0,3.54 12.07,6.38 26.95,6.38 13.54,0.001 24.75,-2.349 26.67,-5.439"
       pointer-events="none"
       style="fill:#8c3323"
       inkscape:connector-curvature="0" /><path
       id="path219-1"
       d="m 473.51931,171.77474 0,2.31 c 0,3.53 -12.07,6.391 -26.96,6.391 -14.88,0 -26.95,-2.86 -26.95,-6.391 l 0,-2.31 c 0,3.54 12.07,6.38 26.95,6.38 14.89,0 26.96,-2.84 26.96,-6.38 z"
       pointer-events="none"
       style="fill:#8c3323"
       inkscape:connector-curvature="0" /><path
       id="path221-8"
       d="m 446.55931,165.39474 c 14.89,0 26.96,2.859 26.96,6.38 0,3.54 -12.07,6.39 -26.96,6.39 -14.88,0 -26.95,-2.85 -26.95,-6.39 0,-3.521 12.07,-6.38 26.95,-6.38 z"
       pointer-events="none"
       style="fill:#e15343"
       inkscape:connector-curvature="0" /><path
       id="path223-5"
       d="m 473.34931,176.89474 0,2.311 -8.811,37.93 0,-2.3 8.811,-37.941 z"
       pointer-events="none"
       style="fill:#8c3323"
       inkscape:connector-curvature="0" /><path
       id="path225-4"
       d="m 428.59931,214.83474 0,2.3 -8.82,-37.93 0,-2.311 8.82,37.941 z"
       pointer-events="none"
       style="fill:#8c3323"
       inkscape:connector-curvature="0" /><path
       id="path227-6"
       d="m 464.53931,214.83474 0,2.3 c 0,0.06 -0.01,0.12 -0.02,0.18 l 0,-2.32 c 0.01,-0.06 0.02,-0.1 0.02,-0.16"
       pointer-events="none"
       style="fill:#8c3323"
       inkscape:connector-curvature="0" /><path
       id="path229-9"
       d="m 464.51931,214.99474 0,2.32 c 0,0.06 -0.02,0.12 -0.04,0.19 l 0,-2.32 c 0.01,-0.061 0.04,-0.13 0.04,-0.19"
       pointer-events="none"
       style="fill:#8c3323"
       inkscape:connector-curvature="0" /><path
       id="path231-1"
       d="m 464.47931,215.18474 0,2.32 c -0.04,0.09 -0.08,0.18 -0.14,0.27 l 0,-2.32 c 0.06,-0.09 0.1,-0.18 0.14,-0.27"
       pointer-events="none"
       style="fill:#8c3323"
       inkscape:connector-curvature="0" /><path
       id="path233-4"
       d="m 464.33931,215.45374 0,2.32 c -1.271,2.05 -8.74,3.62 -17.78,3.62 -9.931,0 -17.96,-1.9 -17.96,-4.26 l 0,-2.3 c 0,2.35 8.029,4.25 17.96,4.25 9.04,0.001 16.51,-1.569 17.78,-3.63"
       pointer-events="none"
       style="fill:#8c3323"
       inkscape:connector-curvature="0" /><path
       id="path235-6"
       d="m 464.53931,214.83474 0,2.3 c 0,2.359 -8.05,4.26 -17.979,4.26 -9.931,0 -17.96,-1.9 -17.96,-4.26 l 0,-2.3 c 0,2.35 8.029,4.25 17.96,4.25 9.929,0 17.979,-1.9 17.979,-4.25 z"
       pointer-events="none"
       style="fill:#8c3323"
       inkscape:connector-curvature="0" /><path
       id="path237-8"
       d="m 446.55931,182.56474 c 13.88,0 25.31,-2.47 26.79,-5.67 l -8.811,37.94 c 0,2.35 -8.05,4.25 -17.979,4.25 -9.931,0 -17.96,-1.9 -17.96,-4.25 l -8.82,-37.94 c 1.49,3.2 12.91,5.67 26.78,5.67 z"
       pointer-events="none"
       style="fill:#e15343"
       inkscape:connector-curvature="0" /><path
       id="path239-1"
       d="m 473.57931,176.17474 c 0.011,0.04 0.021,0.079 0.03,0.11 l -0.01,-0.061 c -0.01,-0.019 -0.02,-0.029 -0.02,-0.049 z"
       pointer-events="none"
       style="fill:#146eb4"
       inkscape:connector-curvature="0" /><path
       id="path241"
       d="m 473.54831,176.09474 c -0.02,-0.06 -0.039,-0.13 -0.06,-0.2 0.012,0.07 0.041,0.141 0.06,0.2 z"
       pointer-events="none"
       style="fill:#146eb4"
       inkscape:connector-curvature="0" /></g><g
     transform="translate(159.61134,209.36032)"
     id="g5263"
     style="opacity:0.3"><path
       inkscape:connector-curvature="0"
       style="fill:#8c3323"
       pointer-events="none"
       d="m 419.77931,179.20474 c -0.109,-0.23 -0.17,-0.471 -0.17,-0.711 l 0.17,0.711 z"
       id="path5265" /><path
       inkscape:connector-curvature="0"
       style="fill:#8c3323"
       pointer-events="none"
       d="m 473.34931,179.20474 0.17,-0.711 c 0,0.241 -0.06,0.481 -0.17,0.711 z"
       id="path5267" /><path
       inkscape:connector-curvature="0"
       style="fill:#8c3323"
       pointer-events="none"
       d="m 473.51931,176.18474 0,2.31 -0.17,0.711 0,-2.311 0.17,-0.71 z"
       id="path5269" /><path
       inkscape:connector-curvature="0"
       style="fill:#8c3323"
       pointer-events="none"
       d="m 419.77931,176.89474 0,2.311 -0.17,-0.711 0,-2.31 0.17,0.71 z"
       id="path5271" /><path
       inkscape:connector-curvature="0"
       style="fill:#8c3323"
       pointer-events="none"
       d="m 473.51931,171.77474 0,2.31 c 0,0.08 -0.01,0.17 -0.03,0.25 l 0,-2.31 c 0.02,-0.09 0.03,-0.17 0.03,-0.25"
       id="path5273" /><path
       inkscape:connector-curvature="0"
       style="fill:#8c3323"
       pointer-events="none"
       d="m 473.48931,172.02474 0,2.31 c -0.01,0.101 -0.04,0.201 -0.069,0.301 l 0,-2.32 c 0.029,-0.101 0.059,-0.191 0.069,-0.291"
       id="path5275" /><path
       inkscape:connector-curvature="0"
       style="fill:#8c3323"
       pointer-events="none"
       d="m 473.42031,172.31474 0,2.32 c -0.051,0.119 -0.11,0.25 -0.19,0.39 l 0,-2.31 c 0.079,-0.131 0.139,-0.26 0.19,-0.4"
       id="path5277" /><path
       inkscape:connector-curvature="0"
       style="fill:#8c3323"
       pointer-events="none"
       d="m 473.22931,172.71474 0,2.31 c -1.92,3.09 -13.13,5.45 -26.67,5.45 -14.88,0 -26.95,-2.86 -26.95,-6.391 l 0,-2.31 c 0,3.54 12.07,6.38 26.95,6.38 13.54,0.001 24.75,-2.349 26.67,-5.439"
       id="path5279" /><path
       inkscape:connector-curvature="0"
       style="fill:#8c3323"
       pointer-events="none"
       d="m 473.51931,171.77474 0,2.31 c 0,3.53 -12.07,6.391 -26.96,6.391 -14.88,0 -26.95,-2.86 -26.95,-6.391 l 0,-2.31 c 0,3.54 12.07,6.38 26.95,6.38 14.89,0 26.96,-2.84 26.96,-6.38 z"
       id="path5281" /><path
       inkscape:connector-curvature="0"
       style="fill:#e15343"
       pointer-events="none"
       d="m 446.55931,165.39474 c 14.89,0 26.96,2.859 26.96,6.38 0,3.54 -12.07,6.39 -26.96,6.39 -14.88,0 -26.95,-2.85 -26.95,-6.39 0,-3.521 12.07,-6.38 26.95,-6.38 z"
       id="path5283" /><path
       inkscape:connector-curvature="0"
       style="fill:#8c3323"
       pointer-events="none"
       d="m 473.34931,176.89474 0,2.311 -8.811,37.93 0,-2.3 8.811,-37.941 z"
       id="path5285" /><path
       inkscape:connector-curvature="0"
       style="fill:#8c3323"
       pointer-events="none"
       d="m 428.59931,214.83474 0,2.3 -8.82,-37.93 0,-2.311 8.82,37.941 z"
       id="path5287" /><path
       inkscape:connector-curvature="0"
       style="fill:#8c3323"
       pointer-events="none"
       d="m 464.53931,214.83474 0,2.3 c 0,0.06 -0.01,0.12 -0.02,0.18 l 0,-2.32 c 0.01,-0.06 0.02,-0.1 0.02,-0.16"
       id="path5289" /><path
       inkscape:connector-curvature="0"
       style="fill:#8c3323"
       pointer-events="none"
       d="m 464.51931,214.99474 0,2.32 c 0,0.06 -0.02,0.12 -0.04,0.19 l 0,-2.32 c 0.01,-0.061 0.04,-0.13 0.04,-0.19"
       id="path5291" /><path
       inkscape:connector-curvature="0"
       style="fill:#8c3323"
       pointer-events="none"
       d="m 464.47931,215.18474 0,2.32 c -0.04,0.09 -0.08,0.18 -0.14,0.27 l 0,-2.32 c 0.06,-0.09 0.1,-0.18 0.14,-0.27"
       id="path5293" /><path
       inkscape:connector-curvature="0"
       style="fill:#8c3323"
       pointer-events="none"
       d="m 464.33931,215.45374 0,2.32 c -1.271,2.05 -8.74,3.62 -17.78,3.62 -9.931,0 -17.96,-1.9 -17.96,-4.26 l 0,-2.3 c 0,2.35 8.029,4.25 17.96,4.25 9.04,0.001 16.51,-1.569 17.78,-3.63"
       id="path5295" /><path
       inkscape:connector-curvature="0"
       style="fill:#8c3323"
       pointer-events="none"
       d="m 464.53931,214.83474 0,2.3 c 0,2.359 -8.05,4.26 -17.979,4.26 -9.931,0 -17.96,-1.9 -17.96,-4.26 l 0,-2.3 c 0,2.35 8.029,4.25 17.96,4.25 9.929,0 17.979,-1.9 17.979,-4.25 z"
       id="path5297" /><path
       inkscape:connector-curvature="0"
       style="fill:#e15343"
       pointer-events="none"
       d="m 446.55931,182.56474 c 13.88,0 25.31,-2.47 26.79,-5.67 l -8.811,37.94 c 0,2.35 -8.05,4.25 -17.979,4.25 -9.931,0 -17.96,-1.9 -17.96,-4.25 l -8.82,-37.94 c 1.49,3.2 12.91,5.67 26.78,5.67 z"
       id="path5299" /><path
       inkscape:connector-curvature="0"
       style="fill:#146eb4"
       pointer-events="none"
       d="m 473.57931,176.17474 c 0.011,0.04 0.021,0.079 0.03,0.11 l -0.01,-0.061 c -0.01,-0.019 -0.02,-0.029 -0.02,-0.049 z"
       id="path5301" /><path
       inkscape:connector-curvature="0"
       style="fill:#146eb4"
       pointer-events="none"
       d="m 473.54831,176.09474 c -0.02,-0.06 -0.039,-0.13 -0.06,-0.2 0.012,0.07 0.041,0.141 0.06,0.2 z"
       id="path5303" /></g><g
     id="g5305"
     transform="translate(505.78138,209.36032)"
     style="opacity:0.3"><path
       id="path5307"
       d="m 419.77931,179.20474 c -0.109,-0.23 -0.17,-0.471 -0.17,-0.711 l 0.17,0.711 z"
       pointer-events="none"
       style="fill:#8c3323"
       inkscape:connector-curvature="0" /><path
       id="path5309"
       d="m 473.34931,179.20474 0.17,-0.711 c 0,0.241 -0.06,0.481 -0.17,0.711 z"
       pointer-events="none"
       style="fill:#8c3323"
       inkscape:connector-curvature="0" /><path
       id="path5311"
       d="m 473.51931,176.18474 0,2.31 -0.17,0.711 0,-2.311 0.17,-0.71 z"
       pointer-events="none"
       style="fill:#8c3323"
       inkscape:connector-curvature="0" /><path
       id="path5313"
       d="m 419.77931,176.89474 0,2.311 -0.17,-0.711 0,-2.31 0.17,0.71 z"
       pointer-events="none"
       style="fill:#8c3323"
       inkscape:connector-curvature="0" /><path
       id="path5315"
       d="m 473.51931,171.77474 0,2.31 c 0,0.08 -0.01,0.17 -0.03,0.25 l 0,-2.31 c 0.02,-0.09 0.03,-0.17 0.03,-0.25"
       pointer-events="none"
       style="fill:#8c3323"
       inkscape:connector-curvature="0" /><path
       id="path5317"
       d="m 473.48931,172.02474 0,2.31 c -0.01,0.101 -0.04,0.201 -0.069,0.301 l 0,-2.32 c 0.029,-0.101 0.059,-0.191 0.069,-0.291"
       pointer-events="none"
       style="fill:#8c3323"
       inkscape:connector-curvature="0" /><path
       id="path5319"
       d="m 473.42031,172.31474 0,2.32 c -0.051,0.119 -0.11,0.25 -0.19,0.39 l 0,-2.31 c 0.079,-0.131 0.139,-0.26 0.19,-0.4"
       pointer-events="none"
       style="fill:#8c3323"
       inkscape:connector-curvature="0" /><path
       id="path5321"
       d="m 473.22931,172.71474 0,2.31 c -1.92,3.09 -13.13,5.45 -26.67,5.45 -14.88,0 -26.95,-2.86 -26.95,-6.391 l 0,-2.31 c 0,3.54 12.07,6.38 26.95,6.38 13.54,0.001 24.75,-2.349 26.67,-5.439"
       pointer-events="none"
       style="fill:#8c3323"
       inkscape:connector-curvature="0" /><path
       id="path5323"
       d="m 473.51931,171.77474 0,2.31 c 0,3.53 -12.07,6.391 -26.96,6.391 -14.88,0 -26.95,-2.86 -26.95,-6.391 l 0,-2.31 c 0,3.54 12.07,6.38 26.95,6.38 14.89,0 26.96,-2.84 26.96,-6.38 z"
       pointer-events="none"
       style="fill:#8c3323"
       inkscape:connector-curvature="0" /><path
       id="path5325"
       d="m 446.55931,165.39474 c 14.89,0 26.96,2.859 26.96,6.38 0,3.54 -12.07,6.39 -26.96,6.39 -14.88,0 -26.95,-2.85 -26.95,-6.39 0,-3.521 12.07,-6.38 26.95,-6.38 z"
       pointer-events="none"
       style="fill:#e15343"
       inkscape:connector-curvature="0" /><path
       id="path5327"
       d="m 473.34931,176.89474 0,2.311 -8.811,37.93 0,-2.3 8.811,-37.941 z"
       pointer-events="none"
       style="fill:#8c3323"
       inkscape:connector-curvature="0" /><path
       id="path5329"
       d="m 428.59931,214.83474 0,2.3 -8.82,-37.93 0,-2.311 8.82,37.941 z"
       pointer-events="none"
       style="fill:#8c3323"
       inkscape:connector-curvature="0" /><path
       id="path5331"
       d="m 464.53931,214.83474 0,2.3 c 0,0.06 -0.01,0.12 -0.02,0.18 l 0,-2.32 c 0.01,-0.06 0.02,-0.1 0.02,-0.16"
       pointer-events="none"
       style="fill:#8c3323"
       inkscape:connector-curvature="0" /><path
       id="path5333"
       d="m 464.51931,214.99474 0,2.32 c 0,0.06 -0.02,0.12 -0.04,0.19 l 0,-2.32 c 0.01,-0.061 0.04,-0.13 0.04,-0.19"
       pointer-events="none"
       style="fill:#8c3323"
       inkscape:connector-curvature="0" /><path
       id="path5335"
       d="m 464.47931,215.18474 0,2.32 c -0.04,0.09 -0.08,0.18 -0.14,0.27 l 0,-2.32 c 0.06,-0.09 0.1,-0.18 0.14,-0.27"
       pointer-events="none"
       style="fill:#8c3323"
       inkscape:connector-curvature="0" /><path
       id="path5337"
       d="m 464.33931,215.45374 0,2.32 c -1.271,2.05 -8.74,3.62 -17.78,3.62 -9.931,0 -17.96,-1.9 -17.96,-4.26 l 0,-2.3 c 0,2.35 8.029,4.25 17.96,4.25 9.04,0.001 16.51,-1.569 17.78,-3.63"
       pointer-events="none"
       style="fill:#8c3323"
       inkscape:connector-curvature="0" /><path
       id="path5339"
       d="m 464.53931,214.83474 0,2.3 c 0,2.359 -8.05,4.26 -17.979,4.26 -9.931,0 -17.96,-1.9 -17.96,-4.26 l 0,-2.3 c 0,2.35 8.029,4.25 17.96,4.25 9.929,0 17.979,-1.9 17.979,-4.25 z"
       pointer-events="none"
       style="fill:#8c3323"
       inkscape:connector-curvature="0" /><path
       id="path5341"
       d="m 446.55931,182.56474 c 13.88,0 25.31,-2.47 26.79,-5.67 l -8.811,37.94 c 0,2.35 -8.05,4.25 -17.979,4.25 -9.931,0 -17.96,-1.9 -17.96,-4.25 l -8.82,-37.94 c 1.49,3.2 12.91,5.67 26.78,5.67 z"
       pointer-events="none"
       style="fill:#e15343"
       inkscape:connector-curvature="0" /><path
       id="path5343"
       d="m 473.57931,176.17474 c 0.011,0.04 0.021,0.079 0.03,0.11 l -0.01,-0.061 c -0.01,-0.019 -0.02,-0.029 -0.02,-0.049 z"
       pointer-events="none"
       style="fill:#146eb4"
       inkscape:connector-curvature="0" /><path
       id="path5345"
       d="m 473.54831,176.09474 c -0.02,-0.06 -0.039,-0.13 -0.06,-0.2 0.012,0.07 0.041,0.141 0.06,0.2 z"
       pointer-events="none"
       style="fill:#146eb4"
       inkscape:connector-curvature="0" /></g></svg>