<?xml version="1.0" encoding="UTF-8" standalone="no"?>
<!-- Generator: Adobe Illustrator 13.0.0, SVG Export Plug-In . SVG Version: 6.00 Build 14948)  -->

<svg
   xmlns:dc="http://purl.org/dc/elements/1.1/"
   xmlns:cc="http://creativecommons.org/ns#"
   xmlns:rdf="http://www.w3.org/1999/02/22-rdf-syntax-ns#"
   xmlns:svg="http://www.w3.org/2000/svg"
   xmlns="http://www.w3.org/2000/svg"
   xmlns:sodipodi="http://sodipodi.sourceforge.net/DTD/sodipodi-0.dtd"
   xmlns:inkscape="http://www.inkscape.org/namespaces/inkscape"
   version="1.1"
   id="Layer_1"
   x="0px"
   y="0px"
   width="1280"
   height="720"
   viewBox="-68.5 -68.5 1280 720"
   enable-background="new -68.5 -68.5 397.5 673.5"
   xml:space="preserve"
   inkscape:version="0.91 r13725"
   sodipodi:docname="api-server-rails.svg"><metadata
     id="metadata467"><rdf:RDF><cc:Work
         rdf:about=""><dc:format>image/svg+xml</dc:format><dc:type
           rdf:resource="http://purl.org/dc/dcmitype/StillImage" /><dc:title></dc:title></cc:Work></rdf:RDF></metadata><defs
     id="defs465"><linearGradient
       id="path3947_1_"
       gradientUnits="userSpaceOnUse"
       x1="-141.9691"
       y1="1281.4927"
       x2="-113.5241"
       y2="1296.3914"
       gradientTransform="matrix(1,0,0,-1,563.0854,1821.0303)"><stop
         offset="0"
         style="stop-color:#FFFFFF"
         id="stop293" /><stop
         offset="1"
         style="stop-color:#C0815E"
         id="stop295" /></linearGradient><radialGradient
       id="path3934_1_"
       cx="-158.7982"
       cy="1311.4702"
       r="48.529598"
       gradientTransform="matrix(1,0,0,-1.5817,563.0854,2630.5657)"
       gradientUnits="userSpaceOnUse"><stop
         offset="0"
         style="stop-color:#FFFFFF"
         id="stop300" /><stop
         offset="1"
         style="stop-color:#A94436"
         id="stop302" /></radialGradient></defs><sodipodi:namedview
     pagecolor="#000000"
     bordercolor="#666666"
     borderopacity="1"
     objecttolerance="10"
     gridtolerance="10"
     guidetolerance="10"
     inkscape:pageopacity="0"
     inkscape:pageshadow="2"
     inkscape:window-width="1373"
     inkscape:window-height="892"
     id="namedview463"
     showgrid="false"
     inkscape:zoom="0.95833333"
     inkscape:cx="640"
     inkscape:cy="360"
     inkscape:window-x="208"
     inkscape:window-y="130"
     inkscape:window-maximized="0"
     inkscape:current-layer="Layer_1"
     showguides="true"
     inkscape:guide-bbox="true" /><g
     id="g3519"
     transform="matrix(0.78084732,0,0,0.78084732,250.00357,8.1558314)"><g
       transform="matrix(1.554182,0,0,1.554182,-265.75133,-50.395158)"
       id="g4613"><rect
         style="fill:#9d5125"
         x="569.14624"
         y="233.87169"
         pointer-events="none"
         width="4.5300002"
         height="2.5599999"
         id="rect61" /><rect
         style="fill:#9d5125"
         x="588.90625"
         y="233.87169"
         pointer-events="none"
         width="4.5209999"
         height="2.5599999"
         id="rect63" /><path
         inkscape:connector-curvature="0"
         style="fill:#9d5125"
         pointer-events="none"
         d="m 588.90624,242.09169 0,2.562 -6.119,6.33 0,-2.57 6.119,-6.322 z"
         id="path65" /><path
         inkscape:connector-curvature="0"
         style="fill:#9d5125"
         pointer-events="none"
         d="m 580.06624,248.41169 0,2.57 -6.39,-6.53 0,-2.57 6.39,6.53 z"
         id="path67" /><rect
         style="fill:#9d5125"
         x="600.39624"
         y="254.36169"
         pointer-events="none"
         width="10.49"
         height="2.5699999"
         id="rect69" /><rect
         style="fill:#9d5125"
         x="551.88623"
         y="254.36169"
         pointer-events="none"
         width="10.49"
         height="2.5699999"
         id="rect71" /><path
         inkscape:connector-curvature="0"
         style="fill:#9d5125"
         pointer-events="none"
         d="m 600.39624,260.50169 0,2.57 -12.32,-12.15 0,-2.57 12.32,12.15 z"
         id="path73" /><path
         inkscape:connector-curvature="0"
         style="fill:#f48334"
         pointer-events="none"
         d="m 562.37624,236.34169 12.32,12.14 -12.32,12.02 0,-6.14 -10.49,0 0,-11.89 10.49,0 0,-6.13 z"
         id="path75" /><path
         inkscape:connector-curvature="0"
         style="fill:#9d5125"
         pointer-events="none"
         d="m 574.69624,248.48169 0,2.57 -12.32,12.021 0,-2.57 12.32,-12.021 z"
         id="path77" /><path
         inkscape:connector-curvature="0"
         style="fill:#f48334"
         pointer-events="none"
         d="m 600.39624,236.34169 0,6.14 10.49,0 0,11.88 -10.49,0 0,6.14 -12.32,-12.15 12.32,-12.01 z"
         id="path79" /><path
         inkscape:connector-curvature="0"
         style="fill:#9d5125"
         pointer-events="none"
         d="m 593.43624,263.81169 0,2.57 -12.21,12.24 -0.57,-3.14 12.78,-11.67 z"
         id="path81" /><path
         inkscape:connector-curvature="0"
         style="fill:#9d5125"
         pointer-events="none"
         d="m 581.22624,276.06169 0,2.56 -12.08,-12.24 0,-2.57 12.08,12.25 z"
         id="path83" /><path
         inkscape:connector-curvature="0"
         style="fill:#f48334"
         pointer-events="none"
         d="m 581.35624,221.62169 12.08,12.25 -4.53,0 0,8.22 -6.119,6.32 6.119,6.5 0,8.9 4.53,0 -12.21,12.25 -12.08,-12.25 4.53,0 0,-8.8 6.39,-6.6 -6.39,-6.53 0,-8.01 -4.53,0 12.21,-12.25 z"
         id="path85" /></g><g
       transform="matrix(1.658642,0,0,1.658642,-349.43806,76.093238)"
       id="g4582"><path
         inkscape:connector-curvature="0"
         style="fill:#9d5025"
         pointer-events="none"
         d="m 492.50624,182.92169 0,2.7 -23.71,0 -0.99,-3.54 24.7,0.84 z"
         id="path145" /><path
         inkscape:connector-curvature="0"
         style="fill:#9d5025"
         pointer-events="none"
         d="m 473.55624,137.34169 0,2.69 -17.63,0 -2.47,-3.4 20.1,0.71 z"
         id="path147" /><path
         inkscape:connector-curvature="0"
         style="fill:#9d5025"
         pointer-events="none"
         d="m 455.92624,137.34169 0,2.69 c -0.97,0 -1.83,0.56 -2.26,1.36 l 0,-2.7 c 0.43,-0.8 1.29,-1.35 2.26,-1.35"
         id="path149" /><path
         inkscape:connector-curvature="0"
         style="fill:#9d5025"
         pointer-events="none"
         d="m 453.66624,138.69169 0,2.7 c -0.08,0.14 -0.15,0.29 -0.2,0.45 l 0,-2.688 c 0.05,-0.162 0.12,-0.312 0.2,-0.462"
         id="path151" /><path
         inkscape:connector-curvature="0"
         style="fill:#9d5025"
         pointer-events="none"
         d="m 453.46624,139.15169 0,2.688 c -0.04,0.14 -0.08,0.271 -0.1,0.41 l 0,-2.69 c 0.02,-0.138 0.06,-0.278 0.1,-0.408"
         id="path153" /><path
         inkscape:connector-curvature="0"
         style="fill:#9d5025"
         pointer-events="none"
         d="m 453.36624,139.56169 0,2.7 c -0.02,0.11 -0.02,0.24 -0.02,0.36 l 0,-2.69 c 0,-0.13 0.01,-0.25 0.02,-0.37"
         id="path155" /><path
         inkscape:connector-curvature="0"
         style="fill:#9d5025"
         pointer-events="none"
         d="m 455.92624,137.34169 0,2.69 c -1.42,0 -2.58,1.17 -2.58,2.59 l 0,-2.69 c 0,-1.42 1.16,-2.59 2.58,-2.59 z"
         id="path157" /><path
         inkscape:connector-curvature="0"
         style="fill:#9d5025"
         pointer-events="none"
         d="m 484.15624,149.80169 0,2.69 -17.81,0 -1.51,-3.07 19.32,0.38 z"
         id="path159" /><path
         inkscape:connector-curvature="0"
         style="fill:#9d5025"
         pointer-events="none"
         d="m 466.52624,149.80169 0,2.69 c -0.97,0 -1.82,0.55 -2.25,1.35 l 0,-2.7 c 0.43,-0.8 1.28,-1.34 2.25,-1.34"
         id="path161" /><path
         inkscape:connector-curvature="0"
         style="fill:#9d5025"
         pointer-events="none"
         d="m 464.27624,151.14169 0,2.7 c -0.08,0.14 -0.15,0.3 -0.2,0.45 l 0,-2.69 c 0.05,-0.16 0.12,-0.31 0.2,-0.46"
         id="path163" /><path
         inkscape:connector-curvature="0"
         style="fill:#9d5025"
         pointer-events="none"
         d="m 464.07624,151.60169 0,2.69 c -0.04,0.14 -0.08,0.28 -0.1,0.43 l 0,-2.7 c 0.02,-0.14 0.06,-0.28 0.1,-0.42"
         id="path165" /><path
         inkscape:connector-curvature="0"
         style="fill:#9d5025"
         pointer-events="none"
         d="m 463.97624,152.02169 0,2.7 c -0.02,0.12 -0.03,0.24 -0.03,0.37 l 0,-2.688 c 0,-0.132 0.01,-0.262 0.03,-0.382"
         id="path167" /><path
         inkscape:connector-curvature="0"
         style="fill:#9d5025"
         pointer-events="none"
         d="m 466.52624,149.80169 0,2.69 c -1.42,0 -2.58,1.17 -2.58,2.6 l 0,-2.688 c 0,-1.442 1.16,-2.602 2.58,-2.602 z"
         id="path169" /><path
         inkscape:connector-curvature="0"
         style="fill:#9d5025"
         pointer-events="none"
         d="m 453.34624,157.94169 0,2.688 -5.89,0 -0.92,-3.27 6.81,0.582 z"
         id="path171" /><path
         inkscape:connector-curvature="0"
         style="fill:#9d5025"
         pointer-events="none"
         d="m 447.45624,157.94169 0,2.688 c -1.41,0 -2.57,-1.15 -2.57,-2.58 l 0,-2.68 c 0,1.432 1.16,2.572 2.57,2.572"
         id="path173" /><path
         inkscape:connector-curvature="0"
         style="fill:#9d5025"
         pointer-events="none"
         d="m 447.45624,157.94169 0,2.688 c -1.41,0 -2.57,-1.15 -2.57,-2.58 l 0,-2.68 c 0,1.432 1.16,2.572 2.57,2.572 z"
         id="path175" /><rect
         style="fill:#9d5025"
         x="457.87625"
         y="170.40169"
         pointer-events="none"
         width="6.0700002"
         height="2.7"
         id="rect177" /><path
         inkscape:connector-curvature="0"
         style="fill:#9d5025"
         pointer-events="none"
         d="m 458.06624,170.40169 0,2.688 c -1.42,0 -2.57,-1.149 -2.57,-2.58 l 0,-2.7 c 0,1.432 1.15,2.592 2.57,2.592"
         id="path179" /><path
         inkscape:connector-curvature="0"
         style="fill:#9d5025"
         pointer-events="none"
         d="m 458.06624,170.40169 0,2.688 c -1.42,0 -2.57,-1.149 -2.57,-2.58 l 0,-2.7 c 0,1.432 1.15,2.592 2.57,2.592 z"
         id="path181" /><path
         inkscape:connector-curvature="0"
         style="fill:#9d5125"
         pointer-events="none"
         d="m 468.79624,182.92169 0,2.7 c -1.42,0 -2.57,-1.17 -2.57,-2.59 l 0,-2.69 c 0,1.42 1.15,2.58 2.57,2.58"
         id="path183" /><path
         inkscape:connector-curvature="0"
         style="fill:#9d5125"
         pointer-events="none"
         d="m 468.79624,182.92169 0,2.7 c -1.42,0 -2.57,-1.17 -2.57,-2.59 l 0,-2.69 c 0,1.42 1.15,2.58 2.57,2.58 z"
         id="path185" /><path
         inkscape:connector-curvature="0"
         style="fill:#9d5025"
         pointer-events="none"
         d="m 494.88624,180.34169 0,2.69 c 0,0.13 -0.01,0.25 -0.03,0.37 l 0,-2.69 c 0.02,-0.12 0.03,-0.25 0.03,-0.37"
         id="path187" /><path
         inkscape:connector-curvature="0"
         style="fill:#9d5025"
         pointer-events="none"
         d="m 494.85624,180.71169 0,2.69 c -0.02,0.14 -0.05,0.28 -0.09,0.42 l 0,-2.7 c 0.04,-0.13 0.07,-0.27 0.09,-0.41"
         id="path189" /><path
         inkscape:connector-curvature="0"
         style="fill:#9d5025"
         pointer-events="none"
         d="m 494.76624,181.12169 0,2.7 c -0.05,0.16 -0.12,0.31 -0.2,0.45 l 0,-2.69 c 0.08,-0.15 0.15,-0.3 0.2,-0.46"
         id="path191" /><path
         inkscape:connector-curvature="0"
         style="fill:#9d5025"
         pointer-events="none"
         d="m 494.56624,181.58169 0,2.69 c -0.43,0.8 -1.27,1.35 -2.24,1.35 l 0,-2.7 c 0.97,0 1.81,-0.54 2.24,-1.34"
         id="path193" /><path
         inkscape:connector-curvature="0"
         style="fill:#9d5025"
         pointer-events="none"
         d="m 494.88624,180.34169 0,2.69 c 0,1.42 -1.15,2.59 -2.56,2.59 l 0,-2.7 c 1.41,0 2.56,-1.16 2.56,-2.58 z"
         id="path195" /><path
         inkscape:connector-curvature="0"
         style="fill:#f58536"
         pointer-events="none"
         d="m 470.98624,128.62169 c 1.42,0 2.57,1.15 2.57,2.58 l 0,6.14 -17.63,0 c -1.42,0 -2.58,1.17 -2.58,2.59 l 0,18.01 -5.89,0 c -1.41,0 -2.57,-1.141 -2.57,-2.57 l 0,-24.17 c 0,-1.43 1.16,-2.58 2.57,-2.58 l 23.53,0 z"
         id="path197" /><path
         inkscape:connector-curvature="0"
         style="fill:#f58536"
         pointer-events="none"
         d="m 481.59624,141.08169 c 1.41,0 2.56,1.16 2.56,2.58 l 0,6.14 -17.63,0 c -1.42,0 -2.58,1.16 -2.58,2.6 l 0,18 -5.88,0 c -1.42,0 -2.58,-1.16 -2.58,-2.59 l 0,-24.15 c 0,-1.42 1.16,-2.58 2.58,-2.58 l 23.53,0 z"
         id="path199" /><path
         inkscape:connector-curvature="0"
         style="fill:#f58536"
         pointer-events="none"
         d="m 492.32624,153.60169 c 1.41,0 2.56,1.16 2.56,2.57 l 0,24.17 c 0,1.42 -1.15,2.58 -2.56,2.58 l -23.53,0 c -1.42,0 -2.57,-1.16 -2.57,-2.58 l 0,-24.17 c 0,-1.41 1.15,-2.57 2.57,-2.57 l 23.53,0 z"
         id="path201" /></g><g
       transform="matrix(1.554182,0,0,1.554182,-365.48455,-89.097602)"
       id="g4628"><path
         inkscape:connector-curvature="0"
         style="fill:#f58435"
         pointer-events="none"
         d="m 600.52724,357.82169 -29.15,9.149 0,-48.849 29.15,9.16 0,30.54 z"
         id="path203" /><path
         inkscape:connector-curvature="0"
         style="fill:#f58435"
         pointer-events="none"
         d="m 563.24624,359.51269 -6.57,1.27 0,-36.32 6.57,1.27 0,33.78 z"
         id="path205" /><path
         inkscape:connector-curvature="0"
         style="fill:#f58435"
         pointer-events="none"
         d="m 571.37624,361.62169 -8.13,1.98 0,-41.96 8.13,1.98 0,38 z"
         id="path207" /><path
         inkscape:connector-curvature="0"
         style="fill:#9d5025"
         pointer-events="none"
         d="m 567.10624,319.95169 4.271,-1.83 0,49 -4.271,-1.83 0,-45.34 z"
         id="path209" /><path
         inkscape:connector-curvature="0"
         style="fill:#9d5025"
         pointer-events="none"
         d="m 559.79624,323.12169 3.45,-1.48 0,41.961 -3.45,-1.48 0,-39.001 z"
         id="path211" /><path
         inkscape:connector-curvature="0"
         style="fill:#9d5025"
         pointer-events="none"
         d="m 556.67624,324.46169 -2.79,1.2 0,33.92 2.79,1.2 0,-36.32 z"
         id="path213" /><path
         inkscape:connector-curvature="0"
         style="fill:#9d5025"
         pointer-events="none"
         d="m 581.88624,336.78169 0,-23.16 -5.58,2.391 0,21.26 5.58,-0.491 z"
         id="path215" /><path
         inkscape:connector-curvature="0"
         style="fill:#9d5025"
         pointer-events="none"
         d="m 576.30624,347.83169 0,21.399 5.58,2.391 0,-23.3 -5.58,-0.49 z"
         id="path217" /><path
         inkscape:connector-curvature="0"
         style="fill:#f58435"
         pointer-events="none"
         d="m 596.82524,338.04169 0,-18.01 -14.939,-6.41 0,23.16 14.939,1.26 z"
         id="path219" /><path
         inkscape:connector-curvature="0"
         style="fill:#f58435"
         pointer-events="none"
         d="m 581.88624,348.32169 0,23.3 14.939,-6.41 0,-18.16 -14.939,1.27 z"
         id="path221" /><path
         inkscape:connector-curvature="0"
         style="fill:#f58435"
         pointer-events="none"
         d="m 609.88624,339.17169 0,-13.51 -7.96,-3.45 0,16.26 7.96,0.7 z"
         id="path223" /><path
         inkscape:connector-curvature="0"
         style="fill:#f58435"
         pointer-events="none"
         d="m 601.92624,346.63169 0,16.4 7.96,-3.45 0,-13.649 -7.96,0.699 z"
         id="path225" /><path
         inkscape:connector-curvature="0"
         style="fill:#6b3b19"
         pointer-events="none"
         d="m 596.82524,338.04169 -5.5,0.29 -15.02,-1.06 5.58,-0.49 14.94,1.26 z"
         id="path227" /><path
         inkscape:connector-curvature="0"
         style="fill:#fbbf92"
         pointer-events="none"
         d="m 596.82524,347.05169 -5.17,-0.279 -15.35,1.06 5.33,0.49 15.19,-1.271 z"
         id="path229" /><path
         inkscape:connector-curvature="0"
         style="fill:#9d5025"
         pointer-events="none"
         d="m 598.38624,322.98069 3.54,-0.77 0,16.26 -3.54,0.211 0,-15.701 z"
         id="path231" /><path
         inkscape:connector-curvature="0"
         style="fill:#9d5025"
         pointer-events="none"
         d="m 598.38624,362.26269 3.54,0.77 0,-16.4 -3.54,-0.211 0,15.841 z"
         id="path233" /><path
         inkscape:connector-curvature="0"
         style="fill:#fbbf92"
         pointer-events="none"
         d="m 609.88624,345.93269 -3.2,-0.141 -8.3,0.63 3.54,0.21 7.96,-0.699 z"
         id="path235" /><path
         inkscape:connector-curvature="0"
         style="fill:#6b3b19"
         pointer-events="none"
         d="m 609.88624,339.17169 -3.2,0.14 -8.3,-0.629 3.54,-0.211 7.96,0.7 z"
         id="path237" /></g><path
       id="path291"
       d="m 548.99011,59.038989 0,0.09325 -0.0466,-0.06217 0.0466,-0.03108 z"
       pointer-events="none"
       style="fill:#19486f"
       inkscape:connector-curvature="0" /><path
       id="path293"
       d="m 615.77331,48.843555 0,3.559077 c 0,0.108792 0,0.217585 -0.0155,0.34192 l 0,-3.543535 c 0.0155,-0.124335 0.0155,-0.233128 0.0155,-0.357462"
       pointer-events="none"
       style="fill:#19486f"
       inkscape:connector-curvature="0" /><path
       id="path295"
       d="m 615.75777,49.201017 0,3.543535 c -0.0155,0.124334 -0.0622,0.248669 -0.10879,0.404087 l 0,-3.543535 c 0.0466,-0.124335 0.0933,-0.279753 0.10879,-0.404087"
       pointer-events="none"
       style="fill:#19486f"
       inkscape:connector-curvature="0" /><path
       id="path297"
       d="m 615.64898,49.605104 0,3.543535 c -0.0622,0.17096 -0.13988,0.357462 -0.23313,0.543964 l 0,-3.559077 c 0.0933,-0.186502 0.17096,-0.34192 0.23313,-0.528422"
       pointer-events="none"
       style="fill:#19486f"
       inkscape:connector-curvature="0" /><path
       id="path299"
       d="m 615.41585,50.133526 0,3.559077 c -2.42452,4.134124 -16.27229,7.304655 -32.99373,7.304655 -18.40152,0 -33.35275,-3.869913 -33.35275,-8.594626 l 0,-3.559077 c 0,4.755797 14.95123,8.62571 33.35275,8.62571 16.72144,0 30.56921,-3.201615 32.99373,-7.335739"
       pointer-events="none"
       style="fill:#19486f"
       inkscape:connector-curvature="0" /><path
       id="path301"
       d="m 615.77331,48.843555 0,3.559077 c 0,4.724713 -14.92015,8.594626 -33.35274,8.594626 -18.40152,0 -33.35275,-3.869913 -33.35275,-8.594626 l 0,-3.559077 c 0,4.755797 14.95123,8.62571 33.35275,8.62571 18.43259,0 33.35274,-3.869913 33.35274,-8.62571 z"
       pointer-events="none"
       style="fill:#19486f"
       inkscape:connector-curvature="0" /><path
       id="path303"
       d="m 582.42057,40.233386 c 18.43259,0 33.35274,3.83883 33.35274,8.610169 0,4.755797 -14.92015,8.62571 -33.35274,8.62571 -18.40152,0 -33.35275,-3.869913 -33.35275,-8.62571 0,-4.771339 14.95123,-8.610169 33.35275,-8.610169 z"
       pointer-events="none"
       style="fill:#2e73b7"
       inkscape:connector-curvature="0" /><path
       id="path305"
       d="m 615.71114,113.85499 0,3.54354 c 0,0.13987 -0.0155,0.27975 -0.0326,0.41963 l 0,-3.528 c 0.0171,-0.13987 0.0326,-0.29529 0.0326,-0.43517"
       pointer-events="none"
       style="fill:#19486f"
       inkscape:connector-curvature="0" /><path
       id="path307"
       d="m 615.67851,114.29016 0,3.528 c -0.0311,0.1865 -0.0762,0.38854 -0.15542,0.57504 l 0,-3.55907 c 0.0808,-0.18651 0.11035,-0.35747 0.15542,-0.54397"
       pointer-events="none"
       style="fill:#19486f"
       inkscape:connector-curvature="0" /><path
       id="path309"
       d="m 615.52464,114.83413 0,3.55907 c -0.0777,0.21759 -0.15542,0.43517 -0.27975,0.65276 l 0,-3.52799 c 0.12433,-0.23313 0.20204,-0.45072 0.27975,-0.68384"
       pointer-events="none"
       style="fill:#19486f"
       inkscape:connector-curvature="0" /><path
       id="path311"
       d="m 615.24489,115.51797 0,3.52799 c -2.68873,4.67809 -16.41372,8.23716 -32.93312,8.23716 -18.41705,0 -33.35274,-4.41387 -33.35274,-9.83797 l 0,-3.55907 c 0,5.43963 14.93569,9.83797 33.35274,9.83797 16.52096,0 30.24439,-3.528 32.93312,-8.20608"
       pointer-events="none"
       style="fill:#19486f"
       inkscape:connector-curvature="0" /><path
       id="path313"
       d="m 615.71114,113.85499 0,3.54354 c -0.0326,5.47072 -14.98231,9.88459 -33.39937,9.88459 -18.41705,0 -33.35274,-4.41387 -33.35274,-9.83797 l 0,-3.55907 c 0,5.43963 14.93569,9.83797 33.35274,9.83797 18.41706,0 33.36674,-4.39834 33.39937,-9.86906 z"
       pointer-events="none"
       style="fill:#19486f"
       inkscape:connector-curvature="0" /><path
       id="path315"
       d="m 615.67851,55.852916 c -1.86347,5.159884 -14.93414,8.252706 -33.36829,8.252706 -18.35489,0 -30.91268,-3.512451 -33.31856,-8.516917 l -0.0326,58.297375 c 0,5.43963 14.93569,9.83797 33.35274,9.83797 18.41861,0 33.36829,-4.39834 33.39937,-9.86906 l -0.0326,-58.002074 z"
       pointer-events="none"
       style="fill:#2e73b7"
       inkscape:connector-curvature="0" /><path
       id="path317"
       d="m 560.56877,73.788176 12.5267,0 9.46497,27.835404 0.12434,0 8.93654,-27.835404 12.54225,0 0,40.501984 -8.33041,0 0,-28.705742 -0.12434,0 -9.91568,28.705742 -6.86948,0 -9.90014,-28.425989 -0.12434,0 0,28.425989 -8.33041,0 0,-40.501984 z"
       pointer-events="none"
       style="fill:#ffffff"
       inkscape:connector-curvature="0" /><g
       transform="matrix(1.554182,0,0,1.554182,-311.89656,15.101287)"
       id="g4708"><g
         transform="matrix(0.37135823,0,0,0.37135823,386.08916,86.471016)"
         id="g4872"><path
           style="opacity:1;fill:#f58536"
           inkscape:connector-curvature="0"
           pointer-events="none"
           d="m 378.67528,200.63241 -16.54665,3.81845 0,-108.381759 16.54665,3.818458 0,100.744851 z"
           id="path27-1" /><path
           style="opacity:1;fill:#f58536"
           inkscape:connector-curvature="0"
           pointer-events="none"
           d="m 399.32857,207.04453 -20.65329,5.93182 0,-125.264628 20.65329,5.907802 0,113.425006 z"
           id="path29-8" /><path
           style="opacity:1;fill:#f58536"
           inkscape:connector-curvature="0"
           pointer-events="none"
           d="m 425.86565,213.60075 -26.53708,9.82232 0,-146.158073 26.53708,9.798307 0,126.537446 z"
           id="path31-1" /><path
           style="opacity:1;fill:#f58536"
           inkscape:connector-curvature="0"
           pointer-events="none"
           d="m 496.71125,200.96862 -70.8456,35.80705 0,-172.911298 70.8456,35.807048 0,101.2972 z"
           id="path33-2" /><path
           style="opacity:1;fill:#9d5025"
           inkscape:connector-curvature="0"
           pointer-events="none"
           d="m 411.72055,70.996963 14.1451,-7.132591 0,172.911298 -14.1451,-7.13259 0,-158.646117 z"
           id="path35" /><path
           style="opacity:1;fill:#9d5025"
           inkscape:connector-curvature="0"
           pointer-events="none"
           d="m 388.40154,82.788553 10.92703,-5.523556 0,146.110043 -10.92703,-5.52355 0,-135.062937 z"
           id="path37-8" /><path
           style="opacity:1;fill:#9d5025"
           inkscape:connector-curvature="0"
           pointer-events="none"
           d="m 369.95767,92.10655 8.71761,-4.418844 0,125.264634 -8.71761,-4.41885 0,-116.42694 z"
           id="path39-0" /><path
           style="opacity:1;fill:#9d5025"
           inkscape:connector-curvature="0"
           pointer-events="none"
           d="m 362.12863,96.069101 -7.10858,3.578303 0,101.345236 7.10858,3.5783 0,-108.501839 z"
           id="path41-6" /></g></g><g
       transform="matrix(0.51541466,0,0,0.51541466,22.464496,-119.48053)"
       id="g4960"><path
         id="path75-4"
         d="m 818.51839,438.72166 17.72341,21.06155 0,-138.61482 -17.72341,21.03514 0,96.51813 z"
         pointer-events="none"
         inkscape:connector-curvature="0"
         style="opacity:1;fill:#1a476f" /><path
         id="path77-3"
         d="m 836.2418,459.78081 33.83778,17.14944 0.024,-172.9113 -33.8618,17.09901 0,138.66285 z"
         pointer-events="none"
         inkscape:connector-curvature="0"
         style="opacity:1;fill:#205b98" /><path
         id="path79-4"
         d="m 969.81578,342.20353 -17.72341,-21.03754 0,138.61482 17.72341,-21.06156 0,-96.51572 z"
         pointer-events="none"
         inkscape:connector-curvature="0"
         style="opacity:1;fill:#2d72b8" /><path
         id="path81-7"
         d="m 918.23298,476.93025 33.86179,-17.14944 0,-138.66285 -33.88821,-17.09901 0.0264,172.9113 z"
         pointer-events="none"
         inkscape:connector-curvature="0"
         style="opacity:1;fill:#5294cf" /><rect
         id="rect83"
         height="172.9113"
         width="48.129379"
         pointer-events="none"
         y="304.01895"
         x="870.1012"
         style="opacity:1;fill:#2d72b8" /></g></g><g
     id="g287"
     transform="matrix(1.5430506,0,0,1.5430506,233.56884,-26.300767)"><g
       id="layer1"
       transform="translate(-273.27313,-435.95455)"
       inkscape:groupmode="layer"
       inkscape:label="Red1"><path
         id="path3907"
         sodipodi:nodetypes="cszcszc"
         inkscape:connector-curvature="0"
         d="m 332.735,633.647 c 0,0 0.238,-37.322 0.238,-75.263 0,-73.488 -6.192,-78.962 26.781,-78.962 32.973,0 91.779,0 91.779,0 0,0 0,71.106 0,106 0,34.895 6.522,48.564 -30.148,48.564 -36.67,0 -88.65,-0.339 -88.65,-0.339 l 0,0 z"
         style="fill:#a62c39" /></g><g
       id="layer4"
       transform="translate(-273.27313,-435.95455)"
       inkscape:groupmode="layer"
       inkscape:label="Red2"><linearGradient
         id="linearGradient3531"
         gradientUnits="userSpaceOnUse"
         x1="-141.9691"
         y1="1281.4927"
         x2="-113.5241"
         y2="1296.3914"
         gradientTransform="matrix(1,0,0,-1,563.0854,1821.0303)"><stop
           offset="0"
           style="stop-color:#FFFFFF"
           id="stop3533" /><stop
           offset="1"
           style="stop-color:#C0815E"
           id="stop3535" /></linearGradient><path
         id="path3947"
         inkscape:connector-curvature="0"
         d="m 408.404,493.286 c 0,0 5.881,1.177 10.979,9.802 5.097,8.626 32.149,75.67 32.149,75.67 l 0,-54.498 -25.093,-40.775 7.058,8.626 13.33,-10.978 -17.251,-1.177 -21.172,13.33 z"
         style="fill:url(#path3947_1_)" /></g><g
       id="layer3"
       transform="translate(-273.27313,-435.95455)"
       inkscape:groupmode="layer"
       inkscape:label="Red3"><radialGradient
         id="radialGradient3539"
         cx="-158.7982"
         cy="1311.4702"
         r="48.529598"
         gradientTransform="matrix(1,0,0,-1.5817,563.0854,2630.5657)"
         gradientUnits="userSpaceOnUse"><stop
           offset="0"
           style="stop-color:#FFFFFF"
           id="stop3541" /><stop
           offset="1"
           style="stop-color:#A94436"
           id="stop3543" /></radialGradient><path
         id="path3934"
         inkscape:connector-curvature="0"
         enable-background="new    "
         d="m 356.258,480.348 c 0,0 38.815,25.876 57.635,30.974 18.819,5.097 38.423,10.585 38.423,10.585 l -44.696,109.78 19.212,0.784 25.092,-61.947 -0.783,-90.568 -94.883,0.392 z"
         style="opacity:0.66820003;fill:url(#path3934_1_)" /><path
         id="path3960"
         sodipodi:nodetypes="cccscc"
         inkscape:connector-curvature="0"
         d="m 392.33,596.008 40.377,38.835 -75.272,-1.588 c 0,0 -2.352,-23.916 -1.568,-36.463 0.784,-12.546 4.705,-12.546 4.705,-12.546 l 31.758,11.762 z"
         style="fill:#ffffff;fill-opacity:0.43960003" /></g><g
       id="layer5"
       transform="translate(-273.27313,-435.95455)"
       inkscape:groupmode="layer"
       inkscape:label="Red4"><path
         id="path3958"
         sodipodi:nodetypes="cccccccccc"
         inkscape:connector-curvature="0"
         d="m 429.576,634.04 -36.463,-37.639 -33.326,-12.547 -25.876,-57.634 27.445,-45.872 -18.427,-0.784 -7.449,7.057 -2.745,5.489 -1.96,142.714 98.801,-0.784 z"
         style="fill-opacity:0.36230002" /><path
         id="path3962"
         inkscape:connector-curvature="0"
         enable-background="new    "
         d="m 451.924,574.052 c 0,0 -36.854,11.763 -58.811,22.74 -21.956,10.979 -33.718,37.639 -33.718,37.639 0,0 47.048,-2.353 64.691,-1.568 17.643,0.785 25.877,0.784 27.445,-23.916 1.568,-24.7 0.393,-34.895 0.393,-34.895 l 0,0 z"
         style="opacity:0.5;fill:#83222d" /></g><g
       id="layer7"
       transform="translate(-273.27313,-435.95455)"
       inkscape:groupmode="layer"
       inkscape:label="RAILS"><path
         id="path3993"
         inkscape:connector-curvature="0"
         d="m 344.095,597.468 0,23.156 5.906,0 0,-6.031 5.375,5.375 9.062,0 -7.188,-7.188 c 0,0 5.17,-0.084 5.562,-7.562 0,-6.861 -5.177,-7.75 -11.156,-7.75 l -7.561,0 z m 6.187,6.282 5.094,0 0,4.125 -5.094,0 0,-4.125 z"
         style="fill:#ffffff" /><path
         id="path3997"
         inkscape:connector-curvature="0"
         d="m 375.845,597.562 c -3.234,-0.019 -7.719,0.281 -7.719,6.375 l 0,16.094 6.062,0 0,-3.938 5.875,0 0,3.844 6.094,0 0,-16.875 c 0,-5.293 -5.881,-5.5 -9.031,-5.5 -0.394,0 -0.82,0.003 -1.281,0 z m -1.563,5.813 5.688,0 0,6.344 -5.688,0 0,-6.344 z"
         style="fill:#ffffff" /><rect
         id="rect4001"
         x="392.23099"
         y="597.57703"
         width="6.2719998"
         height="22.152"
         style="fill:#ffffff" /><path
         id="path4003"
         inkscape:connector-curvature="0"
         d="m 405.072,597.871 0,22.152 15.094,0 0,-5.881 -8.919,0 0,-16.369 -6.175,0.098 z"
         style="fill:#ffffff" /><path
         id="path4005"
         sodipodi:nodetypes="ccccsssccsssssc"
         inkscape:connector-curvature="0"
         d="m 440.162,597.675 0,5.979 -10.096,0 0,2.156 c 0,0 2.059,0 4.312,0 2.253,0 6.959,-0.098 6.959,6.959 0,7.058 -3.234,7.45 -9.801,7.45 -6.568,0 -7.939,0 -7.939,0 l 0,-5.392 c 0,0 6.371,0 9.115,0 2.744,0 2.896,-0.894 2.896,-1.672 0,-0.778 -1.403,-1.141 -4.257,-1.141 -2.854,0 -8.146,-1.402 -8.146,-6.891 0,-5.489 2.744,-7.548 8.233,-7.548 5.489,0 8.724,0.099 8.724,0.1 l 0,0 z"
         style="fill:#ffffff" /></g><g
       id="layer6"
       transform="translate(-273.27313,-435.95455)"
       inkscape:groupmode="layer"
       inkscape:label="Logo (white part)"><path
         id="path3966"
         sodipodi:nodetypes="ccssccsszc"
         inkscape:connector-curvature="0"
         d="m 349.593,590.912 52.146,0 c 0,0 -11.566,-26.269 -8.626,-50.381 2.941,-24.112 21.956,-35.091 32.738,-36.267 10.781,-1.177 16.663,5.489 16.663,5.489 l 2.353,-3.529 c 0,0 -15.487,-15.683 -35.091,-13.918 -19.604,1.764 -33.13,14.702 -41.559,30.385 -8.43,15.684 -13.331,26.661 -16.663,43.128 -3.332,16.467 -1.961,25.093 -1.961,25.093 z"
         style="fill:#ffffff" /><path
         id="path3968"
         inkscape:connector-curvature="0"
         d="m 339.204,564.643 10.194,0.784 -1.765,10.193 -9.605,-1.176 1.176,-9.801 z"
         style="fill:#ffffff" /><path
         id="path3970"
         inkscape:connector-curvature="0"
         d="m 355.279,543.079 2.745,-7.645 -9.018,-3.529 -2.94,8.233 9.213,2.941 z"
         style="fill:#ffffff" /><path
         id="path3972"
         inkscape:connector-curvature="0"
         d="m 368.021,516.81 5.293,-6.272 -6.861,-4.509 -5.489,6.076 7.057,4.705 z"
         style="fill:#ffffff" /><path
         id="path3974"
         inkscape:connector-curvature="0"
         d="m 381.939,492.501 4.705,5.686 6.469,-3.725 -4.705,-5.293 -6.469,3.332 z"
         style="fill:#ffffff" /><path
         id="path3976"
         inkscape:connector-curvature="0"
         d="m 404.876,486.033 1.176,5.686 8.038,-0.196 -0.785,-5.097 -8.429,-0.393 z"
         style="fill:#ffffff" /><path
         id="path3978"
         inkscape:connector-curvature="0"
         d="m 432.125,492.11 -0.196,3.528 5.489,2.94 1.176,-1.764 -6.469,-4.704 z"
         style="fill:#ffffff" /><path
         id="path3980"
         inkscape:connector-curvature="0"
         d="m 430.948,507.205 0,2.94 5.293,0.588 0,-2.353 -5.293,-1.175 z"
         style="fill:#ffffff" /><path
         id="path3982"
         inkscape:connector-curvature="0"
         d="m 414.09,509.753 2.548,4.704 3.725,-2.94 -0.784,-3.137 -5.489,1.373 z"
         style="fill:#ffffff" /><path
         id="path3984"
         inkscape:connector-curvature="0"
         d="m 406.051,515.831 3.921,5.881 -2.353,4.116 -5.685,-6.272 4.117,-3.725 z"
         style="fill:#ffffff" /><path
         id="path3986"
         inkscape:connector-curvature="0"
         d="m 398.211,532.101 -2.549,5.097 6.665,5.686 1.568,-6.47 -5.684,-4.313 z"
         style="fill:#ffffff" /><path
         id="path3988"
         inkscape:connector-curvature="0"
         d="m 395.466,549.94 -0.392,6.861 8.233,3.529 -0.392,-6.47 -7.449,-3.92 z"
         style="fill:#ffffff" /><path
         id="path3990"
         inkscape:connector-curvature="0"
         d="m 397.818,574.249 1.961,7.058 10.39,0.588 -3.726,-7.646 -8.625,0 z"
         style="fill:#ffffff" /></g><g
       id="g3911"
       transform="translate(-273.27313,-435.95455)"
       inkscape:groupmode="layer"
       inkscape:label="Red.border"><path
         id="path3913"
         sodipodi:nodetypes="cszcszc"
         inkscape:connector-curvature="0"
         d="m 332.735,633.647 c 0,0 0.238,-37.322 0.238,-75.263 0,-73.488 -6.192,-78.962 26.781,-78.962 32.973,0 91.779,0 91.779,0 0,0 0,71.106 0,106 0,34.895 4.954,48.564 -30.148,48.564 -35.102,0 -88.65,-0.339 -88.65,-0.339 l 0,0 z"
         style="fill:none;stroke:#5e000e;stroke-width:3" /></g></g></svg>