<?xml version="1.0" encoding="UTF-8" standalone="no"?>
<!-- Generator: Adobe Illustrator 13.0.0, SVG Export Plug-In . SVG Version: 6.00 Build 14948)  -->

<svg
   xmlns:dc="http://purl.org/dc/elements/1.1/"
   xmlns:cc="http://creativecommons.org/ns#"
   xmlns:rdf="http://www.w3.org/1999/02/22-rdf-syntax-ns#"
   xmlns:svg="http://www.w3.org/2000/svg"
   xmlns="http://www.w3.org/2000/svg"
   xmlns:sodipodi="http://sodipodi.sourceforge.net/DTD/sodipodi-0.dtd"
   xmlns:inkscape="http://www.inkscape.org/namespaces/inkscape"
   version="1.1"
   id="Layer_1"
   x="0px"
   y="0px"
   width="1280"
   height="720"
   viewBox="-68.5 -68.5 1280 720"
   enable-background="new -68.5 -68.5 397.5 673.5"
   xml:space="preserve"
   inkscape:version="0.91 r13725"
   sodipodi:docname="api-server-bb-s3-30pc.svg"><metadata
     id="metadata467"><rdf:RDF><cc:Work
         rdf:about=""><dc:format>image/svg+xml</dc:format><dc:type
           rdf:resource="http://purl.org/dc/dcmitype/StillImage" /><dc:title></dc:title></cc:Work></rdf:RDF></metadata><defs
     id="defs465"><linearGradient
       id="path3947_1_"
       gradientUnits="userSpaceOnUse"
       x1="-141.9691"
       y1="1281.4927"
       x2="-113.5241"
       y2="1296.3914"
       gradientTransform="matrix(1,0,0,-1,563.0854,1821.0303)"><stop
         offset="0"
         style="stop-color:#FFFFFF"
         id="stop293" /><stop
         offset="1"
         style="stop-color:#C0815E"
         id="stop295" /></linearGradient><radialGradient
       id="path3934_1_"
       cx="-158.7982"
       cy="1311.4702"
       r="48.529598"
       gradientTransform="matrix(1,0,0,-1.5817,563.0854,2630.5657)"
       gradientUnits="userSpaceOnUse"><stop
         offset="0"
         style="stop-color:#FFFFFF"
         id="stop300" /><stop
         offset="1"
         style="stop-color:#A94436"
         id="stop302" /></radialGradient></defs><sodipodi:namedview
     pagecolor="#000000"
     bordercolor="#666666"
     borderopacity="1"
     objecttolerance="10"
     gridtolerance="10"
     guidetolerance="10"
     inkscape:pageopacity="0"
     inkscape:pageshadow="2"
     inkscape:window-width="1373"
     inkscape:window-height="892"
     id="namedview463"
     showgrid="false"
     inkscape:zoom="0.95833333"
     inkscape:cx="488.69565"
     inkscape:cy="360"
     inkscape:window-x="180"
     inkscape:window-y="26"
     inkscape:window-maximized="0"
     inkscape:current-layer="Layer_1"
     showguides="true"
     inkscape:guide-bbox="true" /><g
     id="g3519"
     transform="matrix(0.6351666,0,0,0.6351666,306.54667,13.577382)"
     style="opacity:0.3"><g
       transform="matrix(1.554182,0,0,1.554182,-265.75133,-50.395158)"
       id="g4613"
       style=""><rect
         style="fill:#9d5125"
         x="569.14624"
         y="233.87169"
         pointer-events="none"
         width="4.5300002"
         height="2.5599999"
         id="rect61" /><rect
         style="fill:#9d5125"
         x="588.90625"
         y="233.87169"
         pointer-events="none"
         width="4.5209999"
         height="2.5599999"
         id="rect63" /><path
         inkscape:connector-curvature="0"
         style="fill:#9d5125"
         pointer-events="none"
         d="m 588.90624,242.09169 0,2.562 -6.119,6.33 0,-2.57 6.119,-6.322 z"
         id="path65" /><path
         inkscape:connector-curvature="0"
         style="fill:#9d5125"
         pointer-events="none"
         d="m 580.06624,248.41169 0,2.57 -6.39,-6.53 0,-2.57 6.39,6.53 z"
         id="path67" /><rect
         style="fill:#9d5125"
         x="600.39624"
         y="254.36169"
         pointer-events="none"
         width="10.49"
         height="2.5699999"
         id="rect69" /><rect
         style="fill:#9d5125"
         x="551.88623"
         y="254.36169"
         pointer-events="none"
         width="10.49"
         height="2.5699999"
         id="rect71" /><path
         inkscape:connector-curvature="0"
         style="fill:#9d5125"
         pointer-events="none"
         d="m 600.39624,260.50169 0,2.57 -12.32,-12.15 0,-2.57 12.32,12.15 z"
         id="path73" /><path
         inkscape:connector-curvature="0"
         style="fill:#f48334"
         pointer-events="none"
         d="m 562.37624,236.34169 12.32,12.14 -12.32,12.02 0,-6.14 -10.49,0 0,-11.89 10.49,0 0,-6.13 z"
         id="path75" /><path
         inkscape:connector-curvature="0"
         style="fill:#9d5125"
         pointer-events="none"
         d="m 574.69624,248.48169 0,2.57 -12.32,12.021 0,-2.57 12.32,-12.021 z"
         id="path77" /><path
         inkscape:connector-curvature="0"
         style="fill:#f48334"
         pointer-events="none"
         d="m 600.39624,236.34169 0,6.14 10.49,0 0,11.88 -10.49,0 0,6.14 -12.32,-12.15 12.32,-12.01 z"
         id="path79" /><path
         inkscape:connector-curvature="0"
         style="fill:#9d5125"
         pointer-events="none"
         d="m 593.43624,263.81169 0,2.57 -12.21,12.24 -0.57,-3.14 12.78,-11.67 z"
         id="path81" /><path
         inkscape:connector-curvature="0"
         style="fill:#9d5125"
         pointer-events="none"
         d="m 581.22624,276.06169 0,2.56 -12.08,-12.24 0,-2.57 12.08,12.25 z"
         id="path83" /><path
         inkscape:connector-curvature="0"
         style="fill:#f48334"
         pointer-events="none"
         d="m 581.35624,221.62169 12.08,12.25 -4.53,0 0,8.22 -6.119,6.32 6.119,6.5 0,8.9 4.53,0 -12.21,12.25 -12.08,-12.25 4.53,0 0,-8.8 6.39,-6.6 -6.39,-6.53 0,-8.01 -4.53,0 12.21,-12.25 z"
         id="path85" /></g><g
       transform="matrix(1.658642,0,0,1.658642,-349.43806,76.093238)"
       id="g4582"
       style=""><path
         inkscape:connector-curvature="0"
         style="fill:#9d5025"
         pointer-events="none"
         d="m 492.50624,182.92169 0,2.7 -23.71,0 -0.99,-3.54 24.7,0.84 z"
         id="path145" /><path
         inkscape:connector-curvature="0"
         style="fill:#9d5025"
         pointer-events="none"
         d="m 473.55624,137.34169 0,2.69 -17.63,0 -2.47,-3.4 20.1,0.71 z"
         id="path147" /><path
         inkscape:connector-curvature="0"
         style="fill:#9d5025"
         pointer-events="none"
         d="m 455.92624,137.34169 0,2.69 c -0.97,0 -1.83,0.56 -2.26,1.36 l 0,-2.7 c 0.43,-0.8 1.29,-1.35 2.26,-1.35"
         id="path149" /><path
         inkscape:connector-curvature="0"
         style="fill:#9d5025"
         pointer-events="none"
         d="m 453.66624,138.69169 0,2.7 c -0.08,0.14 -0.15,0.29 -0.2,0.45 l 0,-2.688 c 0.05,-0.162 0.12,-0.312 0.2,-0.462"
         id="path151" /><path
         inkscape:connector-curvature="0"
         style="fill:#9d5025"
         pointer-events="none"
         d="m 453.46624,139.15169 0,2.688 c -0.04,0.14 -0.08,0.271 -0.1,0.41 l 0,-2.69 c 0.02,-0.138 0.06,-0.278 0.1,-0.408"
         id="path153" /><path
         inkscape:connector-curvature="0"
         style="fill:#9d5025"
         pointer-events="none"
         d="m 453.36624,139.56169 0,2.7 c -0.02,0.11 -0.02,0.24 -0.02,0.36 l 0,-2.69 c 0,-0.13 0.01,-0.25 0.02,-0.37"
         id="path155" /><path
         inkscape:connector-curvature="0"
         style="fill:#9d5025"
         pointer-events="none"
         d="m 455.92624,137.34169 0,2.69 c -1.42,0 -2.58,1.17 -2.58,2.59 l 0,-2.69 c 0,-1.42 1.16,-2.59 2.58,-2.59 z"
         id="path157" /><path
         inkscape:connector-curvature="0"
         style="fill:#9d5025"
         pointer-events="none"
         d="m 484.15624,149.80169 0,2.69 -17.81,0 -1.51,-3.07 19.32,0.38 z"
         id="path159" /><path
         inkscape:connector-curvature="0"
         style="fill:#9d5025"
         pointer-events="none"
         d="m 466.52624,149.80169 0,2.69 c -0.97,0 -1.82,0.55 -2.25,1.35 l 0,-2.7 c 0.43,-0.8 1.28,-1.34 2.25,-1.34"
         id="path161" /><path
         inkscape:connector-curvature="0"
         style="fill:#9d5025"
         pointer-events="none"
         d="m 464.27624,151.14169 0,2.7 c -0.08,0.14 -0.15,0.3 -0.2,0.45 l 0,-2.69 c 0.05,-0.16 0.12,-0.31 0.2,-0.46"
         id="path163" /><path
         inkscape:connector-curvature="0"
         style="fill:#9d5025"
         pointer-events="none"
         d="m 464.07624,151.60169 0,2.69 c -0.04,0.14 -0.08,0.28 -0.1,0.43 l 0,-2.7 c 0.02,-0.14 0.06,-0.28 0.1,-0.42"
         id="path165" /><path
         inkscape:connector-curvature="0"
         style="fill:#9d5025"
         pointer-events="none"
         d="m 463.97624,152.02169 0,2.7 c -0.02,0.12 -0.03,0.24 -0.03,0.37 l 0,-2.688 c 0,-0.132 0.01,-0.262 0.03,-0.382"
         id="path167" /><path
         inkscape:connector-curvature="0"
         style="fill:#9d5025"
         pointer-events="none"
         d="m 466.52624,149.80169 0,2.69 c -1.42,0 -2.58,1.17 -2.58,2.6 l 0,-2.688 c 0,-1.442 1.16,-2.602 2.58,-2.602 z"
         id="path169" /><path
         inkscape:connector-curvature="0"
         style="fill:#9d5025"
         pointer-events="none"
         d="m 453.34624,157.94169 0,2.688 -5.89,0 -0.92,-3.27 6.81,0.582 z"
         id="path171" /><path
         inkscape:connector-curvature="0"
         style="fill:#9d5025"
         pointer-events="none"
         d="m 447.45624,157.94169 0,2.688 c -1.41,0 -2.57,-1.15 -2.57,-2.58 l 0,-2.68 c 0,1.432 1.16,2.572 2.57,2.572"
         id="path173" /><path
         inkscape:connector-curvature="0"
         style="fill:#9d5025"
         pointer-events="none"
         d="m 447.45624,157.94169 0,2.688 c -1.41,0 -2.57,-1.15 -2.57,-2.58 l 0,-2.68 c 0,1.432 1.16,2.572 2.57,2.572 z"
         id="path175" /><rect
         style="fill:#9d5025"
         x="457.87625"
         y="170.40169"
         pointer-events="none"
         width="6.0700002"
         height="2.7"
         id="rect177" /><path
         inkscape:connector-curvature="0"
         style="fill:#9d5025"
         pointer-events="none"
         d="m 458.06624,170.40169 0,2.688 c -1.42,0 -2.57,-1.149 -2.57,-2.58 l 0,-2.7 c 0,1.432 1.15,2.592 2.57,2.592"
         id="path179" /><path
         inkscape:connector-curvature="0"
         style="fill:#9d5025"
         pointer-events="none"
         d="m 458.06624,170.40169 0,2.688 c -1.42,0 -2.57,-1.149 -2.57,-2.58 l 0,-2.7 c 0,1.432 1.15,2.592 2.57,2.592 z"
         id="path181" /><path
         inkscape:connector-curvature="0"
         style="fill:#9d5125"
         pointer-events="none"
         d="m 468.79624,182.92169 0,2.7 c -1.42,0 -2.57,-1.17 -2.57,-2.59 l 0,-2.69 c 0,1.42 1.15,2.58 2.57,2.58"
         id="path183" /><path
         inkscape:connector-curvature="0"
         style="fill:#9d5125"
         pointer-events="none"
         d="m 468.79624,182.92169 0,2.7 c -1.42,0 -2.57,-1.17 -2.57,-2.59 l 0,-2.69 c 0,1.42 1.15,2.58 2.57,2.58 z"
         id="path185" /><path
         inkscape:connector-curvature="0"
         style="fill:#9d5025"
         pointer-events="none"
         d="m 494.88624,180.34169 0,2.69 c 0,0.13 -0.01,0.25 -0.03,0.37 l 0,-2.69 c 0.02,-0.12 0.03,-0.25 0.03,-0.37"
         id="path187" /><path
         inkscape:connector-curvature="0"
         style="fill:#9d5025"
         pointer-events="none"
         d="m 494.85624,180.71169 0,2.69 c -0.02,0.14 -0.05,0.28 -0.09,0.42 l 0,-2.7 c 0.04,-0.13 0.07,-0.27 0.09,-0.41"
         id="path189" /><path
         inkscape:connector-curvature="0"
         style="fill:#9d5025"
         pointer-events="none"
         d="m 494.76624,181.12169 0,2.7 c -0.05,0.16 -0.12,0.31 -0.2,0.45 l 0,-2.69 c 0.08,-0.15 0.15,-0.3 0.2,-0.46"
         id="path191" /><path
         inkscape:connector-curvature="0"
         style="fill:#9d5025"
         pointer-events="none"
         d="m 494.56624,181.58169 0,2.69 c -0.43,0.8 -1.27,1.35 -2.24,1.35 l 0,-2.7 c 0.97,0 1.81,-0.54 2.24,-1.34"
         id="path193" /><path
         inkscape:connector-curvature="0"
         style="fill:#9d5025"
         pointer-events="none"
         d="m 494.88624,180.34169 0,2.69 c 0,1.42 -1.15,2.59 -2.56,2.59 l 0,-2.7 c 1.41,0 2.56,-1.16 2.56,-2.58 z"
         id="path195" /><path
         inkscape:connector-curvature="0"
         style="fill:#f58536"
         pointer-events="none"
         d="m 470.98624,128.62169 c 1.42,0 2.57,1.15 2.57,2.58 l 0,6.14 -17.63,0 c -1.42,0 -2.58,1.17 -2.58,2.59 l 0,18.01 -5.89,0 c -1.41,0 -2.57,-1.141 -2.57,-2.57 l 0,-24.17 c 0,-1.43 1.16,-2.58 2.57,-2.58 l 23.53,0 z"
         id="path197" /><path
         inkscape:connector-curvature="0"
         style="fill:#f58536"
         pointer-events="none"
         d="m 481.59624,141.08169 c 1.41,0 2.56,1.16 2.56,2.58 l 0,6.14 -17.63,0 c -1.42,0 -2.58,1.16 -2.58,2.6 l 0,18 -5.88,0 c -1.42,0 -2.58,-1.16 -2.58,-2.59 l 0,-24.15 c 0,-1.42 1.16,-2.58 2.58,-2.58 l 23.53,0 z"
         id="path199" /><path
         inkscape:connector-curvature="0"
         style="fill:#f58536"
         pointer-events="none"
         d="m 492.32624,153.60169 c 1.41,0 2.56,1.16 2.56,2.57 l 0,24.17 c 0,1.42 -1.15,2.58 -2.56,2.58 l -23.53,0 c -1.42,0 -2.57,-1.16 -2.57,-2.58 l 0,-24.17 c 0,-1.41 1.15,-2.57 2.57,-2.57 l 23.53,0 z"
         id="path201" /></g><g
       transform="matrix(1.554182,0,0,1.554182,-365.48455,-89.097602)"
       id="g4628"
       style=""><path
         inkscape:connector-curvature="0"
         style="fill:#f58435"
         pointer-events="none"
         d="m 600.52724,357.82169 -29.15,9.149 0,-48.849 29.15,9.16 0,30.54 z"
         id="path203" /><path
         inkscape:connector-curvature="0"
         style="fill:#f58435"
         pointer-events="none"
         d="m 563.24624,359.51269 -6.57,1.27 0,-36.32 6.57,1.27 0,33.78 z"
         id="path205" /><path
         inkscape:connector-curvature="0"
         style="fill:#f58435"
         pointer-events="none"
         d="m 571.37624,361.62169 -8.13,1.98 0,-41.96 8.13,1.98 0,38 z"
         id="path207" /><path
         inkscape:connector-curvature="0"
         style="fill:#9d5025"
         pointer-events="none"
         d="m 567.10624,319.95169 4.271,-1.83 0,49 -4.271,-1.83 0,-45.34 z"
         id="path209" /><path
         inkscape:connector-curvature="0"
         style="fill:#9d5025"
         pointer-events="none"
         d="m 559.79624,323.12169 3.45,-1.48 0,41.961 -3.45,-1.48 0,-39.001 z"
         id="path211" /><path
         inkscape:connector-curvature="0"
         style="fill:#9d5025"
         pointer-events="none"
         d="m 556.67624,324.46169 -2.79,1.2 0,33.92 2.79,1.2 0,-36.32 z"
         id="path213" /><path
         inkscape:connector-curvature="0"
         style="fill:#9d5025"
         pointer-events="none"
         d="m 581.88624,336.78169 0,-23.16 -5.58,2.391 0,21.26 5.58,-0.491 z"
         id="path215" /><path
         inkscape:connector-curvature="0"
         style="fill:#9d5025"
         pointer-events="none"
         d="m 576.30624,347.83169 0,21.399 5.58,2.391 0,-23.3 -5.58,-0.49 z"
         id="path217" /><path
         inkscape:connector-curvature="0"
         style="fill:#f58435"
         pointer-events="none"
         d="m 596.82524,338.04169 0,-18.01 -14.939,-6.41 0,23.16 14.939,1.26 z"
         id="path219" /><path
         inkscape:connector-curvature="0"
         style="fill:#f58435"
         pointer-events="none"
         d="m 581.88624,348.32169 0,23.3 14.939,-6.41 0,-18.16 -14.939,1.27 z"
         id="path221" /><path
         inkscape:connector-curvature="0"
         style="fill:#f58435"
         pointer-events="none"
         d="m 609.88624,339.17169 0,-13.51 -7.96,-3.45 0,16.26 7.96,0.7 z"
         id="path223" /><path
         inkscape:connector-curvature="0"
         style="fill:#f58435"
         pointer-events="none"
         d="m 601.92624,346.63169 0,16.4 7.96,-3.45 0,-13.649 -7.96,0.699 z"
         id="path225" /><path
         inkscape:connector-curvature="0"
         style="fill:#6b3b19"
         pointer-events="none"
         d="m 596.82524,338.04169 -5.5,0.29 -15.02,-1.06 5.58,-0.49 14.94,1.26 z"
         id="path227" /><path
         inkscape:connector-curvature="0"
         style="fill:#fbbf92"
         pointer-events="none"
         d="m 596.82524,347.05169 -5.17,-0.279 -15.35,1.06 5.33,0.49 15.19,-1.271 z"
         id="path229" /><path
         inkscape:connector-curvature="0"
         style="fill:#9d5025"
         pointer-events="none"
         d="m 598.38624,322.98069 3.54,-0.77 0,16.26 -3.54,0.211 0,-15.701 z"
         id="path231" /><path
         inkscape:connector-curvature="0"
         style="fill:#9d5025"
         pointer-events="none"
         d="m 598.38624,362.26269 3.54,0.77 0,-16.4 -3.54,-0.211 0,15.841 z"
         id="path233" /><path
         inkscape:connector-curvature="0"
         style="fill:#fbbf92"
         pointer-events="none"
         d="m 609.88624,345.93269 -3.2,-0.141 -8.3,0.63 3.54,0.21 7.96,-0.699 z"
         id="path235" /><path
         inkscape:connector-curvature="0"
         style="fill:#6b3b19"
         pointer-events="none"
         d="m 609.88624,339.17169 -3.2,0.14 -8.3,-0.629 3.54,-0.211 7.96,0.7 z"
         id="path237" /></g><path
       id="path291"
       d="m 548.99011,59.038989 0,0.09325 -0.0466,-0.06217 0.0466,-0.03108 z"
       pointer-events="none"
       style="fill:#19486f"
       inkscape:connector-curvature="0" /><path
       id="path293"
       d="m 615.77331,48.843555 0,3.559077 c 0,0.108792 0,0.217585 -0.0155,0.34192 l 0,-3.543535 c 0.0155,-0.124335 0.0155,-0.233128 0.0155,-0.357462"
       pointer-events="none"
       style="fill:#19486f"
       inkscape:connector-curvature="0" /><path
       id="path295"
       d="m 615.75777,49.201017 0,3.543535 c -0.0155,0.124334 -0.0622,0.248669 -0.10879,0.404087 l 0,-3.543535 c 0.0466,-0.124335 0.0933,-0.279753 0.10879,-0.404087"
       pointer-events="none"
       style="fill:#19486f"
       inkscape:connector-curvature="0" /><path
       id="path297"
       d="m 615.64898,49.605104 0,3.543535 c -0.0622,0.17096 -0.13988,0.357462 -0.23313,0.543964 l 0,-3.559077 c 0.0933,-0.186502 0.17096,-0.34192 0.23313,-0.528422"
       pointer-events="none"
       style="fill:#19486f"
       inkscape:connector-curvature="0" /><path
       id="path299"
       d="m 615.41585,50.133526 0,3.559077 c -2.42452,4.134124 -16.27229,7.304655 -32.99373,7.304655 -18.40152,0 -33.35275,-3.869913 -33.35275,-8.594626 l 0,-3.559077 c 0,4.755797 14.95123,8.62571 33.35275,8.62571 16.72144,0 30.56921,-3.201615 32.99373,-7.335739"
       pointer-events="none"
       style="fill:#19486f"
       inkscape:connector-curvature="0" /><path
       id="path301"
       d="m 615.77331,48.843555 0,3.559077 c 0,4.724713 -14.92015,8.594626 -33.35274,8.594626 -18.40152,0 -33.35275,-3.869913 -33.35275,-8.594626 l 0,-3.559077 c 0,4.755797 14.95123,8.62571 33.35275,8.62571 18.43259,0 33.35274,-3.869913 33.35274,-8.62571 z"
       pointer-events="none"
       style="fill:#19486f"
       inkscape:connector-curvature="0" /><path
       id="path303"
       d="m 582.42057,40.233386 c 18.43259,0 33.35274,3.83883 33.35274,8.610169 0,4.755797 -14.92015,8.62571 -33.35274,8.62571 -18.40152,0 -33.35275,-3.869913 -33.35275,-8.62571 0,-4.771339 14.95123,-8.610169 33.35275,-8.610169 z"
       pointer-events="none"
       style="fill:#2e73b7"
       inkscape:connector-curvature="0" /><path
       id="path305"
       d="m 615.71114,113.85499 0,3.54354 c 0,0.13987 -0.0155,0.27975 -0.0326,0.41963 l 0,-3.528 c 0.0171,-0.13987 0.0326,-0.29529 0.0326,-0.43517"
       pointer-events="none"
       style="fill:#19486f"
       inkscape:connector-curvature="0" /><path
       id="path307"
       d="m 615.67851,114.29016 0,3.528 c -0.0311,0.1865 -0.0762,0.38854 -0.15542,0.57504 l 0,-3.55907 c 0.0808,-0.18651 0.11035,-0.35747 0.15542,-0.54397"
       pointer-events="none"
       style="fill:#19486f"
       inkscape:connector-curvature="0" /><path
       id="path309"
       d="m 615.52464,114.83413 0,3.55907 c -0.0777,0.21759 -0.15542,0.43517 -0.27975,0.65276 l 0,-3.52799 c 0.12433,-0.23313 0.20204,-0.45072 0.27975,-0.68384"
       pointer-events="none"
       style="fill:#19486f"
       inkscape:connector-curvature="0" /><path
       id="path311"
       d="m 615.24489,115.51797 0,3.52799 c -2.68873,4.67809 -16.41372,8.23716 -32.93312,8.23716 -18.41705,0 -33.35274,-4.41387 -33.35274,-9.83797 l 0,-3.55907 c 0,5.43963 14.93569,9.83797 33.35274,9.83797 16.52096,0 30.24439,-3.528 32.93312,-8.20608"
       pointer-events="none"
       style="fill:#19486f"
       inkscape:connector-curvature="0" /><path
       id="path313"
       d="m 615.71114,113.85499 0,3.54354 c -0.0326,5.47072 -14.98231,9.88459 -33.39937,9.88459 -18.41705,0 -33.35274,-4.41387 -33.35274,-9.83797 l 0,-3.55907 c 0,5.43963 14.93569,9.83797 33.35274,9.83797 18.41706,0 33.36674,-4.39834 33.39937,-9.86906 z"
       pointer-events="none"
       style="fill:#19486f"
       inkscape:connector-curvature="0" /><path
       id="path315"
       d="m 615.67851,55.852916 c -1.86347,5.159884 -14.93414,8.252706 -33.36829,8.252706 -18.35489,0 -30.91268,-3.512451 -33.31856,-8.516917 l -0.0326,58.297375 c 0,5.43963 14.93569,9.83797 33.35274,9.83797 18.41861,0 33.36829,-4.39834 33.39937,-9.86906 l -0.0326,-58.002074 z"
       pointer-events="none"
       style="fill:#2e73b7"
       inkscape:connector-curvature="0" /><path
       id="path317"
       d="m 560.56877,73.788176 12.5267,0 9.46497,27.835404 0.12434,0 8.93654,-27.835404 12.54225,0 0,40.501984 -8.33041,0 0,-28.705742 -0.12434,0 -9.91568,28.705742 -6.86948,0 -9.90014,-28.425989 -0.12434,0 0,28.425989 -8.33041,0 0,-40.501984 z"
       pointer-events="none"
       style="fill:#ffffff"
       inkscape:connector-curvature="0" /><g
       transform="matrix(1.554182,0,0,1.554182,-311.89656,15.101287)"
       id="g4708"
       style=""><g
         transform="matrix(0.37135823,0,0,0.37135823,386.08916,86.471016)"
         id="g4872"
         style=""><path
           style="opacity:1;fill:#f58536"
           inkscape:connector-curvature="0"
           pointer-events="none"
           d="m 378.67528,200.63241 -16.54665,3.81845 0,-108.381759 16.54665,3.818458 0,100.744851 z"
           id="path27-1" /><path
           style="opacity:1;fill:#f58536"
           inkscape:connector-curvature="0"
           pointer-events="none"
           d="m 399.32857,207.04453 -20.65329,5.93182 0,-125.264628 20.65329,5.907802 0,113.425006 z"
           id="path29-8" /><path
           style="opacity:1;fill:#f58536"
           inkscape:connector-curvature="0"
           pointer-events="none"
           d="m 425.86565,213.60075 -26.53708,9.82232 0,-146.158073 26.53708,9.798307 0,126.537446 z"
           id="path31-1" /><path
           style="opacity:1;fill:#f58536"
           inkscape:connector-curvature="0"
           pointer-events="none"
           d="m 496.71125,200.96862 -70.8456,35.80705 0,-172.911298 70.8456,35.807048 0,101.2972 z"
           id="path33-2" /><path
           style="opacity:1;fill:#9d5025"
           inkscape:connector-curvature="0"
           pointer-events="none"
           d="m 411.72055,70.996963 14.1451,-7.132591 0,172.911298 -14.1451,-7.13259 0,-158.646117 z"
           id="path35" /><path
           style="opacity:1;fill:#9d5025"
           inkscape:connector-curvature="0"
           pointer-events="none"
           d="m 388.40154,82.788553 10.92703,-5.523556 0,146.110043 -10.92703,-5.52355 0,-135.062937 z"
           id="path37-8" /><path
           style="opacity:1;fill:#9d5025"
           inkscape:connector-curvature="0"
           pointer-events="none"
           d="m 369.95767,92.10655 8.71761,-4.418844 0,125.264634 -8.71761,-4.41885 0,-116.42694 z"
           id="path39-0" /><path
           style="opacity:1;fill:#9d5025"
           inkscape:connector-curvature="0"
           pointer-events="none"
           d="m 362.12863,96.069101 -7.10858,3.578303 0,101.345236 7.10858,3.5783 0,-108.501839 z"
           id="path41-6" /></g></g><g
       transform="matrix(0.51541466,0,0,0.51541466,22.464496,-119.48053)"
       id="g4960"
       style=""><path
         id="path75-4"
         d="m 818.51839,438.72166 17.72341,21.06155 0,-138.61482 -17.72341,21.03514 0,96.51813 z"
         pointer-events="none"
         inkscape:connector-curvature="0"
         style="opacity:1;fill:#1a476f" /><path
         id="path77-3"
         d="m 836.2418,459.78081 33.83778,17.14944 0.024,-172.9113 -33.8618,17.09901 0,138.66285 z"
         pointer-events="none"
         inkscape:connector-curvature="0"
         style="opacity:1;fill:#205b98" /><path
         id="path79-4"
         d="m 969.81578,342.20353 -17.72341,-21.03754 0,138.61482 17.72341,-21.06156 0,-96.51572 z"
         pointer-events="none"
         inkscape:connector-curvature="0"
         style="opacity:1;fill:#2d72b8" /><path
         id="path81-7"
         d="m 918.23298,476.93025 33.86179,-17.14944 0,-138.66285 -33.88821,-17.09901 0.0264,172.9113 z"
         pointer-events="none"
         inkscape:connector-curvature="0"
         style="opacity:1;fill:#5294cf" /><rect
         id="rect83"
         height="172.9113"
         width="48.129379"
         pointer-events="none"
         y="304.01895"
         x="870.1012"
         style="opacity:1;fill:#2d72b8" /></g></g><g
     id="g287"
     transform="matrix(1.2551675,0,0,1.2551675,293.17812,-14.450735)"
     style="opacity:0.3"><g
       id="layer1"
       transform="translate(-273.27313,-435.95455)"
       inkscape:groupmode="layer"
       inkscape:label="Red1"
       style=""><path
         id="path3907"
         sodipodi:nodetypes="cszcszc"
         inkscape:connector-curvature="0"
         d="m 332.735,633.647 c 0,0 0.238,-37.322 0.238,-75.263 0,-73.488 -6.192,-78.962 26.781,-78.962 32.973,0 91.779,0 91.779,0 0,0 0,71.106 0,106 0,34.895 6.522,48.564 -30.148,48.564 -36.67,0 -88.65,-0.339 -88.65,-0.339 l 0,0 z"
         style="fill:#a62c39" /></g><g
       id="layer4"
       transform="translate(-273.27313,-435.95455)"
       inkscape:groupmode="layer"
       inkscape:label="Red2"
       style=""><linearGradient
         id="linearGradient3531"
         gradientUnits="userSpaceOnUse"
         x1="-141.9691"
         y1="1281.4927"
         x2="-113.5241"
         y2="1296.3914"
         gradientTransform="matrix(1,0,0,-1,563.0854,1821.0303)"><stop
           offset="0"
           style="stop-color:#FFFFFF"
           id="stop3533" /><stop
           offset="1"
           style="stop-color:#C0815E"
           id="stop3535" /></linearGradient><path
         id="path3947"
         inkscape:connector-curvature="0"
         d="m 408.404,493.286 c 0,0 5.881,1.177 10.979,9.802 5.097,8.626 32.149,75.67 32.149,75.67 l 0,-54.498 -25.093,-40.775 7.058,8.626 13.33,-10.978 -17.251,-1.177 -21.172,13.33 z"
         style="fill:url(#path3947_1_)" /></g><g
       id="layer3"
       transform="translate(-273.27313,-435.95455)"
       inkscape:groupmode="layer"
       inkscape:label="Red3"
       style=""><radialGradient
         id="radialGradient3539"
         cx="-158.7982"
         cy="1311.4702"
         r="48.529598"
         gradientTransform="matrix(1,0,0,-1.5817,563.0854,2630.5657)"
         gradientUnits="userSpaceOnUse"><stop
           offset="0"
           style="stop-color:#FFFFFF"
           id="stop3541" /><stop
           offset="1"
           style="stop-color:#A94436"
           id="stop3543" /></radialGradient><path
         id="path3934"
         inkscape:connector-curvature="0"
         enable-background="new    "
         d="m 356.258,480.348 c 0,0 38.815,25.876 57.635,30.974 18.819,5.097 38.423,10.585 38.423,10.585 l -44.696,109.78 19.212,0.784 25.092,-61.947 -0.783,-90.568 -94.883,0.392 z"
         style="opacity:0.66820003;fill:url(#path3934_1_)" /><path
         id="path3960"
         sodipodi:nodetypes="cccscc"
         inkscape:connector-curvature="0"
         d="m 392.33,596.008 40.377,38.835 -75.272,-1.588 c 0,0 -2.352,-23.916 -1.568,-36.463 0.784,-12.546 4.705,-12.546 4.705,-12.546 l 31.758,11.762 z"
         style="fill:#ffffff;fill-opacity:0.43960003" /></g><g
       id="layer5"
       transform="translate(-273.27313,-435.95455)"
       inkscape:groupmode="layer"
       inkscape:label="Red4"
       style=""><path
         id="path3958"
         sodipodi:nodetypes="cccccccccc"
         inkscape:connector-curvature="0"
         d="m 429.576,634.04 -36.463,-37.639 -33.326,-12.547 -25.876,-57.634 27.445,-45.872 -18.427,-0.784 -7.449,7.057 -2.745,5.489 -1.96,142.714 98.801,-0.784 z"
         style="fill-opacity:0.36230002" /><path
         id="path3962"
         inkscape:connector-curvature="0"
         enable-background="new    "
         d="m 451.924,574.052 c 0,0 -36.854,11.763 -58.811,22.74 -21.956,10.979 -33.718,37.639 -33.718,37.639 0,0 47.048,-2.353 64.691,-1.568 17.643,0.785 25.877,0.784 27.445,-23.916 1.568,-24.7 0.393,-34.895 0.393,-34.895 l 0,0 z"
         style="opacity:0.5;fill:#83222d" /></g><g
       id="layer7"
       transform="translate(-273.27313,-435.95455)"
       inkscape:groupmode="layer"
       inkscape:label="RAILS"
       style=""><path
         id="path3993"
         inkscape:connector-curvature="0"
         d="m 344.095,597.468 0,23.156 5.906,0 0,-6.031 5.375,5.375 9.062,0 -7.188,-7.188 c 0,0 5.17,-0.084 5.562,-7.562 0,-6.861 -5.177,-7.75 -11.156,-7.75 l -7.561,0 z m 6.187,6.282 5.094,0 0,4.125 -5.094,0 0,-4.125 z"
         style="fill:#ffffff" /><path
         id="path3997"
         inkscape:connector-curvature="0"
         d="m 375.845,597.562 c -3.234,-0.019 -7.719,0.281 -7.719,6.375 l 0,16.094 6.062,0 0,-3.938 5.875,0 0,3.844 6.094,0 0,-16.875 c 0,-5.293 -5.881,-5.5 -9.031,-5.5 -0.394,0 -0.82,0.003 -1.281,0 z m -1.563,5.813 5.688,0 0,6.344 -5.688,0 0,-6.344 z"
         style="fill:#ffffff" /><rect
         id="rect4001"
         x="392.23099"
         y="597.57703"
         width="6.2719998"
         height="22.152"
         style="fill:#ffffff" /><path
         id="path4003"
         inkscape:connector-curvature="0"
         d="m 405.072,597.871 0,22.152 15.094,0 0,-5.881 -8.919,0 0,-16.369 -6.175,0.098 z"
         style="fill:#ffffff" /><path
         id="path4005"
         sodipodi:nodetypes="ccccsssccsssssc"
         inkscape:connector-curvature="0"
         d="m 440.162,597.675 0,5.979 -10.096,0 0,2.156 c 0,0 2.059,0 4.312,0 2.253,0 6.959,-0.098 6.959,6.959 0,7.058 -3.234,7.45 -9.801,7.45 -6.568,0 -7.939,0 -7.939,0 l 0,-5.392 c 0,0 6.371,0 9.115,0 2.744,0 2.896,-0.894 2.896,-1.672 0,-0.778 -1.403,-1.141 -4.257,-1.141 -2.854,0 -8.146,-1.402 -8.146,-6.891 0,-5.489 2.744,-7.548 8.233,-7.548 5.489,0 8.724,0.099 8.724,0.1 l 0,0 z"
         style="fill:#ffffff" /></g><g
       id="layer6"
       transform="translate(-273.27313,-435.95455)"
       inkscape:groupmode="layer"
       inkscape:label="Logo (white part)"
       style=""><path
         id="path3966"
         sodipodi:nodetypes="ccssccsszc"
         inkscape:connector-curvature="0"
         d="m 349.593,590.912 52.146,0 c 0,0 -11.566,-26.269 -8.626,-50.381 2.941,-24.112 21.956,-35.091 32.738,-36.267 10.781,-1.177 16.663,5.489 16.663,5.489 l 2.353,-3.529 c 0,0 -15.487,-15.683 -35.091,-13.918 -19.604,1.764 -33.13,14.702 -41.559,30.385 -8.43,15.684 -13.331,26.661 -16.663,43.128 -3.332,16.467 -1.961,25.093 -1.961,25.093 z"
         style="fill:#ffffff" /><path
         id="path3968"
         inkscape:connector-curvature="0"
         d="m 339.204,564.643 10.194,0.784 -1.765,10.193 -9.605,-1.176 1.176,-9.801 z"
         style="fill:#ffffff" /><path
         id="path3970"
         inkscape:connector-curvature="0"
         d="m 355.279,543.079 2.745,-7.645 -9.018,-3.529 -2.94,8.233 9.213,2.941 z"
         style="fill:#ffffff" /><path
         id="path3972"
         inkscape:connector-curvature="0"
         d="m 368.021,516.81 5.293,-6.272 -6.861,-4.509 -5.489,6.076 7.057,4.705 z"
         style="fill:#ffffff" /><path
         id="path3974"
         inkscape:connector-curvature="0"
         d="m 381.939,492.501 4.705,5.686 6.469,-3.725 -4.705,-5.293 -6.469,3.332 z"
         style="fill:#ffffff" /><path
         id="path3976"
         inkscape:connector-curvature="0"
         d="m 404.876,486.033 1.176,5.686 8.038,-0.196 -0.785,-5.097 -8.429,-0.393 z"
         style="fill:#ffffff" /><path
         id="path3978"
         inkscape:connector-curvature="0"
         d="m 432.125,492.11 -0.196,3.528 5.489,2.94 1.176,-1.764 -6.469,-4.704 z"
         style="fill:#ffffff" /><path
         id="path3980"
         inkscape:connector-curvature="0"
         d="m 430.948,507.205 0,2.94 5.293,0.588 0,-2.353 -5.293,-1.175 z"
         style="fill:#ffffff" /><path
         id="path3982"
         inkscape:connector-curvature="0"
         d="m 414.09,509.753 2.548,4.704 3.725,-2.94 -0.784,-3.137 -5.489,1.373 z"
         style="fill:#ffffff" /><path
         id="path3984"
         inkscape:connector-curvature="0"
         d="m 406.051,515.831 3.921,5.881 -2.353,4.116 -5.685,-6.272 4.117,-3.725 z"
         style="fill:#ffffff" /><path
         id="path3986"
         inkscape:connector-curvature="0"
         d="m 398.211,532.101 -2.549,5.097 6.665,5.686 1.568,-6.47 -5.684,-4.313 z"
         style="fill:#ffffff" /><path
         id="path3988"
         inkscape:connector-curvature="0"
         d="m 395.466,549.94 -0.392,6.861 8.233,3.529 -0.392,-6.47 -7.449,-3.92 z"
         style="fill:#ffffff" /><path
         id="path3990"
         inkscape:connector-curvature="0"
         d="m 397.818,574.249 1.961,7.058 10.39,0.588 -3.726,-7.646 -8.625,0 z"
         style="fill:#ffffff" /></g><g
       id="g3911"
       transform="translate(-273.27313,-435.95455)"
       inkscape:groupmode="layer"
       inkscape:label="Red.border"
       style=""><path
         id="path3913"
         sodipodi:nodetypes="cszcszc"
         inkscape:connector-curvature="0"
         d="m 332.735,633.647 c 0,0 0.238,-37.322 0.238,-75.263 0,-73.488 -6.192,-78.962 26.781,-78.962 32.973,0 91.779,0 91.779,0 0,0 0,71.106 0,106 0,34.895 4.954,48.564 -30.148,48.564 -35.102,0 -88.65,-0.339 -88.65,-0.339 l 0,0 z"
         style="fill:none;stroke:#5e000e;stroke-width:3" /></g></g><g
     style="fill:#d8d8d8;fill-rule:evenodd;opacity:0.3"
     id="Page 1"
     transform="matrix(0.05781293,0,0,0.05781293,79.142081,483.66408)"><g
       id="BackBone.JS"
       style=""><path
         inkscape:connector-curvature="0"
         style="fill:#002a41;stroke:#848484;stroke-width:1"
         id="Path"
         d="M 0,0 0,485 361,690.78502 361,550.90277 119.49609,413.23549 119.49609,197 361,334.66728 361,205.78502 0,0 Z m 0,0" /><path
         inkscape:connector-curvature="0"
         style="fill:#0071b5;stroke:#848484;stroke-width:1"
         id="path2996"
         d="M 722,0 722,485 361,690.78502 361,550.90277 602.50391,413.23549 602.50391,197 361,334.66728 361,205.78502 722,0 Z m 0,0" /><path
         inkscape:connector-curvature="0"
         style="fill:#0071b5;stroke:#848484;stroke-width:1"
         id="path2998"
         d="m 0,896.78502 0,-485 L 361,206 l 0,139.88225 -241.50391,137.66728 0,205.23549 L 361,551.11775 361,691 0,896.78502 Z m 0,0" /><path
         inkscape:connector-curvature="0"
         style="fill:#002a41;stroke:#848484;stroke-width:1"
         id="path3000"
         d="m 722,896.78502 0,-485 L 361,206 l 0,139.88225 241.50391,137.66728 0,205.23549 L 361,551.11775 361,691 722,896.78502 Z m 0,0" /></g></g><path
     style="font-style:normal;font-variant:normal;font-weight:normal;font-stretch:normal;font-size:medium;line-height:125%;font-family:'Open Sans Light';-inkscape-font-specification:'Open Sans Light';letter-spacing:0px;word-spacing:0px;fill:#999999;fill-opacity:1;stroke:none;opacity:0.3"
     d="m 138.08518,496.11046 7.59767,0 c 3.42304,3e-5 5.93664,0.58107 7.54082,1.74313 1.60414,1.1621 2.40622,2.91783 2.40624,5.26719 -2e-5,1.60419 -0.48948,2.93992 -1.46837,4.00725 -0.97894,1.06737 -2.40942,1.7526 -4.29145,2.05573 l 0,0.11367 c 2.21044,0.32843 3.8367,1.02633 4.8788,2.09363 1.04205,1.06736 1.56308,2.55469 1.56311,4.46198 -3e-5,2.5515 -0.84631,4.51566 -2.53887,5.89245 -1.6926,1.3768 -4.09253,2.0652 -7.19978,2.0652 l -8.48817,0 z m 1.93258,12.33437 6.10086,0 c 2.60201,3e-5 4.49354,-0.4326 5.67457,-1.29786 1.181,-0.8652 1.7715,-2.2199 1.77152,-4.06406 -2e-5,-1.84416 -0.66631,-3.18306 -1.99888,-4.01672 -1.33261,-0.83363 -3.31886,-1.25047 -5.95877,-1.2505 l -5.5893,0 z m 0,1.70523 0,11.9554 6.51769,0 c 5.12825,3e-5 7.69238,-2.08413 7.6924,-6.25242 -2e-5,-3.80199 -2.70309,-5.70298 -8.10923,-5.70298 z"
     id="path3014"
     inkscape:connector-curvature="0" /><path
     style="font-style:normal;font-variant:normal;font-weight:normal;font-stretch:normal;font-size:medium;line-height:125%;font-family:'Open Sans Light';-inkscape-font-specification:'Open Sans Light';letter-spacing:0px;word-spacing:0px;fill:#999999;fill-opacity:1;stroke:none;opacity:0.3"
     d="m 175.75141,514.03415 -11.2544,0 -3.86514,9.77654 -2.14099,0 11.14071,-27.81389 1.23154,0 10.91337,27.81389 -2.17888,0 z m -10.55337,-1.7431 9.90918,0 -3.77042,-9.98497 c -0.31579,-0.7831 -0.69472,-1.8694 -1.1368,-3.25886 -0.34106,1.21263 -0.71367,2.31153 -1.11786,3.29676 z"
     id="path3016"
     inkscape:connector-curvature="0" /><path
     style="font-style:normal;font-variant:normal;font-weight:normal;font-stretch:normal;font-size:medium;line-height:125%;font-family:'Open Sans Light';-inkscape-font-specification:'Open Sans Light';letter-spacing:0px;word-spacing:0px;fill:#999999;fill-opacity:1;stroke:none;opacity:0.3"
     d="m 197.50233,497.45569 c -3.47359,3e-5 -6.20824,1.11157 -8.20396,3.33466 -1.99573,2.22309 -2.99359,5.26722 -2.99359,9.13234 0,3.95356 0.94102,7.02295 2.82307,9.20814 1.88204,2.1852 4.57248,3.2778 8.07133,3.2778 2.32413,0 4.4588,-0.29684 6.40402,-0.8905 l 0,1.70519 c -1.83154,0.6442 -4.11778,0.9663 -6.85874,0.9663 -3.89042,0 -6.95348,-1.2568 -9.18919,-3.77042 -2.23573,-2.5136 -3.35359,-6.02505 -3.35358,-10.53441 -1e-5,-2.81672 0.53366,-5.29875 1.601,-7.44608 1.06733,-2.14729 2.60202,-3.80512 4.60407,-4.97355 2.00203,-1.16833 4.32933,-1.75253 6.98189,-1.75256 2.70306,3e-5 5.12193,0.50526 7.25662,1.51573 l -0.77681,1.74312 c -2.02101,-1.01049 -4.14305,-1.51573 -6.36613,-1.51576 z"
     id="path3018"
     inkscape:connector-curvature="0" /><path
     style="font-style:normal;font-variant:normal;font-weight:normal;font-stretch:normal;font-size:medium;line-height:125%;font-family:'Open Sans Light';-inkscape-font-specification:'Open Sans Light';letter-spacing:0px;word-spacing:0px;fill:#999999;fill-opacity:1;stroke:none;opacity:0.3"
     d="m 228.40455,523.81069 -2.36835,0 -10.62915,-14.62693 -3.69462,3.25886 0,11.36807 -1.93258,0 0,-27.70023 1.93258,0 0,14.39956 3.06938,-3.06935 10.85651,-11.33021 2.46308,0 -11.34913,11.70914 z"
     id="path3020"
     inkscape:connector-curvature="0" /><path
     style="font-style:normal;font-variant:normal;font-weight:normal;font-stretch:normal;font-size:medium;line-height:125%;font-family:'Open Sans Light';-inkscape-font-specification:'Open Sans Light';letter-spacing:0px;word-spacing:0px;fill:#999999;fill-opacity:1;stroke:none;opacity:0.3"
     d="m 232.36444,496.11046 7.59766,0 c 3.42304,3e-5 5.93664,0.58107 7.54082,1.74313 1.60415,1.1621 2.40623,2.91783 2.40625,5.26719 -2e-5,1.60419 -0.48948,2.93992 -1.46838,4.00725 -0.97894,1.06737 -2.40942,1.7526 -4.29145,2.05573 l 0,0.11367 c 2.21044,0.32843 3.83671,1.02633 4.8788,2.09363 1.04205,1.06736 1.56309,2.55469 1.56311,4.46198 -2e-5,2.5515 -0.84631,4.51566 -2.53887,5.89245 -1.6926,1.3768 -4.09252,2.0652 -7.19978,2.0652 l -8.48816,0 z m 1.93257,12.33437 6.10087,0 c 2.60201,3e-5 4.49353,-0.4326 5.67456,-1.29786 1.181,-0.8652 1.77151,-2.2199 1.77153,-4.06406 -2e-5,-1.84416 -0.66632,-3.18306 -1.99889,-4.01672 -1.33261,-0.83363 -3.31886,-1.25047 -5.95877,-1.2505 l -5.5893,0 z m 0,1.70523 0,11.9554 6.5177,0 c 5.12824,3e-5 7.69237,-2.08413 7.69239,-6.25242 -2e-5,-3.80199 -2.70309,-5.70298 -8.10922,-5.70298 z"
     id="path3022"
     inkscape:connector-curvature="0" /><path
     style="font-style:normal;font-variant:normal;font-weight:normal;font-stretch:normal;font-size:medium;line-height:125%;font-family:'Open Sans Light';-inkscape-font-specification:'Open Sans Light';letter-spacing:0px;word-spacing:0px;fill:#999999;fill-opacity:1;stroke:none;opacity:0.3"
     d="m 279.97773,509.92269 c -3e-5,4.39566 -1.09895,7.87238 -3.29675,10.43021 -2.19784,2.55782 -5.22933,3.83672 -9.09446,3.83672 -3.85252,0 -6.87769,-1.2789 -9.07551,-3.83672 -2.19783,-2.55783 -3.29674,-6.04719 -3.29674,-10.46811 0,-4.40825 1.10838,-7.87868 3.32516,-10.41127 2.21676,-2.53253 5.24509,-3.79879 9.08499,-3.79882 3.86512,3e-5 6.89029,1.27263 9.07551,3.81779 2.18517,2.54519 3.27777,6.02191 3.2778,10.4302 z m -22.66037,0 c 0,3.96619 0.88418,7.03242 2.65255,9.19868 1.76836,2.16623 4.30723,3.24936 7.61661,3.24936 3.33462,0 5.88296,-1.07364 7.64503,-3.22096 1.76203,-2.1473 2.64306,-5.22299 2.64308,-9.22708 -2e-5,-3.99145 -0.88105,-7.05135 -2.64308,-9.17974 -1.76207,-2.12833 -4.29778,-3.19249 -7.60713,-3.19252 -3.29676,3e-5 -5.83878,1.07369 -7.62609,3.22095 -1.78732,2.14733 -2.68097,5.19776 -2.68097,9.15131 z"
     id="path3024"
     inkscape:connector-curvature="0" /><path
     style="font-style:normal;font-variant:normal;font-weight:normal;font-stretch:normal;font-size:medium;line-height:125%;font-family:'Open Sans Light';-inkscape-font-specification:'Open Sans Light';letter-spacing:0px;word-spacing:0px;fill:#999999;fill-opacity:1;stroke:none;opacity:0.3"
     d="m 306.46534,523.81069 -1.95152,0 -16.40792,-24.59294 -0.15158,0 c 0.15157,2.93046 0.22736,5.14092 0.22736,6.63139 l 0,17.96155 -1.85678,0 0,-27.70023 1.93257,0 16.38897,24.55507 0.11369,0 c -0.11371,-2.27363 -0.17055,-4.43355 -0.17053,-6.47982 l 0,-18.07525 1.87574,0 z"
     id="path3026"
     inkscape:connector-curvature="0" /><path
     style="font-style:normal;font-variant:normal;font-weight:normal;font-stretch:normal;font-size:medium;line-height:125%;font-family:'Open Sans Light';-inkscape-font-specification:'Open Sans Light';letter-spacing:0px;word-spacing:0px;fill:#999999;fill-opacity:1;stroke:none;opacity:0.3"
     d="m 329.42885,523.81069 -15.13848,0 0,-27.70023 15.13848,0 0,1.78103 -13.20591,0 0,10.47757 12.46699,0 0,1.781 -12.46699,0 0,11.87963 13.20591,0 z"
     id="path3028"
     inkscape:connector-curvature="0" /><path
     style="font-style:normal;font-variant:normal;font-weight:normal;font-stretch:normal;font-size:medium;line-height:125%;font-family:'Open Sans Light';-inkscape-font-specification:'Open Sans Light';letter-spacing:0px;word-spacing:0px;fill:#999999;fill-opacity:1;stroke:none;opacity:0.3"
     d="m 334.88552,522.33283 c 0,-1.23783 0.50524,-1.85677 1.51574,-1.85677 1.03575,0 1.55363,0.61894 1.55364,1.85677 -1e-5,1.23786 -0.51789,1.85679 -1.55364,1.85679 -1.0105,0 -1.51574,-0.61893 -1.51574,-1.85679 z"
     id="path3030"
     inkscape:connector-curvature="0" /><path
     style="font-style:normal;font-variant:normal;font-weight:normal;font-stretch:normal;font-size:medium;line-height:125%;font-family:'Open Sans Light';-inkscape-font-specification:'Open Sans Light';letter-spacing:0px;word-spacing:0px;fill:#999999;fill-opacity:1;stroke:none;opacity:0.3"
     d="m 340.43693,530.80204 c -1.16207,0 -2.11572,-0.1705 -2.86097,-0.51154 l 0,-1.66732 c 0.98524,0.2526 1.92626,0.37893 2.82308,0.37893 3.05674,0 4.58512,-1.66733 4.58512,-5.00196 l 0,-27.88969 1.93257,0 0,27.70023 c 0,4.66089 -2.15994,6.99135 -6.4798,6.99135 z"
     id="path3032"
     inkscape:connector-curvature="0" /><path
     style="font-style:normal;font-variant:normal;font-weight:normal;font-stretch:normal;font-size:medium;line-height:125%;font-family:'Open Sans Light';-inkscape-font-specification:'Open Sans Light';letter-spacing:0px;word-spacing:0px;fill:#999999;fill-opacity:1;stroke:none;opacity:0.3"
     d="m 369.8992,516.66774 c -2e-5,2.31153 -0.84946,4.14306 -2.54834,5.49459 -1.69891,1.35153 -3.95673,2.02729 -6.77348,2.02729 -3.38516,0 -5.98087,-0.37263 -7.78713,-1.11786 l 0,-1.93256 c 1.99573,0.84629 4.54091,1.26943 7.63556,1.26943 2.2736,0 4.0767,-0.52104 5.40931,-1.5631 1.33257,-1.0421 1.99887,-2.40943 1.99889,-4.10199 -2e-5,-1.0484 -0.22107,-1.91679 -0.66314,-2.60519 -0.44211,-0.6884 -1.16209,-1.3168 -2.15994,-1.8852 -0.99788,-0.5684 -2.46309,-1.181 -4.39566,-1.83786 -2.82939,-0.97256 -4.78407,-2.02413 -5.86403,-3.15462 -1.07997,-1.13047 -1.61995,-2.63676 -1.61995,-4.51883 0,-2.07149 0.81155,-3.76089 2.43466,-5.06825 1.62311,-1.3073 3.71041,-1.96096 6.26192,-1.96099 2.60201,3e-5 5.04615,0.49263 7.33241,1.47786 l -0.70103,1.6673 c -2.2989,-0.95994 -4.49672,-1.43994 -6.59349,-1.43997 -2.04626,3e-5 -3.67568,0.4737 -4.88827,1.42103 -1.2126,0.94736 -1.81889,2.23573 -1.81889,3.86513 0,1.02316 0.18631,1.86312 0.55893,2.51992 0.37261,0.65687 0.98207,1.24736 1.82837,1.77153 0.84628,0.52423 2.29886,1.15263 4.35776,1.88523 2.15992,0.74523 3.78303,1.46836 4.86933,2.16939 1.08626,0.70103 1.87887,1.4968 2.37782,2.3873 0.49891,0.89049 0.74837,1.96732 0.74839,3.23042 z"
     id="path3034"
     inkscape:connector-curvature="0" /><g
     transform="matrix(0.05781293,0,0,0.05781293,435.6765,483.66408)"
     id="g5083"
     style="fill:#d8d8d8;fill-rule:evenodd;opacity:0.3"><g
       id="g5085"
       style=""><path
         d="M 0,0 0,485 361,690.78502 361,550.90277 119.49609,413.23549 119.49609,197 361,334.66728 361,205.78502 0,0 Z m 0,0"
         id="path5087"
         style="fill:#002a41;stroke:#848484;stroke-width:1"
         inkscape:connector-curvature="0" /><path
         d="M 722,0 722,485 361,690.78502 361,550.90277 602.50391,413.23549 602.50391,197 361,334.66728 361,205.78502 722,0 Z m 0,0"
         id="path5089"
         style="fill:#0071b5;stroke:#848484;stroke-width:1"
         inkscape:connector-curvature="0" /><path
         d="m 0,896.78502 0,-485 L 361,206 l 0,139.88225 -241.50391,137.66728 0,205.23549 L 361,551.11775 361,691 0,896.78502 Z m 0,0"
         id="path5091"
         style="fill:#0071b5;stroke:#848484;stroke-width:1"
         inkscape:connector-curvature="0" /><path
         d="m 722,896.78502 0,-485 L 361,206 l 0,139.88225 241.50391,137.66728 0,205.23549 L 361,551.11775 361,691 722,896.78502 Z m 0,0"
         id="path5093"
         style="fill:#002a41;stroke:#848484;stroke-width:1"
         inkscape:connector-curvature="0" /></g></g><path
     inkscape:connector-curvature="0"
     id="path5095"
     d="m 494.6196,496.11046 7.59767,0 c 3.42304,3e-5 5.93664,0.58107 7.54082,1.74313 1.60414,1.1621 2.40622,2.91783 2.40624,5.26719 -2e-5,1.60419 -0.48948,2.93992 -1.46837,4.00725 -0.97894,1.06737 -2.40942,1.7526 -4.29145,2.05573 l 0,0.11367 c 2.21044,0.32843 3.8367,1.02633 4.8788,2.09363 1.04205,1.06736 1.56308,2.55469 1.56311,4.46198 -3e-5,2.5515 -0.84631,4.51566 -2.53887,5.89245 -1.6926,1.3768 -4.09253,2.0652 -7.19978,2.0652 l -8.48817,0 z m 1.93258,12.33437 6.10086,0 c 2.60201,3e-5 4.49354,-0.4326 5.67457,-1.29786 1.181,-0.8652 1.7715,-2.2199 1.77152,-4.06406 -2e-5,-1.84416 -0.66631,-3.18306 -1.99888,-4.01672 -1.33261,-0.83363 -3.31886,-1.25047 -5.95877,-1.2505 l -5.5893,0 z m 0,1.70523 0,11.9554 6.51769,0 c 5.12825,3e-5 7.69238,-2.08413 7.6924,-6.25242 -2e-5,-3.80199 -2.70309,-5.70298 -8.10923,-5.70298 z"
     style="font-style:normal;font-variant:normal;font-weight:normal;font-stretch:normal;font-size:medium;line-height:125%;font-family:'Open Sans Light';-inkscape-font-specification:'Open Sans Light';letter-spacing:0px;word-spacing:0px;fill:#999999;fill-opacity:1;stroke:none;opacity:0.3" /><path
     inkscape:connector-curvature="0"
     id="path5097"
     d="m 532.28583,514.03415 -11.2544,0 -3.86514,9.77654 -2.14099,0 11.14071,-27.81389 1.23154,0 10.91336,27.81389 -2.17888,0 z m -10.55337,-1.7431 9.90918,0 -3.77042,-9.98497 c -0.31579,-0.7831 -0.69472,-1.8694 -1.1368,-3.25886 -0.34106,1.21263 -0.71367,2.31153 -1.11786,3.29676 z"
     style="font-style:normal;font-variant:normal;font-weight:normal;font-stretch:normal;font-size:medium;line-height:125%;font-family:'Open Sans Light';-inkscape-font-specification:'Open Sans Light';letter-spacing:0px;word-spacing:0px;fill:#999999;fill-opacity:1;stroke:none;opacity:0.3" /><path
     inkscape:connector-curvature="0"
     id="path5099"
     d="m 554.03674,497.45569 c -3.47359,3e-5 -6.20824,1.11157 -8.20396,3.33466 -1.99573,2.22309 -2.99359,5.26722 -2.99359,9.13234 0,3.95356 0.94102,7.02295 2.82307,9.20814 1.88204,2.1852 4.57248,3.2778 8.07133,3.2778 2.32413,0 4.4588,-0.29684 6.40402,-0.8905 l 0,1.70519 c -1.83154,0.6442 -4.11778,0.9663 -6.85874,0.9663 -3.89042,0 -6.95348,-1.2568 -9.18919,-3.77042 -2.23573,-2.5136 -3.35359,-6.02505 -3.35358,-10.53441 -10e-6,-2.81672 0.53366,-5.29875 1.601,-7.44608 1.06733,-2.14729 2.60202,-3.80512 4.60407,-4.97355 2.00203,-1.16833 4.32933,-1.75253 6.98189,-1.75256 2.70306,3e-5 5.12193,0.50526 7.25662,1.51573 l -0.77681,1.74312 c -2.02101,-1.01049 -4.14305,-1.51573 -6.36613,-1.51576 z"
     style="font-style:normal;font-variant:normal;font-weight:normal;font-stretch:normal;font-size:medium;line-height:125%;font-family:'Open Sans Light';-inkscape-font-specification:'Open Sans Light';letter-spacing:0px;word-spacing:0px;fill:#999999;fill-opacity:1;stroke:none;opacity:0.3" /><path
     inkscape:connector-curvature="0"
     id="path5101"
     d="m 584.93896,523.81069 -2.36835,0 -10.62915,-14.62693 -3.69462,3.25886 0,11.36807 -1.93258,0 0,-27.70023 1.93258,0 0,14.39956 3.06938,-3.06935 10.85651,-11.33021 2.46308,0 -11.34913,11.70914 z"
     style="font-style:normal;font-variant:normal;font-weight:normal;font-stretch:normal;font-size:medium;line-height:125%;font-family:'Open Sans Light';-inkscape-font-specification:'Open Sans Light';letter-spacing:0px;word-spacing:0px;fill:#999999;fill-opacity:1;stroke:none;opacity:0.3" /><path
     inkscape:connector-curvature="0"
     id="path5103"
     d="m 588.89885,496.11046 7.59766,0 c 3.42304,3e-5 5.93664,0.58107 7.54082,1.74313 1.60415,1.1621 2.40623,2.91783 2.40625,5.26719 -2e-5,1.60419 -0.48948,2.93992 -1.46838,4.00725 -0.97894,1.06737 -2.40942,1.7526 -4.29145,2.05573 l 0,0.11367 c 2.21044,0.32843 3.83671,1.02633 4.8788,2.09363 1.04205,1.06736 1.56309,2.55469 1.56311,4.46198 -2e-5,2.5515 -0.84631,4.51566 -2.53887,5.89245 -1.6926,1.3768 -4.09252,2.0652 -7.19978,2.0652 l -8.48816,0 z m 1.93257,12.33437 6.10087,0 c 2.60201,3e-5 4.49353,-0.4326 5.67456,-1.29786 1.181,-0.8652 1.77151,-2.2199 1.77153,-4.06406 -2e-5,-1.84416 -0.66632,-3.18306 -1.99889,-4.01672 -1.33261,-0.83363 -3.31886,-1.25047 -5.95877,-1.2505 l -5.5893,0 z m 0,1.70523 0,11.9554 6.5177,0 c 5.12824,3e-5 7.69237,-2.08413 7.69239,-6.25242 -2e-5,-3.80199 -2.70309,-5.70298 -8.10922,-5.70298 z"
     style="font-style:normal;font-variant:normal;font-weight:normal;font-stretch:normal;font-size:medium;line-height:125%;font-family:'Open Sans Light';-inkscape-font-specification:'Open Sans Light';letter-spacing:0px;word-spacing:0px;fill:#999999;fill-opacity:1;stroke:none;opacity:0.3" /><path
     inkscape:connector-curvature="0"
     id="path5105"
     d="m 636.51214,509.92269 c -3e-5,4.39566 -1.09895,7.87238 -3.29675,10.43021 -2.19784,2.55782 -5.22933,3.83672 -9.09446,3.83672 -3.85252,0 -6.87769,-1.2789 -9.07551,-3.83672 -2.19783,-2.55783 -3.29674,-6.04719 -3.29674,-10.46811 0,-4.40825 1.10838,-7.87868 3.32516,-10.41127 2.21676,-2.53253 5.24509,-3.79879 9.08499,-3.79882 3.86512,3e-5 6.89029,1.27263 9.07551,3.81779 2.18517,2.54519 3.27777,6.02191 3.2778,10.4302 z m -22.66037,0 c 0,3.96619 0.88418,7.03242 2.65255,9.19868 1.76836,2.16623 4.30723,3.24936 7.61661,3.24936 3.33462,0 5.88296,-1.07364 7.64503,-3.22096 1.76203,-2.1473 2.64306,-5.22299 2.64308,-9.22708 -2e-5,-3.99145 -0.88105,-7.05135 -2.64308,-9.17974 -1.76207,-2.12833 -4.29778,-3.19249 -7.60713,-3.19252 -3.29676,3e-5 -5.83878,1.07369 -7.62609,3.22095 -1.78732,2.14733 -2.68097,5.19776 -2.68097,9.15131 z"
     style="font-style:normal;font-variant:normal;font-weight:normal;font-stretch:normal;font-size:medium;line-height:125%;font-family:'Open Sans Light';-inkscape-font-specification:'Open Sans Light';letter-spacing:0px;word-spacing:0px;fill:#999999;fill-opacity:1;stroke:none;opacity:0.3" /><path
     inkscape:connector-curvature="0"
     id="path5107"
     d="m 662.99975,523.81069 -1.95152,0 -16.40792,-24.59294 -0.15158,0 c 0.15157,2.93046 0.22736,5.14092 0.22736,6.63139 l 0,17.96155 -1.85678,0 0,-27.70023 1.93257,0 16.38897,24.55507 0.11369,0 c -0.11371,-2.27363 -0.17055,-4.43355 -0.17053,-6.47982 l 0,-18.07525 1.87574,0 z"
     style="font-style:normal;font-variant:normal;font-weight:normal;font-stretch:normal;font-size:medium;line-height:125%;font-family:'Open Sans Light';-inkscape-font-specification:'Open Sans Light';letter-spacing:0px;word-spacing:0px;fill:#999999;fill-opacity:1;stroke:none;opacity:0.3" /><path
     inkscape:connector-curvature="0"
     id="path5109"
     d="m 685.96326,523.81069 -15.13848,0 0,-27.70023 15.13848,0 0,1.78103 -13.20591,0 0,10.47757 12.46699,0 0,1.781 -12.46699,0 0,11.87963 13.20591,0 z"
     style="font-style:normal;font-variant:normal;font-weight:normal;font-stretch:normal;font-size:medium;line-height:125%;font-family:'Open Sans Light';-inkscape-font-specification:'Open Sans Light';letter-spacing:0px;word-spacing:0px;fill:#999999;fill-opacity:1;stroke:none;opacity:0.3" /><path
     inkscape:connector-curvature="0"
     id="path5111"
     d="m 691.41993,522.33283 c 0,-1.23783 0.50524,-1.85677 1.51574,-1.85677 1.03575,0 1.55363,0.61894 1.55364,1.85677 -1e-5,1.23786 -0.51789,1.85679 -1.55364,1.85679 -1.0105,0 -1.51574,-0.61893 -1.51574,-1.85679 z"
     style="font-style:normal;font-variant:normal;font-weight:normal;font-stretch:normal;font-size:medium;line-height:125%;font-family:'Open Sans Light';-inkscape-font-specification:'Open Sans Light';letter-spacing:0px;word-spacing:0px;fill:#999999;fill-opacity:1;stroke:none;opacity:0.3" /><path
     inkscape:connector-curvature="0"
     id="path5113"
     d="m 696.97134,530.80204 c -1.16207,0 -2.11572,-0.1705 -2.86097,-0.51154 l 0,-1.66732 c 0.98524,0.2526 1.92626,0.37893 2.82308,0.37893 3.05674,0 4.58512,-1.66733 4.58512,-5.00196 l 0,-27.88969 1.93257,0 0,27.70023 c 0,4.66089 -2.15994,6.99135 -6.4798,6.99135 z"
     style="font-style:normal;font-variant:normal;font-weight:normal;font-stretch:normal;font-size:medium;line-height:125%;font-family:'Open Sans Light';-inkscape-font-specification:'Open Sans Light';letter-spacing:0px;word-spacing:0px;fill:#999999;fill-opacity:1;stroke:none;opacity:0.3" /><path
     inkscape:connector-curvature="0"
     id="path5115"
     d="m 726.43361,516.66774 c -2e-5,2.31153 -0.84946,4.14306 -2.54834,5.49459 -1.69891,1.35153 -3.95673,2.02729 -6.77348,2.02729 -3.38516,0 -5.98087,-0.37263 -7.78713,-1.11786 l 0,-1.93256 c 1.99573,0.84629 4.54091,1.26943 7.63556,1.26943 2.2736,0 4.0767,-0.52104 5.40931,-1.5631 1.33257,-1.0421 1.99887,-2.40943 1.99889,-4.10199 -2e-5,-1.0484 -0.22107,-1.91679 -0.66314,-2.60519 -0.44211,-0.6884 -1.16209,-1.3168 -2.15994,-1.8852 -0.99788,-0.5684 -2.46309,-1.181 -4.39566,-1.83786 -2.82939,-0.97256 -4.78407,-2.02413 -5.86403,-3.15462 -1.07997,-1.13047 -1.61995,-2.63676 -1.61995,-4.51883 0,-2.07149 0.81155,-3.76089 2.43466,-5.06825 1.62311,-1.3073 3.71041,-1.96096 6.26192,-1.96099 2.60201,3e-5 5.04615,0.49263 7.33241,1.47786 l -0.70103,1.6673 c -2.2989,-0.95994 -4.49672,-1.43994 -6.59349,-1.43997 -2.04626,3e-5 -3.67568,0.4737 -4.88827,1.42103 -1.2126,0.94736 -1.81889,2.23573 -1.81889,3.86513 0,1.02316 0.18631,1.86312 0.55893,2.51992 0.37261,0.65687 0.98207,1.24736 1.82837,1.77153 0.84628,0.52423 2.29886,1.15263 4.35776,1.88523 2.15992,0.74523 3.78303,1.46836 4.86933,2.16939 1.08626,0.70103 1.87887,1.4968 2.37782,2.3873 0.49891,0.89049 0.74837,1.96732 0.74839,3.23042 z"
     style="font-style:normal;font-variant:normal;font-weight:normal;font-stretch:normal;font-size:medium;line-height:125%;font-family:'Open Sans Light';-inkscape-font-specification:'Open Sans Light';letter-spacing:0px;word-spacing:0px;fill:#999999;fill-opacity:1;stroke:none;opacity:0.3" /><g
     transform="matrix(0.05781293,0,0,0.05781293,784.95586,483.66408)"
     id="g5119"
     style="fill:#d8d8d8;fill-rule:evenodd;opacity:0.3"><g
       id="g5121"
       style=""><path
         d="M 0,0 0,485 361,690.78502 361,550.90277 119.49609,413.23549 119.49609,197 361,334.66728 361,205.78502 0,0 Z m 0,0"
         id="path5123"
         style="fill:#002a41;stroke:#848484;stroke-width:1"
         inkscape:connector-curvature="0" /><path
         d="M 722,0 722,485 361,690.78502 361,550.90277 602.50391,413.23549 602.50391,197 361,334.66728 361,205.78502 722,0 Z m 0,0"
         id="path5125"
         style="fill:#0071b5;stroke:#848484;stroke-width:1"
         inkscape:connector-curvature="0" /><path
         d="m 0,896.78502 0,-485 L 361,206 l 0,139.88225 -241.50391,137.66728 0,205.23549 L 361,551.11775 361,691 0,896.78502 Z m 0,0"
         id="path5127"
         style="fill:#0071b5;stroke:#848484;stroke-width:1"
         inkscape:connector-curvature="0" /><path
         d="m 722,896.78502 0,-485 L 361,206 l 0,139.88225 241.50391,137.66728 0,205.23549 L 361,551.11775 361,691 722,896.78502 Z m 0,0"
         id="path5129"
         style="fill:#002a41;stroke:#848484;stroke-width:1"
         inkscape:connector-curvature="0" /></g></g><path
     inkscape:connector-curvature="0"
     id="path5131"
     d="m 843.89896,496.11046 7.59767,0 c 3.42304,3e-5 5.93664,0.58107 7.54082,1.74313 1.60414,1.1621 2.40622,2.91783 2.40624,5.26719 -2e-5,1.60419 -0.48948,2.93992 -1.46837,4.00725 -0.97894,1.06737 -2.40942,1.7526 -4.29145,2.05573 l 0,0.11367 c 2.21044,0.32843 3.8367,1.02633 4.8788,2.09363 1.04205,1.06736 1.56308,2.55469 1.56311,4.46198 -3e-5,2.5515 -0.84631,4.51566 -2.53887,5.89245 -1.6926,1.3768 -4.09253,2.0652 -7.19978,2.0652 l -8.48817,0 z m 1.93258,12.33437 6.10086,0 c 2.60201,3e-5 4.49354,-0.4326 5.67457,-1.29786 1.181,-0.8652 1.7715,-2.2199 1.77152,-4.06406 -2e-5,-1.84416 -0.66631,-3.18306 -1.99888,-4.01672 -1.33261,-0.83363 -3.31886,-1.25047 -5.95877,-1.2505 l -5.5893,0 z m 0,1.70523 0,11.9554 6.51769,0 c 5.12825,3e-5 7.69238,-2.08413 7.6924,-6.25242 -2e-5,-3.80199 -2.70309,-5.70298 -8.10923,-5.70298 z"
     style="font-style:normal;font-variant:normal;font-weight:normal;font-stretch:normal;font-size:medium;line-height:125%;font-family:'Open Sans Light';-inkscape-font-specification:'Open Sans Light';letter-spacing:0px;word-spacing:0px;fill:#999999;fill-opacity:1;stroke:none;opacity:0.3" /><path
     inkscape:connector-curvature="0"
     id="path5133"
     d="m 881.56519,514.03415 -11.2544,0 -3.86514,9.77654 -2.14099,0 11.14071,-27.81389 1.23154,0 10.91336,27.81389 -2.17888,0 z m -10.55337,-1.7431 9.90918,0 -3.77042,-9.98497 c -0.31579,-0.7831 -0.69472,-1.8694 -1.1368,-3.25886 -0.34106,1.21263 -0.71367,2.31153 -1.11786,3.29676 z"
     style="font-style:normal;font-variant:normal;font-weight:normal;font-stretch:normal;font-size:medium;line-height:125%;font-family:'Open Sans Light';-inkscape-font-specification:'Open Sans Light';letter-spacing:0px;word-spacing:0px;fill:#999999;fill-opacity:1;stroke:none;opacity:0.3" /><path
     inkscape:connector-curvature="0"
     id="path5135"
     d="m 903.3161,497.45569 c -3.47359,3e-5 -6.20824,1.11157 -8.20396,3.33466 -1.99573,2.22309 -2.99359,5.26722 -2.99359,9.13234 0,3.95356 0.94102,7.02295 2.82307,9.20814 1.88204,2.1852 4.57248,3.2778 8.07133,3.2778 2.32413,0 4.4588,-0.29684 6.40402,-0.8905 l 0,1.70519 c -1.83154,0.6442 -4.11778,0.9663 -6.85874,0.9663 -3.89042,0 -6.95348,-1.2568 -9.18919,-3.77042 -2.23573,-2.5136 -3.35359,-6.02505 -3.35358,-10.53441 -10e-6,-2.81672 0.53366,-5.29875 1.601,-7.44608 1.06733,-2.14729 2.60202,-3.80512 4.60407,-4.97355 2.00203,-1.16833 4.32933,-1.75253 6.98189,-1.75256 2.70306,3e-5 5.12193,0.50526 7.25662,1.51573 l -0.77681,1.74312 c -2.02101,-1.01049 -4.14305,-1.51573 -6.36613,-1.51576 z"
     style="font-style:normal;font-variant:normal;font-weight:normal;font-stretch:normal;font-size:medium;line-height:125%;font-family:'Open Sans Light';-inkscape-font-specification:'Open Sans Light';letter-spacing:0px;word-spacing:0px;fill:#999999;fill-opacity:1;stroke:none;opacity:0.3" /><path
     inkscape:connector-curvature="0"
     id="path5137"
     d="m 934.21832,523.81069 -2.36835,0 -10.62915,-14.62693 -3.69462,3.25886 0,11.36807 -1.93258,0 0,-27.70023 1.93258,0 0,14.39956 3.06938,-3.06935 10.85651,-11.33021 2.46308,0 -11.34913,11.70914 z"
     style="font-style:normal;font-variant:normal;font-weight:normal;font-stretch:normal;font-size:medium;line-height:125%;font-family:'Open Sans Light';-inkscape-font-specification:'Open Sans Light';letter-spacing:0px;word-spacing:0px;fill:#999999;fill-opacity:1;stroke:none;opacity:0.3" /><path
     inkscape:connector-curvature="0"
     id="path5139"
     d="m 938.17821,496.11046 7.59766,0 c 3.42304,3e-5 5.93664,0.58107 7.54082,1.74313 1.60415,1.1621 2.40623,2.91783 2.40625,5.26719 -2e-5,1.60419 -0.48948,2.93992 -1.46838,4.00725 -0.97894,1.06737 -2.40942,1.7526 -4.29145,2.05573 l 0,0.11367 c 2.21044,0.32843 3.83671,1.02633 4.8788,2.09363 1.04205,1.06736 1.56309,2.55469 1.56311,4.46198 -2e-5,2.5515 -0.84631,4.51566 -2.53887,5.89245 -1.6926,1.3768 -4.09252,2.0652 -7.19978,2.0652 l -8.48816,0 z m 1.93257,12.33437 6.10087,0 c 2.60201,3e-5 4.49353,-0.4326 5.67456,-1.29786 1.181,-0.8652 1.77151,-2.2199 1.77153,-4.06406 -2e-5,-1.84416 -0.66632,-3.18306 -1.99889,-4.01672 -1.33261,-0.83363 -3.31886,-1.25047 -5.95877,-1.2505 l -5.5893,0 z m 0,1.70523 0,11.9554 6.5177,0 c 5.12824,3e-5 7.69237,-2.08413 7.69239,-6.25242 -2e-5,-3.80199 -2.70309,-5.70298 -8.10922,-5.70298 z"
     style="font-style:normal;font-variant:normal;font-weight:normal;font-stretch:normal;font-size:medium;line-height:125%;font-family:'Open Sans Light';-inkscape-font-specification:'Open Sans Light';letter-spacing:0px;word-spacing:0px;fill:#999999;fill-opacity:1;stroke:none;opacity:0.3" /><path
     inkscape:connector-curvature="0"
     id="path5141"
     d="m 985.79153,509.92269 c -10e-5,4.39566 -1.099,7.87238 -3.2968,10.43021 -2.1978,2.55782 -5.2293,3.83672 -9.0944,3.83672 -3.8526,0 -6.8777,-1.2789 -9.0756,-3.83672 -2.1978,-2.55783 -3.2967,-6.04719 -3.2967,-10.46811 0,-4.40825 1.1084,-7.87868 3.3252,-10.41127 2.2167,-2.53253 5.2451,-3.79879 9.085,-3.79882 3.8651,3e-5 6.8903,1.27263 9.0755,3.81779 2.1851,2.54519 3.2777,6.02191 3.2778,10.4302 z m -22.6604,0 c 0,3.96619 0.8842,7.03242 2.6526,9.19868 1.7683,2.16623 4.3072,3.24936 7.6166,3.24936 3.3346,0 5.8829,-1.07364 7.645,-3.22096 1.762,-2.1473 2.643,-5.22299 2.6431,-9.22708 -1e-4,-3.99145 -0.8811,-7.05135 -2.6431,-9.17974 -1.7621,-2.12833 -4.2978,-3.19249 -7.6071,-3.19252 -3.2968,3e-5 -5.8388,1.07369 -7.6261,3.22095 -1.7873,2.14733 -2.681,5.19776 -2.681,9.15131 z"
     style="font-style:normal;font-variant:normal;font-weight:normal;font-stretch:normal;font-size:medium;line-height:125%;font-family:'Open Sans Light';-inkscape-font-specification:'Open Sans Light';letter-spacing:0px;word-spacing:0px;fill:#999999;fill-opacity:1;stroke:none;opacity:0.3" /><path
     inkscape:connector-curvature="0"
     id="path5143"
     d="m 1012.2791,523.81069 -1.9515,0 -16.40798,-24.59294 -0.1515,0 c 0.1515,2.93046 0.2273,5.14092 0.2273,6.63139 l 0,17.96155 -1.85679,0 0,-27.70023 1.93259,0 16.38898,24.55507 0.1137,0 c -0.1137,-2.27363 -0.1706,-4.43355 -0.1706,-6.47982 l 0,-18.07525 1.8758,0 z"
     style="font-style:normal;font-variant:normal;font-weight:normal;font-stretch:normal;font-size:medium;line-height:125%;font-family:'Open Sans Light';-inkscape-font-specification:'Open Sans Light';letter-spacing:0px;word-spacing:0px;fill:#999999;fill-opacity:1;stroke:none;opacity:0.3" /><path
     inkscape:connector-curvature="0"
     id="path5145"
     d="m 1035.2426,523.81069 -15.1385,0 0,-27.70023 15.1385,0 0,1.78103 -13.2059,0 0,10.47757 12.467,0 0,1.781 -12.467,0 0,11.87963 13.2059,0 z"
     style="font-style:normal;font-variant:normal;font-weight:normal;font-stretch:normal;font-size:medium;line-height:125%;font-family:'Open Sans Light';-inkscape-font-specification:'Open Sans Light';letter-spacing:0px;word-spacing:0px;fill:#999999;fill-opacity:1;stroke:none;opacity:0.3" /><path
     inkscape:connector-curvature="0"
     id="path5147"
     d="m 1040.6993,522.33283 c 0,-1.23783 0.5052,-1.85677 1.5157,-1.85677 1.0358,0 1.5536,0.61894 1.5536,1.85677 0,1.23786 -0.5178,1.85679 -1.5536,1.85679 -1.0105,0 -1.5157,-0.61893 -1.5157,-1.85679 z"
     style="font-style:normal;font-variant:normal;font-weight:normal;font-stretch:normal;font-size:medium;line-height:125%;font-family:'Open Sans Light';-inkscape-font-specification:'Open Sans Light';letter-spacing:0px;word-spacing:0px;fill:#999999;fill-opacity:1;stroke:none;opacity:0.3" /><path
     inkscape:connector-curvature="0"
     id="path5149"
     d="m 1046.2507,530.80204 c -1.1621,0 -2.1158,-0.1705 -2.861,-0.51154 l 0,-1.66732 c 0.9852,0.2526 1.9263,0.37893 2.8231,0.37893 3.0567,0 4.5851,-1.66733 4.5851,-5.00196 l 0,-27.88969 1.9326,0 0,27.70023 c 0,4.66089 -2.16,6.99135 -6.4798,6.99135 z"
     style="font-style:normal;font-variant:normal;font-weight:normal;font-stretch:normal;font-size:medium;line-height:125%;font-family:'Open Sans Light';-inkscape-font-specification:'Open Sans Light';letter-spacing:0px;word-spacing:0px;fill:#999999;fill-opacity:1;stroke:none;opacity:0.3" /><path
     inkscape:connector-curvature="0"
     id="path5151"
     d="m 1075.7129,516.66774 c 0,2.31153 -0.8494,4.14306 -2.5483,5.49459 -1.6989,1.35153 -3.9567,2.02729 -6.7735,2.02729 -3.3851,0 -5.9809,-0.37263 -7.7871,-1.11786 l 0,-1.93256 c 1.9957,0.84629 4.5409,1.26943 7.6355,1.26943 2.2736,0 4.0768,-0.52104 5.4094,-1.5631 1.3325,-1.0421 1.9988,-2.40943 1.9988,-4.10199 0,-1.0484 -0.221,-1.91679 -0.6631,-2.60519 -0.4421,-0.6884 -1.1621,-1.3168 -2.1599,-1.8852 -0.9979,-0.5684 -2.4631,-1.181 -4.3957,-1.83786 -2.8294,-0.97256 -4.7841,-2.02413 -5.864,-3.15462 -1.08,-1.13047 -1.62,-2.63676 -1.62,-4.51883 0,-2.07149 0.8116,-3.76089 2.4347,-5.06825 1.6231,-1.3073 3.7104,-1.96096 6.2619,-1.96099 2.602,3e-5 5.0462,0.49263 7.3324,1.47786 l -0.701,1.6673 c -2.2989,-0.95994 -4.4967,-1.43994 -6.5935,-1.43997 -2.0463,3e-5 -3.6757,0.4737 -4.8883,1.42103 -1.2126,0.94736 -1.8189,2.23573 -1.8189,3.86513 0,1.02316 0.1863,1.86312 0.559,2.51992 0.3726,0.65687 0.982,1.24736 1.8283,1.77153 0.8463,0.52423 2.2989,1.15263 4.3578,1.88523 2.1599,0.74523 3.783,1.46836 4.8693,2.16939 1.0863,0.70103 1.8789,1.4968 2.3778,2.3873 0.499,0.89049 0.7484,1.96732 0.7484,3.23042 z"
     style="font-style:normal;font-variant:normal;font-weight:normal;font-stretch:normal;font-size:medium;line-height:125%;font-family:'Open Sans Light';-inkscape-font-specification:'Open Sans Light';letter-spacing:0px;word-spacing:0px;fill:#999999;fill-opacity:1;stroke:none;opacity:0.3" /><g
     transform="translate(-180.15278,233.75743)"
     id="g5263"
     style="opacity:0.3"><path
       inkscape:connector-curvature="0"
       style="fill:#8c3323"
       pointer-events="none"
       d="m 419.77931,179.20474 c -0.109,-0.23 -0.17,-0.471 -0.17,-0.711 l 0.17,0.711 z"
       id="path5265" /><path
       inkscape:connector-curvature="0"
       style="fill:#8c3323"
       pointer-events="none"
       d="m 473.34931,179.20474 0.17,-0.711 c 0,0.241 -0.06,0.481 -0.17,0.711 z"
       id="path5267" /><path
       inkscape:connector-curvature="0"
       style="fill:#8c3323"
       pointer-events="none"
       d="m 473.51931,176.18474 0,2.31 -0.17,0.711 0,-2.311 0.17,-0.71 z"
       id="path5269" /><path
       inkscape:connector-curvature="0"
       style="fill:#8c3323"
       pointer-events="none"
       d="m 419.77931,176.89474 0,2.311 -0.17,-0.711 0,-2.31 0.17,0.71 z"
       id="path5271" /><path
       inkscape:connector-curvature="0"
       style="fill:#8c3323"
       pointer-events="none"
       d="m 473.51931,171.77474 0,2.31 c 0,0.08 -0.01,0.17 -0.03,0.25 l 0,-2.31 c 0.02,-0.09 0.03,-0.17 0.03,-0.25"
       id="path5273" /><path
       inkscape:connector-curvature="0"
       style="fill:#8c3323"
       pointer-events="none"
       d="m 473.48931,172.02474 0,2.31 c -0.01,0.101 -0.04,0.201 -0.069,0.301 l 0,-2.32 c 0.029,-0.101 0.059,-0.191 0.069,-0.291"
       id="path5275" /><path
       inkscape:connector-curvature="0"
       style="fill:#8c3323"
       pointer-events="none"
       d="m 473.42031,172.31474 0,2.32 c -0.051,0.119 -0.11,0.25 -0.19,0.39 l 0,-2.31 c 0.079,-0.131 0.139,-0.26 0.19,-0.4"
       id="path5277" /><path
       inkscape:connector-curvature="0"
       style="fill:#8c3323"
       pointer-events="none"
       d="m 473.22931,172.71474 0,2.31 c -1.92,3.09 -13.13,5.45 -26.67,5.45 -14.88,0 -26.95,-2.86 -26.95,-6.391 l 0,-2.31 c 0,3.54 12.07,6.38 26.95,6.38 13.54,0.001 24.75,-2.349 26.67,-5.439"
       id="path5279" /><path
       inkscape:connector-curvature="0"
       style="fill:#8c3323"
       pointer-events="none"
       d="m 473.51931,171.77474 0,2.31 c 0,3.53 -12.07,6.391 -26.96,6.391 -14.88,0 -26.95,-2.86 -26.95,-6.391 l 0,-2.31 c 0,3.54 12.07,6.38 26.95,6.38 14.89,0 26.96,-2.84 26.96,-6.38 z"
       id="path5281" /><path
       inkscape:connector-curvature="0"
       style="fill:#e15343"
       pointer-events="none"
       d="m 446.55931,165.39474 c 14.89,0 26.96,2.859 26.96,6.38 0,3.54 -12.07,6.39 -26.96,6.39 -14.88,0 -26.95,-2.85 -26.95,-6.39 0,-3.521 12.07,-6.38 26.95,-6.38 z"
       id="path5283" /><path
       inkscape:connector-curvature="0"
       style="fill:#8c3323"
       pointer-events="none"
       d="m 473.34931,176.89474 0,2.311 -8.811,37.93 0,-2.3 8.811,-37.941 z"
       id="path5285" /><path
       inkscape:connector-curvature="0"
       style="fill:#8c3323"
       pointer-events="none"
       d="m 428.59931,214.83474 0,2.3 -8.82,-37.93 0,-2.311 8.82,37.941 z"
       id="path5287" /><path
       inkscape:connector-curvature="0"
       style="fill:#8c3323"
       pointer-events="none"
       d="m 464.53931,214.83474 0,2.3 c 0,0.06 -0.01,0.12 -0.02,0.18 l 0,-2.32 c 0.01,-0.06 0.02,-0.1 0.02,-0.16"
       id="path5289" /><path
       inkscape:connector-curvature="0"
       style="fill:#8c3323"
       pointer-events="none"
       d="m 464.51931,214.99474 0,2.32 c 0,0.06 -0.02,0.12 -0.04,0.19 l 0,-2.32 c 0.01,-0.061 0.04,-0.13 0.04,-0.19"
       id="path5291" /><path
       inkscape:connector-curvature="0"
       style="fill:#8c3323"
       pointer-events="none"
       d="m 464.47931,215.18474 0,2.32 c -0.04,0.09 -0.08,0.18 -0.14,0.27 l 0,-2.32 c 0.06,-0.09 0.1,-0.18 0.14,-0.27"
       id="path5293" /><path
       inkscape:connector-curvature="0"
       style="fill:#8c3323"
       pointer-events="none"
       d="m 464.33931,215.45374 0,2.32 c -1.271,2.05 -8.74,3.62 -17.78,3.62 -9.931,0 -17.96,-1.9 -17.96,-4.26 l 0,-2.3 c 0,2.35 8.029,4.25 17.96,4.25 9.04,0.001 16.51,-1.569 17.78,-3.63"
       id="path5295" /><path
       inkscape:connector-curvature="0"
       style="fill:#8c3323"
       pointer-events="none"
       d="m 464.53931,214.83474 0,2.3 c 0,2.359 -8.05,4.26 -17.979,4.26 -9.931,0 -17.96,-1.9 -17.96,-4.26 l 0,-2.3 c 0,2.35 8.029,4.25 17.96,4.25 9.929,0 17.979,-1.9 17.979,-4.25 z"
       id="path5297" /><path
       inkscape:connector-curvature="0"
       style="fill:#e15343"
       pointer-events="none"
       d="m 446.55931,182.56474 c 13.88,0 25.31,-2.47 26.79,-5.67 l -8.811,37.94 c 0,2.35 -8.05,4.25 -17.979,4.25 -9.931,0 -17.96,-1.9 -17.96,-4.25 l -8.82,-37.94 c 1.49,3.2 12.91,5.67 26.78,5.67 z"
       id="path5299" /><path
       inkscape:connector-curvature="0"
       style="fill:#146eb4"
       pointer-events="none"
       d="m 473.57931,176.17474 c 0.011,0.04 0.021,0.079 0.03,0.11 l -0.01,-0.061 c -0.01,-0.019 -0.02,-0.029 -0.02,-0.049 z"
       id="path5301" /><path
       inkscape:connector-curvature="0"
       style="fill:#146eb4"
       pointer-events="none"
       d="m 473.54831,176.09474 c -0.02,-0.06 -0.039,-0.13 -0.06,-0.2 0.012,0.07 0.041,0.141 0.06,0.2 z"
       id="path5303" /></g><g
     id="g4892"
     transform="matrix(0.40859347,0,0,0.40859347,-176.1117,364.68892)"
     style="opacity:0.3"><path
       style="opacity:1;fill:#8c3123"
       inkscape:connector-curvature="0"
       pointer-events="none"
       d="m 894.16708,191.98684 59.43826,14.52935 0,-112.656511 -59.43826,14.529351 0,83.59781 z"
       id="path137" /><path
       style="opacity:1;fill:#e05243"
       inkscape:connector-curvature="0"
       pointer-events="none"
       d="m 953.60534,93.859679 11.40735,5.76371 0,101.153111 -11.40735,5.76371 0,-112.680531 z"
       id="path139" /><path
       style="opacity:1;fill:#e05243"
       inkscape:connector-curvature="0"
       pointer-events="none"
       d="m 920.07976,113.96062 -25.91268,-6.48418 0,-43.612068 25.91268,13.088424 0,37.007824 z"
       id="path141" /><path
       style="opacity:1;fill:#e05243"
       inkscape:connector-curvature="0"
       pointer-events="none"
       d="m 894.16708,236.77567 25.91268,-13.08843 0,-36.9838 -25.91268,6.46016 0,43.61207 z"
       id="path143" /><path
       style="opacity:1;fill:#e05243"
       inkscape:connector-curvature="0"
       pointer-events="none"
       d="m 920.07976,168.83594 -25.91268,3.33815 0,-43.61207 25.91268,3.29011 0,36.98381 z"
       id="path145-5" /><path
       style="opacity:1;fill:#e05243"
       inkscape:connector-curvature="0"
       pointer-events="none"
       d="m 894.16708,191.98684 -59.43825,14.52935 0,-112.656511 59.43825,14.529351 0,83.59781 z"
       id="path147-3" /><path
       style="opacity:1;fill:#8c3123"
       inkscape:connector-curvature="0"
       pointer-events="none"
       d="m 834.72883,93.859679 -11.40735,5.76371 0,101.153111 11.40735,5.76371 0,-112.680531 z"
       id="path149-6" /><path
       style="opacity:1;fill:#8c3123"
       inkscape:connector-curvature="0"
       pointer-events="none"
       d="m 868.25441,113.96062 25.91267,-6.48418 0,-43.612068 -25.91267,13.088424 0,37.007824 z"
       id="path151-7" /><path
       style="opacity:1;fill:#8c3123"
       inkscape:connector-curvature="0"
       pointer-events="none"
       d="m 894.16708,236.77567 -25.91267,-13.08843 0,-36.9838 25.91267,6.46016 0,43.61207 z"
       id="path153-2" /><path
       style="opacity:1;fill:#8c3123"
       inkscape:connector-curvature="0"
       pointer-events="none"
       d="m 868.25441,168.83594 25.91267,3.33815 0,-43.61207 -25.91267,3.29011 0,36.98381 z"
       id="path155-0" /><path
       style="opacity:1;fill:#5e1f18"
       inkscape:connector-curvature="0"
       pointer-events="none"
       d="m 920.07976,113.96062 -25.91268,4.75506 -25.91267,-4.75506 25.91267,-6.48418 25.91268,6.48418 z"
       id="path157-9" /><path
       style="opacity:1;fill:#f2b0a9"
       inkscape:connector-curvature="0"
       pointer-events="none"
       d="m 920.07976,186.67942 -25.91268,-4.77907 -25.91267,4.77907 25.91267,6.53221 25.91268,-6.53221 z"
       id="path159-3" /></g><g
     id="g3672"
     transform="translate(179.84722,233.75743)"
     style="opacity:0.3"><path
       id="path3674"
       d="m 419.77931,179.20474 c -0.109,-0.23 -0.17,-0.471 -0.17,-0.711 l 0.17,0.711 z"
       pointer-events="none"
       style="fill:#8c3323"
       inkscape:connector-curvature="0" /><path
       id="path3676"
       d="m 473.34931,179.20474 0.17,-0.711 c 0,0.241 -0.06,0.481 -0.17,0.711 z"
       pointer-events="none"
       style="fill:#8c3323"
       inkscape:connector-curvature="0" /><path
       id="path3678"
       d="m 473.51931,176.18474 0,2.31 -0.17,0.711 0,-2.311 0.17,-0.71 z"
       pointer-events="none"
       style="fill:#8c3323"
       inkscape:connector-curvature="0" /><path
       id="path3680"
       d="m 419.77931,176.89474 0,2.311 -0.17,-0.711 0,-2.31 0.17,0.71 z"
       pointer-events="none"
       style="fill:#8c3323"
       inkscape:connector-curvature="0" /><path
       id="path3682"
       d="m 473.51931,171.77474 0,2.31 c 0,0.08 -0.01,0.17 -0.03,0.25 l 0,-2.31 c 0.02,-0.09 0.03,-0.17 0.03,-0.25"
       pointer-events="none"
       style="fill:#8c3323"
       inkscape:connector-curvature="0" /><path
       id="path3684"
       d="m 473.48931,172.02474 0,2.31 c -0.01,0.101 -0.04,0.201 -0.069,0.301 l 0,-2.32 c 0.029,-0.101 0.059,-0.191 0.069,-0.291"
       pointer-events="none"
       style="fill:#8c3323"
       inkscape:connector-curvature="0" /><path
       id="path3686"
       d="m 473.42031,172.31474 0,2.32 c -0.051,0.119 -0.11,0.25 -0.19,0.39 l 0,-2.31 c 0.079,-0.131 0.139,-0.26 0.19,-0.4"
       pointer-events="none"
       style="fill:#8c3323"
       inkscape:connector-curvature="0" /><path
       id="path3688"
       d="m 473.22931,172.71474 0,2.31 c -1.92,3.09 -13.13,5.45 -26.67,5.45 -14.88,0 -26.95,-2.86 -26.95,-6.391 l 0,-2.31 c 0,3.54 12.07,6.38 26.95,6.38 13.54,0.001 24.75,-2.349 26.67,-5.439"
       pointer-events="none"
       style="fill:#8c3323"
       inkscape:connector-curvature="0" /><path
       id="path3690"
       d="m 473.51931,171.77474 0,2.31 c 0,3.53 -12.07,6.391 -26.96,6.391 -14.88,0 -26.95,-2.86 -26.95,-6.391 l 0,-2.31 c 0,3.54 12.07,6.38 26.95,6.38 14.89,0 26.96,-2.84 26.96,-6.38 z"
       pointer-events="none"
       style="fill:#8c3323"
       inkscape:connector-curvature="0" /><path
       id="path3692"
       d="m 446.55931,165.39474 c 14.89,0 26.96,2.859 26.96,6.38 0,3.54 -12.07,6.39 -26.96,6.39 -14.88,0 -26.95,-2.85 -26.95,-6.39 0,-3.521 12.07,-6.38 26.95,-6.38 z"
       pointer-events="none"
       style="fill:#e15343"
       inkscape:connector-curvature="0" /><path
       id="path3694"
       d="m 473.34931,176.89474 0,2.311 -8.811,37.93 0,-2.3 8.811,-37.941 z"
       pointer-events="none"
       style="fill:#8c3323"
       inkscape:connector-curvature="0" /><path
       id="path3696"
       d="m 428.59931,214.83474 0,2.3 -8.82,-37.93 0,-2.311 8.82,37.941 z"
       pointer-events="none"
       style="fill:#8c3323"
       inkscape:connector-curvature="0" /><path
       id="path3698"
       d="m 464.53931,214.83474 0,2.3 c 0,0.06 -0.01,0.12 -0.02,0.18 l 0,-2.32 c 0.01,-0.06 0.02,-0.1 0.02,-0.16"
       pointer-events="none"
       style="fill:#8c3323"
       inkscape:connector-curvature="0" /><path
       id="path3700"
       d="m 464.51931,214.99474 0,2.32 c 0,0.06 -0.02,0.12 -0.04,0.19 l 0,-2.32 c 0.01,-0.061 0.04,-0.13 0.04,-0.19"
       pointer-events="none"
       style="fill:#8c3323"
       inkscape:connector-curvature="0" /><path
       id="path3702"
       d="m 464.47931,215.18474 0,2.32 c -0.04,0.09 -0.08,0.18 -0.14,0.27 l 0,-2.32 c 0.06,-0.09 0.1,-0.18 0.14,-0.27"
       pointer-events="none"
       style="fill:#8c3323"
       inkscape:connector-curvature="0" /><path
       id="path3704"
       d="m 464.33931,215.45374 0,2.32 c -1.271,2.05 -8.74,3.62 -17.78,3.62 -9.931,0 -17.96,-1.9 -17.96,-4.26 l 0,-2.3 c 0,2.35 8.029,4.25 17.96,4.25 9.04,0.001 16.51,-1.569 17.78,-3.63"
       pointer-events="none"
       style="fill:#8c3323"
       inkscape:connector-curvature="0" /><path
       id="path3706"
       d="m 464.53931,214.83474 0,2.3 c 0,2.359 -8.05,4.26 -17.979,4.26 -9.931,0 -17.96,-1.9 -17.96,-4.26 l 0,-2.3 c 0,2.35 8.029,4.25 17.96,4.25 9.929,0 17.979,-1.9 17.979,-4.25 z"
       pointer-events="none"
       style="fill:#8c3323"
       inkscape:connector-curvature="0" /><path
       id="path3708"
       d="m 446.55931,182.56474 c 13.88,0 25.31,-2.47 26.79,-5.67 l -8.811,37.94 c 0,2.35 -8.05,4.25 -17.979,4.25 -9.931,0 -17.96,-1.9 -17.96,-4.25 l -8.82,-37.94 c 1.49,3.2 12.91,5.67 26.78,5.67 z"
       pointer-events="none"
       style="fill:#e15343"
       inkscape:connector-curvature="0" /><path
       id="path3710"
       d="m 473.57931,176.17474 c 0.011,0.04 0.021,0.079 0.03,0.11 l -0.01,-0.061 c -0.01,-0.019 -0.02,-0.029 -0.02,-0.049 z"
       pointer-events="none"
       style="fill:#146eb4"
       inkscape:connector-curvature="0" /><path
       id="path3712"
       d="m 473.54831,176.09474 c -0.02,-0.06 -0.039,-0.13 -0.06,-0.2 0.012,0.07 0.041,0.141 0.06,0.2 z"
       pointer-events="none"
       style="fill:#146eb4"
       inkscape:connector-curvature="0" /></g><g
     transform="matrix(0.40859347,0,0,0.40859347,183.8883,364.68892)"
     id="g3714"
     style="opacity:0.3"><path
       id="path3716"
       d="m 894.16708,191.98684 59.43826,14.52935 0,-112.656511 -59.43826,14.529351 0,83.59781 z"
       pointer-events="none"
       inkscape:connector-curvature="0"
       style="opacity:1;fill:#8c3123" /><path
       id="path3718"
       d="m 953.60534,93.859679 11.40735,5.76371 0,101.153111 -11.40735,5.76371 0,-112.680531 z"
       pointer-events="none"
       inkscape:connector-curvature="0"
       style="opacity:1;fill:#e05243" /><path
       id="path3720"
       d="m 920.07976,113.96062 -25.91268,-6.48418 0,-43.612068 25.91268,13.088424 0,37.007824 z"
       pointer-events="none"
       inkscape:connector-curvature="0"
       style="opacity:1;fill:#e05243" /><path
       id="path3722"
       d="m 894.16708,236.77567 25.91268,-13.08843 0,-36.9838 -25.91268,6.46016 0,43.61207 z"
       pointer-events="none"
       inkscape:connector-curvature="0"
       style="opacity:1;fill:#e05243" /><path
       id="path3724"
       d="m 920.07976,168.83594 -25.91268,3.33815 0,-43.61207 25.91268,3.29011 0,36.98381 z"
       pointer-events="none"
       inkscape:connector-curvature="0"
       style="opacity:1;fill:#e05243" /><path
       id="path3726"
       d="m 894.16708,191.98684 -59.43825,14.52935 0,-112.656511 59.43825,14.529351 0,83.59781 z"
       pointer-events="none"
       inkscape:connector-curvature="0"
       style="opacity:1;fill:#e05243" /><path
       id="path3728"
       d="m 834.72883,93.859679 -11.40735,5.76371 0,101.153111 11.40735,5.76371 0,-112.680531 z"
       pointer-events="none"
       inkscape:connector-curvature="0"
       style="opacity:1;fill:#8c3123" /><path
       id="path3730"
       d="m 868.25441,113.96062 25.91267,-6.48418 0,-43.612068 -25.91267,13.088424 0,37.007824 z"
       pointer-events="none"
       inkscape:connector-curvature="0"
       style="opacity:1;fill:#8c3123" /><path
       id="path3732"
       d="m 894.16708,236.77567 -25.91267,-13.08843 0,-36.9838 25.91267,6.46016 0,43.61207 z"
       pointer-events="none"
       inkscape:connector-curvature="0"
       style="opacity:1;fill:#8c3123" /><path
       id="path3734"
       d="m 868.25441,168.83594 25.91267,3.33815 0,-43.61207 -25.91267,3.29011 0,36.98381 z"
       pointer-events="none"
       inkscape:connector-curvature="0"
       style="opacity:1;fill:#8c3123" /><path
       id="path3736"
       d="m 920.07976,113.96062 -25.91268,4.75506 -25.91267,-4.75506 25.91267,-6.48418 25.91268,6.48418 z"
       pointer-events="none"
       inkscape:connector-curvature="0"
       style="opacity:1;fill:#5e1f18" /><path
       id="path3738"
       d="m 920.07976,186.67942 -25.91268,-4.77907 -25.91267,4.77907 25.91267,6.53221 25.91268,-6.53221 z"
       pointer-events="none"
       inkscape:connector-curvature="0"
       style="opacity:1;fill:#f2b0a9" /></g><g
     transform="translate(530.45592,233.75743)"
     id="g3740"
     style="opacity:0.3"><path
       inkscape:connector-curvature="0"
       style="fill:#8c3323"
       pointer-events="none"
       d="m 419.77931,179.20474 c -0.109,-0.23 -0.17,-0.471 -0.17,-0.711 l 0.17,0.711 z"
       id="path3742" /><path
       inkscape:connector-curvature="0"
       style="fill:#8c3323"
       pointer-events="none"
       d="m 473.34931,179.20474 0.17,-0.711 c 0,0.241 -0.06,0.481 -0.17,0.711 z"
       id="path3744" /><path
       inkscape:connector-curvature="0"
       style="fill:#8c3323"
       pointer-events="none"
       d="m 473.51931,176.18474 0,2.31 -0.17,0.711 0,-2.311 0.17,-0.71 z"
       id="path3746" /><path
       inkscape:connector-curvature="0"
       style="fill:#8c3323"
       pointer-events="none"
       d="m 419.77931,176.89474 0,2.311 -0.17,-0.711 0,-2.31 0.17,0.71 z"
       id="path3748" /><path
       inkscape:connector-curvature="0"
       style="fill:#8c3323"
       pointer-events="none"
       d="m 473.51931,171.77474 0,2.31 c 0,0.08 -0.01,0.17 -0.03,0.25 l 0,-2.31 c 0.02,-0.09 0.03,-0.17 0.03,-0.25"
       id="path3750" /><path
       inkscape:connector-curvature="0"
       style="fill:#8c3323"
       pointer-events="none"
       d="m 473.48931,172.02474 0,2.31 c -0.01,0.101 -0.04,0.201 -0.069,0.301 l 0,-2.32 c 0.029,-0.101 0.059,-0.191 0.069,-0.291"
       id="path3752" /><path
       inkscape:connector-curvature="0"
       style="fill:#8c3323"
       pointer-events="none"
       d="m 473.42031,172.31474 0,2.32 c -0.051,0.119 -0.11,0.25 -0.19,0.39 l 0,-2.31 c 0.079,-0.131 0.139,-0.26 0.19,-0.4"
       id="path3754" /><path
       inkscape:connector-curvature="0"
       style="fill:#8c3323"
       pointer-events="none"
       d="m 473.22931,172.71474 0,2.31 c -1.92,3.09 -13.13,5.45 -26.67,5.45 -14.88,0 -26.95,-2.86 -26.95,-6.391 l 0,-2.31 c 0,3.54 12.07,6.38 26.95,6.38 13.54,0.001 24.75,-2.349 26.67,-5.439"
       id="path3756" /><path
       inkscape:connector-curvature="0"
       style="fill:#8c3323"
       pointer-events="none"
       d="m 473.51931,171.77474 0,2.31 c 0,3.53 -12.07,6.391 -26.96,6.391 -14.88,0 -26.95,-2.86 -26.95,-6.391 l 0,-2.31 c 0,3.54 12.07,6.38 26.95,6.38 14.89,0 26.96,-2.84 26.96,-6.38 z"
       id="path3758" /><path
       inkscape:connector-curvature="0"
       style="fill:#e15343"
       pointer-events="none"
       d="m 446.55931,165.39474 c 14.89,0 26.96,2.859 26.96,6.38 0,3.54 -12.07,6.39 -26.96,6.39 -14.88,0 -26.95,-2.85 -26.95,-6.39 0,-3.521 12.07,-6.38 26.95,-6.38 z"
       id="path3760" /><path
       inkscape:connector-curvature="0"
       style="fill:#8c3323"
       pointer-events="none"
       d="m 473.34931,176.89474 0,2.311 -8.811,37.93 0,-2.3 8.811,-37.941 z"
       id="path3762" /><path
       inkscape:connector-curvature="0"
       style="fill:#8c3323"
       pointer-events="none"
       d="m 428.59931,214.83474 0,2.3 -8.82,-37.93 0,-2.311 8.82,37.941 z"
       id="path3764" /><path
       inkscape:connector-curvature="0"
       style="fill:#8c3323"
       pointer-events="none"
       d="m 464.53931,214.83474 0,2.3 c 0,0.06 -0.01,0.12 -0.02,0.18 l 0,-2.32 c 0.01,-0.06 0.02,-0.1 0.02,-0.16"
       id="path3766" /><path
       inkscape:connector-curvature="0"
       style="fill:#8c3323"
       pointer-events="none"
       d="m 464.51931,214.99474 0,2.32 c 0,0.06 -0.02,0.12 -0.04,0.19 l 0,-2.32 c 0.01,-0.061 0.04,-0.13 0.04,-0.19"
       id="path3768" /><path
       inkscape:connector-curvature="0"
       style="fill:#8c3323"
       pointer-events="none"
       d="m 464.47931,215.18474 0,2.32 c -0.04,0.09 -0.08,0.18 -0.14,0.27 l 0,-2.32 c 0.06,-0.09 0.1,-0.18 0.14,-0.27"
       id="path3770" /><path
       inkscape:connector-curvature="0"
       style="fill:#8c3323"
       pointer-events="none"
       d="m 464.33931,215.45374 0,2.32 c -1.271,2.05 -8.74,3.62 -17.78,3.62 -9.931,0 -17.96,-1.9 -17.96,-4.26 l 0,-2.3 c 0,2.35 8.029,4.25 17.96,4.25 9.04,0.001 16.51,-1.569 17.78,-3.63"
       id="path3772" /><path
       inkscape:connector-curvature="0"
       style="fill:#8c3323"
       pointer-events="none"
       d="m 464.53931,214.83474 0,2.3 c 0,2.359 -8.05,4.26 -17.979,4.26 -9.931,0 -17.96,-1.9 -17.96,-4.26 l 0,-2.3 c 0,2.35 8.029,4.25 17.96,4.25 9.929,0 17.979,-1.9 17.979,-4.25 z"
       id="path3774" /><path
       inkscape:connector-curvature="0"
       style="fill:#e15343"
       pointer-events="none"
       d="m 446.55931,182.56474 c 13.88,0 25.31,-2.47 26.79,-5.67 l -8.811,37.94 c 0,2.35 -8.05,4.25 -17.979,4.25 -9.931,0 -17.96,-1.9 -17.96,-4.25 l -8.82,-37.94 c 1.49,3.2 12.91,5.67 26.78,5.67 z"
       id="path3776" /><path
       inkscape:connector-curvature="0"
       style="fill:#146eb4"
       pointer-events="none"
       d="m 473.57931,176.17474 c 0.011,0.04 0.021,0.079 0.03,0.11 l -0.01,-0.061 c -0.01,-0.019 -0.02,-0.029 -0.02,-0.049 z"
       id="path3778" /><path
       inkscape:connector-curvature="0"
       style="fill:#146eb4"
       pointer-events="none"
       d="m 473.54831,176.09474 c -0.02,-0.06 -0.039,-0.13 -0.06,-0.2 0.012,0.07 0.041,0.141 0.06,0.2 z"
       id="path3780" /></g><g
     id="g3782"
     transform="matrix(0.40859347,0,0,0.40859347,534.497,364.68892)"
     style="opacity:0.3"><path
       style="opacity:1;fill:#8c3123"
       inkscape:connector-curvature="0"
       pointer-events="none"
       d="m 894.16708,191.98684 59.43826,14.52935 0,-112.656511 -59.43826,14.529351 0,83.59781 z"
       id="path3784" /><path
       style="opacity:1;fill:#e05243"
       inkscape:connector-curvature="0"
       pointer-events="none"
       d="m 953.60534,93.859679 11.40735,5.76371 0,101.153111 -11.40735,5.76371 0,-112.680531 z"
       id="path3786" /><path
       style="opacity:1;fill:#e05243"
       inkscape:connector-curvature="0"
       pointer-events="none"
       d="m 920.07976,113.96062 -25.91268,-6.48418 0,-43.612068 25.91268,13.088424 0,37.007824 z"
       id="path3788" /><path
       style="opacity:1;fill:#e05243"
       inkscape:connector-curvature="0"
       pointer-events="none"
       d="m 894.16708,236.77567 25.91268,-13.08843 0,-36.9838 -25.91268,6.46016 0,43.61207 z"
       id="path3790" /><path
       style="opacity:1;fill:#e05243"
       inkscape:connector-curvature="0"
       pointer-events="none"
       d="m 920.07976,168.83594 -25.91268,3.33815 0,-43.61207 25.91268,3.29011 0,36.98381 z"
       id="path3792" /><path
       style="opacity:1;fill:#e05243"
       inkscape:connector-curvature="0"
       pointer-events="none"
       d="m 894.16708,191.98684 -59.43825,14.52935 0,-112.656511 59.43825,14.529351 0,83.59781 z"
       id="path3794" /><path
       style="opacity:1;fill:#8c3123"
       inkscape:connector-curvature="0"
       pointer-events="none"
       d="m 834.72883,93.859679 -11.40735,5.76371 0,101.153111 11.40735,5.76371 0,-112.680531 z"
       id="path3796" /><path
       style="opacity:1;fill:#8c3123"
       inkscape:connector-curvature="0"
       pointer-events="none"
       d="m 868.25441,113.96062 25.91267,-6.48418 0,-43.612068 -25.91267,13.088424 0,37.007824 z"
       id="path3798" /><path
       style="opacity:1;fill:#8c3123"
       inkscape:connector-curvature="0"
       pointer-events="none"
       d="m 894.16708,236.77567 -25.91267,-13.08843 0,-36.9838 25.91267,6.46016 0,43.61207 z"
       id="path3800" /><path
       style="opacity:1;fill:#8c3123"
       inkscape:connector-curvature="0"
       pointer-events="none"
       d="m 868.25441,168.83594 25.91267,3.33815 0,-43.61207 -25.91267,3.29011 0,36.98381 z"
       id="path3802" /><path
       style="opacity:1;fill:#5e1f18"
       inkscape:connector-curvature="0"
       pointer-events="none"
       d="m 920.07976,113.96062 -25.91268,4.75506 -25.91267,-4.75506 25.91267,-6.48418 25.91268,6.48418 z"
       id="path3804" /><path
       style="opacity:1;fill:#f2b0a9"
       inkscape:connector-curvature="0"
       pointer-events="none"
       d="m 920.07976,186.67942 -25.91268,-4.77907 -25.91267,4.77907 25.91267,6.53221 25.91268,-6.53221 z"
       id="path3806" /></g></svg>