<?xml version="1.0" encoding="UTF-8" standalone="no"?>
<svg
   xmlns:dc="http://purl.org/dc/elements/1.1/"
   xmlns:cc="http://creativecommons.org/ns#"
   xmlns:rdf="http://www.w3.org/1999/02/22-rdf-syntax-ns#"
   xmlns:svg="http://www.w3.org/2000/svg"
   xmlns="http://www.w3.org/2000/svg"
   xml:space="preserve"
   enable-background="new -68.5 -68.5 397.5 673.5"
   viewBox="-68.5 -68.5 1280 720"
   height="720"
   width="1280"
   y="0px"
   x="0px"
   id="Layer_1"
   version="1.1"><metadata
     id="metadata467"><rdf:RDF><cc:Work
         rdf:about=""><dc:format>image/svg+xml</dc:format><dc:type
           rdf:resource="http://purl.org/dc/dcmitype/StillImage" /><dc:title></dc:title></cc:Work></rdf:RDF></metadata><defs
     id="defs465" /><g
     transform="translate(529.14183,8.7689008)"
     id="g3"><path
       style="fill:#9d5025"
       id="path5"
       d="m 325.509,118.84 0,1.61 -14.135,0 -0.591,-2.11 14.726,0.5 z"
       pointer-events="none" /><path
       style="fill:#9d5025"
       id="path7"
       d="m 314.211,91.667 0,1.604 -10.51,0 -1.473,-2.027 11.983,0.423 z"
       pointer-events="none" /><path
       style="fill:#9d5025"
       id="path9"
       d="m 303.701,91.667 0,1.604 c -0.579,0 -1.091,0.333 -1.347,0.811 l 0,-1.609 c 0.256,-0.477 0.768,-0.806 1.347,-0.806"
       pointer-events="none" /><path
       style="fill:#9d5025"
       id="path11"
       d="m 302.354,92.473 0,1.61 c -0.049,0.083 -0.09,0.173 -0.12,0.268 l 0,-1.602 c 0.031,-0.097 0.072,-0.187 0.12,-0.276"
       pointer-events="none" /><path
       style="fill:#9d5025"
       id="path13"
       d="m 302.234,92.747 0,1.602 c -0.023,0.083 -0.048,0.162 -0.06,0.245 l 0,-1.604 c 0.013,-0.082 0.037,-0.165 0.06,-0.243"
       pointer-events="none" /><path
       style="fill:#9d5025"
       id="path15"
       d="m 302.175,92.991 0,1.61 c -0.012,0.065 -0.012,0.143 -0.012,0.214 l 0,-1.604 c 0,-0.077 0.006,-0.148 0.012,-0.22"
       pointer-events="none" /><path
       style="fill:#9d5025"
       id="path17"
       d="m 303.701,91.667 0,1.604 c -0.847,0 -1.538,0.698 -1.538,1.544 l 0,-1.604 c 0,-0.845 0.691,-1.544 1.538,-1.544 z"
       pointer-events="none" /><path
       style="fill:#9d5025"
       id="path19"
       d="m 320.53,99.096 0,1.604 -10.617,0 -0.9,-1.831 11.517,0.227 z"
       pointer-events="none" /><path
       style="fill:#9d5025"
       id="path21"
       d="m 310.021,99.096 0,1.604 c -0.578,0 -1.086,0.328 -1.342,0.805 l 0,-1.609 c 0.256,-0.479 0.763,-0.8 1.342,-0.8"
       pointer-events="none" /><path
       style="fill:#9d5025"
       id="path23"
       d="m 308.679,99.895 0,1.609 c -0.047,0.083 -0.089,0.179 -0.119,0.268 l 0,-1.604 c 0.03,-0.094 0.072,-0.184 0.119,-0.273"
       pointer-events="none" /><path
       style="fill:#9d5025"
       id="path25"
       d="m 308.56,100.169 0,1.604 c -0.023,0.083 -0.048,0.167 -0.06,0.256 l 0,-1.609 c 0.012,-0.085 0.036,-0.168 0.06,-0.251"
       pointer-events="none" /><path
       style="fill:#9d5025"
       id="path27"
       d="m 308.5,100.419 0,1.609 c -0.012,0.071 -0.018,0.143 -0.018,0.221 l 0,-1.603 c 0,-0.078 0.006,-0.155 0.018,-0.227"
       pointer-events="none" /><path
       style="fill:#9d5025"
       id="path29"
       d="m 310.021,99.096 0,1.604 c -0.847,0 -1.538,0.697 -1.538,1.55 l 0,-1.603 c -10e-4,-0.859 0.691,-1.551 1.538,-1.551 z"
       pointer-events="none" /><path
       style="fill:#9d5025"
       id="path31"
       d="m 302.163,103.949 0,1.603 -3.512,0 -0.549,-1.949 4.061,0.346 z"
       pointer-events="none" /><path
       style="fill:#9d5025"
       id="path33"
       d="m 298.651,103.949 0,1.603 c -0.84,0 -1.531,-0.686 -1.531,-1.539 l 0,-1.597 c 0,0.853 0.692,1.533 1.531,1.533"
       pointer-events="none" /><path
       style="fill:#9d5025"
       id="path35"
       d="m 298.651,103.949 0,1.603 c -0.84,0 -1.531,-0.686 -1.531,-1.539 l 0,-1.597 c 0,0.853 0.692,1.533 1.531,1.533 z"
       pointer-events="none" /><rect
       style="fill:#9d5025"
       id="rect37"
       height="1.609"
       width="3.618"
       pointer-events="none"
       y="111.377"
       x="304.86401" /><path
       style="fill:#9d5025"
       id="path39"
       d="m 304.978,111.377 0,1.602 c -0.848,0 -1.533,-0.685 -1.533,-1.538 l 0,-1.609 c -10e-4,0.853 0.685,1.545 1.533,1.545"
       pointer-events="none" /><path
       style="fill:#9d5025"
       id="path41"
       d="m 304.978,111.377 0,1.602 c -0.848,0 -1.533,-0.685 -1.533,-1.538 l 0,-1.609 c -10e-4,0.853 0.685,1.545 1.533,1.545 z"
       pointer-events="none" /><path
       style="fill:#9d5125"
       id="path43"
       d="m 311.374,118.84 0,1.61 c -0.847,0 -1.533,-0.698 -1.533,-1.544 l 0,-1.604 c 0,0.847 0.686,1.538 1.533,1.538"
       pointer-events="none" /><path
       style="fill:#9d5125"
       id="path45"
       d="m 311.374,118.84 0,1.61 c -0.847,0 -1.533,-0.698 -1.533,-1.544 l 0,-1.604 c 0,0.847 0.686,1.538 1.533,1.538 z"
       pointer-events="none" /><path
       style="fill:#9d5025"
       id="path47"
       d="m 326.927,117.302 0,1.604 c 0,0.078 -0.006,0.149 -0.018,0.221 l 0,-1.604 c 0.012,-0.071 0.018,-0.149 0.018,-0.221"
       pointer-events="none" /><path
       style="fill:#9d5025"
       id="path49"
       d="m 326.909,117.523 0,1.604 c -0.012,0.083 -0.029,0.167 -0.054,0.25 l 0,-1.61 c 0.025,-0.077 0.042,-0.161 0.054,-0.244"
       pointer-events="none" /><path
       style="fill:#9d5025"
       id="path51"
       d="m 326.855,117.768 0,1.61 c -0.029,0.095 -0.071,0.185 -0.119,0.268 l 0,-1.604 c 0.048,-0.09 0.09,-0.179 0.119,-0.274"
       pointer-events="none" /><path
       style="fill:#9d5025"
       id="path53"
       d="m 326.736,118.042 0,1.604 c -0.256,0.478 -0.757,0.805 -1.335,0.805 l 0,-1.61 c 0.578,-10e-4 1.079,-0.322 1.335,-0.799"
       pointer-events="none" /><path
       style="fill:#9d5025"
       id="path55"
       d="m 326.927,117.302 0,1.604 c 0,0.846 -0.686,1.544 -1.526,1.544 l 0,-1.61 c 0.84,0 1.526,-0.691 1.526,-1.538 z"
       pointer-events="none" /><path
       style="fill:#f58536"
       id="path57"
       d="m 312.679,86.469 c 0.847,0 1.532,0.686 1.532,1.538 l 0,3.66 -10.51,0 c -0.847,0 -1.538,0.698 -1.538,1.544 l 0,10.737 -3.512,0 c -0.84,0 -1.531,-0.681 -1.531,-1.532 l 0,-14.409 c 0,-0.853 0.691,-1.538 1.531,-1.538 l 14.028,0 z"
       pointer-events="none" /><path
       style="fill:#f58536"
       id="path59"
       d="m 319.005,93.897 c 0.84,0 1.525,0.692 1.525,1.538 l 0,3.661 -10.51,0 c -0.847,0 -1.538,0.691 -1.538,1.55 l 0,10.731 -3.505,0 c -0.848,0 -1.539,-0.692 -1.539,-1.544 l 0,-14.397 c 0,-0.846 0.691,-1.538 1.539,-1.538 l 14.028,0 z"
       pointer-events="none" /><path
       style="fill:#f58536"
       id="path61"
       d="m 325.4,101.361 c 0.841,0 1.526,0.692 1.526,1.532 l 0,14.409 c 0,0.847 -0.686,1.538 -1.526,1.538 l -14.026,0 c -0.847,0 -1.533,-0.691 -1.533,-1.538 l 0,-14.409 c 0,-0.84 0.687,-1.532 1.533,-1.532 l 14.026,0 z"
       pointer-events="none" /><rect
       style="fill:#9d5125"
       id="rect63"
       height="1.526"
       width="2.701"
       pointer-events="none"
       y="149.214"
       x="307.409" /><rect
       style="fill:#9d5125"
       id="rect65"
       height="1.526"
       width="2.694"
       pointer-events="none"
       y="149.214"
       x="319.189" /><path
       style="fill:#9d5125"
       id="path67"
       d="m 319.189,154.115 0,1.528 -3.648,3.773 0,-1.532 3.648,-3.769 z"
       pointer-events="none" /><path
       style="fill:#9d5125"
       id="path69"
       d="m 313.919,157.883 0,1.532 -3.809,-3.893 0,-1.532 3.809,3.893 z"
       pointer-events="none" /><rect
       style="fill:#9d5125"
       id="rect71"
       height="1.5319999"
       width="6.2540002"
       pointer-events="none"
       y="161.42999"
       x="326.039" /><rect
       style="fill:#9d5125"
       id="rect73"
       height="1.5319999"
       width="6.2529998"
       pointer-events="none"
       y="161.42999"
       x="297.12" /><path
       style="fill:#9d5125"
       id="path75"
       d="m 326.039,165.09 0,1.532 -7.345,-7.244 0,-1.532 7.345,7.244 z"
       pointer-events="none" /><path
       style="fill:#f48334"
       id="path77"
       d="m 303.373,150.687 7.345,7.237 -7.345,7.166 0,-3.66 -6.253,0 0,-7.089 6.253,0 0,-3.654 z"
       pointer-events="none" /><path
       style="fill:#9d5125"
       id="path79"
       d="m 310.718,157.924 0,1.532 -7.345,7.167 0,-1.533 7.345,-7.166 z"
       pointer-events="none" /><path
       style="fill:#f48334"
       id="path81"
       d="m 326.039,150.687 0,3.66 6.254,0 0,7.083 -6.254,0 0,3.66 -7.345,-7.243 7.345,-7.16 z"
       pointer-events="none" /><path
       style="fill:#9d5125"
       id="path83"
       d="m 321.89,167.063 0,1.532 -7.279,7.297 -0.34,-1.872 7.619,-6.957 z"
       pointer-events="none" /><path
       style="fill:#9d5125"
       id="path85"
       d="m 314.61,174.366 0,1.526 -7.201,-7.297 0,-1.532 7.201,7.303 z"
       pointer-events="none" /><path
       style="fill:#f48334"
       id="path87"
       d="m 314.688,141.912 7.201,7.303 -2.7,0 0,4.9 -3.648,3.768 3.648,3.875 0,5.306 2.7,0 -7.279,7.303 -7.201,-7.303 2.701,0 0,-5.246 3.809,-3.935 -3.809,-3.893 0,-4.775 -2.701,0 7.279,-7.303 z"
       pointer-events="none" /><path
       style="fill:#9d5025"
       id="path89"
       d="m 386.912,118.84 0,1.61 -14.135,0 -0.59,-2.11 14.725,0.5 z"
       pointer-events="none" /><path
       style="fill:#9d5025"
       id="path91"
       d="m 375.615,91.667 0,1.604 -10.511,0 -1.472,-2.027 11.983,0.423 z"
       pointer-events="none" /><path
       style="fill:#9d5025"
       id="path93"
       d="m 365.104,91.667 0,1.604 c -0.578,0 -1.091,0.333 -1.347,0.811 l 0,-1.609 c 0.257,-0.477 0.769,-0.806 1.347,-0.806"
       pointer-events="none" /><path
       style="fill:#9d5025"
       id="path95"
       d="m 363.758,92.473 0,1.61 c -0.048,0.083 -0.09,0.173 -0.119,0.268 l 0,-1.602 c 0.029,-0.097 0.071,-0.187 0.119,-0.276"
       pointer-events="none" /><path
       style="fill:#9d5025"
       id="path97"
       d="m 363.639,92.747 0,1.602 c -0.024,0.083 -0.048,0.162 -0.06,0.245 l 0,-1.604 c 0.012,-0.082 0.035,-0.165 0.06,-0.243"
       pointer-events="none" /><path
       style="fill:#9d5025"
       id="path99"
       d="m 363.579,92.991 0,1.61 c -0.013,0.065 -0.013,0.143 -0.013,0.214 l 0,-1.604 c 0.001,-0.077 0.006,-0.148 0.013,-0.22"
       pointer-events="none" /><path
       style="fill:#9d5025"
       id="path101"
       d="m 365.104,91.667 0,1.604 c -0.846,0 -1.537,0.698 -1.537,1.544 l 0,-1.604 c 0,-0.845 0.692,-1.544 1.537,-1.544 z"
       pointer-events="none" /><path
       style="fill:#9d5025"
       id="path103"
       d="m 381.935,99.096 0,1.604 -10.617,0 -0.9,-1.831 11.517,0.227 z"
       pointer-events="none" /><path
       style="fill:#9d5025"
       id="path105"
       d="m 371.425,99.096 0,1.604 c -0.579,0 -1.084,0.328 -1.342,0.805 l 0,-1.609 c 0.256,-0.479 0.763,-0.8 1.342,-0.8"
       pointer-events="none" /><path
       style="fill:#9d5025"
       id="path107"
       d="m 370.083,99.895 0,1.609 c -0.048,0.083 -0.088,0.179 -0.12,0.268 l 0,-1.604 c 0.03,-0.094 0.072,-0.184 0.12,-0.273"
       pointer-events="none" /><path
       style="fill:#9d5025"
       id="path109"
       d="m 369.963,100.169 0,1.604 c -0.022,0.083 -0.048,0.167 -0.061,0.256 l 0,-1.609 c 0.013,-0.085 0.038,-0.168 0.061,-0.251"
       pointer-events="none" /><path
       style="fill:#9d5025"
       id="path111"
       d="m 369.903,100.419 0,1.609 c -0.011,0.071 -0.017,0.143 -0.017,0.221 l 0,-1.603 c 10e-4,-0.078 0.007,-0.155 0.017,-0.227"
       pointer-events="none" /><path
       style="fill:#9d5025"
       id="path113"
       d="m 371.425,99.096 0,1.604 c -0.848,0 -1.538,0.697 -1.538,1.55 l 0,-1.603 c 0,-0.859 0.69,-1.551 1.538,-1.551 z"
       pointer-events="none" /><path
       style="fill:#9d5025"
       id="path115"
       d="m 363.567,103.949 0,1.603 -3.512,0 -0.549,-1.949 4.061,0.346 z"
       pointer-events="none" /><path
       style="fill:#9d5025"
       id="path117"
       d="m 360.056,103.949 0,1.603 c -0.841,0 -1.532,-0.686 -1.532,-1.539 l 0,-1.597 c -10e-4,0.853 0.691,1.533 1.532,1.533"
       pointer-events="none" /><path
       style="fill:#9d5025"
       id="path119"
       d="m 360.056,103.949 0,1.603 c -0.841,0 -1.532,-0.686 -1.532,-1.539 l 0,-1.597 c -10e-4,0.853 0.691,1.533 1.532,1.533 z"
       pointer-events="none" /><rect
       style="fill:#9d5025"
       id="rect121"
       height="1.609"
       width="3.619"
       pointer-events="none"
       y="111.377"
       x="366.26801" /><path
       style="fill:#9d5025"
       id="path123"
       d="m 366.381,111.377 0,1.602 c -0.847,0 -1.532,-0.685 -1.532,-1.538 l 0,-1.609 c 0,0.853 0.685,1.545 1.532,1.545"
       pointer-events="none" /><path
       style="fill:#9d5025"
       id="path125"
       d="m 366.381,111.377 0,1.602 c -0.847,0 -1.532,-0.685 -1.532,-1.538 l 0,-1.609 c 0,0.853 0.685,1.545 1.532,1.545 z"
       pointer-events="none" /><path
       style="fill:#9d5125"
       id="path127"
       d="m 372.777,118.84 0,1.61 c -0.847,0 -1.532,-0.698 -1.532,-1.544 l 0,-1.604 c 0,0.847 0.686,1.538 1.532,1.538"
       pointer-events="none" /><path
       style="fill:#9d5125"
       id="path129"
       d="m 372.777,118.84 0,1.61 c -0.847,0 -1.532,-0.698 -1.532,-1.544 l 0,-1.604 c 0,0.847 0.686,1.538 1.532,1.538 z"
       pointer-events="none" /><path
       style="fill:#9d5025"
       id="path131"
       d="m 388.331,117.302 0,1.604 c 0,0.078 -0.006,0.149 -0.018,0.221 l 0,-1.604 c 0.012,-0.071 0.018,-0.149 0.018,-0.221"
       pointer-events="none" /><path
       style="fill:#9d5025"
       id="path133"
       d="m 388.313,117.523 0,1.604 c -0.012,0.083 -0.03,0.167 -0.054,0.25 l 0,-1.61 c 0.024,-0.077 0.043,-0.161 0.054,-0.244"
       pointer-events="none" /><path
       style="fill:#9d5025"
       id="path135"
       d="m 388.26,117.768 0,1.61 c -0.03,0.095 -0.072,0.185 -0.12,0.268 l 0,-1.604 c 0.048,-0.09 0.089,-0.179 0.12,-0.274"
       pointer-events="none" /><path
       style="fill:#9d5025"
       id="path137"
       d="m 388.14,118.042 0,1.604 c -0.256,0.478 -0.756,0.805 -1.335,0.805 l 0,-1.61 c 0.579,-10e-4 1.079,-0.322 1.335,-0.799"
       pointer-events="none" /><path
       style="fill:#9d5025"
       id="path139"
       d="m 388.331,117.302 0,1.604 c 0,0.846 -0.686,1.544 -1.526,1.544 l 0,-1.61 c 0.841,0 1.526,-0.691 1.526,-1.538 z"
       pointer-events="none" /><path
       style="fill:#f58536"
       id="path141"
       d="m 374.083,86.469 c 0.846,0 1.532,0.686 1.532,1.538 l 0,3.66 -10.511,0 c -0.846,0 -1.537,0.698 -1.537,1.544 l 0,10.737 -3.512,0 c -0.841,0 -1.532,-0.681 -1.532,-1.532 l 0,-14.409 c 0,-0.853 0.691,-1.538 1.532,-1.538 l 14.028,0 z"
       pointer-events="none" /><path
       style="fill:#f58536"
       id="path143"
       d="m 380.408,93.897 c 0.841,0 1.526,0.692 1.526,1.538 l 0,3.661 -10.51,0 c -0.848,0 -1.538,0.691 -1.538,1.55 l 0,10.731 -3.506,0 c -0.847,0 -1.538,-0.692 -1.538,-1.544 l 0,-14.397 c 0,-0.846 0.691,-1.538 1.538,-1.538 l 14.028,0 z"
       pointer-events="none" /><path
       style="fill:#f58536"
       id="path145"
       d="m 386.805,101.361 c 0.841,0 1.526,0.692 1.526,1.532 l 0,14.409 c 0,0.847 -0.686,1.538 -1.526,1.538 l -14.027,0 c -0.847,0 -1.532,-0.691 -1.532,-1.538 l 0,-14.409 c 0,-0.84 0.686,-1.532 1.532,-1.532 l 14.027,0 z"
       pointer-events="none" /><path
       style="fill:#9d5025"
       id="path147"
       d="m 261.72,118.84 0,1.61 -14.135,0 -0.59,-2.11 14.725,0.5 z"
       pointer-events="none" /><path
       style="fill:#9d5025"
       id="path149"
       d="m 250.423,91.667 0,1.604 -10.51,0 -1.473,-2.027 11.983,0.423 z"
       pointer-events="none" /><path
       style="fill:#9d5025"
       id="path151"
       d="m 239.913,91.667 0,1.604 c -0.579,0 -1.092,0.333 -1.348,0.811 l 0,-1.609 c 0.256,-0.477 0.769,-0.806 1.348,-0.806"
       pointer-events="none" /><path
       style="fill:#9d5025"
       id="path153"
       d="m 238.565,92.473 0,1.61 c -0.048,0.083 -0.09,0.173 -0.119,0.268 l 0,-1.602 c 0.03,-0.097 0.072,-0.187 0.119,-0.276"
       pointer-events="none" /><path
       style="fill:#9d5025"
       id="path155"
       d="m 238.446,92.747 0,1.602 c -0.023,0.083 -0.048,0.162 -0.06,0.245 l 0,-1.604 c 0.012,-0.082 0.037,-0.165 0.06,-0.243"
       pointer-events="none" /><path
       style="fill:#9d5025"
       id="path157"
       d="m 238.387,92.991 0,1.61 c -0.013,0.065 -0.013,0.143 -0.013,0.214 l 0,-1.604 c 0,-0.077 0.006,-0.148 0.013,-0.22"
       pointer-events="none" /><path
       style="fill:#9d5025"
       id="path159"
       d="m 239.913,91.667 0,1.604 c -0.847,0 -1.539,0.698 -1.539,1.544 l 0,-1.604 c 0,-0.845 0.692,-1.544 1.539,-1.544 z"
       pointer-events="none" /><path
       style="fill:#9d5025"
       id="path161"
       d="m 256.742,99.096 0,1.604 -10.618,0 -0.899,-1.831 11.517,0.227 z"
       pointer-events="none" /><path
       style="fill:#9d5025"
       id="path163"
       d="m 246.231,99.096 0,1.604 c -0.578,0 -1.085,0.328 -1.341,0.805 l 0,-1.609 c 0.256,-0.479 0.763,-0.8 1.341,-0.8"
       pointer-events="none" /><path
       style="fill:#9d5025"
       id="path165"
       d="m 244.891,99.895 0,1.609 c -0.048,0.083 -0.089,0.179 -0.119,0.268 l 0,-1.604 c 0.03,-0.094 0.071,-0.184 0.119,-0.273"
       pointer-events="none" /><path
       style="fill:#9d5025"
       id="path167"
       d="m 244.771,100.169 0,1.604 c -0.024,0.083 -0.048,0.167 -0.06,0.256 l 0,-1.609 c 0.013,-0.085 0.036,-0.168 0.06,-0.251"
       pointer-events="none" /><path
       style="fill:#9d5025"
       id="path169"
       d="m 244.712,100.419 0,1.609 c -0.012,0.071 -0.018,0.143 -0.018,0.221 l 0,-1.603 c 0,-0.078 0.006,-0.155 0.018,-0.227"
       pointer-events="none" /><path
       style="fill:#9d5025"
       id="path171"
       d="m 246.231,99.096 0,1.604 c -0.846,0 -1.537,0.697 -1.537,1.55 l 0,-1.603 c 0,-0.859 0.692,-1.551 1.537,-1.551 z"
       pointer-events="none" /><path
       style="fill:#9d5025"
       id="path173"
       d="m 238.374,103.949 0,1.603 -3.511,0 -0.549,-1.949 4.06,0.346 z"
       pointer-events="none" /><path
       style="fill:#9d5025"
       id="path175"
       d="m 234.863,103.949 0,1.603 c -0.841,0 -1.532,-0.686 -1.532,-1.539 l 0,-1.597 c 0,0.853 0.691,1.533 1.532,1.533"
       pointer-events="none" /><path
       style="fill:#9d5025"
       id="path177"
       d="m 234.863,103.949 0,1.603 c -0.841,0 -1.532,-0.686 -1.532,-1.539 l 0,-1.597 c 0,0.853 0.691,1.533 1.532,1.533 z"
       pointer-events="none" /><rect
       style="fill:#9d5025"
       id="rect179"
       height="1.609"
       width="3.619"
       pointer-events="none"
       y="111.377"
       x="241.075" /><path
       style="fill:#9d5025"
       id="path181"
       d="m 241.188,111.377 0,1.602 c -0.847,0 -1.532,-0.685 -1.532,-1.538 l 0,-1.609 c 0,0.853 0.686,1.545 1.532,1.545"
       pointer-events="none" /><path
       style="fill:#9d5025"
       id="path183"
       d="m 241.188,111.377 0,1.602 c -0.847,0 -1.532,-0.685 -1.532,-1.538 l 0,-1.609 c 0,0.853 0.686,1.545 1.532,1.545 z"
       pointer-events="none" /><path
       style="fill:#9d5125"
       id="path185"
       d="m 247.585,118.84 0,1.61 c -0.846,0 -1.532,-0.698 -1.532,-1.544 l 0,-1.604 c 0,0.847 0.686,1.538 1.532,1.538"
       pointer-events="none" /><path
       style="fill:#9d5125"
       id="path187"
       d="m 247.585,118.84 0,1.61 c -0.846,0 -1.532,-0.698 -1.532,-1.544 l 0,-1.604 c 0,0.847 0.686,1.538 1.532,1.538 z"
       pointer-events="none" /><path
       style="fill:#9d5025"
       id="path189"
       d="m 263.139,117.302 0,1.604 c 0,0.078 -0.006,0.149 -0.019,0.221 l 0,-1.604 c 0.013,-0.071 0.019,-0.149 0.019,-0.221"
       pointer-events="none" /><path
       style="fill:#9d5025"
       id="path191"
       d="m 263.12,117.523 0,1.604 c -0.011,0.083 -0.029,0.167 -0.053,0.25 l 0,-1.61 c 0.024,-0.077 0.042,-0.161 0.053,-0.244"
       pointer-events="none" /><path
       style="fill:#9d5025"
       id="path193"
       d="m 263.067,117.768 0,1.61 c -0.029,0.095 -0.072,0.185 -0.119,0.268 l 0,-1.604 c 0.047,-0.09 0.09,-0.179 0.119,-0.274"
       pointer-events="none" /><path
       style="fill:#9d5025"
       id="path195"
       d="m 262.948,118.042 0,1.604 c -0.257,0.478 -0.758,0.805 -1.336,0.805 l 0,-1.61 c 0.578,-10e-4 1.079,-0.322 1.336,-0.799"
       pointer-events="none" /><path
       style="fill:#9d5025"
       id="path197"
       d="m 263.139,117.302 0,1.604 c 0,0.846 -0.686,1.544 -1.526,1.544 l 0,-1.61 c 0.84,0 1.526,-0.691 1.526,-1.538 z"
       pointer-events="none" /><path
       style="fill:#f58536"
       id="path199"
       d="m 248.891,86.469 c 0.847,0 1.532,0.686 1.532,1.538 l 0,3.66 -10.51,0 c -0.847,0 -1.539,0.698 -1.539,1.544 l 0,10.737 -3.511,0 c -0.841,0 -1.532,-0.681 -1.532,-1.532 l 0,-14.409 c 0,-0.853 0.691,-1.538 1.532,-1.538 l 14.028,0 z"
       pointer-events="none" /><path
       style="fill:#f58536"
       id="path201"
       d="m 255.216,93.897 c 0.841,0 1.526,0.692 1.526,1.538 l 0,3.661 -10.511,0 c -0.846,0 -1.537,0.691 -1.537,1.55 l 0,10.731 -3.506,0 c -0.847,0 -1.538,-0.692 -1.538,-1.544 l 0,-14.397 c 0,-0.846 0.691,-1.538 1.538,-1.538 l 14.028,0 z"
       pointer-events="none" /><path
       style="fill:#f58536"
       id="path203"
       d="m 261.612,101.361 c 0.841,0 1.526,0.692 1.526,1.532 l 0,14.409 c 0,0.847 -0.686,1.538 -1.526,1.538 l -14.027,0 c -0.846,0 -1.532,-0.691 -1.532,-1.538 l 0,-14.409 c 0,-0.84 0.687,-1.532 1.532,-1.532 l 14.027,0 z"
       pointer-events="none" /><path
       style="fill:#f58435"
       id="path205"
       d="m 326.117,223.108 -17.378,5.455 0,-29.123 17.378,5.461 0,18.207 z"
       pointer-events="none" /><path
       style="fill:#f58435"
       id="path207"
       d="m 303.892,224.116 -3.916,0.757 0,-21.652 3.916,0.757 0,20.138 z"
       pointer-events="none" /><path
       style="fill:#f58435"
       id="path209"
       d="m 308.739,225.374 -4.848,1.18 0,-25.015 4.848,1.18 0,22.655 z"
       pointer-events="none" /><path
       style="fill:#9d5025"
       id="path211"
       d="m 306.192,200.532 2.547,-1.091 0,29.211 -2.547,-1.091 0,-27.029 z"
       pointer-events="none" /><path
       style="fill:#9d5025"
       id="path213"
       d="m 301.835,202.421 2.057,-0.882 0,25.015 -2.057,-0.882 0,-23.251 z"
       pointer-events="none" /><path
       style="fill:#9d5025"
       id="path215"
       d="m 299.976,203.22 -1.664,0.715 0,20.221 1.664,0.716 0,-21.652 z"
       pointer-events="none" /><path
       style="fill:#9d5025"
       id="path217"
       d="m 315.004,210.565 0,-13.807 -3.326,1.425 0,12.674 3.326,-0.292 z"
       pointer-events="none" /><path
       style="fill:#9d5025"
       id="path219"
       d="m 311.678,217.152 0,12.757 3.326,1.425 0,-13.89 -3.326,-0.292 z"
       pointer-events="none" /><path
       style="fill:#f58435"
       id="path221"
       d="m 323.91,211.316 0,-10.736 -8.906,-3.822 0,13.807 8.906,0.751 z"
       pointer-events="none" /><path
       style="fill:#f58435"
       id="path223"
       d="m 315.004,217.445 0,13.89 8.906,-3.821 0,-10.826 -8.906,0.757 z"
       pointer-events="none" /><path
       style="fill:#f58435"
       id="path225"
       d="m 331.696,211.99 0,-8.054 -4.745,-2.057 0,9.694 4.745,0.417 z"
       pointer-events="none" /><path
       style="fill:#f58435"
       id="path227"
       d="m 326.951,216.437 0,9.777 4.745,-2.057 0,-8.137 -4.745,0.417 z"
       pointer-events="none" /><path
       style="fill:#6b3b19"
       id="path229"
       d="m 323.91,211.316 -3.278,0.173 -8.955,-0.632 3.327,-0.292 8.906,0.751 z"
       pointer-events="none" /><path
       style="fill:#fbbf92"
       id="path231"
       d="m 323.91,216.687 -3.082,-0.166 -9.151,0.632 3.178,0.292 9.055,-0.758 z"
       pointer-events="none" /><path
       style="fill:#9d5025"
       id="path233"
       d="m 324.841,202.337 2.11,-0.459 0,9.693 -2.11,0.126 0,-9.36 z"
       pointer-events="none" /><path
       style="fill:#9d5025"
       id="path235"
       d="m 324.841,225.755 2.11,0.459 0,-9.777 -2.11,-0.125 0,9.443 z"
       pointer-events="none" /><path
       style="fill:#fbbf92"
       id="path237"
       d="m 331.696,216.02 -1.908,-0.084 -4.947,0.375 2.11,0.125 4.745,-0.416 z"
       pointer-events="none" /><path
       style="fill:#6b3b19"
       id="path239"
       d="m 331.696,211.99 -1.908,0.083 -4.947,-0.375 2.11,-0.125 4.745,0.417 z"
       pointer-events="none" /><g
       id="g241"><path
         style="fill:#f58536"
         id="path243"
         d="m 322.73,287.195 -7.429,3.755 0,-42.923 7.429,3.756 0,35.412 z"
         pointer-events="none" /><path
         style="fill:#9d5025"
         id="path245"
         d="m 307.868,287.195 7.434,3.755 0,-42.923 -7.434,3.756 0,35.412 z"
         pointer-events="none" /><path
         style="fill:#f58536"
         id="path247"
         d="m 312.5,263.652 -12.549,-1.616 0,-6.254 12.549,2.975 0,4.895 z"
         pointer-events="none" /><path
         style="fill:#9d5025"
         id="path249"
         d="m 330.642,259.444 -12.544,2.18 0,5.115 12.544,-0.757 0,-6.538 z"
         pointer-events="none" /><path
         style="fill:#f58536"
         id="path251"
         d="m 332.889,266.228 -2.247,-0.298 0,-6.486 2.247,0.832 0,5.952 z"
         pointer-events="none" /><path
         style="fill:#9d5025"
         id="path253"
         d="m 297.716,256.916 2.235,-1.133 0,6.254 -2.235,0.614 0,-5.735 z"
         pointer-events="none" /><path
         style="fill:#6b3a19"
         id="path255"
         d="m 312.5,263.652 -2.61,0.381 -12.174,-1.381 2.235,-0.614 12.549,1.614 z"
         pointer-events="none" /><path
         style="fill:#6b3a19"
         id="path257"
         d="m 332.889,266.228 -12.46,0.673 -2.33,-0.162 12.8,-0.775 1.99,0.264 z"
         pointer-events="none" /></g><path
       style="fill:#19486f"
       id="path259"
       d="m 298.33,34.067 0,0.036 -0.019,-0.023 0.019,-0.013 z"
       pointer-events="none" /><path
       style="fill:#19486f"
       id="path261"
       d="m 323.946,30.157 0,1.365 c 0,0.042 0,0.083 -0.006,0.131 l 0,-1.359 c 0.006,-0.048 0.006,-0.089 0.006,-0.137"
       pointer-events="none" /><path
       style="fill:#19486f"
       id="path263"
       d="m 323.94,30.294 0,1.359 c -0.006,0.048 -0.023,0.096 -0.042,0.155 l 0,-1.359 c 0.019,-0.048 0.037,-0.108 0.042,-0.155"
       pointer-events="none" /><path
       style="fill:#19486f"
       id="path265"
       d="m 323.898,30.449 0,1.359 c -0.023,0.065 -0.054,0.137 -0.089,0.209 l 0,-1.365 c 0.036,-0.072 0.066,-0.132 0.089,-0.203"
       pointer-events="none" /><path
       style="fill:#19486f"
       id="path267"
       d="m 323.81,30.652 0,1.365 c -0.93,1.585 -6.242,2.802 -12.656,2.802 -7.059,0 -12.793,-1.484 -12.793,-3.297 l 0,-1.365 c 0,1.824 5.734,3.309 12.793,3.309 6.413,-10e-4 11.726,-1.229 12.656,-2.814"
       pointer-events="none" /><path
       style="fill:#19486f"
       id="path269"
       d="m 323.946,30.157 0,1.365 c 0,1.812 -5.723,3.297 -12.793,3.297 -7.059,0 -12.794,-1.484 -12.794,-3.297 l 0,-1.365 c 0,1.824 5.735,3.309 12.794,3.309 7.071,-10e-4 12.793,-1.485 12.793,-3.309 z"
       pointer-events="none" /><path
       style="fill:#2e73b7"
       id="path271"
       d="m 311.153,26.854 c 7.07,0 12.793,1.473 12.793,3.303 0,1.824 -5.723,3.309 -12.793,3.309 -7.059,0 -12.794,-1.484 -12.794,-3.309 0,-1.83 5.736,-3.303 12.794,-3.303 z"
       pointer-events="none" /><path
       style="fill:#19486f"
       id="path273"
       d="m 323.923,55.094 0,1.359 c 0,0.054 -0.006,0.107 -0.013,0.161 l 0,-1.353 c 0.007,-0.054 0.013,-0.114 0.013,-0.167"
       pointer-events="none" /><path
       style="fill:#19486f"
       id="path275"
       d="m 323.91,55.261 0,1.353 c -0.012,0.072 -0.029,0.149 -0.06,0.221 l 0,-1.365 c 0.032,-0.072 0.043,-0.137 0.06,-0.209"
       pointer-events="none" /><path
       style="fill:#19486f"
       id="path277"
       d="m 323.851,55.469 0,1.365 c -0.029,0.084 -0.059,0.167 -0.106,0.25 l 0,-1.353 c 0.047,-0.089 0.076,-0.172 0.106,-0.262"
       pointer-events="none" /><path
       style="fill:#19486f"
       id="path279"
       d="m 323.744,55.732 0,1.353 c -1.032,1.794 -6.296,3.16 -12.633,3.16 -7.064,0 -12.794,-1.693 -12.794,-3.773 l 0,-1.365 c 0,2.086 5.729,3.773 12.794,3.773 6.337,-0.001 11.601,-1.354 12.633,-3.148"
       pointer-events="none" /><path
       style="fill:#19486f"
       id="path281"
       d="m 323.923,55.094 0,1.359 c -0.013,2.099 -5.747,3.792 -12.812,3.792 -7.065,0 -12.794,-1.693 -12.794,-3.773 l 0,-1.365 c 0,2.086 5.729,3.773 12.794,3.773 7.065,0 12.799,-1.688 12.812,-3.786 z"
       pointer-events="none" /><path
       style="fill:#2e73b7"
       id="path283"
       d="m 323.91,32.845 c -0.715,1.979 -5.729,3.166 -12.8,3.166 -7.04,0 -11.857,-1.347 -12.779,-3.267 l -0.014,22.362 c 0,2.086 5.729,3.773 12.794,3.773 7.065,0 12.8,-1.687 12.812,-3.786 L 323.91,32.845 Z"
       pointer-events="none" /><path
       style="fill:#ffffff"
       id="path285"
       d="m 302.771,39.725 4.806,0 3.63,10.677 0.049,0 3.428,-10.677 4.811,0 0,15.536 -3.195,0 0,-11.011 -0.048,0 -3.804,11.011 -2.635,0 -3.797,-10.904 -0.049,0 0,10.904 -3.195,0 0,-15.536 z"
       pointer-events="none" /></g><g
     transform="translate(529.14183,8.7689008)"
     id="g287"><g
       transform="translate(-273.27313,-435.95455)"
       id="layer1"><path
         style="fill:#a62c39"
         d="m 332.735,633.647 c 0,0 0.238,-37.322 0.238,-75.263 0,-73.488 -6.192,-78.962 26.781,-78.962 32.973,0 91.779,0 91.779,0 0,0 0,71.106 0,106 0,34.895 6.522,48.564 -30.148,48.564 -36.67,0 -88.65,-0.339 -88.65,-0.339 l 0,0 z"
         id="path3907" /></g><g
       transform="translate(-273.27313,-435.95455)"
       id="layer4"><linearGradient
         gradientTransform="matrix(1,0,0,-1,563.0854,1821.0303)"
         y2="1296.3914"
         x2="-113.5241"
         y1="1281.4927"
         x1="-141.9691"
         gradientUnits="userSpaceOnUse"
         id="path3947_1_"><stop
           id="stop293"
           style="stop-color:#FFFFFF"
           offset="0" /><stop
           id="stop295"
           style="stop-color:#C0815E"
           offset="1" /></linearGradient><path
         style="fill:url(#path3947_1_)"
         d="m 408.404,493.286 c 0,0 5.881,1.177 10.979,9.802 5.097,8.626 32.149,75.67 32.149,75.67 l 0,-54.498 -25.093,-40.775 7.058,8.626 13.33,-10.978 -17.251,-1.177 -21.172,13.33 z"
         id="path3947" /></g><g
       transform="translate(-273.27313,-435.95455)"
       id="layer3"><radialGradient
         gradientUnits="userSpaceOnUse"
         gradientTransform="matrix(1,0,0,-1.5817,563.0854,2630.5657)"
         r="48.529598"
         cy="1311.4702"
         cx="-158.7982"
         id="path3934_1_"><stop
           id="stop300"
           style="stop-color:#FFFFFF"
           offset="0" /><stop
           id="stop302"
           style="stop-color:#A94436"
           offset="1" /></radialGradient><path
         style="opacity:0.66820003;fill:url(#path3934_1_)"
         d="m 356.258,480.348 c 0,0 38.815,25.876 57.635,30.974 18.819,5.097 38.423,10.585 38.423,10.585 l -44.696,109.78 19.212,0.784 25.092,-61.947 -0.783,-90.568 -94.883,0.392 z"
         enable-background="new    "
         id="path3934" /><path
         style="fill:#ffffff;fill-opacity:0.43960003"
         d="m 392.33,596.008 40.377,38.835 -75.272,-1.588 c 0,0 -2.352,-23.916 -1.568,-36.463 0.784,-12.546 4.705,-12.546 4.705,-12.546 l 31.758,11.762 z"
         id="path3960" /></g><g
       transform="translate(-273.27313,-435.95455)"
       id="layer5"><path
         style="fill-opacity:0.36230002"
         d="m 429.576,634.04 -36.463,-37.639 -33.326,-12.547 -25.876,-57.634 27.445,-45.872 -18.427,-0.784 -7.449,7.057 -2.745,5.489 -1.96,142.714 98.801,-0.784 z"
         id="path3958" /><path
         style="opacity:0.5;fill:#83222d"
         d="m 451.924,574.052 c 0,0 -36.854,11.763 -58.811,22.74 -21.956,10.979 -33.718,37.639 -33.718,37.639 0,0 47.048,-2.353 64.691,-1.568 17.643,0.785 25.877,0.784 27.445,-23.916 1.568,-24.7 0.393,-34.895 0.393,-34.895 l 0,0 z"
         enable-background="new    "
         id="path3962" /></g><g
       transform="translate(-273.27313,-435.95455)"
       id="layer7"><path
         style="fill:#ffffff"
         d="m 344.095,597.468 0,23.156 5.906,0 0,-6.031 5.375,5.375 9.062,0 -7.188,-7.188 c 0,0 5.17,-0.084 5.562,-7.562 0,-6.861 -5.177,-7.75 -11.156,-7.75 l -7.561,0 z m 6.187,6.282 5.094,0 0,4.125 -5.094,0 0,-4.125 z"
         id="path3993" /><path
         style="fill:#ffffff"
         d="m 375.845,597.562 c -3.234,-0.019 -7.719,0.281 -7.719,6.375 l 0,16.094 6.062,0 0,-3.938 5.875,0 0,3.844 6.094,0 0,-16.875 c 0,-5.293 -5.881,-5.5 -9.031,-5.5 -0.394,0 -0.82,0.003 -1.281,0 z m -1.563,5.813 5.688,0 0,6.344 -5.688,0 0,-6.344 z"
         id="path3997" /><rect
         style="fill:#ffffff"
         height="22.152"
         width="6.2719998"
         y="597.57703"
         x="392.23099"
         id="rect4001" /><path
         style="fill:#ffffff"
         d="m 405.072,597.871 0,22.152 15.094,0 0,-5.881 -8.919,0 0,-16.369 -6.175,0.098 z"
         id="path4003" /><path
         style="fill:#ffffff"
         d="m 440.162,597.675 0,5.979 -10.096,0 0,2.156 c 0,0 2.059,0 4.312,0 2.253,0 6.959,-0.098 6.959,6.959 0,7.058 -3.234,7.45 -9.801,7.45 -6.568,0 -7.939,0 -7.939,0 l 0,-5.392 c 0,0 6.371,0 9.115,0 2.744,0 2.896,-0.894 2.896,-1.672 0,-0.778 -1.403,-1.141 -4.257,-1.141 -2.854,0 -8.146,-1.402 -8.146,-6.891 0,-5.489 2.744,-7.548 8.233,-7.548 5.489,0 8.724,0.099 8.724,0.1 l 0,0 z"
         id="path4005" /></g><g
       transform="translate(-273.27313,-435.95455)"
       id="layer6"><path
         style="fill:#ffffff"
         d="m 349.593,590.912 52.146,0 c 0,0 -11.566,-26.269 -8.626,-50.381 2.941,-24.112 21.956,-35.091 32.738,-36.267 10.781,-1.177 16.663,5.489 16.663,5.489 l 2.353,-3.529 c 0,0 -15.487,-15.683 -35.091,-13.918 -19.604,1.764 -33.13,14.702 -41.559,30.385 -8.43,15.684 -13.331,26.661 -16.663,43.128 -3.332,16.467 -1.961,25.093 -1.961,25.093 z"
         id="path3966" /><path
         style="fill:#ffffff"
         d="m 339.204,564.643 10.194,0.784 -1.765,10.193 -9.605,-1.176 1.176,-9.801 z"
         id="path3968" /><path
         style="fill:#ffffff"
         d="m 355.279,543.079 2.745,-7.645 -9.018,-3.529 -2.94,8.233 9.213,2.941 z"
         id="path3970" /><path
         style="fill:#ffffff"
         d="m 368.021,516.81 5.293,-6.272 -6.861,-4.509 -5.489,6.076 7.057,4.705 z"
         id="path3972" /><path
         style="fill:#ffffff"
         d="m 381.939,492.501 4.705,5.686 6.469,-3.725 -4.705,-5.293 -6.469,3.332 z"
         id="path3974" /><path
         style="fill:#ffffff"
         d="m 404.876,486.033 1.176,5.686 8.038,-0.196 -0.785,-5.097 -8.429,-0.393 z"
         id="path3976" /><path
         style="fill:#ffffff"
         d="m 432.125,492.11 -0.196,3.528 5.489,2.94 1.176,-1.764 -6.469,-4.704 z"
         id="path3978" /><path
         style="fill:#ffffff"
         d="m 430.948,507.205 0,2.94 5.293,0.588 0,-2.353 -5.293,-1.175 z"
         id="path3980" /><path
         style="fill:#ffffff"
         d="m 414.09,509.753 2.548,4.704 3.725,-2.94 -0.784,-3.137 -5.489,1.373 z"
         id="path3982" /><path
         style="fill:#ffffff"
         d="m 406.051,515.831 3.921,5.881 -2.353,4.116 -5.685,-6.272 4.117,-3.725 z"
         id="path3984" /><path
         style="fill:#ffffff"
         d="m 398.211,532.101 -2.549,5.097 6.665,5.686 1.568,-6.47 -5.684,-4.313 z"
         id="path3986" /><path
         style="fill:#ffffff"
         d="m 395.466,549.94 -0.392,6.861 8.233,3.529 -0.392,-6.47 -7.449,-3.92 z"
         id="path3988" /><path
         style="fill:#ffffff"
         d="m 397.818,574.249 1.961,7.058 10.39,0.588 -3.726,-7.646 -8.625,0 z"
         id="path3990" /></g><g
       transform="translate(-273.27313,-435.95455)"
       id="g3911"><path
         style="fill:none;stroke:#5e000e;stroke-width:3"
         d="m 332.735,633.647 c 0,0 0.238,-37.322 0.238,-75.263 0,-73.488 -6.192,-78.962 26.781,-78.962 32.973,0 91.779,0 91.779,0 0,0 0,71.106 0,106 0,34.895 4.954,48.564 -30.148,48.564 -35.102,0 -88.65,-0.339 -88.65,-0.339 l 0,0 z"
         id="path3913" /></g></g><path
     style="fill:#ffffff"
     id="path331"
     d="m 632.51883,275.2129 10e-4,-10e-4 -0.922,3.265 0.921,-3.264 0,0 z" /><path
     style="fill:#131b28"
     id="path333"
     d="m 637.25783,282.3019 -1.016,-0.006 1.016,0.006 z" /><path
     style="fill:#131b28"
     id="path335"
     d="m 636.99583,287.1779 0,0 -6.081,0.022 6.081,-0.022 0,0 z" /><path
     style="fill:#131b28"
     id="path337"
     d="m 638.27183,282.3079 -1.016,-0.006 1.016,0.006 z" /><path
     style="fill:#131b28"
     id="path339"
     d="m 637.52983,286.7639 1.06,-4.041 -1.06,4.041 0,0 0,0 z" /><path
     style="fill:#ffffff"
     id="path341"
     d="m 659.92483,268.1549 -1.974,9.279 1.974,-9.279 z" /><path
     style="fill:#ffffff"
     id="path343"
     d="m 654.85083,268.1549 -1.498,6.932 1.498,-6.932 0,0 z" /><path
     style="fill:#ffffff"
     id="path345"
     d="m 659.58683,267.7369 -4.221,0 c -0.234,0 -0.467,0.188 -0.517,0.417 l -1.499,6.933 -1.498,6.933 c -0.05,0.229 -0.282,0.416 -0.517,0.416 l -2.561,0 -0.427,0 c -2.955,0 -2.613,-2.044 -2.008,-4.845 0.006,-0.028 0.012,-0.056 0.018,-0.084 l 0.066,-0.353 c 0.005,-0.023 0.009,-0.045 0.013,-0.066 l 0.135,-0.719 0.145,-0.771 c 0.044,-0.232 0.111,-0.572 0.154,-0.785 l 0.682,-3.328 0.682,-3.329 c 0.047,-0.229 -0.106,-0.418 -0.341,-0.418 l -4.333,0 c -0.233,0 -0.466,0.188 -0.514,0.417 l -0.931,4.419 -0.932,4.419 c -10e-4,10e-4 -10e-4,0.004 -0.002,0.006 l -0.086,0.411 c -1.073,4.898 -0.789,9.57 5.042,9.716 0.096,0.003 0.17,0.003 0.17,0.003 l 9.152,0 c 0.234,0 0.467,-0.188 0.516,-0.417 l 1.974,-9.279 1.974,-9.279 c 0.05,-0.229 -0.102,-0.417 -0.336,-0.417 l 0,0 z" /><path
     style="fill:#131b28"
     id="path347"
     d="m 676.42383,282.4829 c 0.234,0 0.388,0.188 0.341,0.417 l -0.409,2.003" /><path
     style="fill:#131b28"
     id="path349"
     d="m 675.94583,286.9079 0.41,-2.004 -0.41,2.004 c 0,0 0,0 0,0 l 0,0 z" /><path
     style="fill:#131b28"
     id="path351"
     d="m 675.43183,287.3299 c 10e-4,0 0.002,-0.001 0.002,-0.001 -1.242,0.01 -4.975,0.039 -7.779,0.039 3.414,-0.001 7.777,-0.038 7.777,-0.038 l 0,0 z" /><path
     style="fill:#131b28"
     id="path353"
     d="m 665.13583,279.9029 c -0.003,-0.219 0.246,-0.597 0.481,-0.597 l -0.527,-0.008 c -0.238,2.388 0.046,0.605 0.046,0.605 z" /><path
     style="fill:#131b28"
     id="path355"
     d="m 668.03783,287.3659 c -0.026,0 -0.054,0 -0.081,0 0.028,0 0.055,0 0.081,0 z" /><path
     style="fill:#131b28"
     id="path357"
     d="m 676.42383,282.4829 c 0.234,0 0.388,0.188 0.341,0.417 l -0.409,2.003 -0.067,0.327" /><path
     style="fill:#131b28"
     id="path359"
     d="m 670.03683,287.3619 -0.017,0 0.017,0 z" /><path
     style="fill:#131b28"
     id="path361"
     d="m 668.99983,287.3649 -0.06,0 0.06,0 z" /><path
     style="fill:#131b28"
     id="path363"
     d="m 668.68383,287.3659 c -0.033,0 -0.065,0 -0.099,0 0.034,0 0.066,0 0.099,0 z" /><path
     style="fill:#131b28"
     id="path365"
     d="m 668.36283,287.3659 -0.087,0 0.087,0 z" /><path
     style="fill:#131b28"
     id="path367"
     d="m 668.93983,287.3649 c -0.085,0 -0.171,0 -0.256,0 0.085,0 0.171,0 0.256,0 z" /><path
     style="fill:#131b28"
     id="path369"
     d="m 670.01983,287.3619 c -0.341,0.001 -0.682,0.002 -1.018,0.003 0.336,0 0.677,-0.002 1.018,-0.003 z" /><path
     style="fill:#131b28"
     id="path371"
     d="m 675.43483,287.3289 0,0 c -0.909,0.007 -3.158,0.024 -5.399,0.033 2.24,-0.009 4.489,-0.026 5.399,-0.033 z" /><path
     style="fill:#131b28"
     id="path373"
     d="m 675.94583,286.9089 0.344,-1.678 -0.344,1.678 c 0,0 0,0 0,0 l 0,0 z" /><path
     style="fill:#131b28"
     id="path375"
     d="m 668.58483,287.3659 -0.223,0 0.223,0 z" /><path
     style="fill:#131b28"
     id="path377"
     d="m 667.95583,287.3669 -0.302,0 0.302,0 z" /><path
     style="fill:#131b28"
     id="path379"
     d="m 668.27483,287.3659 -0.237,0 0.237,0 z" /><path
     style="fill:#131b28"
     id="path381"
     d="m 606.53483,279.9539 0.655,-2.907 -0.749,3.322 -0.72,3.384 0.631,-2.967 c 0.049,-0.229 0.131,-0.604 0.183,-0.832 l 0,0 z" /><path
     style="fill:#ffffff"
     id="path383"
     d="m 614.38183,267.6879 -4.636,0 c -0.234,0 -0.469,0.188 -0.521,0.416 l -0.439,1.94 -0.439,1.94 c -0.052,0.229 0.098,0.416 0.332,0.416 l 4.671,0 c 0.234,0 0.467,-0.187 0.518,-0.416 l 0.425,-1.94 0.425,-1.938 0,0 c 0.049,-0.231 -0.101,-0.418 -0.336,-0.418 l 0,0 z" /><path
     style="fill:#ffffff"
     id="path385"
     d="m 613.37283,274.1409 0,0 -1.359,6.289 1.359,-6.289 z" /><path
     style="fill:#131b28"
     id="path387"
     d="m 599.90783,294.9799 c 0,0 2.337,0.03 3.822,0.03 -1.128,0 -2.992,-0.02 -3.822,-0.03 -10e-4,0 0,0 0,0 l 0,0 z" /><path
     style="fill:#ffffff"
     id="path389"
     d="m 607.84583,274.1409 -0.656,2.906 0.656,-2.906 z" /><path
     style="fill:#ffffff"
     id="path391"
     d="m 613.03783,273.7249 -4.672,0 c -0.233,0 -0.468,0.187 -0.52,0.416 l -0.656,2.906 -0.656,2.906 c -0.051,0.229 -0.134,0.604 -0.183,0.833 l -0.63,2.966 -0.631,2.967 c -0.049,0.229 -0.149,0.599 -0.225,0.82 0,0 -0.872,2.597 -2.34,2.567 -0.062,-0.001 -0.123,-0.002 -0.183,-0.003 -0.711,-0.013 -1.27,-0.023 -1.27,-0.023 l -10e-4,0 c -0.234,-0.003 -0.47,0.179 -0.524,0.407 l -0.484,2.037 -0.483,2.035 c -0.055,0.228 0.093,0.416 0.325,0.42 0.832,0.01 2.695,0.03 3.823,0.03 3.665,0 5.598,-2.03 6.836,-7.874 l 1.449,-6.706 1.359,-6.29 c 0.051,-0.227 -0.1,-0.414 -0.334,-0.414 l 0,0 z" /><path
     style="fill:#ffffff"
     id="path393"
     d="m 679.40083,287.1289 c -0.233,0 -0.386,-0.188 -0.337,-0.418 l 3.515,-16.461" /><path
     style="fill:#131b28"
     id="path395"
     d="m 684.28583,286.7109 1.421,-7.026 -1.421,7.026 z" /><path
     style="fill:#131b28"
     id="path397"
     d="m 679.11583,286.9199 c -0.029,-0.114 -0.012,-0.396 0.037,-0.625 l 1.668,-7.813 -1.757,8.23 c -0.049,0.229 0.103,0.417 0.337,0.417 l 0.427,0 c -0.235,0 -0.684,-0.093 -0.712,-0.209 l 0,0 z" /><path
     style="fill:#131b28"
     id="path399"
     d="m 684.00783,287.0359 c -0.128,0.051 -0.425,0.094 -0.659,0.094 l 0.427,0 c 0.234,0 0.465,-0.188 0.511,-0.418 l 0.085,-0.418 c -0.047,0.229 -0.237,0.69 -0.364,0.742 z" /><path
     style="fill:#131b28"
     id="path401"
     d="m 684.99683,283.1979 0.627,-3.101 c 0,0.002 0,0.005 -10e-4,0.006 l -0.626,3.095 0,0 z" /><path
     style="fill:#ffffff"
     id="path403"
     d="m 698.86383,271.3529 0.193,0.8 c 0.054,0.229 -0.095,0.415 -0.328,0.415" /><path
     style="fill:#131b28"
     id="path405"
     d="m 684.37083,286.2939 0.626,-3.095 -0.626,3.095 z" /><path
     style="fill:#ffffff"
     id="path407"
     d="m 698.67083,270.5339 0.191,0.82 -0.191,-0.82 z" /><path
     style="fill:#ffffff"
     id="path409"
     d="m 685.62383,280.0969 c 0.046,-0.229 0.123,-0.601 0.172,-0.828 l 0.67,-3.139 -0.759,3.556 -0.083,0.411 0,0 z" /><path
     style="fill:#ffffff"
     id="path411"
     d="m 682.63583,269.9809 c -0.047,0.222 -0.106,0.501 -0.146,0.687 l -1.668,7.814 1.757,-8.231 0.057,-0.27 0,0 z" /><path
     style="fill:#ffffff"
     id="path413"
     d="m 699.05583,272.1529 -0.194,-0.8 -0.19,-0.82 -0.098,-0.415 c -0.379,-1.474 -1.493,-2.325 -3.911,-2.325 l -3.767,-0.004 -3.468,-0.004 -0.297,0 -3.604,0 c -0.234,0 -0.467,0.187 -0.515,0.417 l 0,0 -0.173,0.815 -0.204,0.963 -0.056,0.27 -1.757,8.231 -1.668,7.813 c -0.051,0.229 -0.066,0.511 -0.038,0.625 0.028,0.115 0.478,0.209 0.712,0.209 l 3.521,0 c 0.234,0 0.531,-0.042 0.658,-0.094 0.128,-0.052 0.316,-0.513 0.363,-0.742 l 0.626,-3.095 0.627,-3.095 c 0,-10e-4 0,-0.004 10e-4,-0.006 l 0.083,-0.412 0.759,-3.556 0.671,-3.141 c 0.05,-0.228 0.28,-0.415 0.514,-0.416 l 11.077,-0.005 c 0.233,0.002 0.382,-0.184 0.328,-0.413 l 0,0 z" /><path
     style="fill:#ffffff"
     id="path415"
     d="m 713.31583,264.9209 c -0.234,10e-4 -0.618,0.003 -0.854,0.003 l -3.545,0 c -0.234,0 -0.534,0.158 -0.667,0.352 l -7.84,11.485 c -0.132,0.194 -0.283,0.165 -0.335,-0.063 l -0.577,-2.531 c -0.052,-0.229 -0.287,-0.415 -0.521,-0.415 l -5.04,0 c -0.235,0 -0.374,0.184 -0.31,0.409 l 2.259,7.911 c 0.063,0.226 0.068,0.596 0.011,0.823 l -0.984,3.829 c -0.059,0.227 0.086,0.413 0.32,0.413 l 4.981,0 c 0.233,0 0.474,-0.186 0.531,-0.413 l 0.985,-3.829 c 0.058,-0.227 0.221,-0.566 0.362,-0.754 l 12.727,-16.892 c 0.142,-0.187 0.065,-0.339 -0.169,-0.338 l -1.334,0.01 0,0 z" /><path
     style="fill:#ffffff"
     id="path417"
     d="m 673.27483,274.8289 0,-0.004 c -0.03,0.254 -0.265,0.441 -0.499,0.441 l -6.39,0 c -0.221,0 -0.333,-0.15 -0.301,-0.335 0.002,-0.005 0.003,-0.01 0.007,-0.015 0,0 -0.003,0 -0.004,0.002 10e-4,-0.007 10e-4,-0.014 0.003,-0.021 0,0 0.013,-0.045 0.029,-0.108 0.61,-1.623 1.854,-2.688 4.189,-2.688 2.631,-0.002 3.145,1.283 2.966,2.728 l 0,0 z m -1.874,-7.375 c -8.203,0 -10.146,4.979 -11.236,10.003 -1.091,5.122 -0.996,9.91 7.49,9.91 l 0.302,0 c 0.026,0 0.055,0 0.081,0 l 0.237,0 0.088,0 0.223,0 c 0.032,0 0.065,0 0.099,0 0.085,0 0.17,-10e-4 0.256,-10e-4 l 0.061,0 c 0.336,0 0.676,-0.002 1.019,-0.003 l 0.017,0 c 2.241,-0.009 4.489,-0.026 5.4,-0.033 0.232,-0.003 0.461,-0.191 0.508,-0.418 l 0.344,-1.68 0.067,-0.327 0.409,-2.003 c 0.048,-0.23 -0.105,-0.418 -0.341,-0.418 l -7.63,0 c -3.034,0 -3.936,-0.806 -3.604,-3.177 l 12.197,0 -0.002,0.001 c 0.004,0 0.006,-0.001 0.009,-0.001 0.194,-0.004 0.373,-0.137 0.444,-0.315 0.014,-0.034 0.025,-0.07 0.029,-0.107 l -10e-4,10e-4 c 1.811,-6.831 1.292,-11.432 -6.466,-11.432 l 0,0 z" /><path
     style="fill:#ffffff"
     id="path419"
     d="m 632.63483,274.8029 -0.116,0.409 c 0,10e-4 0,10e-4 0,10e-4 l -0.921,3.264 -0.921,3.264 c -0.063,0.225 -0.307,0.41 -0.542,0.41 l -4.875,0 c -3.697,0 -4.598,-2.892 -3.697,-7.158 0.9,-4.363 2.665,-7.075 6.305,-7.35 4.972,-0.375 5.967,3.123 4.767,7.16 l 0,0 z m 3.343,7.096 c 0,0 2.298,-5.581 2.82,-8.804 0.712,-4.314 -1.448,-10.572 -9.793,-10.572 -8.297,0 -11.9,5.975 -13.274,12.469 -1.375,6.542 0.426,12.279 8.676,12.232 l 6.509,-0.024 6.082,-0.022 c 0.234,-0.002 0.474,-0.188 0.534,-0.414 l 1.06,-4.042 c 0.059,-0.227 -0.085,-0.413 -0.318,-0.415 l -1.016,-0.006 -1.016,-0.006 c -0.199,-10e-4 -0.313,-0.13 -0.289,-0.301 0.003,-0.031 0.01,-0.062 0.025,-0.095 l 0,0 z" /><path
     style="fill:#131b28"
     id="path421"
     d="m 677.05083,278.1649 c 0,0.154 -0.125,0.279 -0.279,0.279 -0.154,0 -0.28,-0.125 -0.28,-0.279 0,-0.154 0.126,-0.279 0.28,-0.279 0.154,0 0.279,0.124 0.279,0.279 z" /><path
     style="fill:#0868ac"
     id="path423"
     d="m 572.62183,270.9089 c -2.29,3.292 -2.005,7.576 -0.255,11.075 0.041,0.084 0.085,0.166 0.128,0.249 0.027,0.052 0.054,0.106 0.082,0.157 0.016,0.031 0.034,0.062 0.051,0.091 0.029,0.056 0.061,0.109 0.091,0.163 0.055,0.096 0.11,0.191 0.167,0.287 0.032,0.052 0.063,0.104 0.096,0.157 0.063,0.102 0.128,0.203 0.194,0.304 0.027,0.043 0.054,0.086 0.082,0.127 0.092,0.136 0.185,0.271 0.281,0.405 0.002,0.003 0.005,0.007 0.008,0.011 0.015,0.021 0.031,0.042 0.047,0.063 0.084,0.115 0.17,0.228 0.256,0.34 0.032,0.041 0.064,0.082 0.097,0.123 0.077,0.098 0.156,0.194 0.236,0.291 0.03,0.037 0.061,0.073 0.091,0.108 0.107,0.127 0.217,0.253 0.329,0.376 0.002,0.002 0.005,0.005 0.007,0.007 0.005,0.006 0.009,0.009 0.013,0.014 0.109,0.12 0.222,0.236 0.335,0.353 0.035,0.036 0.071,0.072 0.107,0.108 0.088,0.088 0.177,0.175 0.268,0.262 0.036,0.035 0.072,0.071 0.109,0.104 0.12,0.114 0.242,0.225 0.366,0.333 0.002,0.002 0.004,0.004 0.006,0.005 0.021,0.019 0.043,0.037 0.063,0.055 0.109,0.095 0.221,0.188 0.333,0.281 0.046,0.037 0.092,0.073 0.138,0.11 0.092,0.073 0.185,0.146 0.277,0.217 0.05,0.038 0.099,0.075 0.148,0.113 0.103,0.075 0.207,0.15 0.312,0.224 0.038,0.027 0.075,0.054 0.113,0.08 0.011,0.007 0.021,0.015 0.031,0.022 0.099,0.068 0.2,0.134 0.302,0.2 0.044,0.029 0.087,0.059 0.131,0.087 0.156,0.099 0.314,0.196 0.474,0.29 0.043,0.025 0.087,0.049 0.131,0.074 0.117,0.068 0.235,0.134 0.355,0.2 0.064,0.035 0.131,0.068 0.196,0.101 0.085,0.044 0.169,0.089 0.255,0.132 0.02,0.009 0.039,0.019 0.059,0.028 0.034,0.017 0.069,0.033 0.104,0.05 0.134,0.063 0.268,0.126 0.403,0.187 0.029,0.013 0.057,0.025 0.085,0.038 0.155,0.068 0.312,0.133 0.471,0.195 0.038,0.016 0.075,0.03 0.114,0.045 0.146,0.057 0.295,0.112 0.443,0.165 0.019,0.006 0.037,0.013 0.056,0.019 0.163,0.058 0.328,0.11 0.495,0.162 0.039,0.012 0.079,0.024 0.119,0.036 0.169,0.051 0.336,0.112 0.511,0.144 11.079,2.021 14.297,-6.658 14.297,-6.658 -2.702,3.521 -7.501,4.45 -12.046,3.417 -0.172,-0.039 -0.34,-0.093 -0.508,-0.143 -0.042,-0.012 -0.084,-0.025 -0.126,-0.038 -0.164,-0.05 -0.327,-0.103 -0.489,-0.159 -0.021,-0.008 -0.044,-0.016 -0.066,-0.024 -0.146,-0.051 -0.288,-0.104 -0.431,-0.16 -0.041,-0.016 -0.081,-0.032 -0.121,-0.047 -0.156,-0.062 -0.312,-0.126 -0.465,-0.193 -0.032,-0.014 -0.062,-0.028 -0.093,-0.041 -0.133,-0.06 -0.263,-0.12 -0.393,-0.183 -0.037,-0.018 -0.075,-0.036 -0.113,-0.055 -0.103,-0.05 -0.203,-0.103 -0.304,-0.154 -0.067,-0.035 -0.136,-0.069 -0.202,-0.106 -0.123,-0.066 -0.244,-0.134 -0.364,-0.204 -0.04,-0.023 -0.081,-0.044 -0.122,-0.068 -0.16,-0.094 -0.318,-0.191 -0.475,-0.29 -0.043,-0.027 -0.085,-0.057 -0.127,-0.085 -0.113,-0.073 -0.227,-0.147 -0.337,-0.224 -0.037,-0.025 -0.073,-0.052 -0.108,-0.076 -0.107,-0.076 -0.214,-0.153 -0.319,-0.23 -0.048,-0.036 -0.095,-0.071 -0.141,-0.107 -0.097,-0.074 -0.192,-0.148 -0.288,-0.225 -0.043,-0.034 -0.086,-0.068 -0.128,-0.103 -0.121,-0.099 -0.24,-0.199 -0.358,-0.302 -0.012,-0.011 -0.025,-0.021 -0.039,-0.033 -0.127,-0.112 -0.252,-0.227 -0.376,-0.342 -0.036,-0.034 -0.071,-0.067 -0.106,-0.102 -0.092,-0.087 -0.182,-0.175 -0.271,-0.265 -0.035,-0.035 -0.071,-0.07 -0.105,-0.105 -0.113,-0.116 -0.224,-0.233 -0.332,-0.352 -0.006,-0.006 -0.011,-0.011 -0.017,-0.018 -0.114,-0.125 -0.227,-0.253 -0.337,-0.383 -0.029,-0.036 -0.059,-0.07 -0.088,-0.104 -0.082,-0.099 -0.163,-0.199 -0.242,-0.3 -0.03,-0.036 -0.06,-0.073 -0.089,-0.11 -0.096,-0.124 -0.188,-0.247 -0.279,-0.373 -2.524,-3.442 -3.431,-8.191 -1.414,-12.09" /><path
     style="fill:#0868ac"
     id="path425"
     d="m 579.73483,268.1339 c -1.657,2.384 -1.567,5.576 -0.275,8.097 0.217,0.423 0.461,0.833 0.733,1.223 0.248,0.356 0.523,0.779 0.853,1.065 0.119,0.131 0.244,0.26 0.372,0.386 0.032,0.033 0.065,0.064 0.098,0.097 0.124,0.12 0.25,0.238 0.38,0.353 0.006,0.004 0.01,0.01 0.016,0.014 10e-4,10e-4 0.003,0.002 0.004,0.003 0.144,0.126 0.292,0.248 0.443,0.367 0.033,0.025 0.066,0.052 0.101,0.079 0.151,0.116 0.306,0.23 0.464,0.339 0.005,0.003 0.009,0.006 0.014,0.01 0.069,0.049 0.141,0.093 0.211,0.14 0.034,0.022 0.066,0.046 0.101,0.066 0.113,0.072 0.228,0.143 0.344,0.211 0.017,0.01 0.033,0.019 0.049,0.028 0.101,0.058 0.202,0.115 0.305,0.17 0.035,0.02 0.071,0.038 0.107,0.056 0.07,0.037 0.142,0.075 0.213,0.11 0.011,0.005 0.021,0.01 0.032,0.015 0.146,0.072 0.293,0.141 0.443,0.207 0.032,0.014 0.065,0.027 0.098,0.041 0.12,0.051 0.242,0.101 0.364,0.147 0.052,0.02 0.104,0.038 0.155,0.057 0.111,0.041 0.222,0.079 0.334,0.116 0.051,0.016 0.101,0.033 0.151,0.048 0.159,0.049 0.316,0.112 0.482,0.14 8.555,1.417 10.529,-5.169 10.529,-5.169 -1.78,2.563 -5.228,3.787 -8.906,2.832 -0.164,-0.043 -0.325,-0.09 -0.485,-0.14 -0.049,-0.015 -0.097,-0.031 -0.146,-0.047 -0.113,-0.037 -0.227,-0.076 -0.339,-0.117 -0.051,-0.019 -0.103,-0.038 -0.152,-0.057 -0.123,-0.047 -0.244,-0.096 -0.365,-0.147 -0.033,-0.014 -0.066,-0.027 -0.098,-0.042 -0.151,-0.066 -0.3,-0.135 -0.446,-0.208 -0.076,-0.037 -0.15,-0.076 -0.225,-0.114 -0.043,-0.022 -0.086,-0.044 -0.129,-0.067 -0.095,-0.051 -0.189,-0.105 -0.283,-0.159 -0.022,-0.013 -0.045,-0.025 -0.067,-0.039 -0.116,-0.068 -0.23,-0.138 -0.343,-0.209 -0.035,-0.022 -0.068,-0.046 -0.104,-0.069 -0.074,-0.048 -0.149,-0.098 -0.223,-0.147 -0.157,-0.109 -0.311,-0.223 -0.462,-0.338 -0.035,-0.028 -0.07,-0.055 -0.104,-0.083 -1.611,-1.271 -2.887,-3.009 -3.494,-4.979 -0.636,-2.043 -0.499,-4.337 0.604,-6.198" /><path
     style="fill:#0868ac"
     id="path427"
     d="m 585.71483,266.0609 c -0.977,1.438 -1.072,3.223 -0.395,4.81 0.715,1.685 2.179,3.007 3.888,3.634 0.071,0.026 0.142,0.049 0.213,0.073 0.031,0.01 0.062,0.021 0.094,0.03 0.101,0.032 0.2,0.068 0.305,0.088 4.724,0.912 6.004,-2.424 6.345,-2.915 -1.122,1.616 -3.008,2.003 -5.321,1.442 -0.184,-0.044 -0.384,-0.11 -0.561,-0.173 -0.226,-0.08 -0.448,-0.172 -0.665,-0.275 -0.41,-0.198 -0.802,-0.438 -1.165,-0.711 -2.071,-1.571 -3.357,-4.569 -2.006,-7.009" /><path
     style="fill:#0868ac"
     id="path429"
     d="m 638.91283,294.0569 -1.361,3.101 -1.504,0 0.124,-2.817 -1.106,2.817 -1.456,0 -0.038,-3.101 0.16,-0.766 1.031,0 -0.198,3.062 1.144,-3.062 1.438,0 -0.104,3.101 1.135,-3.101 0.897,0 -0.162,0.766 z" /><path
     style="fill:#0868ac"
     id="path431"
     d="m 641.28483,294.9749 c 0.133,-0.605 0.095,-0.719 -0.218,-0.719 l -0.473,0 -0.303,1.419 -0.463,1.482 -0.879,0 0.718,-3.364 0.104,-0.492 0.804,0 0.104,0.227 c 0,0 0.464,-0.273 0.917,-0.273 0.965,0 0.889,0.728 0.681,1.721 l -0.992,0 0,-0.001 z" /><path
     style="fill:#0868ac"
     id="path433"
     d="m 644.13983,292.8089 c -0.387,0 -0.633,-0.113 -0.538,-0.586 0.104,-0.473 0.406,-0.587 0.784,-0.587 0.378,0 0.634,0.114 0.529,0.587 -0.094,0.463 -0.396,0.586 -0.775,0.586 l 0,0 z m -0.415,4.349 -0.871,0 0.171,-1.512 0.303,-1.399 -0.605,-0.133 0.171,-0.822 1.653,0 -0.822,3.866 0,0 z" /><path
     style="fill:#0868ac"
     id="path435"
     d="m 647.49583,294.1119 -1.087,0.133 -0.312,1.475 c -0.086,0.407 -0.086,0.521 0.274,0.521 l 0.728,0 -0.151,0.775 c 0,0 -0.661,0.198 -0.945,0.198 -1.115,0 -1.106,-0.614 -0.907,-1.532 l 0.302,-1.446 -0.604,-0.132 0.179,-0.822 0.635,0 0.359,-0.975 0.86,0 -0.209,0.975 1.06,0 -0.182,0.83 0,0 z" /><path
     style="fill:#0868ac"
     id="path437"
     d="m 649.75483,294.1619 c -0.51,0 -0.775,0.265 -0.879,0.737 l 1.456,-0.123 c 0.067,-0.321 0,-0.614 -0.577,-0.614 z m -1.02,1.436 c -0.066,0.473 0.113,0.634 0.718,0.634 l 1.522,0 -0.151,0.718 c 0,0 -0.917,0.255 -1.598,0.255 -1.692,0 -1.712,-0.953 -1.493,-1.975 0.217,-1.003 0.604,-1.995 2.239,-1.995 1.58,0 1.655,0.955 1.268,2.363 l -2.505,0 0,0 z" /><path
     style="fill:#0868ac"
     id="path439"
     d="m 654.70783,297.1579 -0.869,0 0.17,-1.513 0.614,-2.874 -0.605,-0.142 0.18,-0.823 1.655,0 -1.145,5.352 0,0 z" /><path
     style="fill:#0868ac"
     id="path441"
     d="m 657.84983,294.1619 c -0.511,0 -0.775,0.265 -0.88,0.737 l 1.456,-0.123 c 0.067,-0.321 0,-0.614 -0.576,-0.614 l 0,0 z m -1.021,1.436 c -0.066,0.473 0.113,0.634 0.719,0.634 l 1.521,0 -0.15,0.718 c 0,0 -0.918,0.255 -1.599,0.255 -1.692,0 -1.711,-0.953 -1.493,-1.975 0.218,-1.003 0.605,-1.995 2.24,-1.995 1.579,0 1.654,0.955 1.268,2.363 l -2.506,0 0,0 z" /><path
     style="fill:#0868ac"
     id="path443"
     d="m 663.32283,294.2079 c 0,0 -1.106,0.009 -1.409,0.009 -0.644,0 -0.709,0.198 -0.756,0.406 l -0.038,0.189 2.042,0.151 c 0,0 0.009,0.652 -0.076,1.021 -0.122,0.615 -0.756,1.238 -1.899,1.238 -0.568,0 -1.484,-0.217 -1.484,-0.217 l 0.16,-0.747 1.408,0 c 0.625,0 0.71,-0.17 0.748,-0.34 l 0.047,-0.246 -2.004,-0.151 c 0,0 -0.076,-0.501 0.028,-1.002 0.151,-0.681 0.774,-1.267 1.919,-1.267 0.567,0 1.484,0.207 1.484,0.207 l -0.17,0.749 0,0 z" /><path
     style="fill:#0868ac"
     id="path445"
     d="m 667.12283,294.2079 c 0,0 -1.105,0.009 -1.408,0.009 -0.643,0 -0.709,0.198 -0.757,0.406 l -0.038,0.189 2.043,0.151 c 0,0 0.01,0.652 -0.076,1.021 -0.123,0.615 -0.756,1.238 -1.9,1.238 -0.566,0 -1.484,-0.217 -1.484,-0.217 l 0.161,-0.747 1.409,0 c 0.623,0 0.709,-0.17 0.746,-0.34 l 0.047,-0.246 -2.004,-0.151 c 0,0 -0.075,-0.501 0.028,-1.002 0.151,-0.681 0.775,-1.267 1.919,-1.267 0.567,0 1.484,0.207 1.484,0.207 l -0.17,0.749 0,0 z" /><path
     style="fill:#0868ac"
     id="path447"
     d="m 668.31383,297.7729 -0.756,0 0.028,-0.567 c -0.275,-0.019 -0.416,-0.217 -0.351,-0.549 0.104,-0.473 0.397,-0.586 0.785,-0.586 0.378,0 0.633,0.113 0.529,0.586 l -0.235,1.116 0,0 z" /><path
     style="fill:#0868ac"
     id="path449"
     d="m 673.37083,294.2469 c -0.568,0 -0.766,0.341 -0.898,0.964 -0.133,0.625 -0.095,0.993 0.473,0.993 l 0.784,0 0.436,-1.957 -0.795,0 z m 1.295,2.41 -0.104,0.501 -0.794,-0.009 -0.113,-0.245 c 0,0 -0.699,0.301 -1.172,0.301 -1.211,0 -1.268,-0.992 -1.05,-1.994 0.218,-1.021 0.69,-1.985 1.891,-1.985 0.436,0 1.021,0.218 1.021,0.218 l 0.481,-1.636 0.871,0 -1.031,4.849 z" /><path
     style="fill:#0868ac"
     id="path451"
     d="m 677.79583,294.2079 c -0.737,0 -0.975,0.415 -1.106,1.021 -0.123,0.614 -0.065,1.03 0.662,1.03 0.756,0 0.983,-0.406 1.115,-1.03 0.133,-0.587 0.095,-1.021 -0.671,-1.021 l 0,0 z m -0.642,3.006 c -1.561,0 -1.684,-0.974 -1.476,-1.985 0.219,-1.012 0.767,-1.976 2.326,-1.976 1.55,0 1.692,0.964 1.475,1.976 -0.217,1.03 -0.766,1.985 -2.325,1.985 z" /><path
     style="fill:#0868ac"
     id="path453"
     d="m 686.00283,297.1579 0.171,-1.494 0.084,-0.426 c 0.123,-0.566 0.199,-0.982 -0.396,-0.982 l -0.464,0 c 0.02,0.293 -0.037,0.624 -0.113,0.974 l -0.406,1.929 -0.879,0 0.17,-1.494 0.085,-0.426 c 0.123,-0.566 0.198,-0.982 -0.396,-0.982 l -0.379,0 -0.624,2.902 -1.012,0 0.822,-3.867 0.795,0 0.122,0.236 c 0,0 0.54,-0.283 0.975,-0.283 0.33,0 0.576,0.151 0.662,0.34 0.188,-0.104 0.728,-0.34 1.115,-0.34 1.209,0 1.172,0.982 0.954,1.985 l -0.406,1.929 -0.88,0 0,-0.001 z" /><path
     style="fill:#0868ac"
     id="path455"
     d="m 690.02183,294.2079 c -0.738,0 -0.975,0.415 -1.106,1.021 -0.123,0.614 -0.066,1.03 0.661,1.03 0.757,0 0.984,-0.406 1.116,-1.03 0.132,-0.587 0.095,-1.021 -0.671,-1.021 z m -0.644,3.006 c -1.561,0 -1.683,-0.974 -1.475,-1.985 0.218,-1.012 0.766,-1.976 2.326,-1.976 1.551,0 1.692,0.964 1.475,1.976 -0.216,1.03 -0.765,1.985 -2.326,1.985 z" /><path
     style="fill:#0868ac"
     id="path457"
     d="m 694.33083,294.9749 c 0.132,-0.605 0.095,-0.719 -0.218,-0.719 l -0.473,0 -0.303,1.419 -0.463,1.482 -0.879,0 0.718,-3.364 0.104,-0.492 0.804,0 0.104,0.227 c 0,0 0.463,-0.273 0.918,-0.273 0.964,0 0.888,0.728 0.68,1.721 l -0.992,0 0,-0.001 z" /><path
     style="fill:#0868ac"
     id="path459"
     d="m 697.71683,294.1619 c -0.51,0 -0.774,0.265 -0.878,0.737 l 1.454,-0.123 c 0.068,-0.321 0,-0.614 -0.576,-0.614 z m -1.02,1.436 c -0.066,0.473 0.113,0.634 0.718,0.634 l 1.522,0 -0.151,0.718 c 0,0 -0.917,0.255 -1.598,0.255 -1.692,0 -1.711,-0.953 -1.494,-1.975 0.218,-1.003 0.605,-1.995 2.241,-1.995 1.578,0 1.654,0.955 1.267,2.363 l -2.505,0 z" /><path
     style="fill:#0868ac"
     id="path461"
     d="m 700.05083,297.2139 c -0.397,0 -0.643,-0.112 -0.539,-0.576 0.094,-0.474 0.388,-0.586 0.785,-0.586 0.368,0 0.624,0.112 0.529,0.586 -0.104,0.454 -0.406,0.576 -0.775,0.576 z" /></svg>