<?xml version="1.0" encoding="utf-8"?>
<!-- Generator: Adobe Illustrator 13.0.0, SVG Export Plug-In . SVG Version: 6.00 Build 14948)  -->
<!DOCTYPE svg PUBLIC "-//W3C//DTD SVG 1.1//EN" "http://www.w3.org/Graphics/SVG/1.1/DTD/svg11.dtd">
<svg version="1.1" id="Layer_1" xmlns="http://www.w3.org/2000/svg" xmlns:xlink="http://www.w3.org/1999/xlink" x="0px" y="0px"
	 width="397.5px" height="673.5px" viewBox="-68.5 -68.5 397.5 673.5" enable-background="new -68.5 -68.5 397.5 673.5"
	 xml:space="preserve">
<g>
	<path pointer-events="none" fill="#9D5025" d="M325.509,118.84v1.61h-14.135l-0.591-2.11L325.509,118.84z"/>
	<path pointer-events="none" fill="#9D5025" d="M314.211,91.667v1.604h-10.51l-1.473-2.027L314.211,91.667z"/>
	<path pointer-events="none" fill="#9D5025" d="M303.701,91.667v1.604c-0.579,0-1.091,0.333-1.347,0.811v-1.609
		C302.61,91.996,303.122,91.667,303.701,91.667"/>
	<path pointer-events="none" fill="#9D5025" d="M302.354,92.473v1.61c-0.049,0.083-0.09,0.173-0.12,0.268v-1.602
		C302.265,92.652,302.306,92.562,302.354,92.473"/>
	<path pointer-events="none" fill="#9D5025" d="M302.234,92.747v1.602c-0.023,0.083-0.048,0.162-0.06,0.245V92.99
		C302.187,92.908,302.211,92.825,302.234,92.747"/>
	<path pointer-events="none" fill="#9D5025" d="M302.175,92.991v1.61c-0.012,0.065-0.012,0.143-0.012,0.214v-1.604
		C302.163,93.134,302.169,93.063,302.175,92.991"/>
	<path pointer-events="none" fill="#9D5025" d="M303.701,91.667v1.604c-0.847,0-1.538,0.698-1.538,1.544v-1.604
		C302.163,92.366,302.854,91.667,303.701,91.667z"/>
	<path pointer-events="none" fill="#9D5025" d="M320.53,99.096v1.604h-10.617l-0.9-1.831L320.53,99.096z"/>
	<path pointer-events="none" fill="#9D5025" d="M310.021,99.096v1.604c-0.578,0-1.086,0.328-1.342,0.805v-1.609
		C308.935,99.417,309.442,99.096,310.021,99.096"/>
	<path pointer-events="none" fill="#9D5025" d="M308.679,99.895v1.609c-0.047,0.083-0.089,0.179-0.119,0.268v-1.604
		C308.59,100.074,308.632,99.984,308.679,99.895"/>
	<path pointer-events="none" fill="#9D5025" d="M308.56,100.169v1.604c-0.023,0.083-0.048,0.167-0.06,0.256v-1.609
		C308.512,100.335,308.536,100.252,308.56,100.169"/>
	<path pointer-events="none" fill="#9D5025" d="M308.5,100.419v1.609c-0.012,0.071-0.018,0.143-0.018,0.221v-1.603
		C308.482,100.568,308.488,100.491,308.5,100.419"/>
	<path pointer-events="none" fill="#9D5025" d="M310.021,99.096v1.604c-0.847,0-1.538,0.697-1.538,1.55v-1.603
		C308.482,99.788,309.174,99.096,310.021,99.096z"/>
	<path pointer-events="none" fill="#9D5025" d="M302.163,103.949v1.603h-3.512l-0.549-1.949L302.163,103.949z"/>
	<path pointer-events="none" fill="#9D5025" d="M298.651,103.949v1.603c-0.84,0-1.531-0.686-1.531-1.539v-1.597
		C297.12,103.269,297.812,103.949,298.651,103.949"/>
	<path pointer-events="none" fill="#9D5025" d="M298.651,103.949v1.603c-0.84,0-1.531-0.686-1.531-1.539v-1.597
		C297.12,103.269,297.812,103.949,298.651,103.949z"/>
	<rect x="304.864" y="111.377" pointer-events="none" fill="#9D5025" width="3.618" height="1.609"/>
	<path pointer-events="none" fill="#9D5025" d="M304.978,111.377v1.602c-0.848,0-1.533-0.685-1.533-1.538v-1.609
		C303.444,110.685,304.13,111.377,304.978,111.377"/>
	<path pointer-events="none" fill="#9D5025" d="M304.978,111.377v1.602c-0.848,0-1.533-0.685-1.533-1.538v-1.609
		C303.444,110.685,304.13,111.377,304.978,111.377z"/>
	<path pointer-events="none" fill="#9D5125" d="M311.374,118.84v1.61c-0.847,0-1.533-0.698-1.533-1.544v-1.604
		C309.841,118.149,310.527,118.84,311.374,118.84"/>
	<path pointer-events="none" fill="#9D5125" d="M311.374,118.84v1.61c-0.847,0-1.533-0.698-1.533-1.544v-1.604
		C309.841,118.149,310.527,118.84,311.374,118.84z"/>
	<path pointer-events="none" fill="#9D5025" d="M326.927,117.302v1.604c0,0.078-0.006,0.149-0.018,0.221v-1.604
		C326.921,117.452,326.927,117.374,326.927,117.302"/>
	<path pointer-events="none" fill="#9D5025" d="M326.909,117.523v1.604c-0.012,0.083-0.029,0.167-0.054,0.25v-1.61
		C326.88,117.69,326.897,117.606,326.909,117.523"/>
	<path pointer-events="none" fill="#9D5025" d="M326.855,117.768v1.61c-0.029,0.095-0.071,0.185-0.119,0.268v-1.604
		C326.784,117.952,326.826,117.863,326.855,117.768"/>
	<path pointer-events="none" fill="#9D5025" d="M326.736,118.042v1.604c-0.256,0.478-0.757,0.805-1.335,0.805v-1.61
		C325.979,118.84,326.48,118.519,326.736,118.042"/>
	<path pointer-events="none" fill="#9D5025" d="M326.927,117.302v1.604c0,0.846-0.686,1.544-1.526,1.544v-1.61
		C326.241,118.84,326.927,118.149,326.927,117.302z"/>
	<path pointer-events="none" fill="#F58536" d="M312.679,86.469c0.847,0,1.532,0.686,1.532,1.538v3.66h-10.51
		c-0.847,0-1.538,0.698-1.538,1.544v10.737h-3.512c-0.84,0-1.531-0.681-1.531-1.532V88.007c0-0.853,0.691-1.538,1.531-1.538H312.679
		z"/>
	<path pointer-events="none" fill="#F58536" d="M319.005,93.897c0.84,0,1.525,0.692,1.525,1.538v3.661h-10.51
		c-0.847,0-1.538,0.691-1.538,1.55v10.731h-3.505c-0.848,0-1.539-0.692-1.539-1.544V95.436c0-0.846,0.691-1.538,1.539-1.538H319.005
		z"/>
	<path pointer-events="none" fill="#F58536" d="M325.4,101.361c0.841,0,1.526,0.692,1.526,1.532v14.409
		c0,0.847-0.686,1.538-1.526,1.538h-14.026c-0.847,0-1.533-0.691-1.533-1.538v-14.409c0-0.84,0.687-1.532,1.533-1.532H325.4z"/>
	<rect x="307.409" y="149.214" pointer-events="none" fill="#9D5125" width="2.701" height="1.526"/>
	<rect x="319.189" y="149.214" pointer-events="none" fill="#9D5125" width="2.694" height="1.526"/>
	<path pointer-events="none" fill="#9D5125" d="M319.189,154.115v1.528l-3.648,3.773v-1.532L319.189,154.115z"/>
	<path pointer-events="none" fill="#9D5125" d="M313.919,157.883v1.532l-3.809-3.893v-1.532L313.919,157.883z"/>
	<rect x="326.039" y="161.43" pointer-events="none" fill="#9D5125" width="6.254" height="1.532"/>
	<rect x="297.12" y="161.43" pointer-events="none" fill="#9D5125" width="6.253" height="1.532"/>
	<path pointer-events="none" fill="#9D5125" d="M326.039,165.09v1.532l-7.345-7.244v-1.532L326.039,165.09z"/>
	<path pointer-events="none" fill="#F48334" d="M303.373,150.687l7.345,7.237l-7.345,7.166v-3.66h-6.253v-7.089h6.253V150.687z"/>
	<path pointer-events="none" fill="#9D5125" d="M310.718,157.924v1.532l-7.345,7.167v-1.533L310.718,157.924z"/>
	<path pointer-events="none" fill="#F48334" d="M326.039,150.687v3.66h6.254v7.083h-6.254v3.66l-7.345-7.243L326.039,150.687z"/>
	<path pointer-events="none" fill="#9D5125" d="M321.89,167.063v1.532l-7.279,7.297l-0.34-1.872L321.89,167.063z"/>
	<path pointer-events="none" fill="#9D5125" d="M314.61,174.366v1.526l-7.201-7.297v-1.532L314.61,174.366z"/>
	<path pointer-events="none" fill="#F48334" d="M314.688,141.912l7.201,7.303h-2.7v4.9l-3.648,3.768l3.648,3.875v5.306h2.7
		l-7.279,7.303l-7.201-7.303h2.701v-5.246l3.809-3.935l-3.809-3.893v-4.775h-2.701L314.688,141.912z"/>
	<path pointer-events="none" fill="#9D5025" d="M386.912,118.84v1.61h-14.135l-0.59-2.11L386.912,118.84z"/>
	<path pointer-events="none" fill="#9D5025" d="M375.615,91.667v1.604h-10.511l-1.472-2.027L375.615,91.667z"/>
	<path pointer-events="none" fill="#9D5025" d="M365.104,91.667v1.604c-0.578,0-1.091,0.333-1.347,0.811v-1.609
		C364.014,91.996,364.526,91.667,365.104,91.667"/>
	<path pointer-events="none" fill="#9D5025" d="M363.758,92.473v1.61c-0.048,0.083-0.09,0.173-0.119,0.268v-1.602
		C363.668,92.652,363.71,92.562,363.758,92.473"/>
	<path pointer-events="none" fill="#9D5025" d="M363.639,92.747v1.602c-0.024,0.083-0.048,0.162-0.06,0.245V92.99
		C363.591,92.908,363.614,92.825,363.639,92.747"/>
	<path pointer-events="none" fill="#9D5025" d="M363.579,92.991v1.61c-0.013,0.065-0.013,0.143-0.013,0.214v-1.604
		C363.567,93.134,363.572,93.063,363.579,92.991"/>
	<path pointer-events="none" fill="#9D5025" d="M365.104,91.667v1.604c-0.846,0-1.537,0.698-1.537,1.544v-1.604
		C363.567,92.366,364.259,91.667,365.104,91.667z"/>
	<path pointer-events="none" fill="#9D5025" d="M381.935,99.096v1.604h-10.617l-0.9-1.831L381.935,99.096z"/>
	<path pointer-events="none" fill="#9D5025" d="M371.425,99.096v1.604c-0.579,0-1.084,0.328-1.342,0.805v-1.609
		C370.339,99.417,370.846,99.096,371.425,99.096"/>
	<path pointer-events="none" fill="#9D5025" d="M370.083,99.895v1.609c-0.048,0.083-0.088,0.179-0.12,0.268v-1.604
		C369.993,100.074,370.035,99.984,370.083,99.895"/>
	<path pointer-events="none" fill="#9D5025" d="M369.963,100.169v1.604c-0.022,0.083-0.048,0.167-0.061,0.256v-1.609
		C369.915,100.335,369.94,100.252,369.963,100.169"/>
	<path pointer-events="none" fill="#9D5025" d="M369.903,100.419v1.609c-0.011,0.071-0.017,0.143-0.017,0.221v-1.603
		C369.887,100.568,369.893,100.491,369.903,100.419"/>
	<path pointer-events="none" fill="#9D5025" d="M371.425,99.096v1.604c-0.848,0-1.538,0.697-1.538,1.55v-1.603
		C369.887,99.788,370.577,99.096,371.425,99.096z"/>
	<path pointer-events="none" fill="#9D5025" d="M363.567,103.949v1.603h-3.512l-0.549-1.949L363.567,103.949z"/>
	<path pointer-events="none" fill="#9D5025" d="M360.056,103.949v1.603c-0.841,0-1.532-0.686-1.532-1.539v-1.597
		C358.523,103.269,359.215,103.949,360.056,103.949"/>
	<path pointer-events="none" fill="#9D5025" d="M360.056,103.949v1.603c-0.841,0-1.532-0.686-1.532-1.539v-1.597
		C358.523,103.269,359.215,103.949,360.056,103.949z"/>
	<rect x="366.268" y="111.377" pointer-events="none" fill="#9D5025" width="3.619" height="1.609"/>
	<path pointer-events="none" fill="#9D5025" d="M366.381,111.377v1.602c-0.847,0-1.532-0.685-1.532-1.538v-1.609
		C364.849,110.685,365.534,111.377,366.381,111.377"/>
	<path pointer-events="none" fill="#9D5025" d="M366.381,111.377v1.602c-0.847,0-1.532-0.685-1.532-1.538v-1.609
		C364.849,110.685,365.534,111.377,366.381,111.377z"/>
	<path pointer-events="none" fill="#9D5125" d="M372.777,118.84v1.61c-0.847,0-1.532-0.698-1.532-1.544v-1.604
		C371.245,118.149,371.931,118.84,372.777,118.84"/>
	<path pointer-events="none" fill="#9D5125" d="M372.777,118.84v1.61c-0.847,0-1.532-0.698-1.532-1.544v-1.604
		C371.245,118.149,371.931,118.84,372.777,118.84z"/>
	<path pointer-events="none" fill="#9D5025" d="M388.331,117.302v1.604c0,0.078-0.006,0.149-0.018,0.221v-1.604
		C388.325,117.452,388.331,117.374,388.331,117.302"/>
	<path pointer-events="none" fill="#9D5025" d="M388.313,117.523v1.604c-0.012,0.083-0.03,0.167-0.054,0.25v-1.61
		C388.283,117.69,388.302,117.606,388.313,117.523"/>
	<path pointer-events="none" fill="#9D5025" d="M388.26,117.768v1.61c-0.03,0.095-0.072,0.185-0.12,0.268v-1.604
		C388.188,117.952,388.229,117.863,388.26,117.768"/>
	<path pointer-events="none" fill="#9D5025" d="M388.14,118.042v1.604c-0.256,0.478-0.756,0.805-1.335,0.805v-1.61
		C387.384,118.84,387.884,118.519,388.14,118.042"/>
	<path pointer-events="none" fill="#9D5025" d="M388.331,117.302v1.604c0,0.846-0.686,1.544-1.526,1.544v-1.61
		C387.646,118.84,388.331,118.149,388.331,117.302z"/>
	<path pointer-events="none" fill="#F58536" d="M374.083,86.469c0.846,0,1.532,0.686,1.532,1.538v3.66h-10.511
		c-0.846,0-1.537,0.698-1.537,1.544v10.737h-3.512c-0.841,0-1.532-0.681-1.532-1.532V88.007c0-0.853,0.691-1.538,1.532-1.538
		H374.083z"/>
	<path pointer-events="none" fill="#F58536" d="M380.408,93.897c0.841,0,1.526,0.692,1.526,1.538v3.661h-10.51
		c-0.848,0-1.538,0.691-1.538,1.55v10.731h-3.506c-0.847,0-1.538-0.692-1.538-1.544V95.436c0-0.846,0.691-1.538,1.538-1.538H380.408
		z"/>
	<path pointer-events="none" fill="#F58536" d="M386.805,101.361c0.841,0,1.526,0.692,1.526,1.532v14.409
		c0,0.847-0.686,1.538-1.526,1.538h-14.027c-0.847,0-1.532-0.691-1.532-1.538v-14.409c0-0.84,0.686-1.532,1.532-1.532H386.805z"/>
	<path pointer-events="none" fill="#9D5025" d="M261.72,118.84v1.61h-14.135l-0.59-2.11L261.72,118.84z"/>
	<path pointer-events="none" fill="#9D5025" d="M250.423,91.667v1.604h-10.51l-1.473-2.027L250.423,91.667z"/>
	<path pointer-events="none" fill="#9D5025" d="M239.913,91.667v1.604c-0.579,0-1.092,0.333-1.348,0.811v-1.609
		C238.821,91.996,239.334,91.667,239.913,91.667"/>
	<path pointer-events="none" fill="#9D5025" d="M238.565,92.473v1.61c-0.048,0.083-0.09,0.173-0.119,0.268v-1.602
		C238.476,92.652,238.518,92.562,238.565,92.473"/>
	<path pointer-events="none" fill="#9D5025" d="M238.446,92.747v1.602c-0.023,0.083-0.048,0.162-0.06,0.245V92.99
		C238.398,92.908,238.423,92.825,238.446,92.747"/>
	<path pointer-events="none" fill="#9D5025" d="M238.387,92.991v1.61c-0.013,0.065-0.013,0.143-0.013,0.214v-1.604
		C238.374,93.134,238.38,93.063,238.387,92.991"/>
	<path pointer-events="none" fill="#9D5025" d="M239.913,91.667v1.604c-0.847,0-1.539,0.698-1.539,1.544v-1.604
		C238.374,92.366,239.066,91.667,239.913,91.667z"/>
	<path pointer-events="none" fill="#9D5025" d="M256.742,99.096v1.604h-10.618l-0.899-1.831L256.742,99.096z"/>
	<path pointer-events="none" fill="#9D5025" d="M246.231,99.096v1.604c-0.578,0-1.085,0.328-1.341,0.805v-1.609
		C245.146,99.417,245.653,99.096,246.231,99.096"/>
	<path pointer-events="none" fill="#9D5025" d="M244.891,99.895v1.609c-0.048,0.083-0.089,0.179-0.119,0.268v-1.604
		C244.802,100.074,244.843,99.984,244.891,99.895"/>
	<path pointer-events="none" fill="#9D5025" d="M244.771,100.169v1.604c-0.024,0.083-0.048,0.167-0.06,0.256v-1.609
		C244.724,100.335,244.747,100.252,244.771,100.169"/>
	<path pointer-events="none" fill="#9D5025" d="M244.712,100.419v1.609c-0.012,0.071-0.018,0.143-0.018,0.221v-1.603
		C244.694,100.568,244.7,100.491,244.712,100.419"/>
	<path pointer-events="none" fill="#9D5025" d="M246.231,99.096v1.604c-0.846,0-1.537,0.697-1.537,1.55v-1.603
		C244.694,99.788,245.386,99.096,246.231,99.096z"/>
	<path pointer-events="none" fill="#9D5025" d="M238.374,103.949v1.603h-3.511l-0.549-1.949L238.374,103.949z"/>
	<path pointer-events="none" fill="#9D5025" d="M234.863,103.949v1.603c-0.841,0-1.532-0.686-1.532-1.539v-1.597
		C233.331,103.269,234.022,103.949,234.863,103.949"/>
	<path pointer-events="none" fill="#9D5025" d="M234.863,103.949v1.603c-0.841,0-1.532-0.686-1.532-1.539v-1.597
		C233.331,103.269,234.022,103.949,234.863,103.949z"/>
	<rect x="241.075" y="111.377" pointer-events="none" fill="#9D5025" width="3.619" height="1.609"/>
	<path pointer-events="none" fill="#9D5025" d="M241.188,111.377v1.602c-0.847,0-1.532-0.685-1.532-1.538v-1.609
		C239.656,110.685,240.342,111.377,241.188,111.377"/>
	<path pointer-events="none" fill="#9D5025" d="M241.188,111.377v1.602c-0.847,0-1.532-0.685-1.532-1.538v-1.609
		C239.656,110.685,240.342,111.377,241.188,111.377z"/>
	<path pointer-events="none" fill="#9D5125" d="M247.585,118.84v1.61c-0.846,0-1.532-0.698-1.532-1.544v-1.604
		C246.053,118.149,246.739,118.84,247.585,118.84"/>
	<path pointer-events="none" fill="#9D5125" d="M247.585,118.84v1.61c-0.846,0-1.532-0.698-1.532-1.544v-1.604
		C246.053,118.149,246.739,118.84,247.585,118.84z"/>
	<path pointer-events="none" fill="#9D5025" d="M263.139,117.302v1.604c0,0.078-0.006,0.149-0.019,0.221v-1.604
		C263.133,117.452,263.139,117.374,263.139,117.302"/>
	<path pointer-events="none" fill="#9D5025" d="M263.12,117.523v1.604c-0.011,0.083-0.029,0.167-0.053,0.25v-1.61
		C263.091,117.69,263.109,117.606,263.12,117.523"/>
	<path pointer-events="none" fill="#9D5025" d="M263.067,117.768v1.61c-0.029,0.095-0.072,0.185-0.119,0.268v-1.604
		C262.995,117.952,263.038,117.863,263.067,117.768"/>
	<path pointer-events="none" fill="#9D5025" d="M262.948,118.042v1.604c-0.257,0.478-0.758,0.805-1.336,0.805v-1.61
		C262.19,118.84,262.691,118.519,262.948,118.042"/>
	<path pointer-events="none" fill="#9D5025" d="M263.139,117.302v1.604c0,0.846-0.686,1.544-1.526,1.544v-1.61
		C262.453,118.84,263.139,118.149,263.139,117.302z"/>
	<path pointer-events="none" fill="#F58536" d="M248.891,86.469c0.847,0,1.532,0.686,1.532,1.538v3.66h-10.51
		c-0.847,0-1.539,0.698-1.539,1.544v10.737h-3.511c-0.841,0-1.532-0.681-1.532-1.532V88.007c0-0.853,0.691-1.538,1.532-1.538
		H248.891z"/>
	<path pointer-events="none" fill="#F58536" d="M255.216,93.897c0.841,0,1.526,0.692,1.526,1.538v3.661h-10.511
		c-0.846,0-1.537,0.691-1.537,1.55v10.731h-3.506c-0.847,0-1.538-0.692-1.538-1.544V95.436c0-0.846,0.691-1.538,1.538-1.538H255.216
		z"/>
	<path pointer-events="none" fill="#F58536" d="M261.612,101.361c0.841,0,1.526,0.692,1.526,1.532v14.409
		c0,0.847-0.686,1.538-1.526,1.538h-14.027c-0.846,0-1.532-0.691-1.532-1.538v-14.409c0-0.84,0.687-1.532,1.532-1.532H261.612z"/>
	<path pointer-events="none" fill="#F58435" d="M326.117,223.108l-17.378,5.455V199.44l17.378,5.461V223.108z"/>
	<path pointer-events="none" fill="#F58435" d="M303.892,224.116l-3.916,0.757v-21.652l3.916,0.757V224.116z"/>
	<path pointer-events="none" fill="#F58435" d="M308.739,225.374l-4.848,1.18v-25.015l4.848,1.18V225.374z"/>
	<path pointer-events="none" fill="#9D5025" d="M306.192,200.532l2.547-1.091v29.211l-2.547-1.091V200.532z"/>
	<path pointer-events="none" fill="#9D5025" d="M301.835,202.421l2.057-0.882v25.015l-2.057-0.882V202.421z"/>
	<path pointer-events="none" fill="#9D5025" d="M299.976,203.22l-1.664,0.715v20.221l1.664,0.716V203.22z"/>
	<path pointer-events="none" fill="#9D5025" d="M315.004,210.565v-13.807l-3.326,1.425v12.674L315.004,210.565z"/>
	<path pointer-events="none" fill="#9D5025" d="M311.678,217.152v12.757l3.326,1.425v-13.89L311.678,217.152z"/>
	<path pointer-events="none" fill="#F58435" d="M323.91,211.316V200.58l-8.906-3.822v13.807L323.91,211.316z"/>
	<path pointer-events="none" fill="#F58435" d="M315.004,217.445v13.89l8.906-3.821v-10.826L315.004,217.445z"/>
	<path pointer-events="none" fill="#F58435" d="M331.696,211.99v-8.054l-4.745-2.057v9.694L331.696,211.99z"/>
	<path pointer-events="none" fill="#F58435" d="M326.951,216.437v9.777l4.745-2.057v-8.137L326.951,216.437z"/>
	<path pointer-events="none" fill="#6B3B19" d="M323.91,211.316l-3.278,0.173l-8.955-0.632l3.327-0.292L323.91,211.316z"/>
	<path pointer-events="none" fill="#FBBF92" d="M323.91,216.687l-3.082-0.166l-9.151,0.632l3.178,0.292L323.91,216.687z"/>
	<path pointer-events="none" fill="#9D5025" d="M324.841,202.337l2.11-0.459v9.693l-2.11,0.126V202.337z"/>
	<path pointer-events="none" fill="#9D5025" d="M324.841,225.755l2.11,0.459v-9.777l-2.11-0.125V225.755z"/>
	<path pointer-events="none" fill="#FBBF92" d="M331.696,216.02l-1.908-0.084l-4.947,0.375l2.11,0.125L331.696,216.02z"/>
	<path pointer-events="none" fill="#6B3B19" d="M331.696,211.99l-1.908,0.083l-4.947-0.375l2.11-0.125L331.696,211.99z"/>
	<g>
		<path pointer-events="none" fill="#F58536" d="M322.73,287.195l-7.429,3.755v-42.923l7.429,3.756V287.195z"/>
		<path pointer-events="none" fill="#9D5025" d="M307.868,287.195l7.434,3.755v-42.923l-7.434,3.756V287.195z"/>
		<path pointer-events="none" fill="#F58536" d="M312.5,263.652l-12.549-1.616v-6.254l12.549,2.975V263.652z"/>
		<path pointer-events="none" fill="#9D5025" d="M330.642,259.444l-12.544,2.18v5.115l12.544-0.757V259.444z"/>
		<path pointer-events="none" fill="#F58536" d="M332.889,266.228l-2.247-0.298v-6.486l2.247,0.832V266.228z"/>
		<path pointer-events="none" fill="#9D5025" d="M297.716,256.916l2.235-1.133v6.254l-2.235,0.614V256.916z"/>
		<path pointer-events="none" fill="#6B3A19" d="M312.5,263.652l-2.61,0.381l-12.174-1.381l2.235-0.614L312.5,263.652z"/>
		<path pointer-events="none" fill="#6B3A19" d="M332.889,266.228l-12.46,0.673l-2.33-0.162l12.8-0.775L332.889,266.228z"/>
	</g>
	<path pointer-events="none" fill="#19486F" d="M298.33,34.067v0.036l-0.019-0.023L298.33,34.067z"/>
	<path pointer-events="none" fill="#19486F" d="M323.946,30.157v1.365c0,0.042,0,0.083-0.006,0.131v-1.359
		C323.946,30.246,323.946,30.205,323.946,30.157"/>
	<path pointer-events="none" fill="#19486F" d="M323.94,30.294v1.359c-0.006,0.048-0.023,0.096-0.042,0.155v-1.359
		C323.917,30.401,323.935,30.341,323.94,30.294"/>
	<path pointer-events="none" fill="#19486F" d="M323.898,30.449v1.359c-0.023,0.065-0.054,0.137-0.089,0.209v-1.365
		C323.845,30.58,323.875,30.52,323.898,30.449"/>
	<path pointer-events="none" fill="#19486F" d="M323.81,30.652v1.365c-0.93,1.585-6.242,2.802-12.656,2.802
		c-7.059,0-12.793-1.484-12.793-3.297v-1.365c0,1.824,5.734,3.309,12.793,3.309C317.567,33.465,322.88,32.237,323.81,30.652"/>
	<path pointer-events="none" fill="#19486F" d="M323.946,30.157v1.365c0,1.812-5.723,3.297-12.793,3.297
		c-7.059,0-12.794-1.484-12.794-3.297v-1.365c0,1.824,5.735,3.309,12.794,3.309C318.224,33.465,323.946,31.981,323.946,30.157z"/>
	<path pointer-events="none" fill="#2E73B7" d="M311.153,26.854c7.07,0,12.793,1.473,12.793,3.303c0,1.824-5.723,3.309-12.793,3.309
		c-7.059,0-12.794-1.484-12.794-3.309C298.359,28.327,304.095,26.854,311.153,26.854z"/>
	<path pointer-events="none" fill="#19486F" d="M323.923,55.094v1.359c0,0.054-0.006,0.107-0.013,0.161v-1.353
		C323.917,55.207,323.923,55.147,323.923,55.094"/>
	<path pointer-events="none" fill="#19486F" d="M323.91,55.261v1.353c-0.012,0.072-0.029,0.149-0.06,0.221v-1.365
		C323.882,55.398,323.893,55.333,323.91,55.261"/>
	<path pointer-events="none" fill="#19486F" d="M323.851,55.469v1.365c-0.029,0.084-0.059,0.167-0.106,0.25v-1.353
		C323.792,55.642,323.821,55.559,323.851,55.469"/>
	<path pointer-events="none" fill="#19486F" d="M323.744,55.732v1.353c-1.032,1.794-6.296,3.16-12.633,3.16
		c-7.064,0-12.794-1.693-12.794-3.773v-1.365c0,2.086,5.729,3.773,12.794,3.773C317.448,58.879,322.712,57.526,323.744,55.732"/>
	<path pointer-events="none" fill="#19486F" d="M323.923,55.094v1.359c-0.013,2.099-5.747,3.792-12.812,3.792
		s-12.794-1.693-12.794-3.773v-1.365c0,2.086,5.729,3.773,12.794,3.773S323.91,57.192,323.923,55.094z"/>
	<path pointer-events="none" fill="#2E73B7" d="M323.91,32.845c-0.715,1.979-5.729,3.166-12.8,3.166
		c-7.04,0-11.857-1.347-12.779-3.267l-0.014,22.362c0,2.086,5.729,3.773,12.794,3.773c7.065,0,12.8-1.687,12.812-3.786
		L323.91,32.845z"/>
	<path pointer-events="none" fill="#FFFFFF" d="M302.771,39.725h4.806l3.63,10.677h0.049l3.428-10.677h4.811v15.536h-3.195V44.25
		h-0.048l-3.804,11.011h-2.635l-3.797-10.904h-0.049v10.904h-3.195V39.725z"/>
</g>
<g>
	<g id="layer1" transform="translate(-273.27313,-435.95455)" inkscape:groupmode="layer" inkscape:label="Red1">
		<path id="path3907" sodipodi:nodetypes="cszcszc" inkscape:connector-curvature="0" fill="#A62C39" d="M332.735,633.647
			c0,0,0.238-37.322,0.238-75.263c0-73.488-6.192-78.962,26.781-78.962s91.779,0,91.779,0s0,71.106,0,106
			c0,34.895,6.522,48.564-30.148,48.564S332.735,633.647,332.735,633.647L332.735,633.647z"/>
	</g>
	<g id="layer4" transform="translate(-273.27313,-435.95455)" inkscape:groupmode="layer" inkscape:label="Red2">
		
			<linearGradient id="path3947_1_" gradientUnits="userSpaceOnUse" x1="-141.9691" y1="1281.4927" x2="-113.5241" y2="1296.3914" gradientTransform="matrix(1 0 0 -1 563.0854 1821.0303)">
			<stop  offset="0" style="stop-color:#FFFFFF"/>
			<stop  offset="1" style="stop-color:#C0815E"/>
		</linearGradient>
		<path id="path3947" inkscape:connector-curvature="0" fill="url(#path3947_1_)" d="M408.404,493.286c0,0,5.881,1.177,10.979,9.802
			c5.097,8.626,32.149,75.67,32.149,75.67v-54.498l-25.093-40.775l7.058,8.626l13.33-10.978l-17.251-1.177L408.404,493.286z"/>
	</g>
	<g id="layer3" transform="translate(-273.27313,-435.95455)" inkscape:groupmode="layer" inkscape:label="Red3">
		
			<radialGradient id="path3934_1_" cx="-158.7982" cy="1311.4702" r="48.5296" gradientTransform="matrix(1 0 0 -1.5817 563.0854 2630.5657)" gradientUnits="userSpaceOnUse">
			<stop  offset="0" style="stop-color:#FFFFFF"/>
			<stop  offset="1" style="stop-color:#A94436"/>
		</radialGradient>
		<path id="path3934" inkscape:connector-curvature="0" opacity="0.6682" fill="url(#path3934_1_)" enable-background="new    " d="
			M356.258,480.348c0,0,38.815,25.876,57.635,30.974c18.819,5.097,38.423,10.585,38.423,10.585l-44.696,109.78l19.212,0.784
			l25.092-61.947l-0.783-90.568L356.258,480.348z"/>
		<path id="path3960" sodipodi:nodetypes="cccscc" inkscape:connector-curvature="0" fill="#FFFFFF" fill-opacity="0.4396" d="
			M392.33,596.008l40.377,38.835l-75.272-1.588c0,0-2.352-23.916-1.568-36.463c0.784-12.546,4.705-12.546,4.705-12.546
			L392.33,596.008z"/>
	</g>
	<g id="layer5" transform="translate(-273.27313,-435.95455)" inkscape:groupmode="layer" inkscape:label="Red4">
		<path id="path3958" sodipodi:nodetypes="cccccccccc" inkscape:connector-curvature="0" fill-opacity="0.3623" d="M429.576,634.04
			l-36.463-37.639l-33.326-12.547l-25.876-57.634l27.445-45.872l-18.427-0.784l-7.449,7.057l-2.745,5.489l-1.96,142.714
			L429.576,634.04z"/>
		<path id="path3962" inkscape:connector-curvature="0" opacity="0.5" fill="#83222D" enable-background="new    " d="
			M451.924,574.052c0,0-36.854,11.763-58.811,22.74c-21.956,10.979-33.718,37.639-33.718,37.639s47.048-2.353,64.691-1.568
			s25.877,0.784,27.445-23.916S451.924,574.052,451.924,574.052L451.924,574.052z"/>
	</g>
	<g id="layer7" transform="translate(-273.27313,-435.95455)" inkscape:groupmode="layer" inkscape:label="RAILS">
		<path id="path3993" inkscape:connector-curvature="0" fill="#FFFFFF" d="M344.095,597.468v23.156h5.906v-6.031l5.375,5.375h9.062
			l-7.188-7.188c0,0,5.17-0.084,5.562-7.562c0-6.861-5.177-7.75-11.156-7.75H344.095z M350.282,603.75h5.094v4.125h-5.094V603.75z"
			/>
		<path id="path3997" inkscape:connector-curvature="0" fill="#FFFFFF" d="M375.845,597.562c-3.234-0.019-7.719,0.281-7.719,6.375
			v16.094h6.062v-3.938h5.875v3.844h6.094v-16.875c0-5.293-5.881-5.5-9.031-5.5C376.732,597.562,376.306,597.565,375.845,597.562z
			 M374.282,603.375h5.688v6.344h-5.688V603.375z"/>
		<rect id="rect4001" x="392.231" y="597.577" fill="#FFFFFF" width="6.272" height="22.152"/>
		<path id="path4003" inkscape:connector-curvature="0" fill="#FFFFFF" d="M405.072,597.871v22.152h15.094v-5.881h-8.919v-16.369
			L405.072,597.871z"/>
		<path id="path4005" sodipodi:nodetypes="ccccsssccsssssc" inkscape:connector-curvature="0" fill="#FFFFFF" d="M440.162,597.675
			v5.979h-10.096v2.156c0,0,2.059,0,4.312,0s6.959-0.098,6.959,6.959c0,7.058-3.234,7.45-9.801,7.45c-6.568,0-7.939,0-7.939,0
			v-5.392c0,0,6.371,0,9.115,0s2.896-0.894,2.896-1.672s-1.403-1.141-4.257-1.141s-8.146-1.402-8.146-6.891
			c0-5.489,2.744-7.548,8.233-7.548S440.162,597.674,440.162,597.675L440.162,597.675z"/>
	</g>
	<g id="layer6" transform="translate(-273.27313,-435.95455)" inkscape:groupmode="layer" inkscape:label="Logo (white part)">
		<path id="path3966" sodipodi:nodetypes="ccssccsszc" inkscape:connector-curvature="0" fill="#FFFFFF" d="M349.593,590.912h52.146
			c0,0-11.566-26.269-8.626-50.381c2.941-24.112,21.956-35.091,32.738-36.267c10.781-1.177,16.663,5.489,16.663,5.489l2.353-3.529
			c0,0-15.487-15.683-35.091-13.918c-19.604,1.764-33.13,14.702-41.559,30.385c-8.43,15.684-13.331,26.661-16.663,43.128
			S349.593,590.912,349.593,590.912z"/>
		<path id="path3968" inkscape:connector-curvature="0" fill="#FFFFFF" d="M339.204,564.643l10.194,0.784l-1.765,10.193
			l-9.605-1.176L339.204,564.643z"/>
		<path id="path3970" inkscape:connector-curvature="0" fill="#FFFFFF" d="M355.279,543.079l2.745-7.645l-9.018-3.529l-2.94,8.233
			L355.279,543.079z"/>
		<path id="path3972" inkscape:connector-curvature="0" fill="#FFFFFF" d="M368.021,516.81l5.293-6.272l-6.861-4.509l-5.489,6.076
			L368.021,516.81z"/>
		<path id="path3974" inkscape:connector-curvature="0" fill="#FFFFFF" d="M381.939,492.501l4.705,5.686l6.469-3.725l-4.705-5.293
			L381.939,492.501z"/>
		<path id="path3976" inkscape:connector-curvature="0" fill="#FFFFFF" d="M404.876,486.033l1.176,5.686l8.038-0.196l-0.785-5.097
			L404.876,486.033z"/>
		<path id="path3978" inkscape:connector-curvature="0" fill="#FFFFFF" d="M432.125,492.11l-0.196,3.528l5.489,2.94l1.176-1.764
			L432.125,492.11z"/>
		<path id="path3980" inkscape:connector-curvature="0" fill="#FFFFFF" d="M430.948,507.205v2.94l5.293,0.588v-2.353
			L430.948,507.205z"/>
		<path id="path3982" inkscape:connector-curvature="0" fill="#FFFFFF" d="M414.09,509.753l2.548,4.704l3.725-2.94l-0.784-3.137
			L414.09,509.753z"/>
		<path id="path3984" inkscape:connector-curvature="0" fill="#FFFFFF" d="M406.051,515.831l3.921,5.881l-2.353,4.116l-5.685-6.272
			L406.051,515.831z"/>
		<path id="path3986" inkscape:connector-curvature="0" fill="#FFFFFF" d="M398.211,532.101l-2.549,5.097l6.665,5.686l1.568-6.47
			L398.211,532.101z"/>
		<path id="path3988" inkscape:connector-curvature="0" fill="#FFFFFF" d="M395.466,549.94l-0.392,6.861l8.233,3.529l-0.392-6.47
			L395.466,549.94z"/>
		<path id="path3990" inkscape:connector-curvature="0" fill="#FFFFFF" d="M397.818,574.249l1.961,7.058l10.39,0.588l-3.726-7.646
			H397.818z"/>
	</g>
	<g id="g3911" transform="translate(-273.27313,-435.95455)" inkscape:groupmode="layer" inkscape:label="Red.border">
		
			<path id="path3913" sodipodi:nodetypes="cszcszc" inkscape:connector-curvature="0" fill="none" stroke="#5E000E" stroke-width="3" d="
			M332.735,633.647c0,0,0.238-37.322,0.238-75.263c0-73.488-6.192-78.962,26.781-78.962s91.779,0,91.779,0s0,71.106,0,106
			c0,34.895,4.954,48.564-30.148,48.564S332.735,633.647,332.735,633.647L332.735,633.647z"/>
	</g>
</g>
<path fill="#FFFFFF" d="M103.377,266.444l0.001-0.001l-0.922,3.265L103.377,266.444L103.377,266.444z"/>
<path fill="#131B28" d="M108.116,273.533l-1.016-0.006L108.116,273.533z"/>
<path fill="#131B28" d="M107.854,278.409L107.854,278.409l-6.081,0.022L107.854,278.409L107.854,278.409z"/>
<path fill="#131B28" d="M109.13,273.539l-1.016-0.006L109.13,273.539z"/>
<path fill="#131B28" d="M108.388,277.995l1.06-4.041L108.388,277.995L108.388,277.995L108.388,277.995z"/>
<path fill="#FFFFFF" d="M130.783,259.386l-1.974,9.279L130.783,259.386z"/>
<path fill="#FFFFFF" d="M125.709,259.386l-1.498,6.932L125.709,259.386L125.709,259.386z"/>
<path fill="#FFFFFF" d="M130.445,258.968h-4.221c-0.234,0-0.467,0.188-0.517,0.417l-1.499,6.933l-1.498,6.933
	c-0.05,0.229-0.282,0.416-0.517,0.416h-2.561h-0.427c-2.955,0-2.613-2.044-2.008-4.845c0.006-0.028,0.012-0.056,0.018-0.084
	l0.066-0.353c0.005-0.023,0.009-0.045,0.013-0.066l0.135-0.719l0.145-0.771c0.044-0.232,0.111-0.572,0.154-0.785l0.682-3.328
	l0.682-3.329c0.047-0.229-0.106-0.418-0.341-0.418h-4.333c-0.233,0-0.466,0.188-0.514,0.417l-0.931,4.419l-0.932,4.419
	c-0.001,0.001-0.001,0.004-0.002,0.006l-0.086,0.411c-1.073,4.898-0.789,9.57,5.042,9.716c0.096,0.003,0.17,0.003,0.17,0.003h9.152
	c0.234,0,0.467-0.188,0.516-0.417l1.974-9.279l1.974-9.279C130.831,259.156,130.679,258.968,130.445,258.968L130.445,258.968z"/>
<path fill="#131B28" d="M147.282,273.714c0.234,0,0.388,0.188,0.341,0.417l-0.409,2.003"/>
<path fill="#131B28" d="M146.804,278.139l0.41-2.004L146.804,278.139C146.804,278.139,146.804,278.139,146.804,278.139
	L146.804,278.139z"/>
<path fill="#131B28" d="M146.29,278.561c0.001,0,0.002-0.001,0.002-0.001c-1.242,0.01-4.975,0.039-7.779,0.039
	C141.927,278.598,146.29,278.561,146.29,278.561L146.29,278.561z"/>
<path fill="#131B28" d="M135.994,271.134c-0.003-0.219,0.246-0.597,0.481-0.597l-0.527-0.008
	C135.71,272.917,135.994,271.134,135.994,271.134z"/>
<path fill="#131B28" d="M138.896,278.597c-0.026,0-0.054,0-0.081,0C138.843,278.597,138.87,278.597,138.896,278.597z"/>
<path fill="#131B28" d="M147.282,273.714c0.234,0,0.388,0.188,0.341,0.417l-0.409,2.003l-0.067,0.327"/>
<path fill="#131B28" d="M140.895,278.593h-0.017H140.895z"/>
<path fill="#131B28" d="M139.858,278.596h-0.06H139.858z"/>
<path fill="#131B28" d="M139.542,278.597c-0.033,0-0.065,0-0.099,0C139.477,278.597,139.509,278.597,139.542,278.597z"/>
<path fill="#131B28" d="M139.221,278.597h-0.087H139.221z"/>
<path fill="#131B28" d="M139.798,278.596c-0.085,0-0.171,0-0.256,0C139.627,278.596,139.713,278.596,139.798,278.596z"/>
<path fill="#131B28" d="M140.878,278.593c-0.341,0.001-0.682,0.002-1.018,0.003C140.196,278.596,140.537,278.594,140.878,278.593z"
	/>
<path fill="#131B28" d="M146.293,278.56L146.293,278.56c-0.909,0.007-3.158,0.024-5.399,0.033
	C143.134,278.584,145.383,278.567,146.293,278.56z"/>
<path fill="#131B28" d="M146.804,278.14l0.344-1.678L146.804,278.14C146.804,278.14,146.804,278.14,146.804,278.14L146.804,278.14z"
	/>
<path fill="#131B28" d="M139.443,278.597h-0.223H139.443z"/>
<path fill="#131B28" d="M138.814,278.598h-0.302H138.814z"/>
<path fill="#131B28" d="M139.133,278.597h-0.237H139.133z"/>
<path fill="#131B28" d="M77.393,271.185l0.655-2.907l-0.749,3.322l-0.72,3.384l0.631-2.967
	C77.259,271.788,77.341,271.413,77.393,271.185L77.393,271.185z"/>
<path fill="#FFFFFF" d="M85.24,258.919h-4.636c-0.234,0-0.469,0.188-0.521,0.416l-0.439,1.94l-0.439,1.94
	c-0.052,0.229,0.098,0.416,0.332,0.416h4.671c0.234,0,0.467-0.187,0.518-0.416l0.425-1.94l0.425-1.938v0
	C85.625,259.106,85.475,258.919,85.24,258.919L85.24,258.919z"/>
<path fill="#FFFFFF" d="M84.231,265.372L84.231,265.372l-1.359,6.289L84.231,265.372z"/>
<path fill="#131B28" d="M70.766,286.211c0,0,2.337,0.03,3.822,0.03C73.46,286.241,71.596,286.221,70.766,286.211
	C70.765,286.211,70.766,286.211,70.766,286.211L70.766,286.211z"/>
<path fill="#FFFFFF" d="M78.704,265.372l-0.656,2.906L78.704,265.372z"/>
<path fill="#FFFFFF" d="M83.896,264.956h-4.672c-0.233,0-0.468,0.187-0.52,0.416l-0.656,2.906l-0.656,2.906
	c-0.051,0.229-0.134,0.604-0.183,0.833l-0.63,2.966l-0.631,2.967c-0.049,0.229-0.149,0.599-0.225,0.82c0,0-0.872,2.597-2.34,2.567
	c-0.062-0.001-0.123-0.002-0.183-0.003c-0.711-0.013-1.27-0.023-1.27-0.023h-0.001c-0.234-0.003-0.47,0.179-0.524,0.407
	l-0.484,2.037l-0.483,2.035c-0.055,0.228,0.093,0.416,0.325,0.42c0.832,0.01,2.695,0.03,3.823,0.03c3.665,0,5.598-2.03,6.836-7.874
	l1.449-6.706l1.359-6.29C84.281,265.143,84.13,264.956,83.896,264.956L83.896,264.956z"/>
<path fill="#FFFFFF" d="M150.259,278.36c-0.233,0-0.386-0.188-0.337-0.418l3.515-16.461"/>
<path fill="#131B28" d="M155.144,277.942l1.421-7.026L155.144,277.942z"/>
<path fill="#131B28" d="M149.974,278.151c-0.029-0.114-0.012-0.396,0.037-0.625l1.668-7.813l-1.757,8.23
	c-0.049,0.229,0.103,0.417,0.337,0.417h0.427C150.451,278.36,150.002,278.267,149.974,278.151L149.974,278.151z"/>
<path fill="#131B28" d="M154.866,278.267c-0.128,0.051-0.425,0.094-0.659,0.094h0.427c0.234,0,0.465-0.188,0.511-0.418l0.085-0.418
	C155.183,277.754,154.993,278.215,154.866,278.267z"/>
<path fill="#131B28" d="M155.855,274.429l0.627-3.101c0,0.002,0,0.005-0.001,0.006L155.855,274.429L155.855,274.429z"/>
<path fill="#FFFFFF" d="M169.722,262.584l0.193,0.8c0.054,0.229-0.095,0.415-0.328,0.415"/>
<path fill="#131B28" d="M155.229,277.525l0.626-3.095L155.229,277.525z"/>
<path fill="#FFFFFF" d="M169.529,261.765l0.191,0.82L169.529,261.765z"/>
<path fill="#FFFFFF" d="M156.482,271.328c0.046-0.229,0.123-0.601,0.172-0.828l0.67-3.139l-0.759,3.556L156.482,271.328
	L156.482,271.328z"/>
<path fill="#FFFFFF" d="M153.494,261.212c-0.047,0.222-0.106,0.501-0.146,0.687l-1.668,7.814l1.757-8.231L153.494,261.212
	L153.494,261.212z"/>
<path fill="#FFFFFF" d="M169.914,263.384l-0.194-0.8l-0.19-0.82l-0.098-0.415c-0.379-1.474-1.493-2.325-3.911-2.325l-3.767-0.004
	l-3.468-0.004h-0.297h-3.604c-0.234,0-0.467,0.187-0.515,0.417l0,0l-0.173,0.815l-0.204,0.963l-0.056,0.27l-1.757,8.231
	l-1.668,7.813c-0.051,0.229-0.066,0.511-0.038,0.625c0.028,0.115,0.478,0.209,0.712,0.209h3.521c0.234,0,0.531-0.042,0.658-0.094
	c0.128-0.052,0.316-0.513,0.363-0.742l0.626-3.095l0.627-3.095c0-0.001,0-0.004,0.001-0.006l0.083-0.412l0.759-3.556l0.671-3.141
	c0.05-0.228,0.28-0.415,0.514-0.416l11.077-0.005C169.819,263.799,169.968,263.613,169.914,263.384L169.914,263.384z"/>
<path fill="#FFFFFF" d="M184.174,256.152c-0.234,0.001-0.618,0.003-0.854,0.003h-3.545c-0.234,0-0.534,0.158-0.667,0.352
	l-7.84,11.485c-0.132,0.194-0.283,0.165-0.335-0.063l-0.577-2.531c-0.052-0.229-0.287-0.415-0.521-0.415h-5.04
	c-0.235,0-0.374,0.184-0.31,0.409l2.259,7.911c0.063,0.226,0.068,0.596,0.011,0.823l-0.984,3.829
	c-0.059,0.227,0.086,0.413,0.32,0.413h4.981c0.233,0,0.474-0.186,0.531-0.413l0.985-3.829c0.058-0.227,0.221-0.566,0.362-0.754
	l12.727-16.892c0.142-0.187,0.065-0.339-0.169-0.338L184.174,256.152L184.174,256.152z"/>
<path fill="#FFFFFF" d="M144.133,266.06v-0.004c-0.03,0.254-0.265,0.441-0.499,0.441h-6.39c-0.221,0-0.333-0.15-0.301-0.335
	c0.002-0.005,0.003-0.01,0.007-0.015c0,0-0.003,0-0.004,0.002c0.001-0.007,0.001-0.014,0.003-0.021c0,0,0.013-0.045,0.029-0.108
	c0.61-1.623,1.854-2.688,4.189-2.688C143.798,263.33,144.312,264.615,144.133,266.06L144.133,266.06z M142.259,258.685
	c-8.203,0-10.146,4.979-11.236,10.003c-1.091,5.122-0.996,9.91,7.49,9.91h0.302c0.026,0,0.055,0,0.081,0h0.237h0.088h0.223
	c0.032,0,0.065,0,0.099,0c0.085,0,0.17-0.001,0.256-0.001h0.061c0.336,0,0.676-0.002,1.019-0.003h0.017
	c2.241-0.009,4.489-0.026,5.4-0.033c0.232-0.003,0.461-0.191,0.508-0.418l0.344-1.68l0.067-0.327l0.409-2.003
	c0.048-0.23-0.105-0.418-0.341-0.418h-7.63c-3.034,0-3.936-0.806-3.604-3.177h12.197l-0.002,0.001c0.004,0,0.006-0.001,0.009-0.001
	c0.194-0.004,0.373-0.137,0.444-0.315c0.014-0.034,0.025-0.07,0.029-0.107l-0.001,0.001
	C150.536,263.286,150.017,258.685,142.259,258.685L142.259,258.685z"/>
<path fill="#FFFFFF" d="M103.493,266.034l-0.116,0.409c0,0.001,0,0.001,0,0.001l-0.921,3.264l-0.921,3.264
	c-0.063,0.225-0.307,0.41-0.542,0.41h-4.875c-3.697,0-4.598-2.892-3.697-7.158c0.9-4.363,2.665-7.075,6.305-7.35
	C103.698,258.499,104.693,261.997,103.493,266.034L103.493,266.034z M106.836,273.13c0,0,2.298-5.581,2.82-8.804
	c0.712-4.314-1.448-10.572-9.793-10.572c-8.297,0-11.9,5.975-13.274,12.469c-1.375,6.542,0.426,12.279,8.676,12.232l6.509-0.024
	l6.082-0.022c0.234-0.002,0.474-0.188,0.534-0.414l1.06-4.042c0.059-0.227-0.085-0.413-0.318-0.415l-1.016-0.006l-1.016-0.006
	c-0.199-0.001-0.313-0.13-0.289-0.301C106.814,273.194,106.821,273.163,106.836,273.13L106.836,273.13z"/>
<path fill="#131B28" d="M147.909,269.396c0,0.154-0.125,0.279-0.279,0.279s-0.28-0.125-0.28-0.279s0.126-0.279,0.28-0.279
	S147.909,269.241,147.909,269.396z"/>
<path fill="#0868AC" d="M43.48,262.14c-2.29,3.292-2.005,7.576-0.255,11.075c0.041,0.084,0.085,0.166,0.128,0.249
	c0.027,0.052,0.054,0.106,0.082,0.157c0.016,0.031,0.034,0.062,0.051,0.091c0.029,0.056,0.061,0.109,0.091,0.163
	c0.055,0.096,0.11,0.191,0.167,0.287c0.032,0.052,0.063,0.104,0.096,0.157c0.063,0.102,0.128,0.203,0.194,0.304
	c0.027,0.043,0.054,0.086,0.082,0.127c0.092,0.136,0.185,0.271,0.281,0.405c0.002,0.003,0.005,0.007,0.008,0.011
	c0.015,0.021,0.031,0.042,0.047,0.063c0.084,0.115,0.17,0.228,0.256,0.34c0.032,0.041,0.064,0.082,0.097,0.123
	c0.077,0.098,0.156,0.194,0.236,0.291c0.03,0.037,0.061,0.073,0.091,0.108c0.107,0.127,0.217,0.253,0.329,0.376
	c0.002,0.002,0.005,0.005,0.007,0.007c0.005,0.006,0.009,0.009,0.013,0.014c0.109,0.12,0.222,0.236,0.335,0.353
	c0.035,0.036,0.071,0.072,0.107,0.108c0.088,0.088,0.177,0.175,0.268,0.262c0.036,0.035,0.072,0.071,0.109,0.104
	c0.12,0.114,0.242,0.225,0.366,0.333c0.002,0.002,0.004,0.004,0.006,0.005c0.021,0.019,0.043,0.037,0.063,0.055
	c0.109,0.095,0.221,0.188,0.333,0.281c0.046,0.037,0.092,0.073,0.138,0.11c0.092,0.073,0.185,0.146,0.277,0.217
	c0.05,0.038,0.099,0.075,0.148,0.113c0.103,0.075,0.207,0.15,0.312,0.224c0.038,0.027,0.075,0.054,0.113,0.08
	c0.011,0.007,0.021,0.015,0.031,0.022c0.099,0.068,0.2,0.134,0.302,0.2c0.044,0.029,0.087,0.059,0.131,0.087
	c0.156,0.099,0.314,0.196,0.474,0.29c0.043,0.025,0.087,0.049,0.131,0.074c0.117,0.068,0.235,0.134,0.355,0.2
	c0.064,0.035,0.131,0.068,0.196,0.101c0.085,0.044,0.169,0.089,0.255,0.132c0.02,0.009,0.039,0.019,0.059,0.028
	c0.034,0.017,0.069,0.033,0.104,0.05c0.134,0.063,0.268,0.126,0.403,0.187c0.029,0.013,0.057,0.025,0.085,0.038
	c0.155,0.068,0.312,0.133,0.471,0.195c0.038,0.016,0.075,0.03,0.114,0.045c0.146,0.057,0.295,0.112,0.443,0.165
	c0.019,0.006,0.037,0.013,0.056,0.019c0.163,0.058,0.328,0.11,0.495,0.162c0.039,0.012,0.079,0.024,0.119,0.036
	c0.169,0.051,0.336,0.112,0.511,0.144c11.079,2.021,14.297-6.658,14.297-6.658c-2.702,3.521-7.501,4.45-12.046,3.417
	c-0.172-0.039-0.34-0.093-0.508-0.143c-0.042-0.012-0.084-0.025-0.126-0.038c-0.164-0.05-0.327-0.103-0.489-0.159
	c-0.021-0.008-0.044-0.016-0.066-0.024c-0.146-0.051-0.288-0.104-0.431-0.16c-0.041-0.016-0.081-0.032-0.121-0.047
	c-0.156-0.062-0.312-0.126-0.465-0.193c-0.032-0.014-0.062-0.028-0.093-0.041c-0.133-0.06-0.263-0.12-0.393-0.183
	c-0.037-0.018-0.075-0.036-0.113-0.055c-0.103-0.05-0.203-0.103-0.304-0.154c-0.067-0.035-0.136-0.069-0.202-0.106
	c-0.123-0.066-0.244-0.134-0.364-0.204c-0.04-0.023-0.081-0.044-0.122-0.068c-0.16-0.094-0.318-0.191-0.475-0.29
	c-0.043-0.027-0.085-0.057-0.127-0.085c-0.113-0.073-0.227-0.147-0.337-0.224c-0.037-0.025-0.073-0.052-0.108-0.076
	c-0.107-0.076-0.214-0.153-0.319-0.23c-0.048-0.036-0.095-0.071-0.141-0.107c-0.097-0.074-0.192-0.148-0.288-0.225
	c-0.043-0.034-0.086-0.068-0.128-0.103c-0.121-0.099-0.24-0.199-0.358-0.302c-0.012-0.011-0.025-0.021-0.039-0.033
	c-0.127-0.112-0.252-0.227-0.376-0.342c-0.036-0.034-0.071-0.067-0.106-0.102c-0.092-0.087-0.182-0.175-0.271-0.265
	c-0.035-0.035-0.071-0.07-0.105-0.105c-0.113-0.116-0.224-0.233-0.332-0.352c-0.006-0.006-0.011-0.011-0.017-0.018
	c-0.114-0.125-0.227-0.253-0.337-0.383c-0.029-0.036-0.059-0.07-0.088-0.104c-0.082-0.099-0.163-0.199-0.242-0.3
	c-0.03-0.036-0.06-0.073-0.089-0.11c-0.096-0.124-0.188-0.247-0.279-0.373c-2.524-3.442-3.431-8.191-1.414-12.09"/>
<path fill="#0868AC" d="M50.593,259.365c-1.657,2.384-1.567,5.576-0.275,8.097c0.217,0.423,0.461,0.833,0.733,1.223
	c0.248,0.356,0.523,0.779,0.853,1.065c0.119,0.131,0.244,0.26,0.372,0.386c0.032,0.033,0.065,0.064,0.098,0.097
	c0.124,0.12,0.25,0.238,0.38,0.353c0.006,0.004,0.01,0.01,0.016,0.014c0.001,0.001,0.003,0.002,0.004,0.003
	c0.144,0.126,0.292,0.248,0.443,0.367c0.033,0.025,0.066,0.052,0.101,0.079c0.151,0.116,0.306,0.23,0.464,0.339
	c0.005,0.003,0.009,0.006,0.014,0.01c0.069,0.049,0.141,0.093,0.211,0.14c0.034,0.022,0.066,0.046,0.101,0.066
	c0.113,0.072,0.228,0.143,0.344,0.211c0.017,0.01,0.033,0.019,0.049,0.028c0.101,0.058,0.202,0.115,0.305,0.17
	c0.035,0.02,0.071,0.038,0.107,0.056c0.07,0.037,0.142,0.075,0.213,0.11c0.011,0.005,0.021,0.01,0.032,0.015
	c0.146,0.072,0.293,0.141,0.443,0.207c0.032,0.014,0.065,0.027,0.098,0.041c0.12,0.051,0.242,0.101,0.364,0.147
	c0.052,0.02,0.104,0.038,0.155,0.057c0.111,0.041,0.222,0.079,0.334,0.116c0.051,0.016,0.101,0.033,0.151,0.048
	c0.159,0.049,0.316,0.112,0.482,0.14c8.555,1.417,10.529-5.169,10.529-5.169c-1.78,2.563-5.228,3.787-8.906,2.832
	c-0.164-0.043-0.325-0.09-0.485-0.14c-0.049-0.015-0.097-0.031-0.146-0.047c-0.113-0.037-0.227-0.076-0.339-0.117
	c-0.051-0.019-0.103-0.038-0.152-0.057c-0.123-0.047-0.244-0.096-0.365-0.147c-0.033-0.014-0.066-0.027-0.098-0.042
	c-0.151-0.066-0.3-0.135-0.446-0.208c-0.076-0.037-0.15-0.076-0.225-0.114c-0.043-0.022-0.086-0.044-0.129-0.067
	c-0.095-0.051-0.189-0.105-0.283-0.159c-0.022-0.013-0.045-0.025-0.067-0.039c-0.116-0.068-0.23-0.138-0.343-0.209
	c-0.035-0.022-0.068-0.046-0.104-0.069c-0.074-0.048-0.149-0.098-0.223-0.147c-0.157-0.109-0.311-0.223-0.462-0.338
	c-0.035-0.028-0.07-0.055-0.104-0.083c-1.611-1.271-2.887-3.009-3.494-4.979c-0.636-2.043-0.499-4.337,0.604-6.198"/>
<path fill="#0868AC" d="M56.573,257.292c-0.977,1.438-1.072,3.223-0.395,4.81c0.715,1.685,2.179,3.007,3.888,3.634
	c0.071,0.026,0.142,0.049,0.213,0.073c0.031,0.01,0.062,0.021,0.094,0.03c0.101,0.032,0.2,0.068,0.305,0.088
	c4.724,0.912,6.004-2.424,6.345-2.915c-1.122,1.616-3.008,2.003-5.321,1.442c-0.184-0.044-0.384-0.11-0.561-0.173
	c-0.226-0.08-0.448-0.172-0.665-0.275c-0.41-0.198-0.802-0.438-1.165-0.711c-2.071-1.571-3.357-4.569-2.006-7.009"/>
<path fill="#0868AC" d="M109.771,285.288l-1.361,3.101h-1.504l0.124-2.817l-1.106,2.817h-1.456l-0.038-3.101l0.16-0.766h1.031
	l-0.198,3.062l1.144-3.062h1.438l-0.104,3.101l1.135-3.101h0.897L109.771,285.288z"/>
<path fill="#0868AC" d="M112.143,286.206c0.133-0.605,0.095-0.719-0.218-0.719h-0.473l-0.303,1.419l-0.463,1.482h-0.879l0.718-3.364
	l0.104-0.492h0.804l0.104,0.227c0,0,0.464-0.273,0.917-0.273c0.965,0,0.889,0.728,0.681,1.721H112.143L112.143,286.206z"/>
<path fill="#0868AC" d="M114.998,284.04c-0.387,0-0.633-0.113-0.538-0.586c0.104-0.473,0.406-0.587,0.784-0.587
	s0.634,0.114,0.529,0.587C115.679,283.917,115.377,284.04,114.998,284.04L114.998,284.04z M114.583,288.389h-0.871l0.171-1.512
	l0.303-1.399l-0.605-0.133l0.171-0.822h1.653L114.583,288.389L114.583,288.389z"/>
<path fill="#0868AC" d="M118.354,285.343l-1.087,0.133l-0.312,1.475c-0.086,0.407-0.086,0.521,0.274,0.521h0.728l-0.151,0.775
	c0,0-0.661,0.198-0.945,0.198c-1.115,0-1.106-0.614-0.907-1.532l0.302-1.446l-0.604-0.132l0.179-0.822h0.635l0.359-0.975h0.86
	l-0.209,0.975h1.06L118.354,285.343L118.354,285.343z"/>
<path fill="#0868AC" d="M120.613,285.393c-0.51,0-0.775,0.265-0.879,0.737l1.456-0.123
	C121.257,285.686,121.19,285.393,120.613,285.393z M119.593,286.829c-0.066,0.473,0.113,0.634,0.718,0.634h1.522l-0.151,0.718
	c0,0-0.917,0.255-1.598,0.255c-1.692,0-1.712-0.953-1.493-1.975c0.217-1.003,0.604-1.995,2.239-1.995
	c1.58,0,1.655,0.955,1.268,2.363H119.593L119.593,286.829z"/>
<path fill="#0868AC" d="M125.566,288.389h-0.869l0.17-1.513l0.614-2.874l-0.605-0.142l0.18-0.823h1.655L125.566,288.389
	L125.566,288.389z"/>
<path fill="#0868AC" d="M128.708,285.393c-0.511,0-0.775,0.265-0.88,0.737l1.456-0.123
	C129.351,285.686,129.284,285.393,128.708,285.393L128.708,285.393z M127.687,286.829c-0.066,0.473,0.113,0.634,0.719,0.634h1.521
	l-0.15,0.718c0,0-0.918,0.255-1.599,0.255c-1.692,0-1.711-0.953-1.493-1.975c0.218-1.003,0.605-1.995,2.24-1.995
	c1.579,0,1.654,0.955,1.268,2.363H127.687L127.687,286.829z"/>
<path fill="#0868AC" d="M134.181,285.439c0,0-1.106,0.009-1.409,0.009c-0.644,0-0.709,0.198-0.756,0.406l-0.038,0.189l2.042,0.151
	c0,0,0.009,0.652-0.076,1.021c-0.122,0.615-0.756,1.238-1.899,1.238c-0.568,0-1.484-0.217-1.484-0.217l0.16-0.747h1.408
	c0.625,0,0.71-0.17,0.748-0.34l0.047-0.246l-2.004-0.151c0,0-0.076-0.501,0.028-1.002c0.151-0.681,0.774-1.267,1.919-1.267
	c0.567,0,1.484,0.207,1.484,0.207L134.181,285.439L134.181,285.439z"/>
<path fill="#0868AC" d="M137.981,285.439c0,0-1.105,0.009-1.408,0.009c-0.643,0-0.709,0.198-0.757,0.406l-0.038,0.189l2.043,0.151
	c0,0,0.01,0.652-0.076,1.021c-0.123,0.615-0.756,1.238-1.9,1.238c-0.566,0-1.484-0.217-1.484-0.217l0.161-0.747h1.409
	c0.623,0,0.709-0.17,0.746-0.34l0.047-0.246l-2.004-0.151c0,0-0.075-0.501,0.028-1.002c0.151-0.681,0.775-1.267,1.919-1.267
	c0.567,0,1.484,0.207,1.484,0.207L137.981,285.439L137.981,285.439z"/>
<path fill="#0868AC" d="M139.172,289.004h-0.756l0.028-0.567c-0.275-0.019-0.416-0.217-0.351-0.549
	c0.104-0.473,0.397-0.586,0.785-0.586c0.378,0,0.633,0.113,0.529,0.586L139.172,289.004L139.172,289.004z"/>
<path fill="#0868AC" d="M144.229,285.478c-0.568,0-0.766,0.341-0.898,0.964c-0.133,0.625-0.095,0.993,0.473,0.993h0.784l0.436-1.957
	H144.229z M145.524,287.888l-0.104,0.501l-0.794-0.009l-0.113-0.245c0,0-0.699,0.301-1.172,0.301c-1.211,0-1.268-0.992-1.05-1.994
	c0.218-1.021,0.69-1.985,1.891-1.985c0.436,0,1.021,0.218,1.021,0.218l0.481-1.636h0.871L145.524,287.888z"/>
<path fill="#0868AC" d="M148.654,285.439c-0.737,0-0.975,0.415-1.106,1.021c-0.123,0.614-0.065,1.03,0.662,1.03
	c0.756,0,0.983-0.406,1.115-1.03C149.458,285.873,149.42,285.439,148.654,285.439L148.654,285.439z M148.012,288.445
	c-1.561,0-1.684-0.974-1.476-1.985c0.219-1.012,0.767-1.976,2.326-1.976c1.55,0,1.692,0.964,1.475,1.976
	C150.12,287.49,149.571,288.445,148.012,288.445z"/>
<path fill="#0868AC" d="M156.861,288.389l0.171-1.494l0.084-0.426c0.123-0.566,0.199-0.982-0.396-0.982h-0.464
	c0.02,0.293-0.037,0.624-0.113,0.974l-0.406,1.929h-0.879l0.17-1.494l0.085-0.426c0.123-0.566,0.198-0.982-0.396-0.982h-0.379
	l-0.624,2.902h-1.012l0.822-3.867h0.795l0.122,0.236c0,0,0.54-0.283,0.975-0.283c0.33,0,0.576,0.151,0.662,0.34
	c0.188-0.104,0.728-0.34,1.115-0.34c1.209,0,1.172,0.982,0.954,1.985l-0.406,1.929H156.861L156.861,288.389z"/>
<path fill="#0868AC" d="M160.88,285.439c-0.738,0-0.975,0.415-1.106,1.021c-0.123,0.614-0.066,1.03,0.661,1.03
	c0.757,0,0.984-0.406,1.116-1.03C161.683,285.873,161.646,285.439,160.88,285.439z M160.236,288.445
	c-1.561,0-1.683-0.974-1.475-1.985c0.218-1.012,0.766-1.976,2.326-1.976c1.551,0,1.692,0.964,1.475,1.976
	C162.346,287.49,161.797,288.445,160.236,288.445z"/>
<path fill="#0868AC" d="M165.189,286.206c0.132-0.605,0.095-0.719-0.218-0.719h-0.473l-0.303,1.419l-0.463,1.482h-0.879l0.718-3.364
	l0.104-0.492h0.804l0.104,0.227c0,0,0.463-0.273,0.918-0.273c0.964,0,0.888,0.728,0.68,1.721H165.189L165.189,286.206z"/>
<path fill="#0868AC" d="M168.575,285.393c-0.51,0-0.774,0.265-0.878,0.737l1.454-0.123
	C169.219,285.686,169.151,285.393,168.575,285.393z M167.555,286.829c-0.066,0.473,0.113,0.634,0.718,0.634h1.522l-0.151,0.718
	c0,0-0.917,0.255-1.598,0.255c-1.692,0-1.711-0.953-1.494-1.975c0.218-1.003,0.605-1.995,2.241-1.995
	c1.578,0,1.654,0.955,1.267,2.363H167.555z"/>
<path fill="#0868AC" d="M170.909,288.445c-0.397,0-0.643-0.112-0.539-0.576c0.094-0.474,0.388-0.586,0.785-0.586
	c0.368,0,0.624,0.112,0.529,0.586C171.58,288.323,171.278,288.445,170.909,288.445z"/>
</svg>
