<?xml version="1.0" encoding="UTF-8" standalone="no"?>
<!-- Generator: Adobe Illustrator 13.0.0, SVG Export Plug-In . SVG Version: 6.00 Build 14948)  -->

<svg
   xmlns:dc="http://purl.org/dc/elements/1.1/"
   xmlns:cc="http://creativecommons.org/ns#"
   xmlns:rdf="http://www.w3.org/1999/02/22-rdf-syntax-ns#"
   xmlns:svg="http://www.w3.org/2000/svg"
   xmlns="http://www.w3.org/2000/svg"
   xmlns:sodipodi="http://sodipodi.sourceforge.net/DTD/sodipodi-0.dtd"
   xmlns:inkscape="http://www.inkscape.org/namespaces/inkscape"
   version="1.1"
   id="Layer_1"
   x="0px"
   y="0px"
   width="1280"
   height="720"
   viewBox="-68.5 -68.5 1280 720"
   enable-background="new -68.5 -68.5 397.5 673.5"
   xml:space="preserve"
   inkscape:version="0.91 r13725"
   sodipodi:docname="api-server-jquery.svg"><metadata
     id="metadata467"><rdf:RDF><cc:Work
         rdf:about=""><dc:format>image/svg+xml</dc:format><dc:type
           rdf:resource="http://purl.org/dc/dcmitype/StillImage" /><dc:title></dc:title></cc:Work></rdf:RDF></metadata><defs
     id="defs465"><linearGradient
       id="path3947_1_"
       gradientUnits="userSpaceOnUse"
       x1="-141.9691"
       y1="1281.4927"
       x2="-113.5241"
       y2="1296.3914"
       gradientTransform="matrix(1,0,0,-1,563.0854,1821.0303)"><stop
         offset="0"
         style="stop-color:#FFFFFF"
         id="stop293" /><stop
         offset="1"
         style="stop-color:#C0815E"
         id="stop295" /></linearGradient><radialGradient
       id="path3934_1_"
       cx="-158.7982"
       cy="1311.4702"
       r="48.529598"
       gradientTransform="matrix(1,0,0,-1.5817,563.0854,2630.5657)"
       gradientUnits="userSpaceOnUse"><stop
         offset="0"
         style="stop-color:#FFFFFF"
         id="stop300" /><stop
         offset="1"
         style="stop-color:#A94436"
         id="stop302" /></radialGradient></defs><sodipodi:namedview
     pagecolor="#000000"
     bordercolor="#666666"
     borderopacity="1"
     objecttolerance="10"
     gridtolerance="10"
     guidetolerance="10"
     inkscape:pageopacity="0"
     inkscape:pageshadow="2"
     inkscape:window-width="1373"
     inkscape:window-height="892"
     id="namedview463"
     showgrid="false"
     inkscape:zoom="0.95833333"
     inkscape:cx="640"
     inkscape:cy="360"
     inkscape:window-x="208"
     inkscape:window-y="130"
     inkscape:window-maximized="0"
     inkscape:current-layer="Layer_1"
     showguides="true"
     inkscape:guide-bbox="true" /><g
     id="g3519"
     transform="matrix(0.78084732,0,0,0.78084732,250.00357,8.1558314)"><g
       transform="matrix(1.554182,0,0,1.554182,-265.75133,-50.395158)"
       id="g4613"><rect
         style="fill:#9d5125"
         x="569.14624"
         y="233.87169"
         pointer-events="none"
         width="4.5300002"
         height="2.5599999"
         id="rect61" /><rect
         style="fill:#9d5125"
         x="588.90625"
         y="233.87169"
         pointer-events="none"
         width="4.5209999"
         height="2.5599999"
         id="rect63" /><path
         inkscape:connector-curvature="0"
         style="fill:#9d5125"
         pointer-events="none"
         d="m 588.90624,242.09169 0,2.562 -6.119,6.33 0,-2.57 6.119,-6.322 z"
         id="path65" /><path
         inkscape:connector-curvature="0"
         style="fill:#9d5125"
         pointer-events="none"
         d="m 580.06624,248.41169 0,2.57 -6.39,-6.53 0,-2.57 6.39,6.53 z"
         id="path67" /><rect
         style="fill:#9d5125"
         x="600.39624"
         y="254.36169"
         pointer-events="none"
         width="10.49"
         height="2.5699999"
         id="rect69" /><rect
         style="fill:#9d5125"
         x="551.88623"
         y="254.36169"
         pointer-events="none"
         width="10.49"
         height="2.5699999"
         id="rect71" /><path
         inkscape:connector-curvature="0"
         style="fill:#9d5125"
         pointer-events="none"
         d="m 600.39624,260.50169 0,2.57 -12.32,-12.15 0,-2.57 12.32,12.15 z"
         id="path73" /><path
         inkscape:connector-curvature="0"
         style="fill:#f48334"
         pointer-events="none"
         d="m 562.37624,236.34169 12.32,12.14 -12.32,12.02 0,-6.14 -10.49,0 0,-11.89 10.49,0 0,-6.13 z"
         id="path75" /><path
         inkscape:connector-curvature="0"
         style="fill:#9d5125"
         pointer-events="none"
         d="m 574.69624,248.48169 0,2.57 -12.32,12.021 0,-2.57 12.32,-12.021 z"
         id="path77" /><path
         inkscape:connector-curvature="0"
         style="fill:#f48334"
         pointer-events="none"
         d="m 600.39624,236.34169 0,6.14 10.49,0 0,11.88 -10.49,0 0,6.14 -12.32,-12.15 12.32,-12.01 z"
         id="path79" /><path
         inkscape:connector-curvature="0"
         style="fill:#9d5125"
         pointer-events="none"
         d="m 593.43624,263.81169 0,2.57 -12.21,12.24 -0.57,-3.14 12.78,-11.67 z"
         id="path81" /><path
         inkscape:connector-curvature="0"
         style="fill:#9d5125"
         pointer-events="none"
         d="m 581.22624,276.06169 0,2.56 -12.08,-12.24 0,-2.57 12.08,12.25 z"
         id="path83" /><path
         inkscape:connector-curvature="0"
         style="fill:#f48334"
         pointer-events="none"
         d="m 581.35624,221.62169 12.08,12.25 -4.53,0 0,8.22 -6.119,6.32 6.119,6.5 0,8.9 4.53,0 -12.21,12.25 -12.08,-12.25 4.53,0 0,-8.8 6.39,-6.6 -6.39,-6.53 0,-8.01 -4.53,0 12.21,-12.25 z"
         id="path85" /></g><g
       transform="matrix(1.658642,0,0,1.658642,-349.43806,76.093238)"
       id="g4582"><path
         inkscape:connector-curvature="0"
         style="fill:#9d5025"
         pointer-events="none"
         d="m 492.50624,182.92169 0,2.7 -23.71,0 -0.99,-3.54 24.7,0.84 z"
         id="path145" /><path
         inkscape:connector-curvature="0"
         style="fill:#9d5025"
         pointer-events="none"
         d="m 473.55624,137.34169 0,2.69 -17.63,0 -2.47,-3.4 20.1,0.71 z"
         id="path147" /><path
         inkscape:connector-curvature="0"
         style="fill:#9d5025"
         pointer-events="none"
         d="m 455.92624,137.34169 0,2.69 c -0.97,0 -1.83,0.56 -2.26,1.36 l 0,-2.7 c 0.43,-0.8 1.29,-1.35 2.26,-1.35"
         id="path149" /><path
         inkscape:connector-curvature="0"
         style="fill:#9d5025"
         pointer-events="none"
         d="m 453.66624,138.69169 0,2.7 c -0.08,0.14 -0.15,0.29 -0.2,0.45 l 0,-2.688 c 0.05,-0.162 0.12,-0.312 0.2,-0.462"
         id="path151" /><path
         inkscape:connector-curvature="0"
         style="fill:#9d5025"
         pointer-events="none"
         d="m 453.46624,139.15169 0,2.688 c -0.04,0.14 -0.08,0.271 -0.1,0.41 l 0,-2.69 c 0.02,-0.138 0.06,-0.278 0.1,-0.408"
         id="path153" /><path
         inkscape:connector-curvature="0"
         style="fill:#9d5025"
         pointer-events="none"
         d="m 453.36624,139.56169 0,2.7 c -0.02,0.11 -0.02,0.24 -0.02,0.36 l 0,-2.69 c 0,-0.13 0.01,-0.25 0.02,-0.37"
         id="path155" /><path
         inkscape:connector-curvature="0"
         style="fill:#9d5025"
         pointer-events="none"
         d="m 455.92624,137.34169 0,2.69 c -1.42,0 -2.58,1.17 -2.58,2.59 l 0,-2.69 c 0,-1.42 1.16,-2.59 2.58,-2.59 z"
         id="path157" /><path
         inkscape:connector-curvature="0"
         style="fill:#9d5025"
         pointer-events="none"
         d="m 484.15624,149.80169 0,2.69 -17.81,0 -1.51,-3.07 19.32,0.38 z"
         id="path159" /><path
         inkscape:connector-curvature="0"
         style="fill:#9d5025"
         pointer-events="none"
         d="m 466.52624,149.80169 0,2.69 c -0.97,0 -1.82,0.55 -2.25,1.35 l 0,-2.7 c 0.43,-0.8 1.28,-1.34 2.25,-1.34"
         id="path161" /><path
         inkscape:connector-curvature="0"
         style="fill:#9d5025"
         pointer-events="none"
         d="m 464.27624,151.14169 0,2.7 c -0.08,0.14 -0.15,0.3 -0.2,0.45 l 0,-2.69 c 0.05,-0.16 0.12,-0.31 0.2,-0.46"
         id="path163" /><path
         inkscape:connector-curvature="0"
         style="fill:#9d5025"
         pointer-events="none"
         d="m 464.07624,151.60169 0,2.69 c -0.04,0.14 -0.08,0.28 -0.1,0.43 l 0,-2.7 c 0.02,-0.14 0.06,-0.28 0.1,-0.42"
         id="path165" /><path
         inkscape:connector-curvature="0"
         style="fill:#9d5025"
         pointer-events="none"
         d="m 463.97624,152.02169 0,2.7 c -0.02,0.12 -0.03,0.24 -0.03,0.37 l 0,-2.688 c 0,-0.132 0.01,-0.262 0.03,-0.382"
         id="path167" /><path
         inkscape:connector-curvature="0"
         style="fill:#9d5025"
         pointer-events="none"
         d="m 466.52624,149.80169 0,2.69 c -1.42,0 -2.58,1.17 -2.58,2.6 l 0,-2.688 c 0,-1.442 1.16,-2.602 2.58,-2.602 z"
         id="path169" /><path
         inkscape:connector-curvature="0"
         style="fill:#9d5025"
         pointer-events="none"
         d="m 453.34624,157.94169 0,2.688 -5.89,0 -0.92,-3.27 6.81,0.582 z"
         id="path171" /><path
         inkscape:connector-curvature="0"
         style="fill:#9d5025"
         pointer-events="none"
         d="m 447.45624,157.94169 0,2.688 c -1.41,0 -2.57,-1.15 -2.57,-2.58 l 0,-2.68 c 0,1.432 1.16,2.572 2.57,2.572"
         id="path173" /><path
         inkscape:connector-curvature="0"
         style="fill:#9d5025"
         pointer-events="none"
         d="m 447.45624,157.94169 0,2.688 c -1.41,0 -2.57,-1.15 -2.57,-2.58 l 0,-2.68 c 0,1.432 1.16,2.572 2.57,2.572 z"
         id="path175" /><rect
         style="fill:#9d5025"
         x="457.87625"
         y="170.40169"
         pointer-events="none"
         width="6.0700002"
         height="2.7"
         id="rect177" /><path
         inkscape:connector-curvature="0"
         style="fill:#9d5025"
         pointer-events="none"
         d="m 458.06624,170.40169 0,2.688 c -1.42,0 -2.57,-1.149 -2.57,-2.58 l 0,-2.7 c 0,1.432 1.15,2.592 2.57,2.592"
         id="path179" /><path
         inkscape:connector-curvature="0"
         style="fill:#9d5025"
         pointer-events="none"
         d="m 458.06624,170.40169 0,2.688 c -1.42,0 -2.57,-1.149 -2.57,-2.58 l 0,-2.7 c 0,1.432 1.15,2.592 2.57,2.592 z"
         id="path181" /><path
         inkscape:connector-curvature="0"
         style="fill:#9d5125"
         pointer-events="none"
         d="m 468.79624,182.92169 0,2.7 c -1.42,0 -2.57,-1.17 -2.57,-2.59 l 0,-2.69 c 0,1.42 1.15,2.58 2.57,2.58"
         id="path183" /><path
         inkscape:connector-curvature="0"
         style="fill:#9d5125"
         pointer-events="none"
         d="m 468.79624,182.92169 0,2.7 c -1.42,0 -2.57,-1.17 -2.57,-2.59 l 0,-2.69 c 0,1.42 1.15,2.58 2.57,2.58 z"
         id="path185" /><path
         inkscape:connector-curvature="0"
         style="fill:#9d5025"
         pointer-events="none"
         d="m 494.88624,180.34169 0,2.69 c 0,0.13 -0.01,0.25 -0.03,0.37 l 0,-2.69 c 0.02,-0.12 0.03,-0.25 0.03,-0.37"
         id="path187" /><path
         inkscape:connector-curvature="0"
         style="fill:#9d5025"
         pointer-events="none"
         d="m 494.85624,180.71169 0,2.69 c -0.02,0.14 -0.05,0.28 -0.09,0.42 l 0,-2.7 c 0.04,-0.13 0.07,-0.27 0.09,-0.41"
         id="path189" /><path
         inkscape:connector-curvature="0"
         style="fill:#9d5025"
         pointer-events="none"
         d="m 494.76624,181.12169 0,2.7 c -0.05,0.16 -0.12,0.31 -0.2,0.45 l 0,-2.69 c 0.08,-0.15 0.15,-0.3 0.2,-0.46"
         id="path191" /><path
         inkscape:connector-curvature="0"
         style="fill:#9d5025"
         pointer-events="none"
         d="m 494.56624,181.58169 0,2.69 c -0.43,0.8 -1.27,1.35 -2.24,1.35 l 0,-2.7 c 0.97,0 1.81,-0.54 2.24,-1.34"
         id="path193" /><path
         inkscape:connector-curvature="0"
         style="fill:#9d5025"
         pointer-events="none"
         d="m 494.88624,180.34169 0,2.69 c 0,1.42 -1.15,2.59 -2.56,2.59 l 0,-2.7 c 1.41,0 2.56,-1.16 2.56,-2.58 z"
         id="path195" /><path
         inkscape:connector-curvature="0"
         style="fill:#f58536"
         pointer-events="none"
         d="m 470.98624,128.62169 c 1.42,0 2.57,1.15 2.57,2.58 l 0,6.14 -17.63,0 c -1.42,0 -2.58,1.17 -2.58,2.59 l 0,18.01 -5.89,0 c -1.41,0 -2.57,-1.141 -2.57,-2.57 l 0,-24.17 c 0,-1.43 1.16,-2.58 2.57,-2.58 l 23.53,0 z"
         id="path197" /><path
         inkscape:connector-curvature="0"
         style="fill:#f58536"
         pointer-events="none"
         d="m 481.59624,141.08169 c 1.41,0 2.56,1.16 2.56,2.58 l 0,6.14 -17.63,0 c -1.42,0 -2.58,1.16 -2.58,2.6 l 0,18 -5.88,0 c -1.42,0 -2.58,-1.16 -2.58,-2.59 l 0,-24.15 c 0,-1.42 1.16,-2.58 2.58,-2.58 l 23.53,0 z"
         id="path199" /><path
         inkscape:connector-curvature="0"
         style="fill:#f58536"
         pointer-events="none"
         d="m 492.32624,153.60169 c 1.41,0 2.56,1.16 2.56,2.57 l 0,24.17 c 0,1.42 -1.15,2.58 -2.56,2.58 l -23.53,0 c -1.42,0 -2.57,-1.16 -2.57,-2.58 l 0,-24.17 c 0,-1.41 1.15,-2.57 2.57,-2.57 l 23.53,0 z"
         id="path201" /></g><g
       transform="matrix(1.554182,0,0,1.554182,-365.48455,-89.097602)"
       id="g4628"><path
         inkscape:connector-curvature="0"
         style="fill:#f58435"
         pointer-events="none"
         d="m 600.52724,357.82169 -29.15,9.149 0,-48.849 29.15,9.16 0,30.54 z"
         id="path203" /><path
         inkscape:connector-curvature="0"
         style="fill:#f58435"
         pointer-events="none"
         d="m 563.24624,359.51269 -6.57,1.27 0,-36.32 6.57,1.27 0,33.78 z"
         id="path205" /><path
         inkscape:connector-curvature="0"
         style="fill:#f58435"
         pointer-events="none"
         d="m 571.37624,361.62169 -8.13,1.98 0,-41.96 8.13,1.98 0,38 z"
         id="path207" /><path
         inkscape:connector-curvature="0"
         style="fill:#9d5025"
         pointer-events="none"
         d="m 567.10624,319.95169 4.271,-1.83 0,49 -4.271,-1.83 0,-45.34 z"
         id="path209" /><path
         inkscape:connector-curvature="0"
         style="fill:#9d5025"
         pointer-events="none"
         d="m 559.79624,323.12169 3.45,-1.48 0,41.961 -3.45,-1.48 0,-39.001 z"
         id="path211" /><path
         inkscape:connector-curvature="0"
         style="fill:#9d5025"
         pointer-events="none"
         d="m 556.67624,324.46169 -2.79,1.2 0,33.92 2.79,1.2 0,-36.32 z"
         id="path213" /><path
         inkscape:connector-curvature="0"
         style="fill:#9d5025"
         pointer-events="none"
         d="m 581.88624,336.78169 0,-23.16 -5.58,2.391 0,21.26 5.58,-0.491 z"
         id="path215" /><path
         inkscape:connector-curvature="0"
         style="fill:#9d5025"
         pointer-events="none"
         d="m 576.30624,347.83169 0,21.399 5.58,2.391 0,-23.3 -5.58,-0.49 z"
         id="path217" /><path
         inkscape:connector-curvature="0"
         style="fill:#f58435"
         pointer-events="none"
         d="m 596.82524,338.04169 0,-18.01 -14.939,-6.41 0,23.16 14.939,1.26 z"
         id="path219" /><path
         inkscape:connector-curvature="0"
         style="fill:#f58435"
         pointer-events="none"
         d="m 581.88624,348.32169 0,23.3 14.939,-6.41 0,-18.16 -14.939,1.27 z"
         id="path221" /><path
         inkscape:connector-curvature="0"
         style="fill:#f58435"
         pointer-events="none"
         d="m 609.88624,339.17169 0,-13.51 -7.96,-3.45 0,16.26 7.96,0.7 z"
         id="path223" /><path
         inkscape:connector-curvature="0"
         style="fill:#f58435"
         pointer-events="none"
         d="m 601.92624,346.63169 0,16.4 7.96,-3.45 0,-13.649 -7.96,0.699 z"
         id="path225" /><path
         inkscape:connector-curvature="0"
         style="fill:#6b3b19"
         pointer-events="none"
         d="m 596.82524,338.04169 -5.5,0.29 -15.02,-1.06 5.58,-0.49 14.94,1.26 z"
         id="path227" /><path
         inkscape:connector-curvature="0"
         style="fill:#fbbf92"
         pointer-events="none"
         d="m 596.82524,347.05169 -5.17,-0.279 -15.35,1.06 5.33,0.49 15.19,-1.271 z"
         id="path229" /><path
         inkscape:connector-curvature="0"
         style="fill:#9d5025"
         pointer-events="none"
         d="m 598.38624,322.98069 3.54,-0.77 0,16.26 -3.54,0.211 0,-15.701 z"
         id="path231" /><path
         inkscape:connector-curvature="0"
         style="fill:#9d5025"
         pointer-events="none"
         d="m 598.38624,362.26269 3.54,0.77 0,-16.4 -3.54,-0.211 0,15.841 z"
         id="path233" /><path
         inkscape:connector-curvature="0"
         style="fill:#fbbf92"
         pointer-events="none"
         d="m 609.88624,345.93269 -3.2,-0.141 -8.3,0.63 3.54,0.21 7.96,-0.699 z"
         id="path235" /><path
         inkscape:connector-curvature="0"
         style="fill:#6b3b19"
         pointer-events="none"
         d="m 609.88624,339.17169 -3.2,0.14 -8.3,-0.629 3.54,-0.211 7.96,0.7 z"
         id="path237" /></g><path
       id="path291"
       d="m 548.99011,59.038989 0,0.09325 -0.0466,-0.06217 0.0466,-0.03108 z"
       pointer-events="none"
       style="fill:#19486f"
       inkscape:connector-curvature="0" /><path
       id="path293"
       d="m 615.77331,48.843555 0,3.559077 c 0,0.108792 0,0.217585 -0.0155,0.34192 l 0,-3.543535 c 0.0155,-0.124335 0.0155,-0.233128 0.0155,-0.357462"
       pointer-events="none"
       style="fill:#19486f"
       inkscape:connector-curvature="0" /><path
       id="path295"
       d="m 615.75777,49.201017 0,3.543535 c -0.0155,0.124334 -0.0622,0.248669 -0.10879,0.404087 l 0,-3.543535 c 0.0466,-0.124335 0.0933,-0.279753 0.10879,-0.404087"
       pointer-events="none"
       style="fill:#19486f"
       inkscape:connector-curvature="0" /><path
       id="path297"
       d="m 615.64898,49.605104 0,3.543535 c -0.0622,0.17096 -0.13988,0.357462 -0.23313,0.543964 l 0,-3.559077 c 0.0933,-0.186502 0.17096,-0.34192 0.23313,-0.528422"
       pointer-events="none"
       style="fill:#19486f"
       inkscape:connector-curvature="0" /><path
       id="path299"
       d="m 615.41585,50.133526 0,3.559077 c -2.42452,4.134124 -16.27229,7.304655 -32.99373,7.304655 -18.40152,0 -33.35275,-3.869913 -33.35275,-8.594626 l 0,-3.559077 c 0,4.755797 14.95123,8.62571 33.35275,8.62571 16.72144,0 30.56921,-3.201615 32.99373,-7.335739"
       pointer-events="none"
       style="fill:#19486f"
       inkscape:connector-curvature="0" /><path
       id="path301"
       d="m 615.77331,48.843555 0,3.559077 c 0,4.724713 -14.92015,8.594626 -33.35274,8.594626 -18.40152,0 -33.35275,-3.869913 -33.35275,-8.594626 l 0,-3.559077 c 0,4.755797 14.95123,8.62571 33.35275,8.62571 18.43259,0 33.35274,-3.869913 33.35274,-8.62571 z"
       pointer-events="none"
       style="fill:#19486f"
       inkscape:connector-curvature="0" /><path
       id="path303"
       d="m 582.42057,40.233386 c 18.43259,0 33.35274,3.83883 33.35274,8.610169 0,4.755797 -14.92015,8.62571 -33.35274,8.62571 -18.40152,0 -33.35275,-3.869913 -33.35275,-8.62571 0,-4.771339 14.95123,-8.610169 33.35275,-8.610169 z"
       pointer-events="none"
       style="fill:#2e73b7"
       inkscape:connector-curvature="0" /><path
       id="path305"
       d="m 615.71114,113.85499 0,3.54354 c 0,0.13987 -0.0155,0.27975 -0.0326,0.41963 l 0,-3.528 c 0.0171,-0.13987 0.0326,-0.29529 0.0326,-0.43517"
       pointer-events="none"
       style="fill:#19486f"
       inkscape:connector-curvature="0" /><path
       id="path307"
       d="m 615.67851,114.29016 0,3.528 c -0.0311,0.1865 -0.0762,0.38854 -0.15542,0.57504 l 0,-3.55907 c 0.0808,-0.18651 0.11035,-0.35747 0.15542,-0.54397"
       pointer-events="none"
       style="fill:#19486f"
       inkscape:connector-curvature="0" /><path
       id="path309"
       d="m 615.52464,114.83413 0,3.55907 c -0.0777,0.21759 -0.15542,0.43517 -0.27975,0.65276 l 0,-3.52799 c 0.12433,-0.23313 0.20204,-0.45072 0.27975,-0.68384"
       pointer-events="none"
       style="fill:#19486f"
       inkscape:connector-curvature="0" /><path
       id="path311"
       d="m 615.24489,115.51797 0,3.52799 c -2.68873,4.67809 -16.41372,8.23716 -32.93312,8.23716 -18.41705,0 -33.35274,-4.41387 -33.35274,-9.83797 l 0,-3.55907 c 0,5.43963 14.93569,9.83797 33.35274,9.83797 16.52096,0 30.24439,-3.528 32.93312,-8.20608"
       pointer-events="none"
       style="fill:#19486f"
       inkscape:connector-curvature="0" /><path
       id="path313"
       d="m 615.71114,113.85499 0,3.54354 c -0.0326,5.47072 -14.98231,9.88459 -33.39937,9.88459 -18.41705,0 -33.35274,-4.41387 -33.35274,-9.83797 l 0,-3.55907 c 0,5.43963 14.93569,9.83797 33.35274,9.83797 18.41706,0 33.36674,-4.39834 33.39937,-9.86906 z"
       pointer-events="none"
       style="fill:#19486f"
       inkscape:connector-curvature="0" /><path
       id="path315"
       d="m 615.67851,55.852916 c -1.86347,5.159884 -14.93414,8.252706 -33.36829,8.252706 -18.35489,0 -30.91268,-3.512451 -33.31856,-8.516917 l -0.0326,58.297375 c 0,5.43963 14.93569,9.83797 33.35274,9.83797 18.41861,0 33.36829,-4.39834 33.39937,-9.86906 l -0.0326,-58.002074 z"
       pointer-events="none"
       style="fill:#2e73b7"
       inkscape:connector-curvature="0" /><path
       id="path317"
       d="m 560.56877,73.788176 12.5267,0 9.46497,27.835404 0.12434,0 8.93654,-27.835404 12.54225,0 0,40.501984 -8.33041,0 0,-28.705742 -0.12434,0 -9.91568,28.705742 -6.86948,0 -9.90014,-28.425989 -0.12434,0 0,28.425989 -8.33041,0 0,-40.501984 z"
       pointer-events="none"
       style="fill:#ffffff"
       inkscape:connector-curvature="0" /><g
       transform="matrix(1.554182,0,0,1.554182,-311.89656,15.101287)"
       id="g4708"><g
         transform="matrix(0.37135823,0,0,0.37135823,386.08916,86.471016)"
         id="g4872"><path
           style="opacity:1;fill:#f58536"
           inkscape:connector-curvature="0"
           pointer-events="none"
           d="m 378.67528,200.63241 -16.54665,3.81845 0,-108.381759 16.54665,3.818458 0,100.744851 z"
           id="path27-1" /><path
           style="opacity:1;fill:#f58536"
           inkscape:connector-curvature="0"
           pointer-events="none"
           d="m 399.32857,207.04453 -20.65329,5.93182 0,-125.264628 20.65329,5.907802 0,113.425006 z"
           id="path29-8" /><path
           style="opacity:1;fill:#f58536"
           inkscape:connector-curvature="0"
           pointer-events="none"
           d="m 425.86565,213.60075 -26.53708,9.82232 0,-146.158073 26.53708,9.798307 0,126.537446 z"
           id="path31-1" /><path
           style="opacity:1;fill:#f58536"
           inkscape:connector-curvature="0"
           pointer-events="none"
           d="m 496.71125,200.96862 -70.8456,35.80705 0,-172.911298 70.8456,35.807048 0,101.2972 z"
           id="path33-2" /><path
           style="opacity:1;fill:#9d5025"
           inkscape:connector-curvature="0"
           pointer-events="none"
           d="m 411.72055,70.996963 14.1451,-7.132591 0,172.911298 -14.1451,-7.13259 0,-158.646117 z"
           id="path35" /><path
           style="opacity:1;fill:#9d5025"
           inkscape:connector-curvature="0"
           pointer-events="none"
           d="m 388.40154,82.788553 10.92703,-5.523556 0,146.110043 -10.92703,-5.52355 0,-135.062937 z"
           id="path37-8" /><path
           style="opacity:1;fill:#9d5025"
           inkscape:connector-curvature="0"
           pointer-events="none"
           d="m 369.95767,92.10655 8.71761,-4.418844 0,125.264634 -8.71761,-4.41885 0,-116.42694 z"
           id="path39-0" /><path
           style="opacity:1;fill:#9d5025"
           inkscape:connector-curvature="0"
           pointer-events="none"
           d="m 362.12863,96.069101 -7.10858,3.578303 0,101.345236 7.10858,3.5783 0,-108.501839 z"
           id="path41-6" /></g></g><g
       transform="matrix(0.51541466,0,0,0.51541466,22.464496,-119.48053)"
       id="g4960"><path
         id="path75-4"
         d="m 818.51839,438.72166 17.72341,21.06155 0,-138.61482 -17.72341,21.03514 0,96.51813 z"
         pointer-events="none"
         inkscape:connector-curvature="0"
         style="opacity:1;fill:#1a476f" /><path
         id="path77-3"
         d="m 836.2418,459.78081 33.83778,17.14944 0.024,-172.9113 -33.8618,17.09901 0,138.66285 z"
         pointer-events="none"
         inkscape:connector-curvature="0"
         style="opacity:1;fill:#205b98" /><path
         id="path79-4"
         d="m 969.81578,342.20353 -17.72341,-21.03754 0,138.61482 17.72341,-21.06156 0,-96.51572 z"
         pointer-events="none"
         inkscape:connector-curvature="0"
         style="opacity:1;fill:#2d72b8" /><path
         id="path81-7"
         d="m 918.23298,476.93025 33.86179,-17.14944 0,-138.66285 -33.88821,-17.09901 0.0264,172.9113 z"
         pointer-events="none"
         inkscape:connector-curvature="0"
         style="opacity:1;fill:#5294cf" /><rect
         id="rect83"
         height="172.9113"
         width="48.129379"
         pointer-events="none"
         y="304.01895"
         x="870.1012"
         style="opacity:1;fill:#2d72b8" /></g></g><g
     id="g287"
     transform="matrix(1.5430506,0,0,1.5430506,233.56884,-26.300767)"><g
       id="layer1"
       transform="translate(-273.27313,-435.95455)"
       inkscape:groupmode="layer"
       inkscape:label="Red1"><path
         id="path3907"
         sodipodi:nodetypes="cszcszc"
         inkscape:connector-curvature="0"
         d="m 332.735,633.647 c 0,0 0.238,-37.322 0.238,-75.263 0,-73.488 -6.192,-78.962 26.781,-78.962 32.973,0 91.779,0 91.779,0 0,0 0,71.106 0,106 0,34.895 6.522,48.564 -30.148,48.564 -36.67,0 -88.65,-0.339 -88.65,-0.339 l 0,0 z"
         style="fill:#a62c39" /></g><g
       id="layer4"
       transform="translate(-273.27313,-435.95455)"
       inkscape:groupmode="layer"
       inkscape:label="Red2"><linearGradient
         id="linearGradient3531"
         gradientUnits="userSpaceOnUse"
         x1="-141.9691"
         y1="1281.4927"
         x2="-113.5241"
         y2="1296.3914"
         gradientTransform="matrix(1,0,0,-1,563.0854,1821.0303)"><stop
           offset="0"
           style="stop-color:#FFFFFF"
           id="stop3533" /><stop
           offset="1"
           style="stop-color:#C0815E"
           id="stop3535" /></linearGradient><path
         id="path3947"
         inkscape:connector-curvature="0"
         d="m 408.404,493.286 c 0,0 5.881,1.177 10.979,9.802 5.097,8.626 32.149,75.67 32.149,75.67 l 0,-54.498 -25.093,-40.775 7.058,8.626 13.33,-10.978 -17.251,-1.177 -21.172,13.33 z"
         style="fill:url(#path3947_1_)" /></g><g
       id="layer3"
       transform="translate(-273.27313,-435.95455)"
       inkscape:groupmode="layer"
       inkscape:label="Red3"><radialGradient
         id="radialGradient3539"
         cx="-158.7982"
         cy="1311.4702"
         r="48.529598"
         gradientTransform="matrix(1,0,0,-1.5817,563.0854,2630.5657)"
         gradientUnits="userSpaceOnUse"><stop
           offset="0"
           style="stop-color:#FFFFFF"
           id="stop3541" /><stop
           offset="1"
           style="stop-color:#A94436"
           id="stop3543" /></radialGradient><path
         id="path3934"
         inkscape:connector-curvature="0"
         enable-background="new    "
         d="m 356.258,480.348 c 0,0 38.815,25.876 57.635,30.974 18.819,5.097 38.423,10.585 38.423,10.585 l -44.696,109.78 19.212,0.784 25.092,-61.947 -0.783,-90.568 -94.883,0.392 z"
         style="opacity:0.66820003;fill:url(#path3934_1_)" /><path
         id="path3960"
         sodipodi:nodetypes="cccscc"
         inkscape:connector-curvature="0"
         d="m 392.33,596.008 40.377,38.835 -75.272,-1.588 c 0,0 -2.352,-23.916 -1.568,-36.463 0.784,-12.546 4.705,-12.546 4.705,-12.546 l 31.758,11.762 z"
         style="fill:#ffffff;fill-opacity:0.43960003" /></g><g
       id="layer5"
       transform="translate(-273.27313,-435.95455)"
       inkscape:groupmode="layer"
       inkscape:label="Red4"><path
         id="path3958"
         sodipodi:nodetypes="cccccccccc"
         inkscape:connector-curvature="0"
         d="m 429.576,634.04 -36.463,-37.639 -33.326,-12.547 -25.876,-57.634 27.445,-45.872 -18.427,-0.784 -7.449,7.057 -2.745,5.489 -1.96,142.714 98.801,-0.784 z"
         style="fill-opacity:0.36230002" /><path
         id="path3962"
         inkscape:connector-curvature="0"
         enable-background="new    "
         d="m 451.924,574.052 c 0,0 -36.854,11.763 -58.811,22.74 -21.956,10.979 -33.718,37.639 -33.718,37.639 0,0 47.048,-2.353 64.691,-1.568 17.643,0.785 25.877,0.784 27.445,-23.916 1.568,-24.7 0.393,-34.895 0.393,-34.895 l 0,0 z"
         style="opacity:0.5;fill:#83222d" /></g><g
       id="layer7"
       transform="translate(-273.27313,-435.95455)"
       inkscape:groupmode="layer"
       inkscape:label="RAILS"><path
         id="path3993"
         inkscape:connector-curvature="0"
         d="m 344.095,597.468 0,23.156 5.906,0 0,-6.031 5.375,5.375 9.062,0 -7.188,-7.188 c 0,0 5.17,-0.084 5.562,-7.562 0,-6.861 -5.177,-7.75 -11.156,-7.75 l -7.561,0 z m 6.187,6.282 5.094,0 0,4.125 -5.094,0 0,-4.125 z"
         style="fill:#ffffff" /><path
         id="path3997"
         inkscape:connector-curvature="0"
         d="m 375.845,597.562 c -3.234,-0.019 -7.719,0.281 -7.719,6.375 l 0,16.094 6.062,0 0,-3.938 5.875,0 0,3.844 6.094,0 0,-16.875 c 0,-5.293 -5.881,-5.5 -9.031,-5.5 -0.394,0 -0.82,0.003 -1.281,0 z m -1.563,5.813 5.688,0 0,6.344 -5.688,0 0,-6.344 z"
         style="fill:#ffffff" /><rect
         id="rect4001"
         x="392.23099"
         y="597.57703"
         width="6.2719998"
         height="22.152"
         style="fill:#ffffff" /><path
         id="path4003"
         inkscape:connector-curvature="0"
         d="m 405.072,597.871 0,22.152 15.094,0 0,-5.881 -8.919,0 0,-16.369 -6.175,0.098 z"
         style="fill:#ffffff" /><path
         id="path4005"
         sodipodi:nodetypes="ccccsssccsssssc"
         inkscape:connector-curvature="0"
         d="m 440.162,597.675 0,5.979 -10.096,0 0,2.156 c 0,0 2.059,0 4.312,0 2.253,0 6.959,-0.098 6.959,6.959 0,7.058 -3.234,7.45 -9.801,7.45 -6.568,0 -7.939,0 -7.939,0 l 0,-5.392 c 0,0 6.371,0 9.115,0 2.744,0 2.896,-0.894 2.896,-1.672 0,-0.778 -1.403,-1.141 -4.257,-1.141 -2.854,0 -8.146,-1.402 -8.146,-6.891 0,-5.489 2.744,-7.548 8.233,-7.548 5.489,0 8.724,0.099 8.724,0.1 l 0,0 z"
         style="fill:#ffffff" /></g><g
       id="layer6"
       transform="translate(-273.27313,-435.95455)"
       inkscape:groupmode="layer"
       inkscape:label="Logo (white part)"><path
         id="path3966"
         sodipodi:nodetypes="ccssccsszc"
         inkscape:connector-curvature="0"
         d="m 349.593,590.912 52.146,0 c 0,0 -11.566,-26.269 -8.626,-50.381 2.941,-24.112 21.956,-35.091 32.738,-36.267 10.781,-1.177 16.663,5.489 16.663,5.489 l 2.353,-3.529 c 0,0 -15.487,-15.683 -35.091,-13.918 -19.604,1.764 -33.13,14.702 -41.559,30.385 -8.43,15.684 -13.331,26.661 -16.663,43.128 -3.332,16.467 -1.961,25.093 -1.961,25.093 z"
         style="fill:#ffffff" /><path
         id="path3968"
         inkscape:connector-curvature="0"
         d="m 339.204,564.643 10.194,0.784 -1.765,10.193 -9.605,-1.176 1.176,-9.801 z"
         style="fill:#ffffff" /><path
         id="path3970"
         inkscape:connector-curvature="0"
         d="m 355.279,543.079 2.745,-7.645 -9.018,-3.529 -2.94,8.233 9.213,2.941 z"
         style="fill:#ffffff" /><path
         id="path3972"
         inkscape:connector-curvature="0"
         d="m 368.021,516.81 5.293,-6.272 -6.861,-4.509 -5.489,6.076 7.057,4.705 z"
         style="fill:#ffffff" /><path
         id="path3974"
         inkscape:connector-curvature="0"
         d="m 381.939,492.501 4.705,5.686 6.469,-3.725 -4.705,-5.293 -6.469,3.332 z"
         style="fill:#ffffff" /><path
         id="path3976"
         inkscape:connector-curvature="0"
         d="m 404.876,486.033 1.176,5.686 8.038,-0.196 -0.785,-5.097 -8.429,-0.393 z"
         style="fill:#ffffff" /><path
         id="path3978"
         inkscape:connector-curvature="0"
         d="m 432.125,492.11 -0.196,3.528 5.489,2.94 1.176,-1.764 -6.469,-4.704 z"
         style="fill:#ffffff" /><path
         id="path3980"
         inkscape:connector-curvature="0"
         d="m 430.948,507.205 0,2.94 5.293,0.588 0,-2.353 -5.293,-1.175 z"
         style="fill:#ffffff" /><path
         id="path3982"
         inkscape:connector-curvature="0"
         d="m 414.09,509.753 2.548,4.704 3.725,-2.94 -0.784,-3.137 -5.489,1.373 z"
         style="fill:#ffffff" /><path
         id="path3984"
         inkscape:connector-curvature="0"
         d="m 406.051,515.831 3.921,5.881 -2.353,4.116 -5.685,-6.272 4.117,-3.725 z"
         style="fill:#ffffff" /><path
         id="path3986"
         inkscape:connector-curvature="0"
         d="m 398.211,532.101 -2.549,5.097 6.665,5.686 1.568,-6.47 -5.684,-4.313 z"
         style="fill:#ffffff" /><path
         id="path3988"
         inkscape:connector-curvature="0"
         d="m 395.466,549.94 -0.392,6.861 8.233,3.529 -0.392,-6.47 -7.449,-3.92 z"
         style="fill:#ffffff" /><path
         id="path3990"
         inkscape:connector-curvature="0"
         d="m 397.818,574.249 1.961,7.058 10.39,0.588 -3.726,-7.646 -8.625,0 z"
         style="fill:#ffffff" /></g><g
       id="g3911"
       transform="translate(-273.27313,-435.95455)"
       inkscape:groupmode="layer"
       inkscape:label="Red.border"><path
         id="path3913"
         sodipodi:nodetypes="cszcszc"
         inkscape:connector-curvature="0"
         d="m 332.735,633.647 c 0,0 0.238,-37.322 0.238,-75.263 0,-73.488 -6.192,-78.962 26.781,-78.962 32.973,0 91.779,0 91.779,0 0,0 0,71.106 0,106 0,34.895 4.954,48.564 -30.148,48.564 -35.102,0 -88.65,-0.339 -88.65,-0.339 l 0,0 z"
         style="fill:none;stroke:#5e000e;stroke-width:3" /></g></g><g
     transform="matrix(1.3256244,0,0,1.3256244,-222.74534,10.730577)"
     id="g3579"><path
       d="m 470.39584,237.17229 10e-4,-0.001 -0.922,3.265 0.921,-3.264 0,0 z"
       id="path331"
       style="fill:#ffffff"
       inkscape:connector-curvature="0" /><path
       d="m 475.13484,244.26129 -1.016,-0.006 1.016,0.006 z"
       id="path333"
       style="fill:#131b28"
       inkscape:connector-curvature="0" /><path
       d="m 474.87284,249.13729 0,0 -6.081,0.022 6.081,-0.022 0,0 z"
       id="path335"
       style="fill:#131b28"
       inkscape:connector-curvature="0" /><path
       d="m 476.14884,244.26729 -1.016,-0.006 1.016,0.006 z"
       id="path337"
       style="fill:#131b28"
       inkscape:connector-curvature="0" /><path
       d="m 475.40684,248.72329 1.06,-4.041 -1.06,4.041 0,0 0,0 z"
       id="path339"
       style="fill:#131b28"
       inkscape:connector-curvature="0" /><path
       d="m 497.80184,230.11429 -1.974,9.279 1.974,-9.279 z"
       id="path341"
       style="fill:#ffffff"
       inkscape:connector-curvature="0" /><path
       d="m 492.72784,230.11429 -1.498,6.932 1.498,-6.932 0,0 z"
       id="path343"
       style="fill:#ffffff"
       inkscape:connector-curvature="0" /><path
       d="m 497.46384,229.69629 -4.221,0 c -0.234,0 -0.467,0.188 -0.517,0.417 l -1.499,6.933 -1.498,6.933 c -0.05,0.229 -0.282,0.416 -0.517,0.416 l -2.561,0 -0.427,0 c -2.955,0 -2.613,-2.044 -2.008,-4.845 0.006,-0.028 0.012,-0.056 0.018,-0.084 l 0.066,-0.353 c 0.005,-0.023 0.009,-0.045 0.013,-0.066 l 0.135,-0.719 0.145,-0.771 c 0.044,-0.232 0.111,-0.572 0.154,-0.785 l 0.682,-3.328 0.682,-3.329 c 0.047,-0.229 -0.106,-0.418 -0.341,-0.418 l -4.333,0 c -0.233,0 -0.466,0.188 -0.514,0.417 l -0.931,4.419 -0.932,4.419 c -0.001,0.001 -0.001,0.004 -0.002,0.006 l -0.086,0.411 c -1.073,4.898 -0.789,9.57 5.042,9.716 0.096,0.003 0.17,0.003 0.17,0.003 l 9.152,0 c 0.234,0 0.467,-0.188 0.516,-0.417 l 1.974,-9.279 1.974,-9.279 c 0.05,-0.229 -0.102,-0.417 -0.336,-0.417 l 0,0 z"
       id="path345"
       style="fill:#ffffff"
       inkscape:connector-curvature="0" /><path
       d="m 514.30083,244.44229 c 0.234,0 0.388,0.188 0.341,0.417 l -0.409,2.003"
       id="path347"
       style="fill:#131b28"
       inkscape:connector-curvature="0" /><path
       d="m 513.82283,248.86729 0.41,-2.004 -0.41,2.004 c 0,0 0,0 0,0 l 0,0 z"
       id="path349"
       style="fill:#131b28"
       inkscape:connector-curvature="0" /><path
       d="m 513.30883,249.28929 c 0.001,0 0.002,-0.001 0.002,-0.001 -1.242,0.01 -4.97499,0.039 -7.77899,0.039 3.41399,-0.001 7.77699,-0.038 7.77699,-0.038 l 0,0 z"
       id="path351"
       style="fill:#131b28"
       inkscape:connector-curvature="0" /><path
       d="m 503.01284,241.86229 c -0.003,-0.219 0.246,-0.597 0.481,-0.597 l -0.527,-0.008 c -0.238,2.388 0.046,0.605 0.046,0.605 z"
       id="path353"
       style="fill:#131b28"
       inkscape:connector-curvature="0" /><path
       d="m 505.91484,249.32529 c -0.026,0 -0.054,0 -0.081,0 0.028,0 0.055,0 0.081,0 z"
       id="path355"
       style="fill:#131b28"
       inkscape:connector-curvature="0" /><path
       d="m 514.30083,244.44229 c 0.234,0 0.388,0.188 0.341,0.417 l -0.409,2.003 -0.067,0.327"
       id="path357"
       style="fill:#131b28"
       inkscape:connector-curvature="0" /><path
       d="m 507.91384,249.32129 -0.017,0 0.017,0 z"
       id="path359"
       style="fill:#131b28"
       inkscape:connector-curvature="0" /><path
       d="m 506.87684,249.32429 -0.06,0 0.06,0 z"
       id="path361"
       style="fill:#131b28"
       inkscape:connector-curvature="0" /><path
       d="m 506.56084,249.32529 c -0.033,0 -0.065,0 -0.099,0 0.034,0 0.066,0 0.099,0 z"
       id="path363"
       style="fill:#131b28"
       inkscape:connector-curvature="0" /><path
       d="m 506.23984,249.32529 -0.087,0 0.087,0 z"
       id="path365"
       style="fill:#131b28"
       inkscape:connector-curvature="0" /><path
       d="m 506.81684,249.32429 c -0.085,0 -0.171,0 -0.256,0 0.085,0 0.171,0 0.256,0 z"
       id="path367"
       style="fill:#131b28"
       inkscape:connector-curvature="0" /><path
       d="m 507.89684,249.32129 c -0.341,0.001 -0.682,0.002 -1.018,0.003 0.336,0 0.677,-0.002 1.018,-0.003 z"
       id="path369"
       style="fill:#131b28"
       inkscape:connector-curvature="0" /><path
       d="m 513.31183,249.28829 0,0 c -0.909,0.007 -3.158,0.024 -5.39899,0.033 2.23999,-0.009 4.48899,-0.026 5.39899,-0.033 z"
       id="path371"
       style="fill:#131b28"
       inkscape:connector-curvature="0" /><path
       d="m 513.82283,248.86829 0.344,-1.678 -0.344,1.678 c 0,0 0,0 0,0 l 0,0 z"
       id="path373"
       style="fill:#131b28"
       inkscape:connector-curvature="0" /><path
       d="m 506.46184,249.32529 -0.223,0 0.223,0 z"
       id="path375"
       style="fill:#131b28"
       inkscape:connector-curvature="0" /><path
       d="m 505.83284,249.32629 -0.302,0 0.302,0 z"
       id="path377"
       style="fill:#131b28"
       inkscape:connector-curvature="0" /><path
       d="m 506.15184,249.32529 -0.237,0 0.237,0 z"
       id="path379"
       style="fill:#131b28"
       inkscape:connector-curvature="0" /><path
       d="m 444.41184,241.91329 0.655,-2.907 -0.749,3.322 -0.72,3.384 0.631,-2.967 c 0.049,-0.229 0.131,-0.604 0.183,-0.832 l 0,0 z"
       id="path381"
       style="fill:#131b28"
       inkscape:connector-curvature="0" /><path
       d="m 452.25884,229.64729 -4.636,0 c -0.234,0 -0.469,0.188 -0.521,0.416 l -0.439,1.94 -0.439,1.94 c -0.052,0.229 0.098,0.416 0.332,0.416 l 4.671,0 c 0.234,0 0.467,-0.187 0.518,-0.416 l 0.425,-1.94 0.425,-1.938 0,0 c 0.049,-0.231 -0.101,-0.418 -0.336,-0.418 l 0,0 z"
       id="path383"
       style="fill:#ffffff"
       inkscape:connector-curvature="0" /><path
       d="m 451.24984,236.10029 0,0 -1.359,6.289 1.359,-6.289 z"
       id="path385"
       style="fill:#ffffff"
       inkscape:connector-curvature="0" /><path
       d="m 437.78484,256.93929 c 0,0 2.337,0.03 3.822,0.03 -1.128,0 -2.992,-0.02 -3.822,-0.03 -10e-4,0 0,0 0,0 l 0,0 z"
       id="path387"
       style="fill:#131b28"
       inkscape:connector-curvature="0" /><path
       d="m 445.72284,236.10029 -0.656,2.906 0.656,-2.906 z"
       id="path389"
       style="fill:#ffffff"
       inkscape:connector-curvature="0" /><path
       d="m 450.91484,235.68429 -4.672,0 c -0.233,0 -0.468,0.187 -0.52,0.416 l -0.656,2.906 -0.656,2.906 c -0.051,0.229 -0.134,0.604 -0.183,0.833 l -0.63,2.966 -0.631,2.967 c -0.049,0.229 -0.149,0.599 -0.225,0.82 0,0 -0.872,2.597 -2.34,2.567 -0.062,-0.001 -0.123,-0.002 -0.183,-0.003 -0.711,-0.013 -1.27,-0.023 -1.27,-0.023 l -0.001,0 c -0.234,-0.003 -0.47,0.179 -0.524,0.407 l -0.484,2.037 -0.483,2.035 c -0.055,0.228 0.093,0.416 0.325,0.42 0.832,0.01 2.695,0.03 3.823,0.03 3.665,0 5.598,-2.03 6.836,-7.874 l 1.449,-6.706 1.359,-6.29 c 0.051,-0.227 -0.1,-0.414 -0.334,-0.414 l 0,0 z"
       id="path391"
       style="fill:#ffffff"
       inkscape:connector-curvature="0" /><path
       d="m 517.27783,249.08829 c -0.233,0 -0.386,-0.188 -0.337,-0.418 l 3.515,-16.461"
       id="path393"
       style="fill:#ffffff"
       inkscape:connector-curvature="0" /><path
       d="m 522.16283,248.67029 1.421,-7.026 -1.421,7.026 z"
       id="path395"
       style="fill:#131b28"
       inkscape:connector-curvature="0" /><path
       d="m 516.99283,248.87929 c -0.029,-0.114 -0.012,-0.396 0.037,-0.625 l 1.668,-7.813 -1.757,8.23 c -0.049,0.229 0.103,0.417 0.337,0.417 l 0.427,0 c -0.235,0 -0.684,-0.093 -0.712,-0.209 l 0,0 z"
       id="path397"
       style="fill:#131b28"
       inkscape:connector-curvature="0" /><path
       d="m 521.88483,248.99529 c -0.128,0.051 -0.425,0.094 -0.659,0.094 l 0.427,0 c 0.234,0 0.465,-0.188 0.511,-0.418 l 0.085,-0.418 c -0.047,0.229 -0.237,0.69 -0.364,0.742 z"
       id="path399"
       style="fill:#131b28"
       inkscape:connector-curvature="0" /><path
       d="m 522.87383,245.15729 0.627,-3.101 c 0,0.002 0,0.005 -10e-4,0.006 l -0.626,3.095 0,0 z"
       id="path401"
       style="fill:#131b28"
       inkscape:connector-curvature="0" /><path
       d="m 536.74083,233.31229 0.193,0.8 c 0.054,0.229 -0.095,0.415 -0.328,0.415"
       id="path403"
       style="fill:#ffffff"
       inkscape:connector-curvature="0" /><path
       d="m 522.24783,248.25329 0.626,-3.095 -0.626,3.095 z"
       id="path405"
       style="fill:#131b28"
       inkscape:connector-curvature="0" /><path
       d="m 536.54783,232.49329 0.191,0.82 -0.191,-0.82 z"
       id="path407"
       style="fill:#ffffff"
       inkscape:connector-curvature="0" /><path
       d="m 523.50083,242.05629 c 0.046,-0.229 0.123,-0.601 0.172,-0.828 l 0.67,-3.139 -0.759,3.556 -0.083,0.411 0,0 z"
       id="path409"
       style="fill:#ffffff"
       inkscape:connector-curvature="0" /><path
       d="m 520.51283,231.94029 c -0.047,0.222 -0.106,0.501 -0.146,0.687 l -1.668,7.814 1.757,-8.231 0.057,-0.27 0,0 z"
       id="path411"
       style="fill:#ffffff"
       inkscape:connector-curvature="0" /><path
       d="m 536.93283,234.11229 -0.194,-0.8 -0.19,-0.82 -0.098,-0.415 c -0.379,-1.474 -1.493,-2.325 -3.911,-2.325 l -3.767,-0.004 -3.468,-0.004 -0.297,0 -3.604,0 c -0.234,0 -0.467,0.187 -0.515,0.417 l 0,0 -0.173,0.815 -0.204,0.963 -0.056,0.27 -1.757,8.231 -1.668,7.813 c -0.051,0.229 -0.066,0.511 -0.038,0.625 0.028,0.115 0.478,0.209 0.712,0.209 l 3.521,0 c 0.234,0 0.531,-0.042 0.658,-0.094 0.128,-0.052 0.316,-0.513 0.363,-0.742 l 0.626,-3.095 0.627,-3.095 c 0,-0.001 0,-0.004 10e-4,-0.006 l 0.083,-0.412 0.759,-3.556 0.671,-3.141 c 0.05,-0.228 0.28,-0.415 0.514,-0.416 l 11.077,-0.005 c 0.233,0.002 0.382,-0.184 0.328,-0.413 l 0,0 z"
       id="path413"
       style="fill:#ffffff"
       inkscape:connector-curvature="0" /><path
       d="m 551.19283,226.88029 c -0.234,0.001 -0.618,0.003 -0.854,0.003 l -3.545,0 c -0.234,0 -0.534,0.158 -0.667,0.352 l -7.84,11.485 c -0.132,0.194 -0.283,0.165 -0.335,-0.063 l -0.577,-2.531 c -0.052,-0.229 -0.287,-0.415 -0.521,-0.415 l -5.04,0 c -0.235,0 -0.374,0.184 -0.31,0.409 l 2.259,7.911 c 0.063,0.226 0.068,0.596 0.011,0.823 l -0.984,3.829 c -0.059,0.227 0.086,0.413 0.32,0.413 l 4.981,0 c 0.233,0 0.474,-0.186 0.531,-0.413 l 0.985,-3.829 c 0.058,-0.227 0.221,-0.566 0.362,-0.754 l 12.727,-16.892 c 0.142,-0.187 0.065,-0.339 -0.169,-0.338 l -1.334,0.01 0,0 z"
       id="path415"
       style="fill:#ffffff"
       inkscape:connector-curvature="0" /><path
       d="m 511.15183,236.78829 0,-0.004 c -0.03,0.254 -0.265,0.441 -0.499,0.441 l -6.38999,0 c -0.221,0 -0.333,-0.15 -0.301,-0.335 0.002,-0.005 0.003,-0.01 0.007,-0.015 0,0 -0.003,0 -0.004,0.002 0.001,-0.007 0.001,-0.014 0.003,-0.021 0,0 0.013,-0.045 0.029,-0.108 0.61,-1.623 1.854,-2.688 4.189,-2.688 2.63099,-0.002 3.14499,1.283 2.96599,2.728 l 0,0 z m -1.874,-7.375 c -8.20299,0 -10.14599,4.979 -11.23599,10.003 -1.091,5.122 -0.996,9.91 7.49,9.91 l 0.302,0 c 0.026,0 0.055,0 0.081,0 l 0.237,0 0.088,0 0.223,0 c 0.032,0 0.065,0 0.099,0 0.085,0 0.17,-0.001 0.256,-0.001 l 0.061,0 c 0.336,0 0.676,-0.002 1.019,-0.003 l 0.017,0 c 2.24099,-0.009 4.48899,-0.026 5.39999,-0.033 0.232,-0.003 0.461,-0.191 0.508,-0.418 l 0.344,-1.68 0.067,-0.327 0.409,-2.003 c 0.048,-0.23 -0.105,-0.418 -0.341,-0.418 l -7.62999,0 c -3.034,0 -3.936,-0.806 -3.604,-3.177 l 12.19699,0 -0.002,0.001 c 0.004,0 0.006,-0.001 0.009,-0.001 0.194,-0.004 0.373,-0.137 0.444,-0.315 0.014,-0.034 0.025,-0.07 0.029,-0.107 l -10e-4,0.001 c 1.811,-6.831 1.292,-11.432 -6.466,-11.432 l 0,0 z"
       id="path417"
       style="fill:#ffffff"
       inkscape:connector-curvature="0" /><path
       d="m 470.51184,236.76229 -0.116,0.409 c 0,0.001 0,0.001 0,0.001 l -0.921,3.264 -0.921,3.264 c -0.063,0.225 -0.307,0.41 -0.542,0.41 l -4.875,0 c -3.697,0 -4.598,-2.892 -3.697,-7.158 0.9,-4.363 2.665,-7.075 6.305,-7.35 4.972,-0.375 5.967,3.123 4.767,7.16 l 0,0 z m 3.343,7.096 c 0,0 2.298,-5.581 2.82,-8.804 0.712,-4.314 -1.448,-10.572 -9.793,-10.572 -8.297,0 -11.9,5.975 -13.274,12.469 -1.375,6.542 0.426,12.279 8.676,12.232 l 6.509,-0.024 6.082,-0.022 c 0.234,-0.002 0.474,-0.188 0.534,-0.414 l 1.06,-4.042 c 0.059,-0.227 -0.085,-0.413 -0.318,-0.415 l -1.016,-0.006 -1.016,-0.006 c -0.199,-0.001 -0.313,-0.13 -0.289,-0.301 0.003,-0.031 0.01,-0.062 0.025,-0.095 l 0,0 z"
       id="path419"
       style="fill:#ffffff"
       inkscape:connector-curvature="0" /><path
       d="m 514.92783,240.12429 c 0,0.154 -0.125,0.279 -0.279,0.279 -0.154,0 -0.28,-0.125 -0.28,-0.279 0,-0.154 0.126,-0.279 0.28,-0.279 0.154,0 0.279,0.124 0.279,0.279 z"
       id="path421"
       style="fill:#131b28"
       inkscape:connector-curvature="0" /><path
       d="m 410.49884,232.86829 c -2.29,3.292 -2.005,7.576 -0.255,11.075 0.041,0.084 0.085,0.166 0.128,0.249 0.027,0.052 0.054,0.106 0.082,0.157 0.016,0.031 0.034,0.062 0.051,0.091 0.029,0.056 0.061,0.109 0.091,0.163 0.055,0.096 0.11,0.191 0.167,0.287 0.032,0.052 0.063,0.104 0.096,0.157 0.063,0.102 0.128,0.203 0.194,0.304 0.027,0.043 0.054,0.086 0.082,0.127 0.092,0.136 0.185,0.271 0.281,0.405 0.002,0.003 0.005,0.007 0.008,0.011 0.015,0.021 0.031,0.042 0.047,0.063 0.084,0.115 0.17,0.228 0.256,0.34 0.032,0.041 0.064,0.082 0.097,0.123 0.077,0.098 0.156,0.194 0.236,0.291 0.03,0.037 0.061,0.073 0.091,0.108 0.107,0.127 0.217,0.253 0.329,0.376 0.002,0.002 0.005,0.005 0.007,0.007 0.005,0.006 0.009,0.009 0.013,0.014 0.109,0.12 0.222,0.236 0.335,0.353 0.035,0.036 0.071,0.072 0.107,0.108 0.088,0.088 0.177,0.175 0.268,0.262 0.036,0.035 0.072,0.071 0.109,0.104 0.12,0.114 0.242,0.225 0.366,0.333 0.002,0.002 0.004,0.004 0.006,0.005 0.021,0.019 0.043,0.037 0.063,0.055 0.109,0.095 0.221,0.188 0.333,0.281 0.046,0.037 0.092,0.073 0.138,0.11 0.092,0.073 0.185,0.146 0.277,0.217 0.05,0.038 0.099,0.075 0.148,0.113 0.103,0.075 0.207,0.15 0.312,0.224 0.038,0.027 0.075,0.054 0.113,0.08 0.011,0.007 0.021,0.015 0.031,0.022 0.099,0.068 0.2,0.134 0.302,0.2 0.044,0.029 0.087,0.059 0.131,0.087 0.156,0.099 0.314,0.196 0.474,0.29 0.043,0.025 0.087,0.049 0.131,0.074 0.117,0.068 0.235,0.134 0.355,0.2 0.064,0.035 0.131,0.068 0.196,0.101 0.085,0.044 0.169,0.089 0.255,0.132 0.02,0.009 0.039,0.019 0.059,0.028 0.034,0.017 0.069,0.033 0.104,0.05 0.134,0.063 0.268,0.126 0.403,0.187 0.029,0.013 0.057,0.025 0.085,0.038 0.155,0.068 0.312,0.133 0.471,0.195 0.038,0.016 0.075,0.03 0.114,0.045 0.146,0.057 0.295,0.112 0.443,0.165 0.019,0.006 0.037,0.013 0.056,0.019 0.163,0.058 0.328,0.11 0.495,0.162 0.039,0.012 0.079,0.024 0.119,0.036 0.169,0.051 0.336,0.112 0.511,0.144 11.079,2.021 14.297,-6.658 14.297,-6.658 -2.702,3.521 -7.501,4.45 -12.046,3.417 -0.172,-0.039 -0.34,-0.093 -0.508,-0.143 -0.042,-0.012 -0.084,-0.025 -0.126,-0.038 -0.164,-0.05 -0.327,-0.103 -0.489,-0.159 -0.021,-0.008 -0.044,-0.016 -0.066,-0.024 -0.146,-0.051 -0.288,-0.104 -0.431,-0.16 -0.041,-0.016 -0.081,-0.032 -0.121,-0.047 -0.156,-0.062 -0.312,-0.126 -0.465,-0.193 -0.032,-0.014 -0.062,-0.028 -0.093,-0.041 -0.133,-0.06 -0.263,-0.12 -0.393,-0.183 -0.037,-0.018 -0.075,-0.036 -0.113,-0.055 -0.103,-0.05 -0.203,-0.103 -0.304,-0.154 -0.067,-0.035 -0.136,-0.069 -0.202,-0.106 -0.123,-0.066 -0.244,-0.134 -0.364,-0.204 -0.04,-0.023 -0.081,-0.044 -0.122,-0.068 -0.16,-0.094 -0.318,-0.191 -0.475,-0.29 -0.043,-0.027 -0.085,-0.057 -0.127,-0.085 -0.113,-0.073 -0.227,-0.147 -0.337,-0.224 -0.037,-0.025 -0.073,-0.052 -0.108,-0.076 -0.107,-0.076 -0.214,-0.153 -0.319,-0.23 -0.048,-0.036 -0.095,-0.071 -0.141,-0.107 -0.097,-0.074 -0.192,-0.148 -0.288,-0.225 -0.043,-0.034 -0.086,-0.068 -0.128,-0.103 -0.121,-0.099 -0.24,-0.199 -0.358,-0.302 -0.012,-0.011 -0.025,-0.021 -0.039,-0.033 -0.127,-0.112 -0.252,-0.227 -0.376,-0.342 -0.036,-0.034 -0.071,-0.067 -0.106,-0.102 -0.092,-0.087 -0.182,-0.175 -0.271,-0.265 -0.035,-0.035 -0.071,-0.07 -0.105,-0.105 -0.113,-0.116 -0.224,-0.233 -0.332,-0.352 -0.006,-0.006 -0.011,-0.011 -0.017,-0.018 -0.114,-0.125 -0.227,-0.253 -0.337,-0.383 -0.029,-0.036 -0.059,-0.07 -0.088,-0.104 -0.082,-0.099 -0.163,-0.199 -0.242,-0.3 -0.03,-0.036 -0.06,-0.073 -0.089,-0.11 -0.096,-0.124 -0.188,-0.247 -0.279,-0.373 -2.524,-3.442 -3.431,-8.191 -1.414,-12.09"
       id="path423"
       style="fill:#0868ac"
       inkscape:connector-curvature="0" /><path
       d="m 417.61184,230.09329 c -1.657,2.384 -1.567,5.576 -0.275,8.097 0.217,0.423 0.461,0.833 0.733,1.223 0.248,0.356 0.523,0.779 0.853,1.065 0.119,0.131 0.244,0.26 0.372,0.386 0.032,0.033 0.065,0.064 0.098,0.097 0.124,0.12 0.25,0.238 0.38,0.353 0.006,0.004 0.01,0.01 0.016,0.014 0.001,10e-4 0.003,0.002 0.004,0.003 0.144,0.126 0.292,0.248 0.443,0.367 0.033,0.025 0.066,0.052 0.101,0.079 0.151,0.116 0.306,0.23 0.464,0.339 0.005,0.003 0.009,0.006 0.014,0.01 0.069,0.049 0.141,0.093 0.211,0.14 0.034,0.022 0.066,0.046 0.101,0.066 0.113,0.072 0.228,0.143 0.344,0.211 0.017,0.01 0.033,0.019 0.049,0.028 0.101,0.058 0.202,0.115 0.305,0.17 0.035,0.02 0.071,0.038 0.107,0.056 0.07,0.037 0.142,0.075 0.213,0.11 0.011,0.005 0.021,0.01 0.032,0.015 0.146,0.072 0.293,0.141 0.443,0.207 0.032,0.014 0.065,0.027 0.098,0.041 0.12,0.051 0.242,0.101 0.364,0.147 0.052,0.02 0.104,0.038 0.155,0.057 0.111,0.041 0.222,0.079 0.334,0.116 0.051,0.016 0.101,0.033 0.151,0.048 0.159,0.049 0.316,0.112 0.482,0.14 8.555,1.417 10.529,-5.169 10.529,-5.169 -1.78,2.563 -5.228,3.787 -8.906,2.832 -0.164,-0.043 -0.325,-0.09 -0.485,-0.14 -0.049,-0.015 -0.097,-0.031 -0.146,-0.047 -0.113,-0.037 -0.227,-0.076 -0.339,-0.117 -0.051,-0.019 -0.103,-0.038 -0.152,-0.057 -0.123,-0.047 -0.244,-0.096 -0.365,-0.147 -0.033,-0.014 -0.066,-0.027 -0.098,-0.042 -0.151,-0.066 -0.3,-0.135 -0.446,-0.208 -0.076,-0.037 -0.15,-0.076 -0.225,-0.114 -0.043,-0.022 -0.086,-0.044 -0.129,-0.067 -0.095,-0.051 -0.189,-0.105 -0.283,-0.159 -0.022,-0.013 -0.045,-0.025 -0.067,-0.039 -0.116,-0.068 -0.23,-0.138 -0.343,-0.209 -0.035,-0.022 -0.068,-0.046 -0.104,-0.069 -0.074,-0.048 -0.149,-0.098 -0.223,-0.147 -0.157,-0.109 -0.311,-0.223 -0.462,-0.338 -0.035,-0.028 -0.07,-0.055 -0.104,-0.083 -1.611,-1.271 -2.887,-3.009 -3.494,-4.979 -0.636,-2.043 -0.499,-4.337 0.604,-6.198"
       id="path425"
       style="fill:#0868ac"
       inkscape:connector-curvature="0" /><path
       d="m 423.59184,228.02029 c -0.977,1.438 -1.072,3.223 -0.395,4.81 0.715,1.685 2.179,3.007 3.888,3.634 0.071,0.026 0.142,0.049 0.213,0.073 0.031,0.01 0.062,0.021 0.094,0.03 0.101,0.032 0.2,0.068 0.305,0.088 4.724,0.912 6.004,-2.424 6.345,-2.915 -1.122,1.616 -3.008,2.003 -5.321,1.442 -0.184,-0.044 -0.384,-0.11 -0.561,-0.173 -0.226,-0.08 -0.448,-0.172 -0.665,-0.275 -0.41,-0.198 -0.802,-0.438 -1.165,-0.711 -2.071,-1.571 -3.357,-4.569 -2.006,-7.009"
       id="path427"
       style="fill:#0868ac"
       inkscape:connector-curvature="0" /><path
       d="m 476.78984,256.01629 -1.361,3.101 -1.504,0 0.124,-2.817 -1.106,2.817 -1.456,0 -0.038,-3.101 0.16,-0.766 1.031,0 -0.198,3.062 1.144,-3.062 1.438,0 -0.104,3.101 1.135,-3.101 0.897,0 -0.162,0.766 z"
       id="path429"
       style="fill:#0868ac"
       inkscape:connector-curvature="0" /><path
       d="m 479.16184,256.93429 c 0.133,-0.605 0.095,-0.719 -0.218,-0.719 l -0.473,0 -0.303,1.419 -0.463,1.482 -0.879,0 0.718,-3.364 0.104,-0.492 0.804,0 0.104,0.227 c 0,0 0.464,-0.273 0.917,-0.273 0.965,0 0.889,0.728 0.681,1.721 l -0.992,0 0,-0.001 z"
       id="path431"
       style="fill:#0868ac"
       inkscape:connector-curvature="0" /><path
       d="m 482.01684,254.76829 c -0.387,0 -0.633,-0.113 -0.538,-0.586 0.104,-0.473 0.406,-0.587 0.784,-0.587 0.378,0 0.634,0.114 0.529,0.587 -0.094,0.463 -0.396,0.586 -0.775,0.586 l 0,0 z m -0.415,4.349 -0.871,0 0.171,-1.512 0.303,-1.399 -0.605,-0.133 0.171,-0.822 1.653,0 -0.822,3.866 0,0 z"
       id="path433"
       style="fill:#0868ac"
       inkscape:connector-curvature="0" /><path
       d="m 485.37284,256.07129 -1.087,0.133 -0.312,1.475 c -0.086,0.407 -0.086,0.521 0.274,0.521 l 0.728,0 -0.151,0.775 c 0,0 -0.661,0.198 -0.945,0.198 -1.115,0 -1.106,-0.614 -0.907,-1.532 l 0.302,-1.446 -0.604,-0.132 0.179,-0.822 0.635,0 0.359,-0.975 0.86,0 -0.209,0.975 1.06,0 -0.182,0.83 0,0 z"
       id="path435"
       style="fill:#0868ac"
       inkscape:connector-curvature="0" /><path
       d="m 487.63184,256.12129 c -0.51,0 -0.775,0.265 -0.879,0.737 l 1.456,-0.123 c 0.067,-0.321 0,-0.614 -0.577,-0.614 z m -1.02,1.436 c -0.066,0.473 0.113,0.634 0.718,0.634 l 1.522,0 -0.151,0.718 c 0,0 -0.917,0.255 -1.598,0.255 -1.692,0 -1.712,-0.953 -1.493,-1.975 0.217,-1.003 0.604,-1.995 2.239,-1.995 1.58,0 1.655,0.955 1.268,2.363 l -2.505,0 0,0 z"
       id="path437"
       style="fill:#0868ac"
       inkscape:connector-curvature="0" /><path
       d="m 492.58484,259.11729 -0.869,0 0.17,-1.513 0.614,-2.874 -0.605,-0.142 0.18,-0.823 1.655,0 -1.145,5.352 0,0 z"
       id="path439"
       style="fill:#0868ac"
       inkscape:connector-curvature="0" /><path
       d="m 495.72684,256.12129 c -0.511,0 -0.775,0.265 -0.88,0.737 l 1.456,-0.123 c 0.067,-0.321 0,-0.614 -0.576,-0.614 l 0,0 z m -1.021,1.436 c -0.066,0.473 0.113,0.634 0.719,0.634 l 1.521,0 -0.15,0.718 c 0,0 -0.918,0.255 -1.599,0.255 -1.692,0 -1.711,-0.953 -1.493,-1.975 0.218,-1.003 0.605,-1.995 2.24,-1.995 1.579,0 1.654,0.955 1.268,2.363 l -2.506,0 0,0 z"
       id="path441"
       style="fill:#0868ac"
       inkscape:connector-curvature="0" /><path
       d="m 501.19984,256.16729 c 0,0 -1.106,0.009 -1.409,0.009 -0.644,0 -0.709,0.198 -0.756,0.406 l -0.038,0.189 2.042,0.151 c 0,0 0.009,0.652 -0.076,1.021 -0.122,0.615 -0.756,1.238 -1.899,1.238 -0.568,0 -1.484,-0.217 -1.484,-0.217 l 0.16,-0.747 1.408,0 c 0.625,0 0.71,-0.17 0.748,-0.34 l 0.047,-0.246 -2.004,-0.151 c 0,0 -0.076,-0.501 0.028,-1.002 0.151,-0.681 0.774,-1.267 1.919,-1.267 0.567,0 1.484,0.207 1.484,0.207 l -0.17,0.749 0,0 z"
       id="path443"
       style="fill:#0868ac"
       inkscape:connector-curvature="0" /><path
       d="m 504.99984,256.16729 c 0,0 -1.105,0.009 -1.408,0.009 -0.643,0 -0.709,0.198 -0.757,0.406 l -0.038,0.189 2.043,0.151 c 0,0 0.01,0.652 -0.076,1.021 -0.123,0.615 -0.756,1.238 -1.9,1.238 -0.566,0 -1.484,-0.217 -1.484,-0.217 l 0.161,-0.747 1.409,0 c 0.623,0 0.709,-0.17 0.746,-0.34 l 0.047,-0.246 -2.004,-0.151 c 0,0 -0.075,-0.501 0.028,-1.002 0.151,-0.681 0.775,-1.267 1.919,-1.267 0.567,0 1.484,0.207 1.484,0.207 l -0.17,0.749 0,0 z"
       id="path445"
       style="fill:#0868ac"
       inkscape:connector-curvature="0" /><path
       d="m 506.19084,259.73229 -0.756,0 0.028,-0.567 c -0.275,-0.019 -0.416,-0.217 -0.351,-0.549 0.104,-0.473 0.397,-0.586 0.785,-0.586 0.378,0 0.633,0.113 0.529,0.586 l -0.235,1.116 0,0 z"
       id="path447"
       style="fill:#0868ac"
       inkscape:connector-curvature="0" /><path
       d="m 511.24783,256.20629 c -0.568,0 -0.766,0.341 -0.898,0.964 -0.133,0.625 -0.095,0.993 0.473,0.993 l 0.784,0 0.436,-1.957 -0.795,0 z m 1.295,2.41 -0.104,0.501 -0.794,-0.009 -0.113,-0.245 c 0,0 -0.699,0.301 -1.172,0.301 -1.211,0 -1.268,-0.992 -1.05,-1.994 0.218,-1.021 0.69,-1.985 1.891,-1.985 0.436,0 1.021,0.218 1.021,0.218 l 0.481,-1.636 0.871,0 -1.031,4.849 z"
       id="path449"
       style="fill:#0868ac"
       inkscape:connector-curvature="0" /><path
       d="m 515.67283,256.16729 c -0.737,0 -0.975,0.415 -1.106,1.021 -0.123,0.614 -0.065,1.03 0.662,1.03 0.756,0 0.983,-0.406 1.115,-1.03 0.133,-0.587 0.095,-1.021 -0.671,-1.021 l 0,0 z m -0.642,3.006 c -1.561,0 -1.684,-0.974 -1.476,-1.985 0.219,-1.012 0.767,-1.976 2.326,-1.976 1.55,0 1.692,0.964 1.475,1.976 -0.217,1.03 -0.766,1.985 -2.325,1.985 z"
       id="path451"
       style="fill:#0868ac"
       inkscape:connector-curvature="0" /><path
       d="m 523.87983,259.11729 0.171,-1.494 0.084,-0.426 c 0.123,-0.566 0.199,-0.982 -0.396,-0.982 l -0.464,0 c 0.02,0.293 -0.037,0.624 -0.113,0.974 l -0.406,1.929 -0.879,0 0.17,-1.494 0.085,-0.426 c 0.123,-0.566 0.198,-0.982 -0.396,-0.982 l -0.379,0 -0.624,2.902 -1.012,0 0.822,-3.867 0.795,0 0.122,0.236 c 0,0 0.54,-0.283 0.975,-0.283 0.33,0 0.576,0.151 0.662,0.34 0.188,-0.104 0.728,-0.34 1.115,-0.34 1.209,0 1.172,0.982 0.954,1.985 l -0.406,1.929 -0.88,0 0,-10e-4 z"
       id="path453"
       style="fill:#0868ac"
       inkscape:connector-curvature="0" /><path
       d="m 527.89883,256.16729 c -0.738,0 -0.975,0.415 -1.106,1.021 -0.123,0.614 -0.066,1.03 0.661,1.03 0.757,0 0.984,-0.406 1.116,-1.03 0.132,-0.587 0.095,-1.021 -0.671,-1.021 z m -0.644,3.006 c -1.561,0 -1.683,-0.974 -1.475,-1.985 0.218,-1.012 0.766,-1.976 2.326,-1.976 1.551,0 1.692,0.964 1.475,1.976 -0.216,1.03 -0.765,1.985 -2.326,1.985 z"
       id="path455"
       style="fill:#0868ac"
       inkscape:connector-curvature="0" /><path
       d="m 532.20783,256.93429 c 0.132,-0.605 0.095,-0.719 -0.218,-0.719 l -0.473,0 -0.303,1.419 -0.463,1.482 -0.879,0 0.718,-3.364 0.104,-0.492 0.804,0 0.104,0.227 c 0,0 0.463,-0.273 0.918,-0.273 0.964,0 0.888,0.728 0.68,1.721 l -0.992,0 0,-0.001 z"
       id="path457"
       style="fill:#0868ac"
       inkscape:connector-curvature="0" /><path
       d="m 535.59383,256.12129 c -0.51,0 -0.774,0.265 -0.878,0.737 l 1.454,-0.123 c 0.068,-0.321 0,-0.614 -0.576,-0.614 z m -1.02,1.436 c -0.066,0.473 0.113,0.634 0.718,0.634 l 1.522,0 -0.151,0.718 c 0,0 -0.917,0.255 -1.598,0.255 -1.692,0 -1.711,-0.953 -1.494,-1.975 0.218,-1.003 0.605,-1.995 2.241,-1.995 1.578,0 1.654,0.955 1.267,2.363 l -2.505,0 z"
       id="path459"
       style="fill:#0868ac"
       inkscape:connector-curvature="0" /><path
       d="m 537.92783,259.17329 c -0.397,0 -0.643,-0.112 -0.539,-0.576 0.094,-0.474 0.388,-0.586 0.785,-0.586 0.368,0 0.624,0.112 0.529,0.586 -0.104,0.454 -0.406,0.576 -0.775,0.576 z"
       id="path461"
       style="fill:#0868ac"
       inkscape:connector-curvature="0" /></g></svg>