<?xml version="1.0" encoding="UTF-8" standalone="no"?>
<!-- Generator: Adobe Illustrator 13.0.0, SVG Export Plug-In . SVG Version: 6.00 Build 14948)  -->

<svg
   xmlns:dc="http://purl.org/dc/elements/1.1/"
   xmlns:cc="http://creativecommons.org/ns#"
   xmlns:rdf="http://www.w3.org/1999/02/22-rdf-syntax-ns#"
   xmlns:svg="http://www.w3.org/2000/svg"
   xmlns="http://www.w3.org/2000/svg"
   xmlns:sodipodi="http://sodipodi.sourceforge.net/DTD/sodipodi-0.dtd"
   xmlns:inkscape="http://www.inkscape.org/namespaces/inkscape"
   version="1.1"
   id="Layer_1"
   x="0px"
   y="0px"
   width="1280"
   height="720"
   viewBox="-68.5 -68.5 1280 720"
   enable-background="new -68.5 -68.5 397.5 673.5"
   xml:space="preserve"
   inkscape:version="0.91 r13725"
   sodipodi:docname="aws-architecture-serverless-2.svg"><metadata
     id="metadata467"><rdf:RDF><cc:Work
         rdf:about=""><dc:format>image/svg+xml</dc:format><dc:type
           rdf:resource="http://purl.org/dc/dcmitype/StillImage" /><dc:title></dc:title></cc:Work></rdf:RDF></metadata><defs
     id="defs465" /><sodipodi:namedview
     pagecolor="#000000"
     bordercolor="#666666"
     borderopacity="1"
     objecttolerance="10"
     gridtolerance="10"
     guidetolerance="10"
     inkscape:pageopacity="0"
     inkscape:pageshadow="2"
     inkscape:window-width="1373"
     inkscape:window-height="892"
     id="namedview463"
     showgrid="false"
     inkscape:zoom="0.73828125"
     inkscape:cx="640"
     inkscape:cy="360"
     inkscape:window-x="208"
     inkscape:window-y="130"
     inkscape:window-maximized="0"
     inkscape:current-layer="Layer_1"
     showguides="true"
     inkscape:guide-bbox="true" /><g
     id="g4882"
     transform="matrix(1.292735,0,0,1.292735,-249.47319,-54.272502)"
     style="opacity:1"><path
       style="opacity:1;fill:#2d72b8"
       inkscape:connector-curvature="0"
       pointer-events="none"
       d="m 703.55639,107.42841 16.49862,12.8963 0,-18.25174 -16.59468,-21.061561 0,26.320941 0.0961,0.024 0,0.072 z"
       id="path43" /><path
       style="opacity:1;fill:#5294cf"
       inkscape:connector-curvature="0"
       pointer-events="none"
       d="m 671.78394,236.77567 31.67399,-17.17105 0,-138.641242 -31.6956,-17.099006 0.0216,172.911298 z"
       id="path45" /><path
       style="opacity:1;fill:#205b98"
       inkscape:connector-curvature="0"
       pointer-events="none"
       d="m 626.63488,236.77567 -31.67398,-17.17105 0,-138.641242 31.6956,-17.099006 -0.0216,172.911298 z"
       id="path47" /><rect
       style="opacity:1;fill:#2d72b8"
       x="626.65649"
       y="63.864372"
       pointer-events="none"
       width="45.055401"
       height="172.9113"
       id="rect49" /><path
       style="opacity:1;fill:#2d72b8"
       inkscape:connector-curvature="0"
       pointer-events="none"
       d="m 703.46033,193.30769 0,26.29693 16.59468,-21.03754 0,-18.25175 -16.49862,12.94433 -0.0961,0.048 z"
       id="path51" /><path
       style="opacity:1;fill:#2d72b8"
       inkscape:connector-curvature="0"
       pointer-events="none"
       d="m 703.46033,182.18853 0.0961,-0.024 16.49862,-9.60619 0,-18.37182 -16.59468,1.65707 0,26.34495 z"
       id="path53" /><path
       style="opacity:1;fill:#2d72b8"
       inkscape:connector-curvature="0"
       pointer-events="none"
       d="m 703.55639,118.52355 -0.0961,-0.024 0,26.24889 16.59468,1.68109 0,-18.34781 -16.49862,-9.55816 z"
       id="path55" /><path
       style="opacity:1;fill:#1a476f"
       inkscape:connector-curvature="0"
       pointer-events="none"
       d="m 720.05501,146.42952 -16.59468,-1.68109 -31.698,-1.36888 -22.55292,0 -22.55291,0 -31.69801,1.36888 0,-26.17684 -0.024,0 0.024,-0.0721 31.69801,-7.94912 22.55291,0 22.55292,0 31.698,7.94912 11.67152,6.72433 0,-4.32279 4.92316,-0.57637 -16.59468,-12.99236 -31.698,-10.638847 -22.55292,0 -22.55291,0 -31.69801,10.638847 0,-26.320941 -16.59468,21.037541 0,18.39584 0.1465,-0.12008 4.77667,0.57637 0,4.39483 -4.92317,2.85784 0,18.29978 0.1465,-0.024 4.77667,0.072 0,7.68495 -4.13066,0.072 -0.79251,-0.0961 0,18.29978 4.92317,2.88186 0,4.44286 -4.73104,0.57637 -0.19213,-0.16811 0,18.37183 16.59468,21.03754 0,-26.29693 31.69801,10.63885 22.55291,0 22.55292,0 31.79406,-10.68688 16.49862,-12.87229 -4.92316,-0.60038 0,-4.37082 -11.57546,6.74835 -31.79406,7.90108 0,0.024 -22.55292,0 -22.55291,0 0,-0.024 -31.79407,-7.90108 -0.072,-0.12008 0.1681,0.0961 0,-26.29692 31.69801,1.36888 0,0.024 22.55291,0 22.55292,0 0,-0.024 31.698,-1.36888 16.59468,-1.58502 -4.92316,-0.072 0,-7.68495 4.92316,-0.072 z"
       id="path57" /></g><g
     transform="matrix(3.2257044,0,0,3.2257044,-348.85689,3.017514)"
     id="g3593"
     style="opacity:1"><path
       pointer-events="none"
       d="m 223.93,104.439 -7.23,-1.8 0,46 7.23,-1.7 0,-42.5 z"
       id="path163-4"
       inkscape:connector-curvature="0"
       style="fill:#f58536" /><path
       pointer-events="none"
       d="m 237.989,149.939 -11.29,3.7 0,-56.1 11.29,3.7 0,48.7 z"
       id="path165-9"
       inkscape:connector-curvature="0"
       style="fill:#f58536" /><path
       pointer-events="none"
       d="m 246.1,107.939 5.15,-2.7 17.129,6.7 -4.56,0.6 -17.719,-4.6 z"
       id="path167-0"
       inkscape:connector-curvature="0"
       style="fill:#6b3a19" /><path
       pointer-events="none"
       d="m 246.299,143.339 5.051,2.7 17.13,-6.7 -4.56,-0.601 -17.621,4.601 z"
       id="path169-5"
       inkscape:connector-curvature="0"
       style="fill:#fbbf93" /><path
       pointer-events="none"
       d="m 247.59,135.939 9.01,1.2 0,-23 -9.01,1.2 0,20.6 z"
       id="path171-1"
       inkscape:connector-curvature="0"
       style="fill:#9d5025" /><path
       pointer-events="none"
       d="m 251.25,157.139 -8.811,4.5 0,-72 8.811,4.5 0,63 z"
       id="path173-0"
       inkscape:connector-curvature="0"
       style="fill:#f58536" /><path
       pointer-events="none"
       d="m 271.939,138.339 -29.5,8.899 0,14.4 29.5,-14.9 0,-8.399 z"
       id="path175-2"
       inkscape:connector-curvature="0"
       style="fill:#f58536" /><path
       pointer-events="none"
       d="m 268.18,102.639 3.76,1.9 0,42.2 -3.76,1.9 0,-46 z"
       id="path177"
       inkscape:connector-curvature="0"
       style="fill:#f58536" /><path
       pointer-events="none"
       d="m 242.439,104.039 29.5,8.9 0,-8.4 -29.5,-14.9 0,14.4 z"
       id="path179-8"
       inkscape:connector-curvature="0"
       style="fill:#f58536" /><path
       pointer-events="none"
       d="m 233.629,157.139 8.811,4.5 0,-72 -8.811,4.5 0,63 z"
       id="path181-9"
       inkscape:connector-curvature="0"
       style="fill:#9d5025" /><path
       pointer-events="none"
       d="m 221.159,100.339 5.54,-2.8 0,56.2 -5.54,-2.8 0,-50.6 z"
       id="path183-5"
       inkscape:connector-curvature="0"
       style="fill:#9d5025" /><path
       pointer-events="none"
       d="m 212.939,146.739 3.76,1.9 0,-46 -3.76,1.9 0,42.2 z"
       id="path185-8"
       inkscape:connector-curvature="0"
       style="fill:#9d5025" /><path
       pointer-events="none"
       d="m 263.619,112.539 4.561,-0.6 0,27.5 -4.561,-0.6 0,-26.3 z"
       id="path187-5"
       inkscape:connector-curvature="0"
       style="fill:#9d5025" /><path
       pointer-events="none"
       d="m 256.6,114.139 0,23.1 9.4,-11.6 -9.4,-11.5 z"
       id="path189-6"
       inkscape:connector-curvature="0"
       style="fill:#f58536" /></g><g
     transform="matrix(3.362312,0,0,3.362312,268.62354,-455.84448)"
     id="g157"
     style="opacity:1"><path
       style="fill:#d9a740"
       inkscape:connector-curvature="0"
       pointer-events="none"
       d="m 160.04,253.525 8.46,0.899 0,-16.9 -8.46,-4.2 0,20.201 z"
       id="path159" /><path
       style="fill:#886a2a"
       inkscape:connector-curvature="0"
       pointer-events="none"
       d="m 144.54,237.525 15.5,-4.2 0,20.2 -15.5,0.899 0,-16.899 z"
       id="path161" /><path
       style="fill:#634b1e"
       inkscape:connector-curvature="0"
       pointer-events="none"
       d="m 168.5,254.425 -14.6,0.601 -9.36,-0.601 15.5,-0.899 8.46,0.899 z"
       id="path163" /><path
       style="fill:#d9a740"
       inkscape:connector-curvature="0"
       pointer-events="none"
       d="m 138.5,235.125 16.91,5.4 0,8.4 -16.91,-3 0,-10.8 z"
       id="path165" /><path
       style="fill:#634b1e"
       inkscape:connector-curvature="0"
       pointer-events="none"
       d="m 130.85,247.325 7.75,-1.4 16.811,3 -7.551,0.8 -17.01,-2.4 z"
       id="path167" /><path
       style="fill:#886a2a"
       inkscape:connector-curvature="0"
       pointer-events="none"
       d="m 116.96,253.625 -8.46,0.8 0,-17 8.46,-4.1 0,20.3 z"
       id="path169" /><path
       style="fill:#d9a740"
       inkscape:connector-curvature="0"
       pointer-events="none"
       d="m 132.46,237.525 -15.5,-4.2 0,20.2 15.5,0.899 0,-16.899 z"
       id="path171" /><path
       style="fill:#634b1e"
       inkscape:connector-curvature="0"
       pointer-events="none"
       d="m 108.5,254.425 14.6,0.601 9.36,-0.601 -15.5,-0.899 -8.46,0.899 z"
       id="path173" /><path
       style="fill:#886a2a"
       inkscape:connector-curvature="0"
       pointer-events="none"
       d="m 138.5,235.125 -16.91,5.4 0,8.4 16.91,-3 0,-10.8 z"
       id="path175" /><path
       style="fill:#634b1e"
       inkscape:connector-curvature="0"
       pointer-events="none"
       d="m 146.15,247.325 -7.75,-1.4 -16.811,3 7.551,0.8 17.01,-2.4 z"
       id="path177-0" /><path
       style="fill:#d9a740"
       inkscape:connector-curvature="0"
       pointer-events="none"
       d="m 160.04,263.925 8.46,-0.8 0,16.9 -8.46,4.199 0,-20.299 z"
       id="path179" /><path
       style="fill:#886a2a"
       inkscape:connector-curvature="0"
       pointer-events="none"
       d="m 144.54,280.025 15.5,4.199 0,-20.3 -15.5,-0.8 0,16.901 z"
       id="path181" /><path
       style="fill:#fad791"
       inkscape:connector-curvature="0"
       pointer-events="none"
       d="m 168.5,263.125 -14.6,-0.6 -9.36,0.6 15.5,0.8 8.46,-0.8 z"
       id="path183" /><path
       style="fill:#d9a740"
       inkscape:connector-curvature="0"
       pointer-events="none"
       d="m 138.5,282.425 16.91,-5.5 0,-8.3 -16.91,3 0,10.8 z"
       id="path185" /><path
       style="fill:#fad791"
       inkscape:connector-curvature="0"
       pointer-events="none"
       d="m 130.85,270.225 7.75,1.301 16.811,-2.9 -7.551,-0.8 -17.01,2.399 z"
       id="path187" /><path
       style="fill:#886a2a"
       inkscape:connector-curvature="0"
       pointer-events="none"
       d="m 116.96,263.925 -8.46,-0.8 0,16.9 8.46,4.199 0,-20.299 z"
       id="path189" /><path
       style="fill:#d9a740"
       inkscape:connector-curvature="0"
       pointer-events="none"
       d="m 132.46,280.025 -15.5,4.199 0,-20.3 15.5,-0.8 0,16.901 z"
       id="path191" /><path
       style="fill:#fad791"
       inkscape:connector-curvature="0"
       pointer-events="none"
       d="m 108.5,263.125 14.6,-0.6 9.36,0.6 -15.5,0.8 -8.46,-0.8 z"
       id="path193" /><path
       style="fill:#886a2a"
       inkscape:connector-curvature="0"
       pointer-events="none"
       d="m 138.5,282.425 -16.91,-5.5 0,-8.3 16.91,3 0,10.8 z"
       id="path195" /><path
       style="fill:#fad791"
       inkscape:connector-curvature="0"
       pointer-events="none"
       d="m 146.15,270.225 -7.75,1.301 -16.811,-2.9 7.551,-0.8 17.01,2.399 z"
       id="path197" /><path
       style="fill:#d9a740"
       inkscape:connector-curvature="0"
       pointer-events="none"
       d="m 147.46,290.125 -8.96,4.5 0,-72 8.96,4.5 0,63 z"
       id="path199" /><path
       style="fill:#886a2a"
       inkscape:connector-curvature="0"
       pointer-events="none"
       d="m 129.54,290.125 8.96,4.5 0,-72 -8.96,4.5 0,63 z"
       id="path201" /></g></svg>