<?xml version="1.0" encoding="UTF-8" standalone="no"?>
<!-- Generator: Adobe Illustrator 13.0.0, SVG Export Plug-In . SVG Version: 6.00 Build 14948)  -->

<svg
   xmlns:dc="http://purl.org/dc/elements/1.1/"
   xmlns:cc="http://creativecommons.org/ns#"
   xmlns:rdf="http://www.w3.org/1999/02/22-rdf-syntax-ns#"
   xmlns:svg="http://www.w3.org/2000/svg"
   xmlns="http://www.w3.org/2000/svg"
   xmlns:sodipodi="http://sodipodi.sourceforge.net/DTD/sodipodi-0.dtd"
   xmlns:inkscape="http://www.inkscape.org/namespaces/inkscape"
   version="1.1"
   id="Layer_1"
   x="0px"
   y="0px"
   width="1280"
   height="720"
   viewBox="-68.5 -68.5 1280 720"
   enable-background="new -68.5 -68.5 397.5 673.5"
   xml:space="preserve"
   inkscape:version="0.91 r13725"
   sodipodi:docname="aws-elasticache.svg"><metadata
     id="metadata467"><rdf:RDF><cc:Work
         rdf:about=""><dc:format>image/svg+xml</dc:format><dc:type
           rdf:resource="http://purl.org/dc/dcmitype/StillImage" /><dc:title></dc:title></cc:Work></rdf:RDF></metadata><defs
     id="defs465" /><sodipodi:namedview
     pagecolor="#000000"
     bordercolor="#666666"
     borderopacity="1"
     objecttolerance="10"
     gridtolerance="10"
     guidetolerance="10"
     inkscape:pageopacity="0"
     inkscape:pageshadow="2"
     inkscape:window-width="1373"
     inkscape:window-height="892"
     id="namedview463"
     showgrid="false"
     inkscape:zoom="0.73828125"
     inkscape:cx="640"
     inkscape:cy="360"
     inkscape:window-x="160"
     inkscape:window-y="44"
     inkscape:window-maximized="0"
     inkscape:current-layer="Layer_1"
     showguides="true"
     inkscape:guide-bbox="true"><sodipodi:guide
       position="350.31272,587.76319"
       orientation="0,1"
       id="guide4967" /><sodipodi:guide
       position="353.24421,350.31272"
       orientation="0,1"
       id="guide4969" /><sodipodi:guide
       position="190.54667,401.61375"
       orientation="1,0"
       id="guide4971" /><sodipodi:guide
       position="422.13416,381.09334"
       orientation="1,0"
       id="guide4973" /><sodipodi:guide
       position="647.85868,313.66913"
       orientation="1,0"
       id="guide4975" /><sodipodi:guide
       position="888.24063,238.91621"
       orientation="1,0"
       id="guide4977" /></sodipodi:namedview><g
     id="g4859"
     transform="translate(-1.4657394,237.45047)"
     style="opacity:0.3"><path
       style="opacity:1;fill:#d9a741"
       inkscape:connector-curvature="0"
       pointer-events="none"
       d="m 205.93209,173.15872 -72.40661,10.27862 0,-66.25865 72.40661,10.30263 0,45.6774 z"
       id="path5" /><path
       style="opacity:1;fill:#876929"
       inkscape:connector-curvature="0"
       pointer-events="none"
       d="m 124.47166,119.91645 70.8456,-21.469819 0,-34.582259 -70.8456,35.807048 0,20.24503 z"
       id="path7" /><path
       style="opacity:1;fill:#876929"
       inkscape:connector-curvature="0"
       pointer-events="none"
       d="m 124.51969,180.69957 70.79757,21.49384 0,34.58226 -70.79757,-35.80705 0,-20.26905 z"
       id="path9" /><path
       style="opacity:1;fill:#d9a741"
       inkscape:connector-curvature="0"
       pointer-events="none"
       d="m 266.16286,119.94047 -70.8456,-21.493839 0,-34.582259 70.8456,35.807048 0,20.26905 z"
       id="path11" /><path
       style="opacity:1;fill:#d9a741"
       inkscape:connector-curvature="0"
       pointer-events="none"
       d="m 266.11483,180.72359 -70.79757,21.46982 0,34.58226 70.79757,-35.78303 0,-20.26905 z"
       id="path13" /><path
       style="opacity:1;fill:#876929"
       inkscape:connector-curvature="0"
       pointer-events="none"
       d="m 133.52548,205.53156 -9.05382,-4.56294 0,-101.2972 9.05382,-4.586953 0,110.447093 z"
       id="path15" /><path
       style="opacity:1;fill:#876929"
       inkscape:connector-curvature="0"
       pointer-events="none"
       d="m 169.21245,168.95602 26.10481,3.36216 0,-44.02033 -26.10481,3.36216 0,37.29601 z"
       id="path17" /><path
       style="opacity:1;fill:#876929"
       inkscape:connector-curvature="0"
       pointer-events="none"
       d="m 142.96356,165.56984 16.9309,2.1854 0,-34.89446 -16.9309,2.18541 0,30.52365 z"
       id="path19" /><path
       style="opacity:1;fill:#624a1e"
       inkscape:connector-curvature="0"
       pointer-events="none"
       d="m 133.52548,117.17869 61.79178,-18.732059 70.8456,21.493839 -60.18274,7.56487 -72.45464,-10.32665 z"
       id="path21" /><path
       style="opacity:1;fill:#fad791"
       inkscape:connector-curvature="0"
       pointer-events="none"
       d="m 133.52548,183.43734 61.79178,18.75607 70.79757,-21.46982 -60.18274,-7.56487 -72.40661,10.27862 z"
       id="path23" /><path
       style="opacity:1;fill:#d9a741"
       inkscape:connector-curvature="0"
       pointer-events="none"
       d="m 266.11483,163.12026 -70.79757,9.02981 0,-43.85222 70.79757,9.12587 0,25.69654 z"
       id="path25" /></g><g
     id="g4872"
     style="opacity:0.3"><path
       style="fill:#f58536;opacity:1"
       inkscape:connector-curvature="0"
       pointer-events="none"
       d="m 378.67528,200.63241 -16.54665,3.81845 0,-108.381759 16.54665,3.818458 0,100.744851 z"
       id="path27" /><path
       style="fill:#f58536;opacity:1"
       inkscape:connector-curvature="0"
       pointer-events="none"
       d="m 399.32857,207.04453 -20.65329,5.93182 0,-125.264628 20.65329,5.907802 0,113.425006 z"
       id="path29" /><path
       style="fill:#f58536;opacity:1"
       inkscape:connector-curvature="0"
       pointer-events="none"
       d="m 425.86565,213.60075 -26.53708,9.82232 0,-146.158073 26.53708,9.798307 0,126.537446 z"
       id="path31" /><path
       style="fill:#f58536;opacity:1"
       inkscape:connector-curvature="0"
       pointer-events="none"
       d="m 496.71125,200.96862 -70.8456,35.80705 0,-172.911298 70.8456,35.807048 0,101.2972 z"
       id="path33" /><path
       style="fill:#9d5025;opacity:1"
       inkscape:connector-curvature="0"
       pointer-events="none"
       d="m 411.72055,70.996963 14.1451,-7.132591 0,172.911298 -14.1451,-7.13259 0,-158.646117 z"
       id="path35" /><path
       style="fill:#9d5025;opacity:1"
       inkscape:connector-curvature="0"
       pointer-events="none"
       d="m 388.40154,82.788553 10.92703,-5.523556 0,146.110043 -10.92703,-5.52355 0,-135.062937 z"
       id="path37" /><path
       style="fill:#9d5025;opacity:1"
       inkscape:connector-curvature="0"
       pointer-events="none"
       d="m 369.95767,92.10655 8.71761,-4.418844 0,125.264634 -8.71761,-4.41885 0,-116.42694 z"
       id="path39" /><path
       style="fill:#9d5025;opacity:1"
       inkscape:connector-curvature="0"
       pointer-events="none"
       d="m 362.12863,96.069101 -7.10858,3.578303 0,101.345236 7.10858,3.5783 0,-108.501839 z"
       id="path41" /></g><g
     id="g4882"
     transform="translate(-222.79303,243.31344)"
     style="opacity:0.3"><path
       style="opacity:1;fill:#2d72b8"
       inkscape:connector-curvature="0"
       pointer-events="none"
       d="m 703.55639,107.42841 16.49862,12.8963 0,-18.25174 -16.59468,-21.061561 0,26.320941 0.0961,0.024 0,0.072 z"
       id="path43" /><path
       style="opacity:1;fill:#5294cf"
       inkscape:connector-curvature="0"
       pointer-events="none"
       d="m 671.78394,236.77567 31.67399,-17.17105 0,-138.641242 -31.6956,-17.099006 0.0216,172.911298 z"
       id="path45" /><path
       style="opacity:1;fill:#205b98"
       inkscape:connector-curvature="0"
       pointer-events="none"
       d="m 626.63488,236.77567 -31.67398,-17.17105 0,-138.641242 31.6956,-17.099006 -0.0216,172.911298 z"
       id="path47" /><rect
       style="opacity:1;fill:#2d72b8"
       x="626.65649"
       y="63.864372"
       pointer-events="none"
       width="45.055401"
       height="172.9113"
       id="rect49" /><path
       style="opacity:1;fill:#2d72b8"
       inkscape:connector-curvature="0"
       pointer-events="none"
       d="m 703.46033,193.30769 0,26.29693 16.59468,-21.03754 0,-18.25175 -16.49862,12.94433 -0.0961,0.048 z"
       id="path51" /><path
       style="opacity:1;fill:#2d72b8"
       inkscape:connector-curvature="0"
       pointer-events="none"
       d="m 703.46033,182.18853 0.0961,-0.024 16.49862,-9.60619 0,-18.37182 -16.59468,1.65707 0,26.34495 z"
       id="path53" /><path
       style="opacity:1;fill:#2d72b8"
       inkscape:connector-curvature="0"
       pointer-events="none"
       d="m 703.55639,118.52355 -0.0961,-0.024 0,26.24889 16.59468,1.68109 0,-18.34781 -16.49862,-9.55816 z"
       id="path55" /><path
       style="opacity:1;fill:#1a476f"
       inkscape:connector-curvature="0"
       pointer-events="none"
       d="m 720.05501,146.42952 -16.59468,-1.68109 -31.698,-1.36888 -22.55292,0 -22.55291,0 -31.69801,1.36888 0,-26.17684 -0.024,0 0.024,-0.0721 31.69801,-7.94912 22.55291,0 22.55292,0 31.698,7.94912 11.67152,6.72433 0,-4.32279 4.92316,-0.57637 -16.59468,-12.99236 -31.698,-10.638847 -22.55292,0 -22.55291,0 -31.69801,10.638847 0,-26.320941 -16.59468,21.037541 0,18.39584 0.1465,-0.12008 4.77667,0.57637 0,4.39483 -4.92317,2.85784 0,18.29978 0.1465,-0.024 4.77667,0.072 0,7.68495 -4.13066,0.072 -0.79251,-0.0961 0,18.29978 4.92317,2.88186 0,4.44286 -4.73104,0.57637 -0.19213,-0.16811 0,18.37183 16.59468,21.03754 0,-26.29693 31.69801,10.63885 22.55291,0 22.55292,0 31.79406,-10.68688 16.49862,-12.87229 -4.92316,-0.60038 0,-4.37082 -11.57546,6.74835 -31.79406,7.90108 0,0.024 -22.55292,0 -22.55291,0 0,-0.024 -31.79407,-7.90108 -0.072,-0.12008 0.1681,0.0961 0,-26.29692 31.69801,1.36888 0,0.024 22.55291,0 22.55292,0 0,-0.024 31.698,-1.36888 16.59468,-1.58502 -4.92316,-0.072 0,-7.68495 4.92316,-0.072 z"
       id="path57" /></g><g
     id="g4906"
     transform="translate(693.29673,-238.91621)"
     style="opacity:1"><path
       style="opacity:1;fill:#99bce3"
       inkscape:connector-curvature="0"
       pointer-events="none"
       d="m 266.16286,420.87817 -70.8456,-8.90973 -70.8456,8.90973 70.8456,21.46742 70.8456,-21.46742 z"
       id="path59" /><path
       style="opacity:1;fill:#1a476f"
       inkscape:connector-curvature="0"
       pointer-events="none"
       d="m 266.16286,360.07103 -70.8456,8.90974 -70.8456,-8.90974 70.8456,-21.46742 70.8456,21.46742 z"
       id="path61" /><path
       style="opacity:1;fill:#205b98"
       inkscape:connector-curvature="0"
       pointer-events="none"
       d="m 195.31726,304.01895 -70.8456,35.78303 0,20.26665 70.8456,-21.46742 0,-34.58226 z"
       id="path63" /><path
       style="opacity:1;fill:#205b98"
       inkscape:connector-curvature="0"
       pointer-events="none"
       d="m 195.31726,442.34799 -70.8456,-21.46982 0,20.26665 70.8456,35.78543 0,-34.58226 z"
       id="path65" /><path
       style="opacity:1;fill:#205b98"
       inkscape:connector-curvature="0"
       pointer-events="none"
       d="m 195.31726,416.62984 -29.94728,-4.58696 0,-42.79554 29.94728,-4.49089 0,51.87339 z"
       id="path67" /><path
       style="opacity:1;fill:#5294cf"
       inkscape:connector-curvature="0"
       pointer-events="none"
       d="m 195.31726,304.01895 70.8456,35.78303 0,20.26665 -70.8456,-21.46742 0,-34.58226 z"
       id="path69" /><path
       style="opacity:1;fill:#5294cf"
       inkscape:connector-curvature="0"
       pointer-events="none"
       d="m 195.31726,442.34799 70.8456,-21.46982 0,20.26665 -70.8456,35.78543 0,-34.58226 z"
       id="path71" /><path
       style="opacity:1;fill:#5294cf"
       inkscape:connector-curvature="0"
       pointer-events="none"
       d="m 195.31726,416.62984 29.94727,-4.58696 0,-42.79554 -29.94727,-4.49089 0,51.87339 z"
       id="path73" /></g><g
     id="g4960"
     transform="translate(-696.22822,-241.8477)"
     style="opacity:0.3"><path
       style="opacity:1;fill:#1a476f"
       inkscape:connector-curvature="0"
       pointer-events="none"
       d="m 818.51839,438.72166 17.72341,21.06155 0,-138.61482 -17.72341,21.03514 0,96.51813 z"
       id="path75" /><path
       style="opacity:1;fill:#205b98"
       inkscape:connector-curvature="0"
       pointer-events="none"
       d="m 836.2418,459.78081 33.83778,17.14944 0.024,-172.9113 -33.8618,17.09901 0,138.66285 z"
       id="path77" /><path
       style="opacity:1;fill:#2d72b8"
       inkscape:connector-curvature="0"
       pointer-events="none"
       d="m 969.81578,342.20353 -17.72341,-21.03754 0,138.61482 17.72341,-21.06156 0,-96.51572 z"
       id="path79" /><path
       style="opacity:1;fill:#5294cf"
       inkscape:connector-curvature="0"
       pointer-events="none"
       d="m 918.23298,476.93025 33.86179,-17.14944 0,-138.66285 -33.88821,-17.09901 0.0264,172.9113 z"
       id="path81" /><rect
       style="opacity:1;fill:#2d72b8"
       x="870.1012"
       y="304.01895"
       pointer-events="none"
       width="48.129379"
       height="172.9113"
       id="rect83" /></g><g
     id="g4950"
     transform="translate(10,2)"
     style="opacity:0.3"><path
       style="opacity:1;fill:#9d5025"
       inkscape:connector-curvature="0"
       pointer-events="none"
       d="m 578.36381,339.826 9.0058,-4.56294 0,25.19222 -9.0058,2.47359 0,-23.10287 z"
       id="path95" /><path
       style="opacity:1;fill:#6b3a19"
       inkscape:connector-curvature="0"
       pointer-events="none"
       d="m 637.92215,366.96347 -10.51877,1.53699 -49.03957,-5.57159 9.0058,-2.47359 50.55254,6.50819 z"
       id="path97" /><path
       style="opacity:1;fill:#f58536"
       inkscape:connector-curvature="0"
       pointer-events="none"
       d="m 679.13267,461.80051 -29.92326,15.12974 0,-172.9113 29.92326,15.12974 0,142.65182 z"
       id="path85" /><path
       style="opacity:1;fill:#9d5025"
       inkscape:connector-curvature="0"
       pointer-events="none"
       d="m 619.26214,461.80051 29.94727,15.12974 0,-172.9113 -29.94727,15.12974 0,142.65182 z"
       id="path87" /><path
       style="opacity:1;fill:#f58536"
       inkscape:connector-curvature="0"
       pointer-events="none"
       d="m 637.92215,366.96347 -50.55254,-6.50819 0,-25.19222 50.55254,11.98372 0,19.71669 z"
       id="path89" /><path
       style="opacity:1;fill:#9d5025"
       inkscape:connector-curvature="0"
       pointer-events="none"
       d="m 711.00119,350.00855 -50.53093,8.78966 0,20.60526 50.53093,-3.05236 0,-26.34256 z"
       id="path91" /><path
       style="opacity:1;fill:#f58536"
       inkscape:connector-curvature="0"
       pointer-events="none"
       d="m 720.05501,377.33815 -9.05382,-1.20078 0,-26.12882 9.05382,3.35977 0,23.96983 z"
       id="path93" /><path
       style="opacity:1;fill:#6b3a19"
       inkscape:connector-curvature="0"
       pointer-events="none"
       d="m 720.05501,377.33815 -50.1923,2.71374 -9.39005,-0.64842 51.56359,-3.12441 8.01876,1.05909 z"
       id="path99" /></g><g
     id="g4916"
     transform="translate(467.57221,1.4657436)"
     style="opacity:0.3"><path
       style="opacity:1;fill:#8c3123"
       inkscape:connector-curvature="0"
       pointer-events="none"
       d="m 446.85516,375.70509 32.7811,-2.54563 0,-41.86135 -32.7811,8.64797 0,35.75901 z"
       id="path101" /><path
       style="opacity:1;fill:#e05243"
       inkscape:connector-curvature="0"
       pointer-events="none"
       d="m 459.6554,370.34965 -34.12596,-5.01923 0,-61.31147 34.12596,17.33916 0,48.99154 z"
       id="path103" /><path
       style="opacity:1;fill:#e05243"
       inkscape:connector-curvature="0"
       pointer-events="none"
       d="m 496.71125,375.75312 -17.07499,-2.52162 0,-41.93339 17.07499,8.64797 0,35.80704 z"
       id="path105" /><path
       style="opacity:1;fill:#5e1f18"
       inkscape:connector-curvature="0"
       pointer-events="none"
       d="m 446.85516,375.70509 32.42087,-2.52162 17.43522,2.56965 -31.31615,1.89723 -18.53994,-1.94526 z"
       id="path107" /><path
       style="opacity:1;fill:#8c3123"
       inkscape:connector-curvature="0"
       pointer-events="none"
       d="m 446.85516,405.24411 32.7811,2.54564 0,41.86134 -32.7811,-8.64797 0,-35.75901 z"
       id="path109" /><path
       style="opacity:1;fill:#e05243"
       inkscape:connector-curvature="0"
       pointer-events="none"
       d="m 459.6554,410.59955 -34.12596,5.01924 0,61.31146 34.12596,-17.33916 0,-48.99154 z"
       id="path111" /><path
       style="opacity:1;fill:#e05243"
       inkscape:connector-curvature="0"
       pointer-events="none"
       d="m 496.35102,405.19608 -17.02696,2.52162 0,41.93339 17.02696,-8.64797 0,-35.80704 z"
       id="path113" /><path
       style="opacity:1;fill:#f2b0a9"
       inkscape:connector-curvature="0"
       pointer-events="none"
       d="m 446.85516,405.24411 32.42087,2.52162 17.43522,-2.56965 -31.31615,-1.89722 -18.53994,1.94525 z"
       id="path115" /><path
       style="opacity:1;fill:#e05243"
       inkscape:connector-curvature="0"
       pointer-events="none"
       d="m 404.51591,375.70509 -32.75708,-2.54563 0,-41.86135 32.75708,8.64797 0,35.75901 z"
       id="path117" /><path
       style="opacity:1;fill:#8c3123"
       inkscape:connector-curvature="0"
       pointer-events="none"
       d="m 391.71567,370.34965 34.14998,-5.01923 0,-61.31147 -34.14998,17.33916 0,48.99154 z"
       id="path119" /><path
       style="opacity:1;fill:#8c3123"
       inkscape:connector-curvature="0"
       pointer-events="none"
       d="m 355.02005,375.75312 17.07499,-2.52162 0,-41.93339 -17.07499,8.64797 0,35.80704 z"
       id="path121" /><path
       style="opacity:1;fill:#5e1f18"
       inkscape:connector-curvature="0"
       pointer-events="none"
       d="m 404.85213,375.70509 -32.42087,-2.52162 -17.41121,2.56965 31.29214,1.89723 18.53994,-1.94526 z"
       id="path123" /><path
       style="opacity:1;fill:#e05243"
       inkscape:connector-curvature="0"
       pointer-events="none"
       d="m 404.51591,405.24411 -32.75708,2.54564 0,41.86134 32.75708,-8.64797 0,-35.75901 z"
       id="path125" /><path
       style="opacity:1;fill:#8c3123"
       inkscape:connector-curvature="0"
       pointer-events="none"
       d="m 391.71567,410.59955 34.14998,5.01924 0,61.31146 -34.14998,-17.33916 0,-48.99154 z"
       id="path127" /><path
       style="opacity:1;fill:#8c3123"
       inkscape:connector-curvature="0"
       pointer-events="none"
       d="m 355.02005,405.19608 17.07499,2.52162 0,41.93339 -17.07499,-8.64797 0,-35.80704 z"
       id="path129" /><path
       style="opacity:1;fill:#f2b0a9"
       inkscape:connector-curvature="0"
       pointer-events="none"
       d="m 404.85213,405.24411 -32.42087,2.52162 -17.41121,-2.56965 31.29214,-1.89722 18.53994,1.94525 z"
       id="path131" /><path
       style="opacity:1;fill:#f2b0a9"
       inkscape:connector-curvature="0"
       pointer-events="none"
       d="m 460.01563,410.59955 -34.14998,-3.38618 -34.14998,3.38618 34.14998,5.09128 34.14998,-5.09128 z"
       id="path133" /><path
       style="opacity:1;fill:#5e1f18"
       inkscape:connector-curvature="0"
       pointer-events="none"
       d="m 460.01563,370.34965 -34.14998,3.33815 -34.14998,-3.33815 34.14998,-5.01923 34.14998,5.01923 z"
       id="path135" /></g><g
     id="g4892"
     transform="translate(-238.91621,0)"
     style="opacity:0.3"><path
       style="opacity:1;fill:#8c3123"
       inkscape:connector-curvature="0"
       pointer-events="none"
       d="m 894.16708,191.98684 59.43826,14.52935 0,-112.656511 -59.43826,14.529351 0,83.59781 z"
       id="path137" /><path
       style="opacity:1;fill:#e05243"
       inkscape:connector-curvature="0"
       pointer-events="none"
       d="m 953.60534,93.859679 11.40735,5.76371 0,101.153111 -11.40735,5.76371 0,-112.680531 z"
       id="path139" /><path
       style="opacity:1;fill:#e05243"
       inkscape:connector-curvature="0"
       pointer-events="none"
       d="m 920.07976,113.96062 -25.91268,-6.48418 0,-43.612068 25.91268,13.088424 0,37.007824 z"
       id="path141" /><path
       style="opacity:1;fill:#e05243"
       inkscape:connector-curvature="0"
       pointer-events="none"
       d="m 894.16708,236.77567 25.91268,-13.08843 0,-36.9838 -25.91268,6.46016 0,43.61207 z"
       id="path143" /><path
       style="opacity:1;fill:#e05243"
       inkscape:connector-curvature="0"
       pointer-events="none"
       d="m 920.07976,168.83594 -25.91268,3.33815 0,-43.61207 25.91268,3.29011 0,36.98381 z"
       id="path145" /><path
       style="opacity:1;fill:#e05243"
       inkscape:connector-curvature="0"
       pointer-events="none"
       d="m 894.16708,191.98684 -59.43825,14.52935 0,-112.656511 59.43825,14.529351 0,83.59781 z"
       id="path147" /><path
       style="opacity:1;fill:#8c3123"
       inkscape:connector-curvature="0"
       pointer-events="none"
       d="m 834.72883,93.859679 -11.40735,5.76371 0,101.153111 11.40735,5.76371 0,-112.680531 z"
       id="path149" /><path
       style="opacity:1;fill:#8c3123"
       inkscape:connector-curvature="0"
       pointer-events="none"
       d="m 868.25441,113.96062 25.91267,-6.48418 0,-43.612068 -25.91267,13.088424 0,37.007824 z"
       id="path151" /><path
       style="opacity:1;fill:#8c3123"
       inkscape:connector-curvature="0"
       pointer-events="none"
       d="m 894.16708,236.77567 -25.91267,-13.08843 0,-36.9838 25.91267,6.46016 0,43.61207 z"
       id="path153" /><path
       style="opacity:1;fill:#8c3123"
       inkscape:connector-curvature="0"
       pointer-events="none"
       d="m 868.25441,168.83594 25.91267,3.33815 0,-43.61207 -25.91267,3.29011 0,36.98381 z"
       id="path155" /><path
       style="opacity:1;fill:#5e1f18"
       inkscape:connector-curvature="0"
       pointer-events="none"
       d="m 920.07976,113.96062 -25.91268,4.75506 -25.91267,-4.75506 25.91267,-6.48418 25.91268,6.48418 z"
       id="path157" /><path
       style="opacity:1;fill:#f2b0a9"
       inkscape:connector-curvature="0"
       pointer-events="none"
       d="m 920.07976,186.67942 -25.91268,-4.77907 -25.91267,4.77907 25.91267,6.53221 25.91268,-6.53221 z"
       id="path159" /></g></svg>