<?xml version="1.0" encoding="utf-8"?>
<!-- Generator: Adobe Illustrator 13.0.0, SVG Export Plug-In . SVG Version: 6.00 Build 14948)  -->
<!DOCTYPE svg PUBLIC "-//W3C//DTD SVG 1.1//EN" "http://www.w3.org/Graphics/SVG/1.1/DTD/svg11.dtd">
<svg version="1.1" id="Layer_1" xmlns="http://www.w3.org/2000/svg" xmlns:xlink="http://www.w3.org/1999/xlink" x="0px" y="0px"
	 width="397.5px" height="673.5px" viewBox="-68.5 -68.5 397.5 673.5" enable-background="new -68.5 -68.5 397.5 673.5"
	 xml:space="preserve">
<path pointer-events="none" fill="#19486F" d="M110.53,13.6v0.06l-0.03-0.04L110.53,13.6z"/>
<path pointer-events="none" fill="#19486F" d="M153.5,7.04v2.29c0,0.07,0,0.14-0.01,0.22V7.27C153.5,7.19,153.5,7.12,153.5,7.04"/>
<path pointer-events="none" fill="#19486F" d="M153.49,7.27v2.28c-0.01,0.08-0.04,0.16-0.07,0.26V7.53
	C153.45,7.45,153.48,7.35,153.49,7.27"/>
<path pointer-events="none" fill="#19486F" d="M153.42,7.53v2.28c-0.04,0.11-0.09,0.23-0.15,0.35V7.87
	C153.33,7.75,153.38,7.65,153.42,7.53"/>
<path pointer-events="none" fill="#19486F" d="M153.27,7.87v2.29c-1.56,2.66-10.47,4.7-21.229,4.7c-11.84,0-21.46-2.49-21.46-5.53
	V7.04c0,3.06,9.62,5.55,21.46,5.55C142.8,12.59,151.71,10.53,153.27,7.87"/>
<path pointer-events="none" fill="#19486F" d="M153.5,7.04v2.29c0,3.04-9.6,5.53-21.46,5.53c-11.84,0-21.46-2.49-21.46-5.53V7.04
	c0,3.06,9.62,5.55,21.46,5.55C143.9,12.59,153.5,10.1,153.5,7.04z"/>
<path pointer-events="none" fill="#2E73B7" d="M132.04,1.5c11.86,0,21.46,2.47,21.46,5.54c0,3.06-9.6,5.55-21.46,5.55
	c-11.84,0-21.46-2.49-21.46-5.55C110.58,3.97,120.2,1.5,132.04,1.5z"/>
<path pointer-events="none" fill="#19486F" d="M153.46,48.87v2.28c0,0.09-0.01,0.18-0.021,0.27v-2.27
	C153.45,49.06,153.46,48.96,153.46,48.87"/>
<path pointer-events="none" fill="#19486F" d="M153.439,49.15v2.27c-0.02,0.12-0.049,0.25-0.1,0.37V49.5
	C153.391,49.38,153.41,49.27,153.439,49.15"/>
<path pointer-events="none" fill="#19486F" d="M153.34,49.5v2.29c-0.05,0.14-0.1,0.28-0.18,0.42v-2.27
	C153.24,49.79,153.29,49.65,153.34,49.5"/>
<path pointer-events="none" fill="#19486F" d="M153.16,49.94v2.27c-1.73,3.01-10.561,5.3-21.19,5.3c-11.85,0-21.46-2.84-21.46-6.33
	v-2.29c0,3.5,9.61,6.33,21.46,6.33C142.6,55.22,151.43,52.95,153.16,49.94"/>
<path pointer-events="none" fill="#19486F" d="M153.46,48.87v2.28c-0.021,3.52-9.64,6.36-21.49,6.36c-11.85,0-21.46-2.84-21.46-6.33
	v-2.29c0,3.5,9.61,6.33,21.46,6.33C143.82,55.22,153.439,52.39,153.46,48.87z"/>
<path pointer-events="none" fill="#2E73B7" d="M153.439,11.55c-1.199,3.32-9.609,5.31-21.47,5.31c-11.81,0-19.89-2.26-21.439-5.48
	l-0.021,37.51c0,3.5,9.61,6.33,21.46,6.33c11.851,0,21.47-2.83,21.49-6.35L153.439,11.55z"/>
<path pointer-events="none" fill="#FFFFFF" d="M117.98,23.09h8.06L132.13,41h0.08l5.75-17.91h8.07v26.06h-5.36V30.68h-0.08
	l-6.38,18.47h-4.42l-6.37-18.29h-0.08v18.29h-5.36V23.09z"/>
</svg>
