<?xml version="1.0" encoding="UTF-8" standalone="no"?>
<!-- Generator: Adobe Illustrator 13.0.0, SVG Export Plug-In . SVG Version: 6.00 Build 14948)  -->

<svg
   xmlns:dc="http://purl.org/dc/elements/1.1/"
   xmlns:cc="http://creativecommons.org/ns#"
   xmlns:rdf="http://www.w3.org/1999/02/22-rdf-syntax-ns#"
   xmlns:svg="http://www.w3.org/2000/svg"
   xmlns="http://www.w3.org/2000/svg"
   xmlns:sodipodi="http://sodipodi.sourceforge.net/DTD/sodipodi-0.dtd"
   xmlns:inkscape="http://www.inkscape.org/namespaces/inkscape"
   version="1.1"
   id="Layer_1"
   x="0px"
   y="0px"
   width="1280"
   height="720"
   viewBox="-68.5 -68.5 1280 720"
   enable-background="new -68.5 -68.5 397.5 673.5"
   xml:space="preserve"
   inkscape:version="0.91 r13725"
   sodipodi:docname="aws-architecture-database.svg"><metadata
     id="metadata467"><rdf:RDF><cc:Work
         rdf:about=""><dc:format>image/svg+xml</dc:format><dc:type
           rdf:resource="http://purl.org/dc/dcmitype/StillImage" /><dc:title></dc:title></cc:Work></rdf:RDF></metadata><defs
     id="defs465" /><sodipodi:namedview
     pagecolor="#000000"
     bordercolor="#666666"
     borderopacity="1"
     objecttolerance="10"
     gridtolerance="10"
     guidetolerance="10"
     inkscape:pageopacity="0"
     inkscape:pageshadow="2"
     inkscape:window-width="1373"
     inkscape:window-height="892"
     id="namedview463"
     showgrid="false"
     inkscape:zoom="1.0440874"
     inkscape:cx="501.12274"
     inkscape:cy="360"
     inkscape:window-x="208"
     inkscape:window-y="130"
     inkscape:window-maximized="0"
     inkscape:current-layer="Layer_1"
     showguides="true"
     inkscape:guide-bbox="true" /><g
     id="g4613"
     transform="matrix(1.554182,0,0,1.554182,-265.75133,-50.395158)"
     style="opacity:0.3"><rect
       id="rect61"
       height="2.5599999"
       width="4.5300002"
       pointer-events="none"
       y="233.87169"
       x="569.14624"
       style="fill:#9d5125" /><rect
       id="rect63"
       height="2.5599999"
       width="4.5209999"
       pointer-events="none"
       y="233.87169"
       x="588.90625"
       style="fill:#9d5125" /><path
       id="path65"
       d="m 588.90624,242.09169 0,2.562 -6.119,6.33 0,-2.57 6.119,-6.322 z"
       pointer-events="none"
       style="fill:#9d5125"
       inkscape:connector-curvature="0" /><path
       id="path67"
       d="m 580.06624,248.41169 0,2.57 -6.39,-6.53 0,-2.57 6.39,6.53 z"
       pointer-events="none"
       style="fill:#9d5125"
       inkscape:connector-curvature="0" /><rect
       id="rect69"
       height="2.5699999"
       width="10.49"
       pointer-events="none"
       y="254.36169"
       x="600.39624"
       style="fill:#9d5125" /><rect
       id="rect71"
       height="2.5699999"
       width="10.49"
       pointer-events="none"
       y="254.36169"
       x="551.88623"
       style="fill:#9d5125" /><path
       id="path73"
       d="m 600.39624,260.50169 0,2.57 -12.32,-12.15 0,-2.57 12.32,12.15 z"
       pointer-events="none"
       style="fill:#9d5125"
       inkscape:connector-curvature="0" /><path
       id="path75"
       d="m 562.37624,236.34169 12.32,12.14 -12.32,12.02 0,-6.14 -10.49,0 0,-11.89 10.49,0 0,-6.13 z"
       pointer-events="none"
       style="fill:#f48334"
       inkscape:connector-curvature="0" /><path
       id="path77"
       d="m 574.69624,248.48169 0,2.57 -12.32,12.021 0,-2.57 12.32,-12.021 z"
       pointer-events="none"
       style="fill:#9d5125"
       inkscape:connector-curvature="0" /><path
       id="path79"
       d="m 600.39624,236.34169 0,6.14 10.49,0 0,11.88 -10.49,0 0,6.14 -12.32,-12.15 12.32,-12.01 z"
       pointer-events="none"
       style="fill:#f48334"
       inkscape:connector-curvature="0" /><path
       id="path81"
       d="m 593.43624,263.81169 0,2.57 -12.21,12.24 -0.57,-3.14 12.78,-11.67 z"
       pointer-events="none"
       style="fill:#9d5125"
       inkscape:connector-curvature="0" /><path
       id="path83"
       d="m 581.22624,276.06169 0,2.56 -12.08,-12.24 0,-2.57 12.08,12.25 z"
       pointer-events="none"
       style="fill:#9d5125"
       inkscape:connector-curvature="0" /><path
       id="path85"
       d="m 581.35624,221.62169 12.08,12.25 -4.53,0 0,8.22 -6.119,6.32 6.119,6.5 0,8.9 4.53,0 -12.21,12.25 -12.08,-12.25 4.53,0 0,-8.8 6.39,-6.6 -6.39,-6.53 0,-8.01 -4.53,0 12.21,-12.25 z"
       pointer-events="none"
       style="fill:#f48334"
       inkscape:connector-curvature="0" /></g><g
     id="g4582"
     transform="matrix(1.658642,0,0,1.658642,-349.43806,76.093238)"
     style="opacity:0.3"><path
       id="path145"
       d="m 492.50624,182.92169 0,2.7 -23.71,0 -0.99,-3.54 24.7,0.84 z"
       pointer-events="none"
       style="fill:#9d5025"
       inkscape:connector-curvature="0" /><path
       id="path147"
       d="m 473.55624,137.34169 0,2.69 -17.63,0 -2.47,-3.4 20.1,0.71 z"
       pointer-events="none"
       style="fill:#9d5025"
       inkscape:connector-curvature="0" /><path
       id="path149"
       d="m 455.92624,137.34169 0,2.69 c -0.97,0 -1.83,0.56 -2.26,1.36 l 0,-2.7 c 0.43,-0.8 1.29,-1.35 2.26,-1.35"
       pointer-events="none"
       style="fill:#9d5025"
       inkscape:connector-curvature="0" /><path
       id="path151"
       d="m 453.66624,138.69169 0,2.7 c -0.08,0.14 -0.15,0.29 -0.2,0.45 l 0,-2.688 c 0.05,-0.162 0.12,-0.312 0.2,-0.462"
       pointer-events="none"
       style="fill:#9d5025"
       inkscape:connector-curvature="0" /><path
       id="path153"
       d="m 453.46624,139.15169 0,2.688 c -0.04,0.14 -0.08,0.271 -0.1,0.41 l 0,-2.69 c 0.02,-0.138 0.06,-0.278 0.1,-0.408"
       pointer-events="none"
       style="fill:#9d5025"
       inkscape:connector-curvature="0" /><path
       id="path155"
       d="m 453.36624,139.56169 0,2.7 c -0.02,0.11 -0.02,0.24 -0.02,0.36 l 0,-2.69 c 0,-0.13 0.01,-0.25 0.02,-0.37"
       pointer-events="none"
       style="fill:#9d5025"
       inkscape:connector-curvature="0" /><path
       id="path157"
       d="m 455.92624,137.34169 0,2.69 c -1.42,0 -2.58,1.17 -2.58,2.59 l 0,-2.69 c 0,-1.42 1.16,-2.59 2.58,-2.59 z"
       pointer-events="none"
       style="fill:#9d5025"
       inkscape:connector-curvature="0" /><path
       id="path159"
       d="m 484.15624,149.80169 0,2.69 -17.81,0 -1.51,-3.07 19.32,0.38 z"
       pointer-events="none"
       style="fill:#9d5025"
       inkscape:connector-curvature="0" /><path
       id="path161"
       d="m 466.52624,149.80169 0,2.69 c -0.97,0 -1.82,0.55 -2.25,1.35 l 0,-2.7 c 0.43,-0.8 1.28,-1.34 2.25,-1.34"
       pointer-events="none"
       style="fill:#9d5025"
       inkscape:connector-curvature="0" /><path
       id="path163"
       d="m 464.27624,151.14169 0,2.7 c -0.08,0.14 -0.15,0.3 -0.2,0.45 l 0,-2.69 c 0.05,-0.16 0.12,-0.31 0.2,-0.46"
       pointer-events="none"
       style="fill:#9d5025"
       inkscape:connector-curvature="0" /><path
       id="path165"
       d="m 464.07624,151.60169 0,2.69 c -0.04,0.14 -0.08,0.28 -0.1,0.43 l 0,-2.7 c 0.02,-0.14 0.06,-0.28 0.1,-0.42"
       pointer-events="none"
       style="fill:#9d5025"
       inkscape:connector-curvature="0" /><path
       id="path167"
       d="m 463.97624,152.02169 0,2.7 c -0.02,0.12 -0.03,0.24 -0.03,0.37 l 0,-2.688 c 0,-0.132 0.01,-0.262 0.03,-0.382"
       pointer-events="none"
       style="fill:#9d5025"
       inkscape:connector-curvature="0" /><path
       id="path169"
       d="m 466.52624,149.80169 0,2.69 c -1.42,0 -2.58,1.17 -2.58,2.6 l 0,-2.688 c 0,-1.442 1.16,-2.602 2.58,-2.602 z"
       pointer-events="none"
       style="fill:#9d5025"
       inkscape:connector-curvature="0" /><path
       id="path171"
       d="m 453.34624,157.94169 0,2.688 -5.89,0 -0.92,-3.27 6.81,0.582 z"
       pointer-events="none"
       style="fill:#9d5025"
       inkscape:connector-curvature="0" /><path
       id="path173"
       d="m 447.45624,157.94169 0,2.688 c -1.41,0 -2.57,-1.15 -2.57,-2.58 l 0,-2.68 c 0,1.432 1.16,2.572 2.57,2.572"
       pointer-events="none"
       style="fill:#9d5025"
       inkscape:connector-curvature="0" /><path
       id="path175"
       d="m 447.45624,157.94169 0,2.688 c -1.41,0 -2.57,-1.15 -2.57,-2.58 l 0,-2.68 c 0,1.432 1.16,2.572 2.57,2.572 z"
       pointer-events="none"
       style="fill:#9d5025"
       inkscape:connector-curvature="0" /><rect
       id="rect177"
       height="2.7"
       width="6.0700002"
       pointer-events="none"
       y="170.40169"
       x="457.87625"
       style="fill:#9d5025" /><path
       id="path179"
       d="m 458.06624,170.40169 0,2.688 c -1.42,0 -2.57,-1.149 -2.57,-2.58 l 0,-2.7 c 0,1.432 1.15,2.592 2.57,2.592"
       pointer-events="none"
       style="fill:#9d5025"
       inkscape:connector-curvature="0" /><path
       id="path181"
       d="m 458.06624,170.40169 0,2.688 c -1.42,0 -2.57,-1.149 -2.57,-2.58 l 0,-2.7 c 0,1.432 1.15,2.592 2.57,2.592 z"
       pointer-events="none"
       style="fill:#9d5025"
       inkscape:connector-curvature="0" /><path
       id="path183"
       d="m 468.79624,182.92169 0,2.7 c -1.42,0 -2.57,-1.17 -2.57,-2.59 l 0,-2.69 c 0,1.42 1.15,2.58 2.57,2.58"
       pointer-events="none"
       style="fill:#9d5125"
       inkscape:connector-curvature="0" /><path
       id="path185"
       d="m 468.79624,182.92169 0,2.7 c -1.42,0 -2.57,-1.17 -2.57,-2.59 l 0,-2.69 c 0,1.42 1.15,2.58 2.57,2.58 z"
       pointer-events="none"
       style="fill:#9d5125"
       inkscape:connector-curvature="0" /><path
       id="path187"
       d="m 494.88624,180.34169 0,2.69 c 0,0.13 -0.01,0.25 -0.03,0.37 l 0,-2.69 c 0.02,-0.12 0.03,-0.25 0.03,-0.37"
       pointer-events="none"
       style="fill:#9d5025"
       inkscape:connector-curvature="0" /><path
       id="path189"
       d="m 494.85624,180.71169 0,2.69 c -0.02,0.14 -0.05,0.28 -0.09,0.42 l 0,-2.7 c 0.04,-0.13 0.07,-0.27 0.09,-0.41"
       pointer-events="none"
       style="fill:#9d5025"
       inkscape:connector-curvature="0" /><path
       id="path191"
       d="m 494.76624,181.12169 0,2.7 c -0.05,0.16 -0.12,0.31 -0.2,0.45 l 0,-2.69 c 0.08,-0.15 0.15,-0.3 0.2,-0.46"
       pointer-events="none"
       style="fill:#9d5025"
       inkscape:connector-curvature="0" /><path
       id="path193"
       d="m 494.56624,181.58169 0,2.69 c -0.43,0.8 -1.27,1.35 -2.24,1.35 l 0,-2.7 c 0.97,0 1.81,-0.54 2.24,-1.34"
       pointer-events="none"
       style="fill:#9d5025"
       inkscape:connector-curvature="0" /><path
       id="path195"
       d="m 494.88624,180.34169 0,2.69 c 0,1.42 -1.15,2.59 -2.56,2.59 l 0,-2.7 c 1.41,0 2.56,-1.16 2.56,-2.58 z"
       pointer-events="none"
       style="fill:#9d5025"
       inkscape:connector-curvature="0" /><path
       id="path197"
       d="m 470.98624,128.62169 c 1.42,0 2.57,1.15 2.57,2.58 l 0,6.14 -17.63,0 c -1.42,0 -2.58,1.17 -2.58,2.59 l 0,18.01 -5.89,0 c -1.41,0 -2.57,-1.141 -2.57,-2.57 l 0,-24.17 c 0,-1.43 1.16,-2.58 2.57,-2.58 l 23.53,0 z"
       pointer-events="none"
       style="fill:#f58536"
       inkscape:connector-curvature="0" /><path
       id="path199"
       d="m 481.59624,141.08169 c 1.41,0 2.56,1.16 2.56,2.58 l 0,6.14 -17.63,0 c -1.42,0 -2.58,1.16 -2.58,2.6 l 0,18 -5.88,0 c -1.42,0 -2.58,-1.16 -2.58,-2.59 l 0,-24.15 c 0,-1.42 1.16,-2.58 2.58,-2.58 l 23.53,0 z"
       pointer-events="none"
       style="fill:#f58536"
       inkscape:connector-curvature="0" /><path
       id="path201"
       d="m 492.32624,153.60169 c 1.41,0 2.56,1.16 2.56,2.57 l 0,24.17 c 0,1.42 -1.15,2.58 -2.56,2.58 l -23.53,0 c -1.42,0 -2.57,-1.16 -2.57,-2.58 l 0,-24.17 c 0,-1.41 1.15,-2.57 2.57,-2.57 l 23.53,0 z"
       pointer-events="none"
       style="fill:#f58536"
       inkscape:connector-curvature="0" /></g><g
     id="g4628"
     transform="matrix(1.554182,0,0,1.554182,-365.48455,-89.097602)"
     style="opacity:0.3"><path
       id="path203"
       d="m 600.52724,357.82169 -29.15,9.149 0,-48.849 29.15,9.16 0,30.54 z"
       pointer-events="none"
       style="fill:#f58435"
       inkscape:connector-curvature="0" /><path
       id="path205"
       d="m 563.24624,359.51269 -6.57,1.27 0,-36.32 6.57,1.27 0,33.78 z"
       pointer-events="none"
       style="fill:#f58435"
       inkscape:connector-curvature="0" /><path
       id="path207"
       d="m 571.37624,361.62169 -8.13,1.98 0,-41.96 8.13,1.98 0,38 z"
       pointer-events="none"
       style="fill:#f58435"
       inkscape:connector-curvature="0" /><path
       id="path209"
       d="m 567.10624,319.95169 4.271,-1.83 0,49 -4.271,-1.83 0,-45.34 z"
       pointer-events="none"
       style="fill:#9d5025"
       inkscape:connector-curvature="0" /><path
       id="path211"
       d="m 559.79624,323.12169 3.45,-1.48 0,41.961 -3.45,-1.48 0,-39.001 z"
       pointer-events="none"
       style="fill:#9d5025"
       inkscape:connector-curvature="0" /><path
       id="path213"
       d="m 556.67624,324.46169 -2.79,1.2 0,33.92 2.79,1.2 0,-36.32 z"
       pointer-events="none"
       style="fill:#9d5025"
       inkscape:connector-curvature="0" /><path
       id="path215"
       d="m 581.88624,336.78169 0,-23.16 -5.58,2.391 0,21.26 5.58,-0.491 z"
       pointer-events="none"
       style="fill:#9d5025"
       inkscape:connector-curvature="0" /><path
       id="path217"
       d="m 576.30624,347.83169 0,21.399 5.58,2.391 0,-23.3 -5.58,-0.49 z"
       pointer-events="none"
       style="fill:#9d5025"
       inkscape:connector-curvature="0" /><path
       id="path219"
       d="m 596.82524,338.04169 0,-18.01 -14.939,-6.41 0,23.16 14.939,1.26 z"
       pointer-events="none"
       style="fill:#f58435"
       inkscape:connector-curvature="0" /><path
       id="path221"
       d="m 581.88624,348.32169 0,23.3 14.939,-6.41 0,-18.16 -14.939,1.27 z"
       pointer-events="none"
       style="fill:#f58435"
       inkscape:connector-curvature="0" /><path
       id="path223"
       d="m 609.88624,339.17169 0,-13.51 -7.96,-3.45 0,16.26 7.96,0.7 z"
       pointer-events="none"
       style="fill:#f58435"
       inkscape:connector-curvature="0" /><path
       id="path225"
       d="m 601.92624,346.63169 0,16.4 7.96,-3.45 0,-13.649 -7.96,0.699 z"
       pointer-events="none"
       style="fill:#f58435"
       inkscape:connector-curvature="0" /><path
       id="path227"
       d="m 596.82524,338.04169 -5.5,0.29 -15.02,-1.06 5.58,-0.49 14.94,1.26 z"
       pointer-events="none"
       style="fill:#6b3b19"
       inkscape:connector-curvature="0" /><path
       id="path229"
       d="m 596.82524,347.05169 -5.17,-0.279 -15.35,1.06 5.33,0.49 15.19,-1.271 z"
       pointer-events="none"
       style="fill:#fbbf92"
       inkscape:connector-curvature="0" /><path
       id="path231"
       d="m 598.38624,322.98069 3.54,-0.77 0,16.26 -3.54,0.211 0,-15.701 z"
       pointer-events="none"
       style="fill:#9d5025"
       inkscape:connector-curvature="0" /><path
       id="path233"
       d="m 598.38624,362.26269 3.54,0.77 0,-16.4 -3.54,-0.211 0,15.841 z"
       pointer-events="none"
       style="fill:#9d5025"
       inkscape:connector-curvature="0" /><path
       id="path235"
       d="m 609.88624,345.93269 -3.2,-0.141 -8.3,0.63 3.54,0.21 7.96,-0.699 z"
       pointer-events="none"
       style="fill:#fbbf92"
       inkscape:connector-curvature="0" /><path
       id="path237"
       d="m 609.88624,339.17169 -3.2,0.14 -8.3,-0.629 3.54,-0.211 7.96,0.7 z"
       pointer-events="none"
       style="fill:#6b3b19"
       inkscape:connector-curvature="0" /></g><path
     inkscape:connector-curvature="0"
     style="fill:#19486f"
     pointer-events="none"
     d="m 548.99011,59.038989 0,0.09325 -0.0466,-0.06217 0.0466,-0.03108 z"
     id="path291" /><path
     inkscape:connector-curvature="0"
     style="fill:#19486f"
     pointer-events="none"
     d="m 615.77331,48.843555 0,3.559077 c 0,0.108792 0,0.217585 -0.0155,0.34192 l 0,-3.543535 c 0.0155,-0.124335 0.0155,-0.233128 0.0155,-0.357462"
     id="path293" /><path
     inkscape:connector-curvature="0"
     style="fill:#19486f"
     pointer-events="none"
     d="m 615.75777,49.201017 0,3.543535 c -0.0155,0.124334 -0.0622,0.248669 -0.10879,0.404087 l 0,-3.543535 c 0.0466,-0.124335 0.0933,-0.279753 0.10879,-0.404087"
     id="path295" /><path
     inkscape:connector-curvature="0"
     style="fill:#19486f"
     pointer-events="none"
     d="m 615.64898,49.605104 0,3.543535 c -0.0622,0.17096 -0.13988,0.357462 -0.23313,0.543964 l 0,-3.559077 c 0.0933,-0.186502 0.17096,-0.34192 0.23313,-0.528422"
     id="path297" /><path
     inkscape:connector-curvature="0"
     style="fill:#19486f"
     pointer-events="none"
     d="m 615.41585,50.133526 0,3.559077 c -2.42452,4.134124 -16.27229,7.304655 -32.99373,7.304655 -18.40152,0 -33.35275,-3.869913 -33.35275,-8.594626 l 0,-3.559077 c 0,4.755797 14.95123,8.62571 33.35275,8.62571 16.72144,0 30.56921,-3.201615 32.99373,-7.335739"
     id="path299" /><path
     inkscape:connector-curvature="0"
     style="fill:#19486f"
     pointer-events="none"
     d="m 615.77331,48.843555 0,3.559077 c 0,4.724713 -14.92015,8.594626 -33.35274,8.594626 -18.40152,0 -33.35275,-3.869913 -33.35275,-8.594626 l 0,-3.559077 c 0,4.755797 14.95123,8.62571 33.35275,8.62571 18.43259,0 33.35274,-3.869913 33.35274,-8.62571 z"
     id="path301" /><path
     inkscape:connector-curvature="0"
     style="fill:#2e73b7"
     pointer-events="none"
     d="m 582.42057,40.233386 c 18.43259,0 33.35274,3.83883 33.35274,8.610169 0,4.755797 -14.92015,8.62571 -33.35274,8.62571 -18.40152,0 -33.35275,-3.869913 -33.35275,-8.62571 0,-4.771339 14.95123,-8.610169 33.35275,-8.610169 z"
     id="path303" /><path
     inkscape:connector-curvature="0"
     style="fill:#19486f"
     pointer-events="none"
     d="m 615.71114,113.85499 0,3.54354 c 0,0.13987 -0.0155,0.27975 -0.0326,0.41963 l 0,-3.528 c 0.0171,-0.13987 0.0326,-0.29529 0.0326,-0.43517"
     id="path305" /><path
     inkscape:connector-curvature="0"
     style="fill:#19486f"
     pointer-events="none"
     d="m 615.67851,114.29016 0,3.528 c -0.0311,0.1865 -0.0762,0.38854 -0.15542,0.57504 l 0,-3.55907 c 0.0808,-0.18651 0.11035,-0.35747 0.15542,-0.54397"
     id="path307" /><path
     inkscape:connector-curvature="0"
     style="fill:#19486f"
     pointer-events="none"
     d="m 615.52464,114.83413 0,3.55907 c -0.0777,0.21759 -0.15542,0.43517 -0.27975,0.65276 l 0,-3.52799 c 0.12433,-0.23313 0.20204,-0.45072 0.27975,-0.68384"
     id="path309" /><path
     inkscape:connector-curvature="0"
     style="fill:#19486f"
     pointer-events="none"
     d="m 615.24489,115.51797 0,3.52799 c -2.68873,4.67809 -16.41372,8.23716 -32.93312,8.23716 -18.41705,0 -33.35274,-4.41387 -33.35274,-9.83797 l 0,-3.55907 c 0,5.43963 14.93569,9.83797 33.35274,9.83797 16.52096,0 30.24439,-3.528 32.93312,-8.20608"
     id="path311" /><path
     inkscape:connector-curvature="0"
     style="fill:#19486f"
     pointer-events="none"
     d="m 615.71114,113.85499 0,3.54354 c -0.0326,5.47072 -14.98231,9.88459 -33.39937,9.88459 -18.41705,0 -33.35274,-4.41387 -33.35274,-9.83797 l 0,-3.55907 c 0,5.43963 14.93569,9.83797 33.35274,9.83797 18.41706,0 33.36674,-4.39834 33.39937,-9.86906 z"
     id="path313" /><path
     inkscape:connector-curvature="0"
     style="fill:#2e73b7"
     pointer-events="none"
     d="m 615.67851,55.852916 c -1.86347,5.159884 -14.93414,8.252706 -33.36829,8.252706 -18.35489,0 -30.91268,-3.512451 -33.31856,-8.516917 l -0.0326,58.297375 c 0,5.43963 14.93569,9.83797 33.35274,9.83797 18.41861,0 33.36829,-4.39834 33.39937,-9.86906 l -0.0326,-58.002074 z"
     id="path315" /><path
     inkscape:connector-curvature="0"
     style="fill:#ffffff"
     pointer-events="none"
     d="m 560.56877,73.788176 12.5267,0 9.46497,27.835404 0.12434,0 8.93654,-27.835404 12.54225,0 0,40.501984 -8.33041,0 0,-28.705742 -0.12434,0 -9.91568,28.705742 -6.86948,0 -9.90014,-28.425989 -0.12434,0 0,28.425989 -8.33041,0 0,-40.501984 z"
     id="path317" /><g
     id="g4708"
     transform="matrix(1.554182,0,0,1.554182,-311.89656,15.101287)"
     style="opacity:0.3"><g
       id="g4872"
       transform="matrix(0.37135823,0,0,0.37135823,386.08916,86.471016)"
       style=""><path
         id="path27-1"
         d="m 378.67528,200.63241 -16.54665,3.81845 0,-108.381759 16.54665,3.818458 0,100.744851 z"
         pointer-events="none"
         inkscape:connector-curvature="0"
         style="opacity:1;fill:#f58536" /><path
         id="path29-8"
         d="m 399.32857,207.04453 -20.65329,5.93182 0,-125.264628 20.65329,5.907802 0,113.425006 z"
         pointer-events="none"
         inkscape:connector-curvature="0"
         style="opacity:1;fill:#f58536" /><path
         id="path31-1"
         d="m 425.86565,213.60075 -26.53708,9.82232 0,-146.158073 26.53708,9.798307 0,126.537446 z"
         pointer-events="none"
         inkscape:connector-curvature="0"
         style="opacity:1;fill:#f58536" /><path
         id="path33-2"
         d="m 496.71125,200.96862 -70.8456,35.80705 0,-172.911298 70.8456,35.807048 0,101.2972 z"
         pointer-events="none"
         inkscape:connector-curvature="0"
         style="opacity:1;fill:#f58536" /><path
         id="path35"
         d="m 411.72055,70.996963 14.1451,-7.132591 0,172.911298 -14.1451,-7.13259 0,-158.646117 z"
         pointer-events="none"
         inkscape:connector-curvature="0"
         style="opacity:1;fill:#9d5025" /><path
         id="path37-8"
         d="m 388.40154,82.788553 10.92703,-5.523556 0,146.110043 -10.92703,-5.52355 0,-135.062937 z"
         pointer-events="none"
         inkscape:connector-curvature="0"
         style="opacity:1;fill:#9d5025" /><path
         id="path39-0"
         d="m 369.95767,92.10655 8.71761,-4.418844 0,125.264634 -8.71761,-4.41885 0,-116.42694 z"
         pointer-events="none"
         inkscape:connector-curvature="0"
         style="opacity:1;fill:#9d5025" /><path
         id="path41-6"
         d="m 362.12863,96.069101 -7.10858,3.578303 0,101.345236 7.10858,3.5783 0,-108.501839 z"
         pointer-events="none"
         inkscape:connector-curvature="0"
         style="opacity:1;fill:#9d5025" /></g></g><g
     id="g4960"
     transform="matrix(0.51541466,0,0,0.51541466,22.464496,-119.48053)"><path
       style="opacity:1;fill:#1a476f"
       inkscape:connector-curvature="0"
       pointer-events="none"
       d="m 818.51839,438.72166 17.72341,21.06155 0,-138.61482 -17.72341,21.03514 0,96.51813 z"
       id="path75-4" /><path
       style="opacity:1;fill:#205b98"
       inkscape:connector-curvature="0"
       pointer-events="none"
       d="m 836.2418,459.78081 33.83778,17.14944 0.024,-172.9113 -33.8618,17.09901 0,138.66285 z"
       id="path77-3" /><path
       style="opacity:1;fill:#2d72b8"
       inkscape:connector-curvature="0"
       pointer-events="none"
       d="m 969.81578,342.20353 -17.72341,-21.03754 0,138.61482 17.72341,-21.06156 0,-96.51572 z"
       id="path79-4" /><path
       style="opacity:1;fill:#5294cf"
       inkscape:connector-curvature="0"
       pointer-events="none"
       d="m 918.23298,476.93025 33.86179,-17.14944 0,-138.66285 -33.88821,-17.09901 0.0264,172.9113 z"
       id="path81-7" /><rect
       style="opacity:1;fill:#2d72b8"
       x="870.1012"
       y="304.01895"
       pointer-events="none"
       width="48.129379"
       height="172.9113"
       id="rect83" /></g></svg>