<?xml version="1.0" encoding="UTF-8" standalone="no"?>
<!-- Generator: Adobe Illustrator 13.0.0, SVG Export Plug-In . SVG Version: 6.00 Build 14948)  -->

<svg
   xmlns:dc="http://purl.org/dc/elements/1.1/"
   xmlns:cc="http://creativecommons.org/ns#"
   xmlns:rdf="http://www.w3.org/1999/02/22-rdf-syntax-ns#"
   xmlns:svg="http://www.w3.org/2000/svg"
   xmlns="http://www.w3.org/2000/svg"
   xmlns:sodipodi="http://sodipodi.sourceforge.net/DTD/sodipodi-0.dtd"
   xmlns:inkscape="http://www.inkscape.org/namespaces/inkscape"
   version="1.1"
   id="Layer_1"
   x="0px"
   y="0px"
   width="1280"
   height="720"
   viewBox="-68.5 -68.5 1280 720"
   enable-background="new -68.5 -68.5 397.5 673.5"
   xml:space="preserve"
   inkscape:version="0.91 r13725"
   sodipodi:docname="aws-architecture-rds-instance.svg"><metadata
     id="metadata467"><rdf:RDF><cc:Work
         rdf:about=""><dc:format>image/svg+xml</dc:format><dc:type
           rdf:resource="http://purl.org/dc/dcmitype/StillImage" /><dc:title></dc:title></cc:Work></rdf:RDF></metadata><defs
     id="defs465" /><sodipodi:namedview
     pagecolor="#000000"
     bordercolor="#666666"
     borderopacity="1"
     objecttolerance="10"
     gridtolerance="10"
     guidetolerance="10"
     inkscape:pageopacity="0"
     inkscape:pageshadow="2"
     inkscape:window-width="1373"
     inkscape:window-height="892"
     id="namedview463"
     showgrid="false"
     inkscape:zoom="1.0440874"
     inkscape:cx="640"
     inkscape:cy="360"
     inkscape:window-x="184"
     inkscape:window-y="87"
     inkscape:window-maximized="0"
     inkscape:current-layer="Layer_1"
     showguides="true"
     inkscape:guide-bbox="true" /><path
     inkscape:connector-curvature="0"
     style="fill:#19486f"
     pointer-events="none"
     d="m 548.99011,59.038989 0,0.09325 -0.0466,-0.06217 0.0466,-0.03108 z"
     id="path291" /><path
     inkscape:connector-curvature="0"
     style="fill:#19486f"
     pointer-events="none"
     d="m 615.77331,48.843555 0,3.559077 c 0,0.108792 0,0.217585 -0.0155,0.34192 l 0,-3.543535 c 0.0155,-0.124335 0.0155,-0.233128 0.0155,-0.357462"
     id="path293" /><path
     inkscape:connector-curvature="0"
     style="fill:#19486f"
     pointer-events="none"
     d="m 615.75777,49.201017 0,3.543535 c -0.0155,0.124334 -0.0622,0.248669 -0.10879,0.404087 l 0,-3.543535 c 0.0466,-0.124335 0.0933,-0.279753 0.10879,-0.404087"
     id="path295" /><path
     inkscape:connector-curvature="0"
     style="fill:#19486f"
     pointer-events="none"
     d="m 615.64898,49.605104 0,3.543535 c -0.0622,0.17096 -0.13988,0.357462 -0.23313,0.543964 l 0,-3.559077 c 0.0933,-0.186502 0.17096,-0.34192 0.23313,-0.528422"
     id="path297" /><path
     inkscape:connector-curvature="0"
     style="fill:#19486f"
     pointer-events="none"
     d="m 615.41585,50.133526 0,3.559077 c -2.42452,4.134124 -16.27229,7.304655 -32.99373,7.304655 -18.40152,0 -33.35275,-3.869913 -33.35275,-8.594626 l 0,-3.559077 c 0,4.755797 14.95123,8.62571 33.35275,8.62571 16.72144,0 30.56921,-3.201615 32.99373,-7.335739"
     id="path299" /><path
     inkscape:connector-curvature="0"
     style="fill:#19486f"
     pointer-events="none"
     d="m 615.77331,48.843555 0,3.559077 c 0,4.724713 -14.92015,8.594626 -33.35274,8.594626 -18.40152,0 -33.35275,-3.869913 -33.35275,-8.594626 l 0,-3.559077 c 0,4.755797 14.95123,8.62571 33.35275,8.62571 18.43259,0 33.35274,-3.869913 33.35274,-8.62571 z"
     id="path301" /><path
     inkscape:connector-curvature="0"
     style="fill:#2e73b7"
     pointer-events="none"
     d="m 582.42057,40.233386 c 18.43259,0 33.35274,3.83883 33.35274,8.610169 0,4.755797 -14.92015,8.62571 -33.35274,8.62571 -18.40152,0 -33.35275,-3.869913 -33.35275,-8.62571 0,-4.771339 14.95123,-8.610169 33.35275,-8.610169 z"
     id="path303" /><path
     inkscape:connector-curvature="0"
     style="fill:#19486f"
     pointer-events="none"
     d="m 615.71114,113.85499 0,3.54354 c 0,0.13987 -0.0155,0.27975 -0.0326,0.41963 l 0,-3.528 c 0.0171,-0.13987 0.0326,-0.29529 0.0326,-0.43517"
     id="path305" /><path
     inkscape:connector-curvature="0"
     style="fill:#19486f"
     pointer-events="none"
     d="m 615.67851,114.29016 0,3.528 c -0.0311,0.1865 -0.0762,0.38854 -0.15542,0.57504 l 0,-3.55907 c 0.0808,-0.18651 0.11035,-0.35747 0.15542,-0.54397"
     id="path307" /><path
     inkscape:connector-curvature="0"
     style="fill:#19486f"
     pointer-events="none"
     d="m 615.52464,114.83413 0,3.55907 c -0.0777,0.21759 -0.15542,0.43517 -0.27975,0.65276 l 0,-3.52799 c 0.12433,-0.23313 0.20204,-0.45072 0.27975,-0.68384"
     id="path309" /><path
     inkscape:connector-curvature="0"
     style="fill:#19486f"
     pointer-events="none"
     d="m 615.24489,115.51797 0,3.52799 c -2.68873,4.67809 -16.41372,8.23716 -32.93312,8.23716 -18.41705,0 -33.35274,-4.41387 -33.35274,-9.83797 l 0,-3.55907 c 0,5.43963 14.93569,9.83797 33.35274,9.83797 16.52096,0 30.24439,-3.528 32.93312,-8.20608"
     id="path311" /><path
     inkscape:connector-curvature="0"
     style="fill:#19486f"
     pointer-events="none"
     d="m 615.71114,113.85499 0,3.54354 c -0.0326,5.47072 -14.98231,9.88459 -33.39937,9.88459 -18.41705,0 -33.35274,-4.41387 -33.35274,-9.83797 l 0,-3.55907 c 0,5.43963 14.93569,9.83797 33.35274,9.83797 18.41706,0 33.36674,-4.39834 33.39937,-9.86906 z"
     id="path313" /><path
     inkscape:connector-curvature="0"
     style="fill:#2e73b7"
     pointer-events="none"
     d="m 615.67851,55.852916 c -1.86347,5.159884 -14.93414,8.252706 -33.36829,8.252706 -18.35489,0 -30.91268,-3.512451 -33.31856,-8.516917 l -0.0326,58.297375 c 0,5.43963 14.93569,9.83797 33.35274,9.83797 18.41861,0 33.36829,-4.39834 33.39937,-9.86906 l -0.0326,-58.002074 z"
     id="path315" /><path
     inkscape:connector-curvature="0"
     style="fill:#ffffff"
     pointer-events="none"
     d="m 560.56877,73.788176 12.5267,0 9.46497,27.835404 0.12434,0 8.93654,-27.835404 12.54225,0 0,40.501984 -8.33041,0 0,-28.705742 -0.12434,0 -9.91568,28.705742 -6.86948,0 -9.90014,-28.425989 -0.12434,0 0,28.425989 -8.33041,0 0,-40.501984 z"
     id="path317" /><g
     id="g4960"
     transform="matrix(0.51541466,0,0,0.51541466,22.464496,-119.48053)"><path
       style="opacity:1;fill:#1a476f"
       inkscape:connector-curvature="0"
       pointer-events="none"
       d="m 818.51839,438.72166 17.72341,21.06155 0,-138.61482 -17.72341,21.03514 0,96.51813 z"
       id="path75-4" /><path
       style="opacity:1;fill:#205b98"
       inkscape:connector-curvature="0"
       pointer-events="none"
       d="m 836.2418,459.78081 33.83778,17.14944 0.024,-172.9113 -33.8618,17.09901 0,138.66285 z"
       id="path77-3" /><path
       style="opacity:1;fill:#2d72b8"
       inkscape:connector-curvature="0"
       pointer-events="none"
       d="m 969.81578,342.20353 -17.72341,-21.03754 0,138.61482 17.72341,-21.06156 0,-96.51572 z"
       id="path79-4" /><path
       style="opacity:1;fill:#5294cf"
       inkscape:connector-curvature="0"
       pointer-events="none"
       d="m 918.23298,476.93025 33.86179,-17.14944 0,-138.66285 -33.88821,-17.09901 0.0264,172.9113 z"
       id="path81-7" /><rect
       style="opacity:1;fill:#2d72b8"
       x="870.1012"
       y="304.01895"
       pointer-events="none"
       width="48.129379"
       height="172.9113"
       id="rect83" /></g></svg>