<?xml version="1.0" encoding="UTF-8" standalone="no"?>
<!-- Generator: Adobe Illustrator 13.0.0, SVG Export Plug-In . SVG Version: 6.00 Build 14948)  -->

<svg
   xmlns:dc="http://purl.org/dc/elements/1.1/"
   xmlns:cc="http://creativecommons.org/ns#"
   xmlns:rdf="http://www.w3.org/1999/02/22-rdf-syntax-ns#"
   xmlns:svg="http://www.w3.org/2000/svg"
   xmlns="http://www.w3.org/2000/svg"
   xmlns:sodipodi="http://sodipodi.sourceforge.net/DTD/sodipodi-0.dtd"
   xmlns:inkscape="http://www.inkscape.org/namespaces/inkscape"
   version="1.1"
   id="Layer_1"
   x="0px"
   y="0px"
   width="1280"
   height="720"
   viewBox="-68.5 -68.5 1280 720"
   enable-background="new -68.5 -68.5 397.5 673.5"
   xml:space="preserve"
   inkscape:version="0.91 r13725"
   sodipodi:docname="aws-architecture-load-balancing.svg"><metadata
     id="metadata467"><rdf:RDF><cc:Work
         rdf:about=""><dc:format>image/svg+xml</dc:format><dc:type
           rdf:resource="http://purl.org/dc/dcmitype/StillImage" /><dc:title></dc:title></cc:Work></rdf:RDF></metadata><defs
     id="defs465" /><sodipodi:namedview
     pagecolor="#000000"
     bordercolor="#666666"
     borderopacity="1"
     objecttolerance="10"
     gridtolerance="10"
     guidetolerance="10"
     inkscape:pageopacity="0"
     inkscape:pageshadow="2"
     inkscape:window-width="1373"
     inkscape:window-height="892"
     id="namedview463"
     showgrid="false"
     inkscape:zoom="1.0440874"
     inkscape:cx="501.12274"
     inkscape:cy="360"
     inkscape:window-x="208"
     inkscape:window-y="130"
     inkscape:window-maximized="0"
     inkscape:current-layer="Layer_1"
     showguides="true"
     inkscape:guide-bbox="true" /><g
     id="g4613"
     transform="matrix(1.554182,0,0,1.554182,-265.75133,-50.395158)"
     style="opacity:1"><rect
       id="rect61"
       height="2.5599999"
       width="4.5300002"
       pointer-events="none"
       y="233.87169"
       x="569.14624"
       style="fill:#9d5125" /><rect
       id="rect63"
       height="2.5599999"
       width="4.5209999"
       pointer-events="none"
       y="233.87169"
       x="588.90625"
       style="fill:#9d5125" /><path
       id="path65"
       d="m 588.90624,242.09169 0,2.562 -6.119,6.33 0,-2.57 6.119,-6.322 z"
       pointer-events="none"
       style="fill:#9d5125"
       inkscape:connector-curvature="0" /><path
       id="path67"
       d="m 580.06624,248.41169 0,2.57 -6.39,-6.53 0,-2.57 6.39,6.53 z"
       pointer-events="none"
       style="fill:#9d5125"
       inkscape:connector-curvature="0" /><rect
       id="rect69"
       height="2.5699999"
       width="10.49"
       pointer-events="none"
       y="254.36169"
       x="600.39624"
       style="fill:#9d5125" /><rect
       id="rect71"
       height="2.5699999"
       width="10.49"
       pointer-events="none"
       y="254.36169"
       x="551.88623"
       style="fill:#9d5125" /><path
       id="path73"
       d="m 600.39624,260.50169 0,2.57 -12.32,-12.15 0,-2.57 12.32,12.15 z"
       pointer-events="none"
       style="fill:#9d5125"
       inkscape:connector-curvature="0" /><path
       id="path75"
       d="m 562.37624,236.34169 12.32,12.14 -12.32,12.02 0,-6.14 -10.49,0 0,-11.89 10.49,0 0,-6.13 z"
       pointer-events="none"
       style="fill:#f48334"
       inkscape:connector-curvature="0" /><path
       id="path77"
       d="m 574.69624,248.48169 0,2.57 -12.32,12.021 0,-2.57 12.32,-12.021 z"
       pointer-events="none"
       style="fill:#9d5125"
       inkscape:connector-curvature="0" /><path
       id="path79"
       d="m 600.39624,236.34169 0,6.14 10.49,0 0,11.88 -10.49,0 0,6.14 -12.32,-12.15 12.32,-12.01 z"
       pointer-events="none"
       style="fill:#f48334"
       inkscape:connector-curvature="0" /><path
       id="path81"
       d="m 593.43624,263.81169 0,2.57 -12.21,12.24 -0.57,-3.14 12.78,-11.67 z"
       pointer-events="none"
       style="fill:#9d5125"
       inkscape:connector-curvature="0" /><path
       id="path83"
       d="m 581.22624,276.06169 0,2.56 -12.08,-12.24 0,-2.57 12.08,12.25 z"
       pointer-events="none"
       style="fill:#9d5125"
       inkscape:connector-curvature="0" /><path
       id="path85"
       d="m 581.35624,221.62169 12.08,12.25 -4.53,0 0,8.22 -6.119,6.32 6.119,6.5 0,8.9 4.53,0 -12.21,12.25 -12.08,-12.25 4.53,0 0,-8.8 6.39,-6.6 -6.39,-6.53 0,-8.01 -4.53,0 12.21,-12.25 z"
       pointer-events="none"
       style="fill:#f48334"
       inkscape:connector-curvature="0" /></g><g
     id="g4628"
     transform="matrix(1.554182,0,0,1.554182,-365.48455,-89.097602)"
     style="opacity:1"><path
       id="path203"
       d="m 600.52724,357.82169 -29.15,9.149 0,-48.849 29.15,9.16 0,30.54 z"
       pointer-events="none"
       style="fill:#f58435"
       inkscape:connector-curvature="0" /><path
       id="path205"
       d="m 563.24624,359.51269 -6.57,1.27 0,-36.32 6.57,1.27 0,33.78 z"
       pointer-events="none"
       style="fill:#f58435"
       inkscape:connector-curvature="0" /><path
       id="path207"
       d="m 571.37624,361.62169 -8.13,1.98 0,-41.96 8.13,1.98 0,38 z"
       pointer-events="none"
       style="fill:#f58435"
       inkscape:connector-curvature="0" /><path
       id="path209"
       d="m 567.10624,319.95169 4.271,-1.83 0,49 -4.271,-1.83 0,-45.34 z"
       pointer-events="none"
       style="fill:#9d5025"
       inkscape:connector-curvature="0" /><path
       id="path211"
       d="m 559.79624,323.12169 3.45,-1.48 0,41.961 -3.45,-1.48 0,-39.001 z"
       pointer-events="none"
       style="fill:#9d5025"
       inkscape:connector-curvature="0" /><path
       id="path213"
       d="m 556.67624,324.46169 -2.79,1.2 0,33.92 2.79,1.2 0,-36.32 z"
       pointer-events="none"
       style="fill:#9d5025"
       inkscape:connector-curvature="0" /><path
       id="path215"
       d="m 581.88624,336.78169 0,-23.16 -5.58,2.391 0,21.26 5.58,-0.491 z"
       pointer-events="none"
       style="fill:#9d5025"
       inkscape:connector-curvature="0" /><path
       id="path217"
       d="m 576.30624,347.83169 0,21.399 5.58,2.391 0,-23.3 -5.58,-0.49 z"
       pointer-events="none"
       style="fill:#9d5025"
       inkscape:connector-curvature="0" /><path
       id="path219"
       d="m 596.82524,338.04169 0,-18.01 -14.939,-6.41 0,23.16 14.939,1.26 z"
       pointer-events="none"
       style="fill:#f58435"
       inkscape:connector-curvature="0" /><path
       id="path221"
       d="m 581.88624,348.32169 0,23.3 14.939,-6.41 0,-18.16 -14.939,1.27 z"
       pointer-events="none"
       style="fill:#f58435"
       inkscape:connector-curvature="0" /><path
       id="path223"
       d="m 609.88624,339.17169 0,-13.51 -7.96,-3.45 0,16.26 7.96,0.7 z"
       pointer-events="none"
       style="fill:#f58435"
       inkscape:connector-curvature="0" /><path
       id="path225"
       d="m 601.92624,346.63169 0,16.4 7.96,-3.45 0,-13.649 -7.96,0.699 z"
       pointer-events="none"
       style="fill:#f58435"
       inkscape:connector-curvature="0" /><path
       id="path227"
       d="m 596.82524,338.04169 -5.5,0.29 -15.02,-1.06 5.58,-0.49 14.94,1.26 z"
       pointer-events="none"
       style="fill:#6b3b19"
       inkscape:connector-curvature="0" /><path
       id="path229"
       d="m 596.82524,347.05169 -5.17,-0.279 -15.35,1.06 5.33,0.49 15.19,-1.271 z"
       pointer-events="none"
       style="fill:#fbbf92"
       inkscape:connector-curvature="0" /><path
       id="path231"
       d="m 598.38624,322.98069 3.54,-0.77 0,16.26 -3.54,0.211 0,-15.701 z"
       pointer-events="none"
       style="fill:#9d5025"
       inkscape:connector-curvature="0" /><path
       id="path233"
       d="m 598.38624,362.26269 3.54,0.77 0,-16.4 -3.54,-0.211 0,15.841 z"
       pointer-events="none"
       style="fill:#9d5025"
       inkscape:connector-curvature="0" /><path
       id="path235"
       d="m 609.88624,345.93269 -3.2,-0.141 -8.3,0.63 3.54,0.21 7.96,-0.699 z"
       pointer-events="none"
       style="fill:#fbbf92"
       inkscape:connector-curvature="0" /><path
       id="path237"
       d="m 609.88624,339.17169 -3.2,0.14 -8.3,-0.629 3.54,-0.211 7.96,0.7 z"
       pointer-events="none"
       style="fill:#6b3b19"
       inkscape:connector-curvature="0" /></g><g
     id="g4882"
     transform="matrix(0.5287066,0,0,0.5287066,191.69233,4.5030112)"
     style="opacity:0.3"><path
       style="opacity:1;fill:#2d72b8"
       inkscape:connector-curvature="0"
       pointer-events="none"
       d="m 703.55639,107.42841 16.49862,12.8963 0,-18.25174 -16.59468,-21.061561 0,26.320941 0.0961,0.024 0,0.072 z"
       id="path43" /><path
       style="opacity:1;fill:#5294cf"
       inkscape:connector-curvature="0"
       pointer-events="none"
       d="m 671.78394,236.77567 31.67399,-17.17105 0,-138.641242 -31.6956,-17.099006 0.0216,172.911298 z"
       id="path45" /><path
       style="opacity:1;fill:#205b98"
       inkscape:connector-curvature="0"
       pointer-events="none"
       d="m 626.63488,236.77567 -31.67398,-17.17105 0,-138.641242 31.6956,-17.099006 -0.0216,172.911298 z"
       id="path47" /><rect
       style="opacity:1;fill:#2d72b8"
       x="626.65649"
       y="63.864372"
       pointer-events="none"
       width="45.055401"
       height="172.9113"
       id="rect49" /><path
       style="opacity:1;fill:#2d72b8"
       inkscape:connector-curvature="0"
       pointer-events="none"
       d="m 703.46033,193.30769 0,26.29693 16.59468,-21.03754 0,-18.25175 -16.49862,12.94433 -0.0961,0.048 z"
       id="path51" /><path
       style="opacity:1;fill:#2d72b8"
       inkscape:connector-curvature="0"
       pointer-events="none"
       d="m 703.46033,182.18853 0.0961,-0.024 16.49862,-9.60619 0,-18.37182 -16.59468,1.65707 0,26.34495 z"
       id="path53" /><path
       style="opacity:1;fill:#2d72b8"
       inkscape:connector-curvature="0"
       pointer-events="none"
       d="m 703.55639,118.52355 -0.0961,-0.024 0,26.24889 16.59468,1.68109 0,-18.34781 -16.49862,-9.55816 z"
       id="path55" /><path
       style="opacity:1;fill:#1a476f"
       inkscape:connector-curvature="0"
       pointer-events="none"
       d="m 720.05501,146.42952 -16.59468,-1.68109 -31.698,-1.36888 -22.55292,0 -22.55291,0 -31.69801,1.36888 0,-26.17684 -0.024,0 0.024,-0.0721 31.69801,-7.94912 22.55291,0 22.55292,0 31.698,7.94912 11.67152,6.72433 0,-4.32279 4.92316,-0.57637 -16.59468,-12.99236 -31.698,-10.638847 -22.55292,0 -22.55291,0 -31.69801,10.638847 0,-26.320941 -16.59468,21.037541 0,18.39584 0.1465,-0.12008 4.77667,0.57637 0,4.39483 -4.92317,2.85784 0,18.29978 0.1465,-0.024 4.77667,0.072 0,7.68495 -4.13066,0.072 -0.79251,-0.0961 0,18.29978 4.92317,2.88186 0,4.44286 -4.73104,0.57637 -0.19213,-0.16811 0,18.37183 16.59468,21.03754 0,-26.29693 31.69801,10.63885 22.55291,0 22.55292,0 31.79406,-10.68688 16.49862,-12.87229 -4.92316,-0.60038 0,-4.37082 -11.57546,6.74835 -31.79406,7.90108 0,0.024 -22.55292,0 -22.55291,0 0,-0.024 -31.79407,-7.90108 -0.072,-0.12008 0.1681,0.0961 0,-26.29692 31.69801,1.36888 0,0.024 22.55291,0 22.55292,0 0,-0.024 31.698,-1.36888 16.59468,-1.58502 -4.92316,-0.072 0,-7.68495 4.92316,-0.072 z"
       id="path57" /></g><g
     transform="matrix(1.3192581,0,0,1.3192581,156.79274,114.13333)"
     id="g3593"
     style="opacity:0.3"><path
       pointer-events="none"
       d="m 223.93,104.439 -7.23,-1.8 0,46 7.23,-1.7 0,-42.5 z"
       id="path163-4"
       inkscape:connector-curvature="0"
       style="fill:#f58536" /><path
       pointer-events="none"
       d="m 237.989,149.939 -11.29,3.7 0,-56.1 11.29,3.7 0,48.7 z"
       id="path165-9"
       inkscape:connector-curvature="0"
       style="fill:#f58536" /><path
       pointer-events="none"
       d="m 246.1,107.939 5.15,-2.7 17.129,6.7 -4.56,0.6 -17.719,-4.6 z"
       id="path167-0"
       inkscape:connector-curvature="0"
       style="fill:#6b3a19" /><path
       pointer-events="none"
       d="m 246.299,143.339 5.051,2.7 17.13,-6.7 -4.56,-0.601 -17.621,4.601 z"
       id="path169-5"
       inkscape:connector-curvature="0"
       style="fill:#fbbf93" /><path
       pointer-events="none"
       d="m 247.59,135.939 9.01,1.2 0,-23 -9.01,1.2 0,20.6 z"
       id="path171-1"
       inkscape:connector-curvature="0"
       style="fill:#9d5025" /><path
       pointer-events="none"
       d="m 251.25,157.139 -8.811,4.5 0,-72 8.811,4.5 0,63 z"
       id="path173-0"
       inkscape:connector-curvature="0"
       style="fill:#f58536" /><path
       pointer-events="none"
       d="m 271.939,138.339 -29.5,8.899 0,14.4 29.5,-14.9 0,-8.399 z"
       id="path175-2"
       inkscape:connector-curvature="0"
       style="fill:#f58536" /><path
       pointer-events="none"
       d="m 268.18,102.639 3.76,1.9 0,42.2 -3.76,1.9 0,-46 z"
       id="path177"
       inkscape:connector-curvature="0"
       style="fill:#f58536" /><path
       pointer-events="none"
       d="m 242.439,104.039 29.5,8.9 0,-8.4 -29.5,-14.9 0,14.4 z"
       id="path179-8"
       inkscape:connector-curvature="0"
       style="fill:#f58536" /><path
       pointer-events="none"
       d="m 233.629,157.139 8.811,4.5 0,-72 -8.811,4.5 0,63 z"
       id="path181-9"
       inkscape:connector-curvature="0"
       style="fill:#9d5025" /><path
       pointer-events="none"
       d="m 221.159,100.339 5.54,-2.8 0,56.2 -5.54,-2.8 0,-50.6 z"
       id="path183-5"
       inkscape:connector-curvature="0"
       style="fill:#9d5025" /><path
       pointer-events="none"
       d="m 212.939,146.739 3.76,1.9 0,-46 -3.76,1.9 0,42.2 z"
       id="path185-8"
       inkscape:connector-curvature="0"
       style="fill:#9d5025" /><path
       pointer-events="none"
       d="m 263.619,112.539 4.561,-0.6 0,27.5 -4.561,-0.6 0,-26.3 z"
       id="path187-5"
       inkscape:connector-curvature="0"
       style="fill:#9d5025" /><path
       pointer-events="none"
       d="m 256.6,114.139 0,23.1 9.4,-11.6 -9.4,-11.5 z"
       id="path189-6"
       inkscape:connector-curvature="0"
       style="fill:#f58536" /></g></svg>