<?xml version="1.0" encoding="utf-8"?>
<!-- Generator: Adobe Illustrator 13.0.0, SVG Export Plug-In . SVG Version: 6.00 Build 14948)  -->
<!DOCTYPE svg PUBLIC "-//W3C//DTD SVG 1.1//EN" "http://www.w3.org/Graphics/SVG/1.1/DTD/svg11.dtd">
<svg version="1.1" id="Layer_1" xmlns="http://www.w3.org/2000/svg" xmlns:xlink="http://www.w3.org/1999/xlink" x="0px" y="0px"
	 width="397.5px" height="673.5px" viewBox="-68.5 -68.5 397.5 673.5" enable-background="new -68.5 -68.5 397.5 673.5"
	 xml:space="preserve">
<g transform="translate(0.5,0.5)">
	<path pointer-events="none" fill="#9D5025" d="M154.162,155.854v2.7h-23.71l-0.99-3.54L154.162,155.854z"/>
	<path pointer-events="none" fill="#9D5025" d="M135.212,110.273v2.69h-17.63l-2.47-3.4L135.212,110.273z"/>
	<path pointer-events="none" fill="#9D5025" d="M117.582,110.273v2.69c-0.97,0-1.83,0.56-2.26,1.36v-2.7
		C115.752,110.824,116.612,110.273,117.582,110.273"/>
	<path pointer-events="none" fill="#9D5025" d="M115.322,111.624v2.7c-0.08,0.14-0.15,0.29-0.2,0.45v-2.689
		C115.172,111.924,115.242,111.773,115.322,111.624"/>
	<path pointer-events="none" fill="#9D5025" d="M115.122,112.084v2.689c-0.04,0.14-0.08,0.271-0.1,0.41v-2.69
		C115.042,112.354,115.082,112.214,115.122,112.084"/>
	<path pointer-events="none" fill="#9D5025" d="M115.022,112.494v2.7c-0.021,0.11-0.021,0.24-0.021,0.36v-2.69
		C115.002,112.734,115.012,112.614,115.022,112.494"/>
	<path pointer-events="none" fill="#9D5025" d="M117.582,110.273v2.69c-1.42,0-2.58,1.17-2.58,2.59v-2.69
		C115.002,111.444,116.162,110.273,117.582,110.273z"/>
	<path pointer-events="none" fill="#9D5025" d="M145.812,122.733v2.69h-17.81l-1.51-3.07L145.812,122.733z"/>
	<path pointer-events="none" fill="#9D5025" d="M128.183,122.733v2.69c-0.971,0-1.82,0.55-2.25,1.35v-2.7
		C126.362,123.273,127.212,122.733,128.183,122.733"/>
	<path pointer-events="none" fill="#9D5025" d="M125.933,124.074v2.7c-0.08,0.14-0.15,0.3-0.201,0.45v-2.69
		C125.782,124.374,125.853,124.224,125.933,124.074"/>
	<path pointer-events="none" fill="#9D5025" d="M125.731,124.534v2.69c-0.039,0.14-0.08,0.28-0.1,0.43v-2.7
		C125.651,124.813,125.692,124.674,125.731,124.534"/>
	<path pointer-events="none" fill="#9D5025" d="M125.632,124.954v2.7c-0.02,0.12-0.029,0.24-0.029,0.37v-2.689
		C125.603,125.204,125.612,125.074,125.632,124.954"/>
	<path pointer-events="none" fill="#9D5025" d="M128.183,122.733v2.69c-1.421,0-2.58,1.17-2.58,2.6v-2.689
		C125.603,123.894,126.762,122.733,128.183,122.733z"/>
	<path pointer-events="none" fill="#9D5025" d="M115.002,130.874v2.689h-5.89l-0.92-3.27L115.002,130.874z"/>
	<path pointer-events="none" fill="#9D5025" d="M109.112,130.874v2.689c-1.41,0-2.57-1.15-2.57-2.58v-2.68
		C106.542,129.733,107.702,130.874,109.112,130.874"/>
	<path pointer-events="none" fill="#9D5025" d="M109.112,130.874v2.689c-1.41,0-2.57-1.15-2.57-2.58v-2.68
		C106.542,129.733,107.702,130.874,109.112,130.874z"/>
	<rect x="119.532" y="143.334" pointer-events="none" fill="#9D5025" width="6.07" height="2.7"/>
	<path pointer-events="none" fill="#9D5025" d="M119.722,143.334v2.689c-1.42,0-2.57-1.149-2.57-2.58v-2.7
		C117.151,142.174,118.302,143.334,119.722,143.334"/>
	<path pointer-events="none" fill="#9D5025" d="M119.722,143.334v2.689c-1.42,0-2.57-1.149-2.57-2.58v-2.7
		C117.151,142.174,118.302,143.334,119.722,143.334z"/>
	<path pointer-events="none" fill="#9D5125" d="M130.452,155.854v2.7c-1.42,0-2.57-1.17-2.57-2.59v-2.69
		C127.882,154.694,129.032,155.854,130.452,155.854"/>
	<path pointer-events="none" fill="#9D5125" d="M130.452,155.854v2.7c-1.42,0-2.57-1.17-2.57-2.59v-2.69
		C127.882,154.694,129.032,155.854,130.452,155.854z"/>
	<path pointer-events="none" fill="#9D5025" d="M156.542,153.273v2.69c0,0.13-0.01,0.25-0.03,0.37v-2.69
		C156.532,153.523,156.542,153.394,156.542,153.273"/>
	<path pointer-events="none" fill="#9D5025" d="M156.512,153.644v2.69c-0.02,0.14-0.05,0.28-0.09,0.42v-2.7
		C156.462,153.924,156.492,153.784,156.512,153.644"/>
	<path pointer-events="none" fill="#9D5025" d="M156.422,154.054v2.7c-0.05,0.16-0.12,0.31-0.2,0.45v-2.69
		C156.302,154.364,156.372,154.214,156.422,154.054"/>
	<path pointer-events="none" fill="#9D5025" d="M156.222,154.514v2.69c-0.43,0.8-1.27,1.35-2.24,1.35v-2.7
		C154.952,155.854,155.792,155.313,156.222,154.514"/>
	<path pointer-events="none" fill="#9D5025" d="M156.542,153.273v2.69c0,1.42-1.15,2.59-2.561,2.59v-2.7
		C155.392,155.854,156.542,154.694,156.542,153.273z"/>
	<path pointer-events="none" fill="#F58536" d="M132.642,101.554c1.42,0,2.57,1.15,2.57,2.58v6.14h-17.63
		c-1.42,0-2.58,1.17-2.58,2.59v18.01h-5.89c-1.41,0-2.57-1.141-2.57-2.57v-24.17c0-1.43,1.16-2.58,2.57-2.58H132.642z"/>
	<path pointer-events="none" fill="#F58536" d="M143.252,114.014c1.41,0,2.56,1.16,2.56,2.58v6.14h-17.629
		c-1.421,0-2.58,1.16-2.58,2.601v18h-5.881c-1.42,0-2.58-1.16-2.58-2.59v-24.15c0-1.42,1.16-2.58,2.58-2.58H143.252z"/>
	<path pointer-events="none" fill="#F58536" d="M153.981,126.534c1.41,0,2.561,1.16,2.561,2.57v24.17c0,1.42-1.15,2.58-2.561,2.58
		h-23.529c-1.42,0-2.57-1.16-2.57-2.58v-24.17c0-1.41,1.15-2.57,2.57-2.57H153.981z"/>
	<rect x="123.802" y="206.804" pointer-events="none" fill="#9D5125" width="4.53" height="2.56"/>
	<rect x="143.562" y="206.804" pointer-events="none" fill="#9D5125" width="4.521" height="2.56"/>
	<path pointer-events="none" fill="#9D5125" d="M143.562,215.023v2.561l-6.119,6.33v-2.57L143.562,215.023z"/>
	<path pointer-events="none" fill="#9D5125" d="M134.722,221.344v2.57l-6.39-6.53v-2.57L134.722,221.344z"/>
	<rect x="155.052" y="227.294" pointer-events="none" fill="#9D5125" width="10.49" height="2.57"/>
	<rect x="106.542" y="227.294" pointer-events="none" fill="#9D5125" width="10.49" height="2.57"/>
	<path pointer-events="none" fill="#9D5125" d="M155.052,233.434v2.57l-12.32-12.15v-2.57L155.052,233.434z"/>
	<path pointer-events="none" fill="#F48334" d="M117.032,209.273l12.32,12.14l-12.32,12.02v-6.14h-10.49v-11.89h10.49V209.273z"/>
	<path pointer-events="none" fill="#9D5125" d="M129.353,221.414v2.57l-12.32,12.021v-2.57L129.353,221.414z"/>
	<path pointer-events="none" fill="#F48334" d="M155.052,209.273v6.14h10.49v11.88h-10.49v6.14l-12.32-12.15L155.052,209.273z"/>
	<path pointer-events="none" fill="#9D5125" d="M148.092,236.744v2.57l-12.21,12.24l-0.57-3.14L148.092,236.744z"/>
	<path pointer-events="none" fill="#9D5125" d="M135.882,248.994v2.56l-12.08-12.24v-2.57L135.882,248.994z"/>
	<path pointer-events="none" fill="#F48334" d="M136.012,194.554l12.08,12.25h-4.53v8.22l-6.119,6.32l6.119,6.5v8.9h4.53
		l-12.21,12.25l-12.08-12.25h4.53v-8.8l6.39-6.6l-6.39-6.53v-8.01h-4.53L136.012,194.554z"/>
	<path pointer-events="none" fill="#9D5025" d="M257.156,155.854v2.7h-23.71l-0.99-3.54L257.156,155.854z"/>
	<path pointer-events="none" fill="#9D5025" d="M238.206,110.273v2.69h-17.63l-2.47-3.4L238.206,110.273z"/>
	<path pointer-events="none" fill="#9D5025" d="M220.576,110.273v2.69c-0.97,0-1.83,0.56-2.26,1.36v-2.7
		C218.746,110.824,219.606,110.273,220.576,110.273"/>
	<path pointer-events="none" fill="#9D5025" d="M218.316,111.624v2.7c-0.08,0.14-0.15,0.29-0.2,0.45v-2.689
		C218.166,111.924,218.236,111.773,218.316,111.624"/>
	<path pointer-events="none" fill="#9D5025" d="M218.116,112.084v2.689c-0.04,0.14-0.08,0.271-0.1,0.41v-2.69
		C218.036,112.354,218.076,112.214,218.116,112.084"/>
	<path pointer-events="none" fill="#9D5025" d="M218.017,112.494v2.7c-0.021,0.11-0.021,0.24-0.021,0.36v-2.69
		C217.996,112.734,218.006,112.614,218.017,112.494"/>
	<path pointer-events="none" fill="#9D5025" d="M220.576,110.273v2.69c-1.42,0-2.58,1.17-2.58,2.59v-2.69
		C217.996,111.444,219.156,110.273,220.576,110.273z"/>
	<path pointer-events="none" fill="#9D5025" d="M248.806,122.733v2.69h-17.81l-1.51-3.07L248.806,122.733z"/>
	<path pointer-events="none" fill="#9D5025" d="M231.177,122.733v2.69c-0.971,0-1.82,0.55-2.25,1.35v-2.7
		C229.356,123.273,230.206,122.733,231.177,122.733"/>
	<path pointer-events="none" fill="#9D5025" d="M228.927,124.074v2.7c-0.08,0.14-0.15,0.3-0.201,0.45v-2.69
		C228.776,124.374,228.847,124.224,228.927,124.074"/>
	<path pointer-events="none" fill="#9D5025" d="M228.726,124.534v2.69c-0.039,0.14-0.08,0.28-0.1,0.43v-2.7
		C228.646,124.813,228.687,124.674,228.726,124.534"/>
	<path pointer-events="none" fill="#9D5025" d="M228.626,124.954v2.7c-0.02,0.12-0.029,0.24-0.029,0.37v-2.689
		C228.597,125.204,228.606,125.074,228.626,124.954"/>
	<path pointer-events="none" fill="#9D5025" d="M231.177,122.733v2.69c-1.421,0-2.58,1.17-2.58,2.6v-2.689
		C228.597,123.894,229.756,122.733,231.177,122.733z"/>
	<path pointer-events="none" fill="#9D5025" d="M217.996,130.874v2.689h-5.89l-0.92-3.27L217.996,130.874z"/>
	<path pointer-events="none" fill="#9D5025" d="M212.106,130.874v2.689c-1.41,0-2.57-1.15-2.57-2.58v-2.68
		C209.536,129.733,210.696,130.874,212.106,130.874"/>
	<path pointer-events="none" fill="#9D5025" d="M212.106,130.874v2.689c-1.41,0-2.57-1.15-2.57-2.58v-2.68
		C209.536,129.733,210.696,130.874,212.106,130.874z"/>
	<rect x="222.526" y="143.334" pointer-events="none" fill="#9D5025" width="6.07" height="2.7"/>
	<path pointer-events="none" fill="#9D5025" d="M222.716,143.334v2.689c-1.42,0-2.57-1.149-2.57-2.58v-2.7
		C220.146,142.174,221.296,143.334,222.716,143.334"/>
	<path pointer-events="none" fill="#9D5025" d="M222.716,143.334v2.689c-1.42,0-2.57-1.149-2.57-2.58v-2.7
		C220.146,142.174,221.296,143.334,222.716,143.334z"/>
	<path pointer-events="none" fill="#9D5125" d="M233.446,155.854v2.7c-1.42,0-2.57-1.17-2.57-2.59v-2.69
		C230.876,154.694,232.026,155.854,233.446,155.854"/>
	<path pointer-events="none" fill="#9D5125" d="M233.446,155.854v2.7c-1.42,0-2.57-1.17-2.57-2.59v-2.69
		C230.876,154.694,232.026,155.854,233.446,155.854z"/>
	<path pointer-events="none" fill="#9D5025" d="M259.536,153.273v2.69c0,0.13-0.01,0.25-0.03,0.37v-2.69
		C259.526,153.523,259.536,153.394,259.536,153.273"/>
	<path pointer-events="none" fill="#9D5025" d="M259.506,153.644v2.69c-0.02,0.14-0.05,0.28-0.09,0.42v-2.7
		C259.456,153.924,259.486,153.784,259.506,153.644"/>
	<path pointer-events="none" fill="#9D5025" d="M259.416,154.054v2.7c-0.05,0.16-0.12,0.31-0.2,0.45v-2.69
		C259.296,154.364,259.366,154.214,259.416,154.054"/>
	<path pointer-events="none" fill="#9D5025" d="M259.216,154.514v2.69c-0.43,0.8-1.27,1.35-2.24,1.35v-2.7
		C257.946,155.854,258.786,155.313,259.216,154.514"/>
	<path pointer-events="none" fill="#9D5025" d="M259.536,153.273v2.69c0,1.42-1.15,2.59-2.561,2.59v-2.7
		C258.386,155.854,259.536,154.694,259.536,153.273z"/>
	<path pointer-events="none" fill="#F58536" d="M235.636,101.554c1.42,0,2.57,1.15,2.57,2.58v6.14h-17.63
		c-1.42,0-2.58,1.17-2.58,2.59v18.01h-5.89c-1.41,0-2.57-1.141-2.57-2.57v-24.17c0-1.43,1.16-2.58,2.57-2.58H235.636z"/>
	<path pointer-events="none" fill="#F58536" d="M246.246,114.014c1.41,0,2.56,1.16,2.56,2.58v6.14h-17.629
		c-1.421,0-2.58,1.16-2.58,2.601v18h-5.881c-1.42,0-2.58-1.16-2.58-2.59v-24.15c0-1.42,1.16-2.58,2.58-2.58H246.246z"/>
	<path pointer-events="none" fill="#F58536" d="M256.976,126.534c1.41,0,2.561,1.16,2.561,2.57v24.17c0,1.42-1.15,2.58-2.561,2.58
		h-23.529c-1.42,0-2.57-1.16-2.57-2.58v-24.17c0-1.41,1.15-2.57,2.57-2.57H256.976z"/>
	<path pointer-events="none" fill="#9D5025" d="M47.162,155.854v2.7h-23.71l-0.99-3.54L47.162,155.854z"/>
	<path pointer-events="none" fill="#9D5025" d="M28.212,110.273v2.69h-17.63l-2.47-3.4L28.212,110.273z"/>
	<path pointer-events="none" fill="#9D5025" d="M10.582,110.273v2.69c-0.97,0-1.83,0.56-2.26,1.36v-2.7
		C8.752,110.824,9.612,110.273,10.582,110.273"/>
	<path pointer-events="none" fill="#9D5025" d="M8.322,111.624v2.7c-0.08,0.14-0.15,0.29-0.2,0.45v-2.689
		C8.172,111.924,8.242,111.773,8.322,111.624"/>
	<path pointer-events="none" fill="#9D5025" d="M8.122,112.084v2.689c-0.04,0.14-0.08,0.271-0.1,0.41v-2.69
		C8.042,112.354,8.082,112.214,8.122,112.084"/>
	<path pointer-events="none" fill="#9D5025" d="M8.022,112.494v2.7c-0.021,0.11-0.021,0.24-0.021,0.36v-2.69
		C8.002,112.734,8.012,112.614,8.022,112.494"/>
	<path pointer-events="none" fill="#9D5025" d="M10.582,110.273v2.69c-1.42,0-2.58,1.17-2.58,2.59v-2.69
		C8.002,111.444,9.162,110.273,10.582,110.273z"/>
	<path pointer-events="none" fill="#9D5025" d="M38.812,122.733v2.69h-17.81l-1.51-3.07L38.812,122.733z"/>
	<path pointer-events="none" fill="#9D5025" d="M21.183,122.733v2.69c-0.971,0-1.82,0.55-2.25,1.35v-2.7
		C19.362,123.273,20.212,122.733,21.183,122.733"/>
	<path pointer-events="none" fill="#9D5025" d="M18.933,124.074v2.7c-0.08,0.14-0.15,0.3-0.201,0.45v-2.69
		C18.782,124.374,18.853,124.224,18.933,124.074"/>
	<path pointer-events="none" fill="#9D5025" d="M18.731,124.534v2.69c-0.039,0.14-0.08,0.28-0.1,0.43v-2.7
		C18.651,124.813,18.692,124.674,18.731,124.534"/>
	<path pointer-events="none" fill="#9D5025" d="M18.632,124.954v2.7c-0.02,0.12-0.029,0.24-0.029,0.37v-2.689
		C18.603,125.204,18.612,125.074,18.632,124.954"/>
	<path pointer-events="none" fill="#9D5025" d="M21.183,122.733v2.69c-1.421,0-2.58,1.17-2.58,2.6v-2.689
		C18.603,123.894,19.762,122.733,21.183,122.733z"/>
	<path pointer-events="none" fill="#9D5025" d="M8.002,130.874v2.689h-5.89l-0.92-3.27L8.002,130.874z"/>
	<path pointer-events="none" fill="#9D5025" d="M2.112,130.874v2.689c-1.41,0-2.57-1.15-2.57-2.58v-2.68
		C-0.458,129.733,0.702,130.874,2.112,130.874"/>
	<path pointer-events="none" fill="#9D5025" d="M2.112,130.874v2.689c-1.41,0-2.57-1.15-2.57-2.58v-2.68
		C-0.458,129.733,0.702,130.874,2.112,130.874z"/>
	<rect x="12.532" y="143.334" pointer-events="none" fill="#9D5025" width="6.07" height="2.7"/>
	<path pointer-events="none" fill="#9D5025" d="M12.722,143.334v2.689c-1.42,0-2.57-1.149-2.57-2.58v-2.7
		C10.151,142.174,11.302,143.334,12.722,143.334"/>
	<path pointer-events="none" fill="#9D5025" d="M12.722,143.334v2.689c-1.42,0-2.57-1.149-2.57-2.58v-2.7
		C10.151,142.174,11.302,143.334,12.722,143.334z"/>
	<path pointer-events="none" fill="#9D5125" d="M23.452,155.854v2.7c-1.42,0-2.57-1.17-2.57-2.59v-2.69
		C20.882,154.694,22.032,155.854,23.452,155.854"/>
	<path pointer-events="none" fill="#9D5125" d="M23.452,155.854v2.7c-1.42,0-2.57-1.17-2.57-2.59v-2.69
		C20.882,154.694,22.032,155.854,23.452,155.854z"/>
	<path pointer-events="none" fill="#9D5025" d="M49.542,153.273v2.69c0,0.13-0.01,0.25-0.03,0.37v-2.69
		C49.532,153.523,49.542,153.394,49.542,153.273"/>
	<path pointer-events="none" fill="#9D5025" d="M49.512,153.644v2.69c-0.02,0.14-0.05,0.28-0.09,0.42v-2.7
		C49.462,153.924,49.492,153.784,49.512,153.644"/>
	<path pointer-events="none" fill="#9D5025" d="M49.422,154.054v2.7c-0.05,0.16-0.12,0.31-0.2,0.45v-2.69
		C49.302,154.364,49.372,154.214,49.422,154.054"/>
	<path pointer-events="none" fill="#9D5025" d="M49.222,154.514v2.69c-0.43,0.8-1.27,1.35-2.24,1.35v-2.7
		C47.952,155.854,48.792,155.313,49.222,154.514"/>
	<path pointer-events="none" fill="#9D5025" d="M49.542,153.273v2.69c0,1.42-1.15,2.59-2.561,2.59v-2.7
		C48.392,155.854,49.542,154.694,49.542,153.273z"/>
	<path pointer-events="none" fill="#F58536" d="M25.642,101.554c1.42,0,2.57,1.15,2.57,2.58v6.14h-17.63
		c-1.42,0-2.58,1.17-2.58,2.59v18.01h-5.89c-1.41,0-2.57-1.141-2.57-2.57v-24.17c0-1.43,1.16-2.58,2.57-2.58H25.642z"/>
	<path pointer-events="none" fill="#F58536" d="M36.252,114.014c1.41,0,2.56,1.16,2.56,2.58v6.14H21.183
		c-1.421,0-2.58,1.16-2.58,2.601v18h-5.881c-1.42,0-2.58-1.16-2.58-2.59v-24.15c0-1.42,1.16-2.58,2.58-2.58H36.252z"/>
	<path pointer-events="none" fill="#F58536" d="M46.981,126.534c1.41,0,2.561,1.16,2.561,2.57v24.17c0,1.42-1.15,2.58-2.561,2.58
		H23.452c-1.42,0-2.57-1.16-2.57-2.58v-24.17c0-1.41,1.15-2.57,2.57-2.57H46.981z"/>
	<path pointer-events="none" fill="#F58435" d="M155.183,330.754l-29.15,9.153v-48.854l29.15,9.16V330.754z"/>
	<path pointer-events="none" fill="#F58435" d="M117.901,332.444l-6.569,1.27v-36.32l6.569,1.27V332.444z"/>
	<path pointer-events="none" fill="#F58435" d="M126.032,334.554l-8.131,1.984v-41.964l8.131,1.98V334.554z"/>
	<path pointer-events="none" fill="#9D5025" d="M121.762,292.884l4.271-1.83v49.004l-4.271-1.83V292.884z"/>
	<path pointer-events="none" fill="#9D5025" d="M114.452,296.054l3.449-1.48v41.964l-3.449-1.483V296.054z"/>
	<path pointer-events="none" fill="#9D5025" d="M111.332,297.394l-2.79,1.2v33.92l2.79,1.2V297.394z"/>
	<path pointer-events="none" fill="#9D5025" d="M136.542,309.714v-23.16l-5.58,2.391v21.26L136.542,309.714z"/>
	<path pointer-events="none" fill="#9D5025" d="M130.962,320.764v21.403l5.58,2.391v-23.304L130.962,320.764z"/>
	<path pointer-events="none" fill="#F58435" d="M151.481,310.974v-18.01l-14.939-6.41v23.16L151.481,310.974z"/>
	<path pointer-events="none" fill="#F58435" d="M136.542,321.254v23.304l14.939-6.41v-18.164L136.542,321.254z"/>
	<path pointer-events="none" fill="#F58435" d="M164.542,312.104v-13.51l-7.96-3.45v16.26L164.542,312.104z"/>
	<path pointer-events="none" fill="#F58435" d="M156.582,319.563v16.403l7.96-3.453v-13.649L156.582,319.563z"/>
	<path pointer-events="none" fill="#6B3B19" d="M151.481,310.974l-5.5,0.29l-15.02-1.06l5.58-0.49L151.481,310.974z"/>
	<path pointer-events="none" fill="#FBBF92" d="M151.481,319.983l-5.17-0.279l-15.35,1.06l5.33,0.49L151.481,319.983z"/>
	<path pointer-events="none" fill="#9D5025" d="M153.042,295.913l3.54-0.77v16.26l-3.54,0.211V295.913z"/>
	<path pointer-events="none" fill="#9D5025" d="M153.042,335.195l3.54,0.771v-16.403l-3.54-0.21V335.195z"/>
	<path pointer-events="none" fill="#FBBF92" d="M164.542,318.864l-3.2-0.141l-8.3,0.63l3.54,0.21L164.542,318.864z"/>
	<path pointer-events="none" fill="#6B3B19" d="M164.542,312.104l-3.2,0.14l-8.3-0.629l3.54-0.211L164.542,312.104z"/>
	<path pointer-events="none" fill="#F58536" d="M149.502,531.258l-12.46,6.3v-72l12.46,6.3V531.258z"/>
	<path pointer-events="none" fill="#9D5025" d="M124.572,531.258l12.47,6.3v-72l-12.47,6.3V531.258z"/>
	<path pointer-events="none" fill="#F58536" d="M132.342,491.768l-21.05-2.71v-10.49l21.05,4.99V491.768z"/>
	<path pointer-events="none" fill="#9D5025" d="M162.772,484.708l-21.041,3.659v8.58l21.041-1.27V484.708z"/>
	<path pointer-events="none" fill="#F58536" d="M166.542,496.088l-3.77-0.5v-10.88l3.77,1.399V496.088z"/>
	<path pointer-events="none" fill="#9D5025" d="M107.542,480.468l3.75-1.9v10.49l-3.75,1.03V480.468z"/>
	<path pointer-events="none" fill="#6B3A19" d="M132.342,491.768l-4.38,0.64l-20.42-2.319l3.75-1.03L132.342,491.768z"/>
	<path pointer-events="none" fill="#6B3A19" d="M166.542,496.088l-20.9,1.13l-3.91-0.271l21.471-1.3L166.542,496.088z"/>
	<path pointer-events="none" fill="#8C3123" d="M146.782,402.407l13.65-1.06v-17.431l-13.65,3.601V402.407z"/>
	<path pointer-events="none" fill="#E05243" d="M152.112,400.178l-14.211-2.09v-25.53l14.211,7.22V400.178z"/>
	<path pointer-events="none" fill="#E05243" d="M167.542,402.428l-7.109-1.05v-17.461l7.109,3.601V402.428z"/>
	<path pointer-events="none" fill="#5E1F18" d="M146.782,402.407l13.5-1.05l7.26,1.07l-13.04,0.79L146.782,402.407z"/>
	<path pointer-events="none" fill="#8C3123" d="M146.782,414.708l13.65,1.06v17.43l-13.65-3.6V414.708z"/>
	<path pointer-events="none" fill="#E05243" d="M152.112,416.938l-14.211,2.09v25.53l14.211-7.22V416.938z"/>
	<path pointer-events="none" fill="#E05243" d="M167.392,414.688l-7.09,1.05v17.46l7.09-3.6V414.688z"/>
	<path pointer-events="none" fill="#F2B0A9" d="M146.782,414.708l13.5,1.05l7.26-1.07l-13.04-0.79L146.782,414.708z"/>
	<path pointer-events="none" fill="#E05243" d="M129.151,402.407l-13.64-1.06v-17.431l13.64,3.601V402.407z"/>
	<path pointer-events="none" fill="#8C3123" d="M123.822,400.178l14.22-2.09v-25.53l-14.22,7.22V400.178z"/>
	<path pointer-events="none" fill="#8C3123" d="M108.542,402.428l7.109-1.05v-17.461l-7.109,3.601V402.428z"/>
	<path pointer-events="none" fill="#5E1F18" d="M129.292,402.407l-13.5-1.05l-7.25,1.07l13.03,0.79L129.292,402.407z"/>
	<path pointer-events="none" fill="#E05243" d="M129.151,414.708l-13.64,1.06v17.43l13.64-3.6V414.708z"/>
	<path pointer-events="none" fill="#8C3123" d="M123.822,416.938l14.22,2.09v25.53l-14.22-7.22V416.938z"/>
	<path pointer-events="none" fill="#8C3123" d="M108.542,414.688l7.109,1.05v17.46l-7.109-3.6V414.688z"/>
	<path pointer-events="none" fill="#F2B0A9" d="M129.292,414.708l-13.5,1.05l-7.25-1.07l13.03-0.79L129.292,414.708z"/>
	<path pointer-events="none" fill="#F2B0A9" d="M152.262,416.938l-14.22-1.41l-14.22,1.41l14.22,2.12L152.262,416.938z"/>
	<path pointer-events="none" fill="#5E1F18" d="M152.262,400.178l-14.22,1.39l-14.22-1.39l14.22-2.09L152.262,400.178z"/>
	<path pointer-events="none" fill="#2D72B8" d="M154.672,11.694l6.87,5.37v-7.6l-6.91-8.77v10.96l0.04,0.01V11.694z"/>
	<path pointer-events="none" fill="#5294CF" d="M141.442,65.554l13.189-7.15V0.674l-13.199-7.12L141.442,65.554z"/>
	<path pointer-events="none" fill="#205B98" d="M122.642,65.554l-13.189-7.15V0.674l13.199-7.12L122.642,65.554z"/>
	<rect x="122.651" y="-6.446" pointer-events="none" fill="#2D72B8" width="18.761" height="72"/>
	<path pointer-events="none" fill="#2D72B8" d="M154.632,47.454v10.95l6.91-8.76v-7.6l-6.87,5.39L154.632,47.454z"/>
	<path pointer-events="none" fill="#2D72B8" d="M154.632,42.824l0.04-0.01l6.87-4v-7.65l-6.91,0.69V42.824z"/>
	<path pointer-events="none" fill="#2D72B8" d="M154.672,16.313l-0.04-0.01v10.93l6.91,0.7v-7.64L154.672,16.313z"/>
	<path pointer-events="none" fill="#1A476F" d="M161.542,27.934l-6.91-0.7l-13.199-0.57h-9.391h-9.391l-13.199,0.57v-10.9h-0.01
		l0.01-0.03l13.199-3.31h9.391h9.391l13.199,3.31l4.86,2.8v-1.8l2.05-0.24l-6.91-5.41l-13.199-4.43h-9.391h-9.391l-13.199,4.43
		V0.694l-6.91,8.76v7.66l0.061-0.05l1.989,0.24v1.83l-2.05,1.19v7.62l0.061-0.01l1.989,0.03v3.2l-1.72,0.03l-0.33-0.04v7.62
		l2.05,1.2v1.85l-1.97,0.24l-0.08-0.07v7.65l6.91,8.76v-10.95l13.199,4.43h9.391h9.391l13.239-4.45l6.87-5.36l-2.05-0.25v-1.82
		l-4.82,2.81l-13.239,3.29v0.01h-9.391h-9.391v-0.01l-13.239-3.29l-0.03-0.05l0.07,0.04v-10.95l13.199,0.57v0.01h9.391h9.391v-0.01
		l13.199-0.57l6.91-0.66l-2.05-0.03v-3.2L161.542,27.934z"/>
</g>
</svg>
