<?xml version="1.0" encoding="utf-8"?>
<!-- Generator: Adobe Illustrator 13.0.0, SVG Export Plug-In . SVG Version: 6.00 Build 14948)  -->
<!DOCTYPE svg PUBLIC "-//W3C//DTD SVG 1.1//EN" "http://www.w3.org/Graphics/SVG/1.1/DTD/svg11.dtd">
<svg version="1.1" id="Layer_1" xmlns="http://www.w3.org/2000/svg" xmlns:xlink="http://www.w3.org/1999/xlink" x="0px" y="0px"
	 width="397.5px" height="673.5px" viewBox="-68.5 -68.5 397.5 673.5" enable-background="new -68.5 -68.5 397.5 673.5"
	 xml:space="preserve">
<path pointer-events="none" fill="#9D5025" d="M156.12,155.8v2.7h-23.71l-0.99-3.54L156.12,155.8z"/>
<path pointer-events="none" fill="#9D5025" d="M137.17,110.22v2.69h-17.63l-2.47-3.4L137.17,110.22z"/>
<path pointer-events="none" fill="#9D5025" d="M119.54,110.22v2.69c-0.97,0-1.83,0.56-2.26,1.36v-2.7
	C117.71,110.77,118.57,110.22,119.54,110.22"/>
<path pointer-events="none" fill="#9D5025" d="M117.28,111.57v2.7c-0.08,0.14-0.15,0.29-0.2,0.45v-2.689
	C117.13,111.87,117.2,111.72,117.28,111.57"/>
<path pointer-events="none" fill="#9D5025" d="M117.08,112.03v2.689c-0.04,0.14-0.08,0.271-0.1,0.41v-2.69
	C117,112.3,117.04,112.16,117.08,112.03"/>
<path pointer-events="none" fill="#9D5025" d="M116.98,112.44v2.7c-0.02,0.11-0.02,0.24-0.02,0.36v-2.69
	C116.96,112.68,116.97,112.56,116.98,112.44"/>
<path pointer-events="none" fill="#9D5025" d="M119.54,110.22v2.69c-1.42,0-2.58,1.17-2.58,2.59v-2.69
	C116.96,111.39,118.12,110.22,119.54,110.22z"/>
<path pointer-events="none" fill="#9D5025" d="M147.77,122.68v2.69h-17.81l-1.51-3.07L147.77,122.68z"/>
<path pointer-events="none" fill="#9D5025" d="M130.14,122.68v2.69c-0.97,0-1.82,0.55-2.25,1.35v-2.7
	C128.32,123.22,129.17,122.68,130.14,122.68"/>
<path pointer-events="none" fill="#9D5025" d="M127.89,124.02v2.7c-0.08,0.14-0.15,0.3-0.2,0.45v-2.69
	C127.74,124.32,127.81,124.17,127.89,124.02"/>
<path pointer-events="none" fill="#9D5025" d="M127.69,124.48v2.69c-0.04,0.14-0.08,0.28-0.1,0.43v-2.7
	C127.61,124.76,127.65,124.62,127.69,124.48"/>
<path pointer-events="none" fill="#9D5025" d="M127.59,124.9v2.7c-0.02,0.12-0.03,0.24-0.03,0.37v-2.689
	C127.56,125.15,127.57,125.02,127.59,124.9"/>
<path pointer-events="none" fill="#9D5025" d="M130.14,122.68v2.69c-1.42,0-2.58,1.17-2.58,2.6v-2.689
	C127.56,123.84,128.72,122.68,130.14,122.68z"/>
<path pointer-events="none" fill="#9D5025" d="M116.96,130.82v2.689h-5.89l-0.92-3.27L116.96,130.82z"/>
<path pointer-events="none" fill="#9D5025" d="M111.07,130.82v2.689c-1.41,0-2.57-1.15-2.57-2.58v-2.68
	C108.5,129.68,109.66,130.82,111.07,130.82"/>
<path pointer-events="none" fill="#9D5025" d="M111.07,130.82v2.689c-1.41,0-2.57-1.15-2.57-2.58v-2.68
	C108.5,129.68,109.66,130.82,111.07,130.82z"/>
<rect x="121.49" y="143.28" pointer-events="none" fill="#9D5025" width="6.07" height="2.7"/>
<path pointer-events="none" fill="#9D5025" d="M121.68,143.28v2.689c-1.42,0-2.57-1.149-2.57-2.58v-2.7
	C119.11,142.12,120.26,143.28,121.68,143.28"/>
<path pointer-events="none" fill="#9D5025" d="M121.68,143.28v2.689c-1.42,0-2.57-1.149-2.57-2.58v-2.7
	C119.11,142.12,120.26,143.28,121.68,143.28z"/>
<path pointer-events="none" fill="#9D5125" d="M132.41,155.8v2.7c-1.42,0-2.57-1.17-2.57-2.59v-2.69
	C129.84,154.64,130.99,155.8,132.41,155.8"/>
<path pointer-events="none" fill="#9D5125" d="M132.41,155.8v2.7c-1.42,0-2.57-1.17-2.57-2.59v-2.69
	C129.84,154.64,130.99,155.8,132.41,155.8z"/>
<path pointer-events="none" fill="#9D5025" d="M158.5,153.22v2.69c0,0.13-0.01,0.25-0.03,0.37v-2.69
	C158.49,153.47,158.5,153.34,158.5,153.22"/>
<path pointer-events="none" fill="#9D5025" d="M158.47,153.59v2.69c-0.02,0.14-0.05,0.28-0.09,0.42V154
	C158.42,153.87,158.45,153.73,158.47,153.59"/>
<path pointer-events="none" fill="#9D5025" d="M158.38,154v2.7c-0.05,0.16-0.12,0.31-0.2,0.45v-2.69
	C158.26,154.31,158.33,154.16,158.38,154"/>
<path pointer-events="none" fill="#9D5025" d="M158.18,154.46v2.69c-0.43,0.8-1.27,1.35-2.24,1.35v-2.7
	C156.91,155.8,157.75,155.26,158.18,154.46"/>
<path pointer-events="none" fill="#9D5025" d="M158.5,153.22v2.69c0,1.42-1.15,2.59-2.561,2.59v-2.7
	C157.35,155.8,158.5,154.64,158.5,153.22z"/>
<path pointer-events="none" fill="#F58536" d="M134.6,101.5c1.42,0,2.57,1.15,2.57,2.58v6.14h-17.63c-1.42,0-2.58,1.17-2.58,2.59
	v18.01h-5.89c-1.41,0-2.57-1.141-2.57-2.57v-24.17c0-1.43,1.16-2.58,2.57-2.58H134.6z"/>
<path pointer-events="none" fill="#F58536" d="M145.21,113.96c1.41,0,2.56,1.16,2.56,2.58v6.14H130.14c-1.42,0-2.58,1.16-2.58,2.6
	v18h-5.88c-1.42,0-2.58-1.16-2.58-2.59v-24.15c0-1.42,1.16-2.58,2.58-2.58H145.21z"/>
<path pointer-events="none" fill="#F58536" d="M155.939,126.48c1.41,0,2.561,1.16,2.561,2.57v24.17c0,1.42-1.15,2.58-2.561,2.58
	H132.41c-1.42,0-2.57-1.16-2.57-2.58v-24.17c0-1.41,1.15-2.57,2.57-2.57H155.939z"/>
<path pointer-events="none" fill="#9D5025" d="M259.12,155.8v2.7h-23.71l-0.99-3.54L259.12,155.8z"/>
<path pointer-events="none" fill="#9D5025" d="M240.17,110.22v2.69h-17.63l-2.47-3.4L240.17,110.22z"/>
<path pointer-events="none" fill="#9D5025" d="M222.54,110.22v2.69c-0.97,0-1.83,0.56-2.26,1.36v-2.7
	C220.71,110.77,221.57,110.22,222.54,110.22"/>
<path pointer-events="none" fill="#9D5025" d="M220.28,111.57v2.7c-0.08,0.14-0.15,0.29-0.2,0.45v-2.689
	C220.13,111.87,220.2,111.72,220.28,111.57"/>
<path pointer-events="none" fill="#9D5025" d="M220.08,112.03v2.689c-0.04,0.14-0.08,0.271-0.1,0.41v-2.69
	C220,112.3,220.04,112.16,220.08,112.03"/>
<path pointer-events="none" fill="#9D5025" d="M219.98,112.44v2.7c-0.021,0.11-0.021,0.24-0.021,0.36v-2.69
	C219.96,112.68,219.97,112.56,219.98,112.44"/>
<path pointer-events="none" fill="#9D5025" d="M222.54,110.22v2.69c-1.42,0-2.58,1.17-2.58,2.59v-2.69
	C219.96,111.39,221.12,110.22,222.54,110.22z"/>
<path pointer-events="none" fill="#9D5025" d="M250.77,122.68v2.69h-17.81l-1.51-3.07L250.77,122.68z"/>
<path pointer-events="none" fill="#9D5025" d="M233.141,122.68v2.69c-0.971,0-1.82,0.55-2.25,1.35v-2.7
	C231.32,123.22,232.17,122.68,233.141,122.68"/>
<path pointer-events="none" fill="#9D5025" d="M230.891,124.02v2.7c-0.08,0.14-0.15,0.3-0.201,0.45v-2.69
	C230.74,124.32,230.811,124.17,230.891,124.02"/>
<path pointer-events="none" fill="#9D5025" d="M230.689,124.48v2.69c-0.039,0.14-0.08,0.28-0.1,0.43v-2.7
	C230.609,124.76,230.65,124.62,230.689,124.48"/>
<path pointer-events="none" fill="#9D5025" d="M230.59,124.9v2.7c-0.02,0.12-0.029,0.24-0.029,0.37v-2.689
	C230.561,125.15,230.57,125.02,230.59,124.9"/>
<path pointer-events="none" fill="#9D5025" d="M233.141,122.68v2.69c-1.421,0-2.58,1.17-2.58,2.6v-2.689
	C230.561,123.84,231.72,122.68,233.141,122.68z"/>
<path pointer-events="none" fill="#9D5025" d="M219.96,130.82v2.689h-5.89l-0.92-3.27L219.96,130.82z"/>
<path pointer-events="none" fill="#9D5025" d="M214.07,130.82v2.689c-1.41,0-2.57-1.15-2.57-2.58v-2.68
	C211.5,129.68,212.66,130.82,214.07,130.82"/>
<path pointer-events="none" fill="#9D5025" d="M214.07,130.82v2.689c-1.41,0-2.57-1.15-2.57-2.58v-2.68
	C211.5,129.68,212.66,130.82,214.07,130.82z"/>
<rect x="224.49" y="143.28" pointer-events="none" fill="#9D5025" width="6.07" height="2.7"/>
<path pointer-events="none" fill="#9D5025" d="M224.68,143.28v2.689c-1.42,0-2.57-1.149-2.57-2.58v-2.7
	C222.109,142.12,223.26,143.28,224.68,143.28"/>
<path pointer-events="none" fill="#9D5025" d="M224.68,143.28v2.689c-1.42,0-2.57-1.149-2.57-2.58v-2.7
	C222.109,142.12,223.26,143.28,224.68,143.28z"/>
<path pointer-events="none" fill="#9D5125" d="M235.41,155.8v2.7c-1.42,0-2.57-1.17-2.57-2.59v-2.69
	C232.84,154.64,233.99,155.8,235.41,155.8"/>
<path pointer-events="none" fill="#9D5125" d="M235.41,155.8v2.7c-1.42,0-2.57-1.17-2.57-2.59v-2.69
	C232.84,154.64,233.99,155.8,235.41,155.8z"/>
<path pointer-events="none" fill="#9D5025" d="M261.5,153.22v2.69c0,0.13-0.01,0.25-0.03,0.37v-2.69
	C261.49,153.47,261.5,153.34,261.5,153.22"/>
<path pointer-events="none" fill="#9D5025" d="M261.47,153.59v2.69c-0.02,0.14-0.05,0.28-0.09,0.42V154
	C261.42,153.87,261.45,153.73,261.47,153.59"/>
<path pointer-events="none" fill="#9D5025" d="M261.38,154v2.7c-0.05,0.16-0.12,0.31-0.2,0.45v-2.69
	C261.26,154.31,261.33,154.16,261.38,154"/>
<path pointer-events="none" fill="#9D5025" d="M261.18,154.46v2.69c-0.43,0.8-1.27,1.35-2.24,1.35v-2.7
	C259.91,155.8,260.75,155.26,261.18,154.46"/>
<path pointer-events="none" fill="#9D5025" d="M261.5,153.22v2.69c0,1.42-1.15,2.59-2.561,2.59v-2.7
	C260.35,155.8,261.5,154.64,261.5,153.22z"/>
<path pointer-events="none" fill="#F58536" d="M237.6,101.5c1.42,0,2.57,1.15,2.57,2.58v6.14h-17.63c-1.42,0-2.58,1.17-2.58,2.59
	v18.01h-5.89c-1.41,0-2.57-1.141-2.57-2.57v-24.17c0-1.43,1.16-2.58,2.57-2.58H237.6z"/>
<path pointer-events="none" fill="#F58536" d="M248.21,113.96c1.41,0,2.56,1.16,2.56,2.58v6.14h-17.629c-1.421,0-2.58,1.16-2.58,2.6
	v18h-5.881c-1.42,0-2.58-1.16-2.58-2.59v-24.15c0-1.42,1.16-2.58,2.58-2.58H248.21z"/>
<path pointer-events="none" fill="#F58536" d="M258.939,126.48c1.41,0,2.561,1.16,2.561,2.57v24.17c0,1.42-1.15,2.58-2.561,2.58
	H235.41c-1.42,0-2.57-1.16-2.57-2.58v-24.17c0-1.41,1.15-2.57,2.57-2.57H258.939z"/>
<path pointer-events="none" fill="#9D5025" d="M49.12,155.8v2.7H25.41l-0.99-3.54L49.12,155.8z"/>
<path pointer-events="none" fill="#9D5025" d="M30.17,110.22v2.69H12.54l-2.47-3.4L30.17,110.22z"/>
<path pointer-events="none" fill="#9D5025" d="M12.54,110.22v2.69c-0.97,0-1.83,0.56-2.26,1.36v-2.7
	C10.71,110.77,11.57,110.22,12.54,110.22"/>
<path pointer-events="none" fill="#9D5025" d="M10.28,111.57v2.7c-0.08,0.14-0.15,0.29-0.2,0.45v-2.689
	C10.13,111.87,10.2,111.72,10.28,111.57"/>
<path pointer-events="none" fill="#9D5025" d="M10.08,112.03v2.689c-0.04,0.14-0.08,0.271-0.1,0.41v-2.69
	C10,112.3,10.04,112.16,10.08,112.03"/>
<path pointer-events="none" fill="#9D5025" d="M9.98,112.44v2.7c-0.02,0.11-0.02,0.24-0.02,0.36v-2.69
	C9.96,112.68,9.97,112.56,9.98,112.44"/>
<path pointer-events="none" fill="#9D5025" d="M12.54,110.22v2.69c-1.42,0-2.58,1.17-2.58,2.59v-2.69
	C9.96,111.39,11.12,110.22,12.54,110.22z"/>
<path pointer-events="none" fill="#9D5025" d="M40.77,122.68v2.69H22.96l-1.51-3.07L40.77,122.68z"/>
<path pointer-events="none" fill="#9D5025" d="M23.14,122.68v2.69c-0.97,0-1.82,0.55-2.25,1.35v-2.7
	C21.32,123.22,22.17,122.68,23.14,122.68"/>
<path pointer-events="none" fill="#9D5025" d="M20.89,124.02v2.7c-0.08,0.14-0.15,0.3-0.2,0.45v-2.69
	C20.74,124.32,20.81,124.17,20.89,124.02"/>
<path pointer-events="none" fill="#9D5025" d="M20.69,124.48v2.69c-0.04,0.14-0.08,0.28-0.1,0.43v-2.7
	C20.61,124.76,20.65,124.62,20.69,124.48"/>
<path pointer-events="none" fill="#9D5025" d="M20.59,124.9v2.7c-0.02,0.12-0.03,0.24-0.03,0.37v-2.689
	C20.56,125.15,20.57,125.02,20.59,124.9"/>
<path pointer-events="none" fill="#9D5025" d="M23.14,122.68v2.69c-1.42,0-2.58,1.17-2.58,2.6v-2.689
	C20.56,123.84,21.72,122.68,23.14,122.68z"/>
<path pointer-events="none" fill="#9D5025" d="M9.96,130.82v2.689H4.07l-0.92-3.27L9.96,130.82z"/>
<path pointer-events="none" fill="#9D5025" d="M4.07,130.82v2.689c-1.41,0-2.57-1.15-2.57-2.58v-2.68
	C1.5,129.68,2.66,130.82,4.07,130.82"/>
<path pointer-events="none" fill="#9D5025" d="M4.07,130.82v2.689c-1.41,0-2.57-1.15-2.57-2.58v-2.68
	C1.5,129.68,2.66,130.82,4.07,130.82z"/>
<rect x="14.49" y="143.28" pointer-events="none" fill="#9D5025" width="6.07" height="2.7"/>
<path pointer-events="none" fill="#9D5025" d="M14.68,143.28v2.689c-1.42,0-2.57-1.149-2.57-2.58v-2.7
	C12.11,142.12,13.26,143.28,14.68,143.28"/>
<path pointer-events="none" fill="#9D5025" d="M14.68,143.28v2.689c-1.42,0-2.57-1.149-2.57-2.58v-2.7
	C12.11,142.12,13.26,143.28,14.68,143.28z"/>
<path pointer-events="none" fill="#9D5125" d="M25.41,155.8v2.7c-1.42,0-2.57-1.17-2.57-2.59v-2.69
	C22.84,154.64,23.99,155.8,25.41,155.8"/>
<path pointer-events="none" fill="#9D5125" d="M25.41,155.8v2.7c-1.42,0-2.57-1.17-2.57-2.59v-2.69
	C22.84,154.64,23.99,155.8,25.41,155.8z"/>
<path pointer-events="none" fill="#9D5025" d="M51.5,153.22v2.69c0,0.13-0.01,0.25-0.03,0.37v-2.69
	C51.49,153.47,51.5,153.34,51.5,153.22"/>
<path pointer-events="none" fill="#9D5025" d="M51.47,153.59v2.69c-0.02,0.14-0.05,0.28-0.09,0.42V154
	C51.42,153.87,51.45,153.73,51.47,153.59"/>
<path pointer-events="none" fill="#9D5025" d="M51.38,154v2.7c-0.05,0.16-0.12,0.31-0.2,0.45v-2.69
	C51.26,154.31,51.33,154.16,51.38,154"/>
<path pointer-events="none" fill="#9D5025" d="M51.18,154.46v2.69c-0.43,0.8-1.27,1.35-2.24,1.35v-2.7
	C49.91,155.8,50.75,155.26,51.18,154.46"/>
<path pointer-events="none" fill="#9D5025" d="M51.5,153.22v2.69c0,1.42-1.15,2.59-2.56,2.59v-2.7
	C50.35,155.8,51.5,154.64,51.5,153.22z"/>
<path pointer-events="none" fill="#F58536" d="M27.6,101.5c1.42,0,2.57,1.15,2.57,2.58v6.14H12.54c-1.42,0-2.58,1.17-2.58,2.59
	v18.01H4.07c-1.41,0-2.57-1.141-2.57-2.57v-24.17c0-1.43,1.16-2.58,2.57-2.58H27.6z"/>
<path pointer-events="none" fill="#F58536" d="M38.21,113.96c1.41,0,2.56,1.16,2.56,2.58v6.14H23.14c-1.42,0-2.58,1.16-2.58,2.6v18
	h-5.88c-1.42,0-2.58-1.16-2.58-2.59v-24.15c0-1.42,1.16-2.58,2.58-2.58H38.21z"/>
<path pointer-events="none" fill="#F58536" d="M48.94,126.48c1.41,0,2.56,1.16,2.56,2.57v24.17c0,1.42-1.15,2.58-2.56,2.58H25.41
	c-1.42,0-2.57-1.16-2.57-2.58v-24.17c0-1.41,1.15-2.57,2.57-2.57H48.94z"/>
<path pointer-events="none" fill="#19486F" d="M110.53,13.6v0.06l-0.03-0.04L110.53,13.6z"/>
<path pointer-events="none" fill="#19486F" d="M153.5,7.04v2.29c0,0.07,0,0.14-0.01,0.22V7.27C153.5,7.19,153.5,7.12,153.5,7.04"/>
<path pointer-events="none" fill="#19486F" d="M153.49,7.27v2.28c-0.01,0.08-0.04,0.16-0.07,0.26V7.53
	C153.45,7.45,153.48,7.35,153.49,7.27"/>
<path pointer-events="none" fill="#19486F" d="M153.42,7.53v2.28c-0.04,0.11-0.09,0.23-0.15,0.35V7.87
	C153.33,7.75,153.38,7.65,153.42,7.53"/>
<path pointer-events="none" fill="#19486F" d="M153.27,7.87v2.29c-1.56,2.66-10.47,4.7-21.229,4.7c-11.84,0-21.46-2.49-21.46-5.53
	V7.04c0,3.06,9.62,5.55,21.46,5.55C142.8,12.59,151.71,10.53,153.27,7.87"/>
<path pointer-events="none" fill="#19486F" d="M153.5,7.04v2.29c0,3.04-9.6,5.53-21.46,5.53c-11.84,0-21.46-2.49-21.46-5.53V7.04
	c0,3.06,9.62,5.55,21.46,5.55C143.9,12.59,153.5,10.1,153.5,7.04z"/>
<path pointer-events="none" fill="#2E73B7" d="M132.04,1.5c11.86,0,21.46,2.47,21.46,5.54c0,3.06-9.6,5.55-21.46,5.55
	c-11.84,0-21.46-2.49-21.46-5.55C110.58,3.97,120.2,1.5,132.04,1.5z"/>
<path pointer-events="none" fill="#19486F" d="M153.46,48.87v2.28c0,0.09-0.01,0.18-0.021,0.27v-2.27
	C153.45,49.06,153.46,48.96,153.46,48.87"/>
<path pointer-events="none" fill="#19486F" d="M153.439,49.15v2.27c-0.02,0.12-0.049,0.25-0.1,0.37V49.5
	C153.391,49.38,153.41,49.27,153.439,49.15"/>
<path pointer-events="none" fill="#19486F" d="M153.34,49.5v2.29c-0.05,0.14-0.1,0.28-0.18,0.42v-2.27
	C153.24,49.79,153.29,49.65,153.34,49.5"/>
<path pointer-events="none" fill="#19486F" d="M153.16,49.94v2.27c-1.73,3.01-10.561,5.3-21.19,5.3c-11.85,0-21.46-2.84-21.46-6.33
	v-2.29c0,3.5,9.61,6.33,21.46,6.33C142.6,55.22,151.43,52.95,153.16,49.94"/>
<path pointer-events="none" fill="#19486F" d="M153.46,48.87v2.28c-0.021,3.52-9.64,6.36-21.49,6.36c-11.85,0-21.46-2.84-21.46-6.33
	v-2.29c0,3.5,9.61,6.33,21.46,6.33C143.82,55.22,153.439,52.39,153.46,48.87z"/>
<path pointer-events="none" fill="#2E73B7" d="M153.439,11.55c-1.199,3.32-9.609,5.31-21.47,5.31c-11.81,0-19.89-2.26-21.439-5.48
	l-0.021,37.51c0,3.5,9.61,6.33,21.46,6.33c11.851,0,21.47-2.83,21.49-6.35L153.439,11.55z"/>
<path pointer-events="none" fill="#FFFFFF" d="M117.98,23.09h8.06L132.13,41h0.08l5.75-17.91h8.07v26.06h-5.36V30.68h-0.08
	l-6.38,18.47h-4.42l-6.37-18.29h-0.08v18.29h-5.36V23.09z"/>
</svg>
