<?xml version="1.0" encoding="utf-8"?>
<!-- Generator: Adobe Illustrator 13.0.0, SVG Export Plug-In . SVG Version: 6.00 Build 14948)  -->
<!DOCTYPE svg PUBLIC "-//W3C//DTD SVG 1.1//EN" "http://www.w3.org/Graphics/SVG/1.1/DTD/svg11.dtd">
<svg version="1.1" id="Layer_1" xmlns="http://www.w3.org/2000/svg" xmlns:xlink="http://www.w3.org/1999/xlink" x="0px" y="0px"
	 width="397.5px" height="673.5px" viewBox="-68.5 -68.5 397.5 673.5" enable-background="new -68.5 -68.5 397.5 673.5"
	 xml:space="preserve">
<rect x="124.302" y="207.304" pointer-events="none" fill="#9D5125" width="4.53" height="2.56"/>
<rect x="144.062" y="207.304" pointer-events="none" fill="#9D5125" width="4.521" height="2.56"/>
<path pointer-events="none" fill="#9D5125" d="M144.062,215.523v2.561l-6.119,6.33v-2.57L144.062,215.523z"/>
<path pointer-events="none" fill="#9D5125" d="M135.222,221.844v2.57l-6.39-6.53v-2.57L135.222,221.844z"/>
<rect x="155.552" y="227.794" pointer-events="none" fill="#9D5125" width="10.49" height="2.57"/>
<rect x="107.042" y="227.794" pointer-events="none" fill="#9D5125" width="10.49" height="2.57"/>
<path pointer-events="none" fill="#9D5125" d="M155.552,233.934v2.57l-12.32-12.15v-2.57L155.552,233.934z"/>
<path pointer-events="none" fill="#F48334" d="M117.532,209.773l12.32,12.14l-12.32,12.02v-6.14h-10.49v-11.89h10.49V209.773z"/>
<path pointer-events="none" fill="#9D5125" d="M129.853,221.914v2.57l-12.32,12.021v-2.57L129.853,221.914z"/>
<path pointer-events="none" fill="#F48334" d="M155.552,209.773v6.14h10.49v11.88h-10.49v6.14l-12.32-12.15L155.552,209.773z"/>
<path pointer-events="none" fill="#9D5125" d="M148.592,237.244v2.57l-12.21,12.24l-0.57-3.14L148.592,237.244z"/>
<path pointer-events="none" fill="#9D5125" d="M136.382,249.494v2.56l-12.08-12.24v-2.57L136.382,249.494z"/>
<path pointer-events="none" fill="#F48334" d="M136.512,195.054l12.08,12.25h-4.53v8.22l-6.119,6.32l6.119,6.5v8.9h4.53
	l-12.21,12.25l-12.08-12.25h4.53v-8.8l6.39-6.6l-6.39-6.53v-8.01h-4.53L136.512,195.054z"/>
<path pointer-events="none" fill="#F58435" d="M155.683,331.254l-29.15,9.153v-48.854l29.15,9.16V331.254z"/>
<path pointer-events="none" fill="#F58435" d="M118.401,332.944l-6.569,1.27v-36.32l6.569,1.27V332.944z"/>
<path pointer-events="none" fill="#F58435" d="M126.532,335.054l-8.131,1.984v-41.964l8.131,1.98V335.054z"/>
<path pointer-events="none" fill="#9D5025" d="M122.262,293.384l4.271-1.83v49.004l-4.271-1.83V293.384z"/>
<path pointer-events="none" fill="#9D5025" d="M114.952,296.554l3.449-1.48v41.964l-3.449-1.483V296.554z"/>
<path pointer-events="none" fill="#9D5025" d="M111.832,297.894l-2.79,1.2v33.92l2.79,1.2V297.894z"/>
<path pointer-events="none" fill="#9D5025" d="M137.042,310.214v-23.16l-5.58,2.391v21.26L137.042,310.214z"/>
<path pointer-events="none" fill="#9D5025" d="M131.462,321.264v21.403l5.58,2.391v-23.304L131.462,321.264z"/>
<path pointer-events="none" fill="#F58435" d="M151.981,311.474v-18.01l-14.939-6.41v23.16L151.981,311.474z"/>
<path pointer-events="none" fill="#F58435" d="M137.042,321.754v23.304l14.939-6.41v-18.164L137.042,321.754z"/>
<path pointer-events="none" fill="#F58435" d="M165.042,312.604v-13.51l-7.96-3.45v16.26L165.042,312.604z"/>
<path pointer-events="none" fill="#F58435" d="M157.082,320.063v16.403l7.96-3.453v-13.649L157.082,320.063z"/>
<path pointer-events="none" fill="#6B3B19" d="M151.981,311.474l-5.5,0.29l-15.02-1.06l5.58-0.49L151.981,311.474z"/>
<path pointer-events="none" fill="#FBBF92" d="M151.981,320.483l-5.17-0.279l-15.35,1.06l5.33,0.49L151.981,320.483z"/>
<path pointer-events="none" fill="#9D5025" d="M153.542,296.413l3.54-0.77v16.26l-3.54,0.211V296.413z"/>
<path pointer-events="none" fill="#9D5025" d="M153.542,335.695l3.54,0.771v-16.403l-3.54-0.21V335.695z"/>
<path pointer-events="none" fill="#FBBF92" d="M165.042,319.364l-3.2-0.141l-8.3,0.63l3.54,0.21L165.042,319.364z"/>
<path pointer-events="none" fill="#6B3B19" d="M165.042,312.604l-3.2,0.14l-8.3-0.629l3.54-0.211L165.042,312.604z"/>
<path pointer-events="none" fill="#F58536" d="M150.002,531.758l-12.46,6.3v-72l12.46,6.3V531.758z"/>
<path pointer-events="none" fill="#9D5025" d="M125.072,531.758l12.47,6.3v-72l-12.47,6.3V531.758z"/>
<path pointer-events="none" fill="#F58536" d="M132.842,492.268l-21.05-2.71v-10.49l21.05,4.99V492.268z"/>
<path pointer-events="none" fill="#9D5025" d="M163.272,485.208l-21.041,3.659v8.58l21.041-1.27V485.208z"/>
<path pointer-events="none" fill="#F58536" d="M167.042,496.588l-3.77-0.5v-10.88l3.77,1.399V496.588z"/>
<path pointer-events="none" fill="#9D5025" d="M108.042,480.968l3.75-1.9v10.49l-3.75,1.03V480.968z"/>
<path pointer-events="none" fill="#6B3A19" d="M132.842,492.268l-4.38,0.64l-20.42-2.319l3.75-1.03L132.842,492.268z"/>
<path pointer-events="none" fill="#6B3A19" d="M167.042,496.588l-20.9,1.13l-3.91-0.271l21.471-1.3L167.042,496.588z"/>
<path pointer-events="none" fill="#8C3123" d="M147.282,402.907l13.65-1.06v-17.431l-13.65,3.601V402.907z"/>
<path pointer-events="none" fill="#E05243" d="M152.612,400.678l-14.211-2.09v-25.53l14.211,7.22V400.678z"/>
<path pointer-events="none" fill="#E05243" d="M168.042,402.928l-7.109-1.05v-17.461l7.109,3.601V402.928z"/>
<path pointer-events="none" fill="#5E1F18" d="M147.282,402.907l13.5-1.05l7.26,1.07l-13.04,0.79L147.282,402.907z"/>
<path pointer-events="none" fill="#8C3123" d="M147.282,415.208l13.65,1.06v17.43l-13.65-3.6V415.208z"/>
<path pointer-events="none" fill="#E05243" d="M152.612,417.438l-14.211,2.09v25.53l14.211-7.22V417.438z"/>
<path pointer-events="none" fill="#E05243" d="M167.892,415.188l-7.09,1.05v17.46l7.09-3.6V415.188z"/>
<path pointer-events="none" fill="#F2B0A9" d="M147.282,415.208l13.5,1.05l7.26-1.07l-13.04-0.79L147.282,415.208z"/>
<path pointer-events="none" fill="#E05243" d="M129.651,402.907l-13.64-1.06v-17.431l13.64,3.601V402.907z"/>
<path pointer-events="none" fill="#8C3123" d="M124.322,400.678l14.22-2.09v-25.53l-14.22,7.22V400.678z"/>
<path pointer-events="none" fill="#8C3123" d="M109.042,402.928l7.109-1.05v-17.461l-7.109,3.601V402.928z"/>
<path pointer-events="none" fill="#5E1F18" d="M129.792,402.907l-13.5-1.05l-7.25,1.07l13.03,0.79L129.792,402.907z"/>
<path pointer-events="none" fill="#E05243" d="M129.651,415.208l-13.64,1.06v17.43l13.64-3.6V415.208z"/>
<path pointer-events="none" fill="#8C3123" d="M124.322,417.438l14.22,2.09v25.53l-14.22-7.22V417.438z"/>
<path pointer-events="none" fill="#8C3123" d="M109.042,415.188l7.109,1.05v17.46l-7.109-3.6V415.188z"/>
<path pointer-events="none" fill="#F2B0A9" d="M129.792,415.208l-13.5,1.05l-7.25-1.07l13.03-0.79L129.792,415.208z"/>
<path pointer-events="none" fill="#F2B0A9" d="M152.762,417.438l-14.22-1.41l-14.22,1.41l14.22,2.12L152.762,417.438z"/>
<path pointer-events="none" fill="#5E1F18" d="M152.762,400.678l-14.22,1.39l-14.22-1.39l14.22-2.09L152.762,400.678z"/>
<path pointer-events="none" fill="#2D72B8" d="M155.172,12.194l6.87,5.37v-7.6l-6.91-8.77v10.96l0.04,0.01V12.194z"/>
<path pointer-events="none" fill="#5294CF" d="M141.942,66.054l13.189-7.15V1.174l-13.199-7.12L141.942,66.054z"/>
<path pointer-events="none" fill="#205B98" d="M123.142,66.054l-13.189-7.15V1.174l13.199-7.12L123.142,66.054z"/>
<rect x="123.151" y="-5.946" pointer-events="none" fill="#2D72B8" width="18.761" height="72"/>
<path pointer-events="none" fill="#2D72B8" d="M155.132,47.954v10.95l6.91-8.76v-7.6l-6.87,5.39L155.132,47.954z"/>
<path pointer-events="none" fill="#2D72B8" d="M155.132,43.324l0.04-0.01l6.87-4v-7.65l-6.91,0.69V43.324z"/>
<path pointer-events="none" fill="#2D72B8" d="M155.172,16.813l-0.04-0.01v10.93l6.91,0.7v-7.64L155.172,16.813z"/>
<path pointer-events="none" fill="#1A476F" d="M162.042,28.434l-6.91-0.7l-13.199-0.57h-9.391h-9.391l-13.199,0.57v-10.9h-0.01
	l0.01-0.03l13.199-3.31h9.391h9.391l13.199,3.31l4.86,2.8v-1.8l2.05-0.24l-6.91-5.41l-13.199-4.43h-9.391h-9.391l-13.199,4.43V1.194
	l-6.91,8.76v7.66l0.061-0.05l1.989,0.24v1.83l-2.05,1.19v7.62l0.061-0.01l1.989,0.03v3.2l-1.72,0.03l-0.33-0.04v7.62l2.05,1.2v1.85
	l-1.97,0.24l-0.08-0.07v7.65l6.91,8.76v-10.95l13.199,4.43h9.391h9.391l13.239-4.45l6.87-5.36l-2.05-0.25v-1.82l-4.82,2.81
	l-13.239,3.29v0.01h-9.391h-9.391v-0.01l-13.239-3.29l-0.03-0.05l0.07,0.04v-10.95l13.199,0.57v0.01h9.391h9.391v-0.01l13.199-0.57
	l6.91-0.66l-2.05-0.03v-3.2L162.042,28.434z"/>
<g>
	<path pointer-events="none" fill="#F58536" d="M13.93,104.439l-7.23-1.8v46l7.23-1.7V104.439z"/>
	<path pointer-events="none" fill="#F58536" d="M27.989,149.939l-11.29,3.7v-56.1l11.29,3.7V149.939z"/>
	<path pointer-events="none" fill="#6B3A19" d="M36.1,107.939l5.15-2.7l17.129,6.7l-4.56,0.6L36.1,107.939z"/>
	<path pointer-events="none" fill="#FBBF93" d="M36.299,143.339l5.051,2.7l17.13-6.7l-4.56-0.601L36.299,143.339z"/>
	<path pointer-events="none" fill="#9D5025" d="M37.59,135.939l9.01,1.2v-23l-9.01,1.2V135.939z"/>
	<path pointer-events="none" fill="#F58536" d="M41.25,157.139l-8.811,4.5v-72l8.811,4.5V157.139z"/>
	<path pointer-events="none" fill="#F58536" d="M61.939,138.339l-29.5,8.899v14.4l29.5-14.9V138.339z"/>
	<path pointer-events="none" fill="#F58536" d="M58.18,102.639l3.76,1.9v42.2l-3.76,1.9V102.639z"/>
	<path pointer-events="none" fill="#F58536" d="M32.439,104.039l29.5,8.9v-8.4l-29.5-14.9V104.039z"/>
	<path pointer-events="none" fill="#9D5025" d="M23.629,157.139l8.811,4.5v-72l-8.811,4.5V157.139z"/>
	<path pointer-events="none" fill="#9D5025" d="M11.159,100.339l5.54-2.8v56.2l-5.54-2.8V100.339z"/>
	<path pointer-events="none" fill="#9D5025" d="M2.939,146.739l3.76,1.9v-46l-3.76,1.9V146.739z"/>
	<path pointer-events="none" fill="#9D5025" d="M53.619,112.539l4.561-0.6v27.5l-4.561-0.6V112.539z"/>
	<path pointer-events="none" fill="#F58536" d="M46.6,114.139v23.1l9.4-11.6L46.6,114.139z"/>
	<path pointer-events="none" fill="#F58536" d="M223.93,104.439l-7.23-1.8v46l7.23-1.7V104.439z"/>
	<path pointer-events="none" fill="#F58536" d="M237.989,149.939l-11.29,3.7v-56.1l11.29,3.7V149.939z"/>
	<path pointer-events="none" fill="#6B3A19" d="M246.1,107.939l5.15-2.7l17.129,6.7l-4.56,0.6L246.1,107.939z"/>
	<path pointer-events="none" fill="#FBBF93" d="M246.299,143.339l5.051,2.7l17.13-6.7l-4.56-0.601L246.299,143.339z"/>
	<path pointer-events="none" fill="#9D5025" d="M247.59,135.939l9.01,1.2v-23l-9.01,1.2V135.939z"/>
	<path pointer-events="none" fill="#F58536" d="M251.25,157.139l-8.811,4.5v-72l8.811,4.5V157.139z"/>
	<path pointer-events="none" fill="#F58536" d="M271.939,138.339l-29.5,8.899v14.4l29.5-14.9V138.339z"/>
	<path pointer-events="none" fill="#F58536" d="M268.18,102.639l3.76,1.9v42.2l-3.76,1.9V102.639z"/>
	<path pointer-events="none" fill="#F58536" d="M242.439,104.039l29.5,8.9v-8.4l-29.5-14.9V104.039z"/>
	<path pointer-events="none" fill="#9D5025" d="M233.629,157.139l8.811,4.5v-72l-8.811,4.5V157.139z"/>
	<path pointer-events="none" fill="#9D5025" d="M221.159,100.339l5.54-2.8v56.2l-5.54-2.8V100.339z"/>
	<path pointer-events="none" fill="#9D5025" d="M212.939,146.739l3.76,1.9v-46l-3.76,1.9V146.739z"/>
	<path pointer-events="none" fill="#9D5025" d="M263.619,112.539l4.561-0.6v27.5l-4.561-0.6V112.539z"/>
	<path pointer-events="none" fill="#F58536" d="M256.6,114.139v23.1l9.4-11.6L256.6,114.139z"/>
	<path pointer-events="none" fill="#F58536" d="M116.93,104.439l-7.23-1.8v46l7.23-1.7V104.439z"/>
	<path pointer-events="none" fill="#F58536" d="M130.989,149.939l-11.29,3.7v-56.1l11.29,3.7V149.939z"/>
	<path pointer-events="none" fill="#6B3A19" d="M139.1,107.939l5.15-2.7l17.129,6.7l-4.56,0.6L139.1,107.939z"/>
	<path pointer-events="none" fill="#FBBF93" d="M139.299,143.339l5.051,2.7l17.13-6.7l-4.56-0.601L139.299,143.339z"/>
	<path pointer-events="none" fill="#9D5025" d="M140.59,135.939l9.01,1.2v-23l-9.01,1.2V135.939z"/>
	<path pointer-events="none" fill="#F58536" d="M144.25,157.139l-8.811,4.5v-72l8.811,4.5V157.139z"/>
	<path pointer-events="none" fill="#F58536" d="M164.939,138.339l-29.5,8.899v14.4l29.5-14.9V138.339z"/>
	<path pointer-events="none" fill="#F58536" d="M161.18,102.639l3.76,1.9v42.2l-3.76,1.9V102.639z"/>
	<path pointer-events="none" fill="#F58536" d="M135.439,104.039l29.5,8.9v-8.4l-29.5-14.9V104.039z"/>
	<path pointer-events="none" fill="#9D5025" d="M126.629,157.139l8.811,4.5v-72l-8.811,4.5V157.139z"/>
	<path pointer-events="none" fill="#9D5025" d="M114.159,100.339l5.54-2.8v56.2l-5.54-2.8V100.339z"/>
	<path pointer-events="none" fill="#9D5025" d="M105.939,146.739l3.76,1.9v-46l-3.76,1.9V146.739z"/>
	<path pointer-events="none" fill="#9D5025" d="M156.619,112.539l4.561-0.6v27.5l-4.561-0.6V112.539z"/>
	<path pointer-events="none" fill="#F58536" d="M149.6,114.139v23.1l9.4-11.6L149.6,114.139z"/>
</g>
</svg>
