<?xml version="1.0" encoding="utf-8"?>
<!-- Generator: Adobe Illustrator 13.0.0, SVG Export Plug-In . SVG Version: 6.00 Build 14948)  -->
<!DOCTYPE svg PUBLIC "-//W3C//DTD SVG 1.1//EN" "http://www.w3.org/Graphics/SVG/1.1/DTD/svg11.dtd">
<svg version="1.1" id="Layer_1" xmlns="http://www.w3.org/2000/svg" xmlns:xlink="http://www.w3.org/1999/xlink" x="0px" y="0px"
	 width="449.667px" height="269.667px" viewBox="-47.333 -47.333 449.667 269.667"
	 enable-background="new -47.333 -47.333 449.667 269.667" xml:space="preserve">
<g transform="translate(0.5,0.5)">
	<path pointer-events="none" fill="#D9A741" d="M34.92,46.51L4.77,50.79V23.2l30.15,4.29V46.51z"/>
	<path pointer-events="none" fill="#876929" d="M1,24.34l29.5-8.94V1L1,15.91V24.34z"/>
	<path pointer-events="none" fill="#876929" d="M1.02,49.65L30.5,58.6V73L1.02,58.09V49.65z"/>
	<path pointer-events="none" fill="#D9A741" d="M60,24.35L30.5,15.4V1L60,15.91V24.35z"/>
	<path pointer-events="none" fill="#D9A741" d="M59.98,49.66L30.5,58.6V73l29.48-14.9V49.66z"/>
	<path pointer-events="none" fill="#876929" d="M4.77,59.99L1,58.09V15.91L4.77,14V59.99z"/>
	<path pointer-events="none" fill="#876929" d="M19.63,44.76l10.87,1.4V27.83l-10.87,1.4V44.76z"/>
	<path pointer-events="none" fill="#876929" d="M8.7,43.35l7.05,0.91V29.73L8.7,30.64V43.35z"/>
	<path pointer-events="none" fill="#624A1E" d="M4.77,23.2l25.73-7.8L60,24.35L34.94,27.5L4.77,23.2z"/>
	<path pointer-events="none" fill="#FAD791" d="M4.77,50.79L30.5,58.6l29.48-8.94l-25.06-3.15L4.77,50.79z"/>
	<path pointer-events="none" fill="#D9A741" d="M59.98,42.33L30.5,46.09V27.83l29.48,3.8V42.33z"/>
	<path pointer-events="none" fill="#F58536" d="M106.85,57.95l-6.89,1.59V14.41l6.89,1.59V57.95z"/>
	<path pointer-events="none" fill="#F58536" d="M115.45,60.62l-8.6,2.47V10.93l8.6,2.46V60.62z"/>
	<path pointer-events="none" fill="#F58536" d="M126.5,63.35l-11.05,4.09V6.58l11.05,4.08V63.35z"/>
	<path pointer-events="none" fill="#F58536" d="M156,58.09L126.5,73V1L156,15.91V58.09z"/>
	<path pointer-events="none" fill="#9D5025" d="M120.61,3.97L126.5,1v72l-5.89-2.97V3.97z"/>
	<path pointer-events="none" fill="#9D5025" d="M110.9,8.88l4.55-2.3v60.84l-4.55-2.3V8.88z"/>
	<path pointer-events="none" fill="#9D5025" d="M103.22,12.76l3.63-1.84v52.16l-3.63-1.84V12.76z"/>
	<path pointer-events="none" fill="#9D5025" d="M99.96,14.41L97,15.9v42.2l2.96,1.49V14.41z"/>
	<path pointer-events="none" fill="#2D72B8" d="M242.13,19.14l6.87,5.37v-7.6l-6.91-8.77V19.1l0.04,0.01V19.14z"/>
	<path pointer-events="none" fill="#5294CF" d="M228.9,73l13.189-7.15V8.12L228.891,1L228.9,73z"/>
	<path pointer-events="none" fill="#205B98" d="M210.1,73l-13.189-7.15V8.12L210.109,1L210.1,73z"/>
	<rect x="210.109" y="1" pointer-events="none" fill="#2D72B8" width="18.761" height="72"/>
	<path pointer-events="none" fill="#2D72B8" d="M242.09,54.9v10.95l6.91-8.76v-7.6l-6.87,5.39L242.09,54.9z"/>
	<path pointer-events="none" fill="#2D72B8" d="M242.09,50.27l0.04-0.01l6.87-4v-7.65l-6.91,0.69V50.27z"/>
	<path pointer-events="none" fill="#2D72B8" d="M242.13,23.76l-0.04-0.01v10.93l6.91,0.7v-7.64L242.13,23.76z"/>
	<path pointer-events="none" fill="#1A476F" d="M249,35.38l-6.91-0.7l-13.199-0.57H219.5h-9.391l-13.199,0.57v-10.9h-0.01l0.01-0.03
		l13.199-3.31h9.391h9.391l13.199,3.31l4.86,2.8v-1.8l2.05-0.24l-6.91-5.41l-13.199-4.43H219.5h-9.391L196.91,19.1V8.14L190,16.9
		v7.66l0.061-0.05l1.989,0.24v1.83L190,27.77v7.62l0.061-0.01l1.989,0.03v3.2l-1.72,0.03L190,38.6v7.62l2.05,1.2v1.85l-1.97,0.24
		L190,49.44v7.65l6.91,8.76V54.9l13.199,4.43h9.391h9.391l13.239-4.45l6.87-5.36l-2.05-0.25v-1.82l-4.82,2.81l-13.239,3.29v0.01
		H219.5h-9.391v-0.01l-13.239-3.29l-0.03-0.05l0.07,0.04V39.3l13.199,0.57v0.01h9.391h9.391v-0.01l13.199-0.57l6.91-0.66l-2.05-0.03
		v-3.2L249,35.38z"/>
	<path pointer-events="none" fill="#99BCE3" d="M60,149.66l-29.5-3.71L1,149.66l29.5,8.939L60,149.66z"/>
	<path pointer-events="none" fill="#1A476F" d="M60,124.34l-29.5,3.71L1,124.34l29.5-8.939L60,124.34z"/>
	<path pointer-events="none" fill="#205B98" d="M30.5,101L1,115.9v8.439l29.5-8.939V101z"/>
	<path pointer-events="none" fill="#205B98" d="M30.5,158.6L1,149.66v8.439L30.5,173V158.6z"/>
	<path pointer-events="none" fill="#205B98" d="M30.5,147.891l-12.47-1.91v-17.82l12.47-1.87V147.891z"/>
	<path pointer-events="none" fill="#5294CF" d="M30.5,101L60,115.9v8.439L30.5,115.4V101z"/>
	<path pointer-events="none" fill="#5294CF" d="M30.5,158.6L60,149.66v8.439L30.5,173V158.6z"/>
	<path pointer-events="none" fill="#5294CF" d="M30.5,147.891l12.47-1.91v-17.82l-12.47-1.87V147.891z"/>
	<path pointer-events="none" fill="#1A476F" d="M290,157.09l7.38,8.77v-57.719L290,116.9V157.09z"/>
	<path pointer-events="none" fill="#205B98" d="M297.38,165.859L311.47,173l0.01-72l-14.1,7.12V165.859z"/>
	<path pointer-events="none" fill="#2D72B8" d="M353,116.9l-7.38-8.76v57.719l7.38-8.77V116.9z"/>
	<path pointer-events="none" fill="#5294CF" d="M331.521,173l14.1-7.141V108.12L331.51,101L331.521,173z"/>
	<rect x="311.479" y="101" pointer-events="none" fill="#2D72B8" width="20.041" height="72"/>
	<path pointer-events="none" fill="#F58536" d="M231.96,166.7L219.5,173v-72l12.46,6.3V166.7z"/>
	<path pointer-events="none" fill="#9D5025" d="M207.03,166.7l12.47,6.3v-72l-12.47,6.3V166.7z"/>
	<path pointer-events="none" fill="#F58536" d="M214.8,127.21l-21.05-2.71v-10.49L214.8,119V127.21z"/>
	<path pointer-events="none" fill="#9D5025" d="M245.23,120.15l-21.041,3.66v8.58l21.041-1.271V120.15z"/>
	<path pointer-events="none" fill="#F58536" d="M249,131.53l-3.77-0.5v-10.88l3.77,1.399V131.53z"/>
	<path pointer-events="none" fill="#9D5025" d="M190,115.91l3.75-1.9v10.49l-3.75,1.03V115.91z"/>
	<path pointer-events="none" fill="#6B3A19" d="M214.8,127.21l-4.38,0.64L190,125.53l3.75-1.03L214.8,127.21z"/>
	<path pointer-events="none" fill="#6B3A19" d="M249,131.53l-20.9,1.13l-3.91-0.27l21.471-1.301L249,131.53z"/>
	<path pointer-events="none" fill="#8C3123" d="M135.24,130.85l13.65-1.06v-17.431l-13.65,3.601V130.85z"/>
	<path pointer-events="none" fill="#E05243" d="M140.57,128.62l-14.21-2.09V101l14.21,7.22V128.62z"/>
	<path pointer-events="none" fill="#E05243" d="M156,130.87l-7.11-1.05v-17.461l7.11,3.601V130.87z"/>
	<path pointer-events="none" fill="#5E1F18" d="M135.24,130.85l13.5-1.05l7.26,1.07l-13.04,0.79L135.24,130.85z"/>
	<path pointer-events="none" fill="#8C3123" d="M135.24,143.15l13.65,1.06v17.431l-13.65-3.601V143.15z"/>
	<path pointer-events="none" fill="#E05243" d="M140.57,145.38l-14.21,2.09V173l14.21-7.22V145.38z"/>
	<path pointer-events="none" fill="#E05243" d="M155.85,143.13l-7.09,1.05v17.461l7.09-3.601V143.13z"/>
	<path pointer-events="none" fill="#F2B0A9" d="M135.24,143.15l13.5,1.05l7.26-1.07l-13.04-0.79L135.24,143.15z"/>
	<path pointer-events="none" fill="#E05243" d="M117.61,130.85l-13.64-1.06v-17.431l13.64,3.601V130.85z"/>
	<path pointer-events="none" fill="#8C3123" d="M112.28,128.62l14.22-2.09V101l-14.22,7.22V128.62z"/>
	<path pointer-events="none" fill="#8C3123" d="M97,130.87l7.11-1.05v-17.461L97,115.96V130.87z"/>
	<path pointer-events="none" fill="#5E1F18" d="M117.75,130.85l-13.5-1.05L97,130.87l13.03,0.79L117.75,130.85z"/>
	<path pointer-events="none" fill="#E05243" d="M117.61,143.15l-13.64,1.06v17.431l13.64-3.601V143.15z"/>
	<path pointer-events="none" fill="#8C3123" d="M112.28,145.38l14.22,2.09V173l-14.22-7.22V145.38z"/>
	<path pointer-events="none" fill="#8C3123" d="M97,143.13l7.11,1.05v17.461L97,158.04V143.13z"/>
	<path pointer-events="none" fill="#F2B0A9" d="M117.75,143.15l-13.5,1.05L97,143.13l13.03-0.79L117.75,143.15z"/>
	<path pointer-events="none" fill="#F2B0A9" d="M140.72,145.38l-14.22-1.41l-14.22,1.41l14.22,2.12L140.72,145.38z"/>
	<path pointer-events="none" fill="#5E1F18" d="M140.72,128.62l-14.22,1.39l-14.22-1.39l14.22-2.09L140.72,128.62z"/>
	<path pointer-events="none" fill="#8C3123" d="M321.5,54.35l24.75,6.05V13.49l-24.75,6.05V54.35z"/>
	<path pointer-events="none" fill="#E05243" d="M346.25,13.49l4.75,2.4v42.12l-4.75,2.4V13.49z"/>
	<path pointer-events="none" fill="#E05243" d="M332.29,21.86l-10.79-2.7V1l10.79,5.45V21.86z"/>
	<path pointer-events="none" fill="#E05243" d="M321.5,73l10.79-5.45v-15.4l-10.79,2.69V73z"/>
	<path pointer-events="none" fill="#E05243" d="M332.29,44.71L321.5,46.1V27.94l10.79,1.37V44.71z"/>
	<path pointer-events="none" fill="#E05243" d="M321.5,54.35l-24.75,6.05V13.49l24.75,6.05V54.35z"/>
	<path pointer-events="none" fill="#8C3123" d="M296.75,13.49l-4.75,2.4v42.12l4.75,2.4V13.49z"/>
	<path pointer-events="none" fill="#8C3123" d="M310.71,21.86l10.79-2.7V1l-10.79,5.45V21.86z"/>
	<path pointer-events="none" fill="#8C3123" d="M321.5,73l-10.79-5.45v-15.4l10.79,2.69V73z"/>
	<path pointer-events="none" fill="#8C3123" d="M310.71,44.71l10.79,1.39V27.94l-10.79,1.37V44.71z"/>
	<path pointer-events="none" fill="#5E1F18" d="M332.29,21.86l-10.79,1.98l-10.79-1.98l10.79-2.7L332.29,21.86z"/>
	<path pointer-events="none" fill="#F2B0A9" d="M332.29,52.14l-10.79-1.99l-10.79,1.99l10.79,2.72L332.29,52.14z"/>
</g>
</svg>
