<?xml version="1.0" encoding="UTF-8" standalone="no"?>
<!-- Generator: Adobe Illustrator 13.0.0, SVG Export Plug-In . SVG Version: 6.00 Build 14948)  -->

<svg
   xmlns:dc="http://purl.org/dc/elements/1.1/"
   xmlns:cc="http://creativecommons.org/ns#"
   xmlns:rdf="http://www.w3.org/1999/02/22-rdf-syntax-ns#"
   xmlns:svg="http://www.w3.org/2000/svg"
   xmlns="http://www.w3.org/2000/svg"
   xmlns:sodipodi="http://sodipodi.sourceforge.net/DTD/sodipodi-0.dtd"
   xmlns:inkscape="http://www.inkscape.org/namespaces/inkscape"
   version="1.1"
   id="Layer_1"
   x="0px"
   y="0px"
   width="1280"
   height="720"
   viewBox="-68.5 -68.5 1280 720"
   enable-background="new -68.5 -68.5 397.5 673.5"
   xml:space="preserve"
   inkscape:version="0.91 r13725"
   sodipodi:docname="cf-30pc.svg"><metadata
     id="metadata467"><rdf:RDF><cc:Work
         rdf:about=""><dc:format>image/svg+xml</dc:format><dc:type
           rdf:resource="http://purl.org/dc/dcmitype/StillImage" /><dc:title></dc:title></cc:Work></rdf:RDF></metadata><defs
     id="defs465" /><sodipodi:namedview
     pagecolor="#000000"
     bordercolor="#666666"
     borderopacity="1"
     objecttolerance="10"
     gridtolerance="10"
     guidetolerance="10"
     inkscape:pageopacity="0"
     inkscape:pageshadow="2"
     inkscape:window-width="1373"
     inkscape:window-height="892"
     id="namedview463"
     showgrid="false"
     inkscape:zoom="1.2392137"
     inkscape:cx="535.54015"
     inkscape:cy="386.93604"
     inkscape:window-x="218"
     inkscape:window-y="128"
     inkscape:window-maximized="0"
     inkscape:current-layer="Layer_1" /><g
     id="g4616"
     transform="matrix(4.3175159,0,0,4.3175159,-1365.2835,-463.9448)"
     style="opacity:0.3"><path
       id="path239"
       d="m 459.11743,158.7511 13.65,-1.06 0,-17.431 -13.65,3.601 0,14.89 z"
       pointer-events="none"
       style="fill:#8c3123"
       inkscape:connector-curvature="0" /><path
       id="path241"
       d="m 464.44743,156.5211 -14.211,-2.09 0,-25.53 14.211,7.22 0,20.4 z"
       pointer-events="none"
       style="fill:#e05243"
       inkscape:connector-curvature="0" /><path
       id="path243"
       d="m 479.87743,158.7711 -7.109,-1.05 0,-17.461 7.109,3.601 0,14.91 z"
       pointer-events="none"
       style="fill:#e05243"
       inkscape:connector-curvature="0" /><path
       id="path245"
       d="m 459.11743,158.7511 13.5,-1.05 7.26,1.07 -13.04,0.79 -7.72,-0.81 z"
       pointer-events="none"
       style="fill:#5e1f18"
       inkscape:connector-curvature="0" /><path
       id="path247"
       d="m 459.11743,171.0511 13.65,1.06 0,17.43 -13.65,-3.6 0,-14.89 z"
       pointer-events="none"
       style="fill:#8c3123"
       inkscape:connector-curvature="0" /><path
       id="path249"
       d="m 464.44743,173.2811 -14.211,2.09 0,25.53 14.211,-7.22 0,-20.4 z"
       pointer-events="none"
       style="fill:#e05243"
       inkscape:connector-curvature="0" /><path
       id="path251"
       d="m 479.72743,171.0311 -7.09,1.05 0,17.46 7.09,-3.6 0,-14.91 z"
       pointer-events="none"
       style="fill:#e05243"
       inkscape:connector-curvature="0" /><path
       id="path253"
       d="m 459.11743,171.0511 13.5,1.05 7.26,-1.07 -13.04,-0.79 -7.72,0.81 z"
       pointer-events="none"
       style="fill:#f2b0a9"
       inkscape:connector-curvature="0" /><path
       id="path255"
       d="m 441.48743,158.7511 -13.64,-1.06 0,-17.431 13.64,3.601 0,14.89 z"
       pointer-events="none"
       style="fill:#e05243"
       inkscape:connector-curvature="0" /><path
       id="path257"
       d="m 436.15743,156.5211 14.22,-2.09 0,-25.53 -14.22,7.22 0,20.4 z"
       pointer-events="none"
       style="fill:#8c3123"
       inkscape:connector-curvature="0" /><path
       id="path259"
       d="m 420.87743,158.7711 7.11,-1.05 0,-17.461 -7.11,3.601 0,14.91 z"
       pointer-events="none"
       style="fill:#8c3123"
       inkscape:connector-curvature="0" /><path
       id="path261"
       d="m 441.62743,158.7511 -13.5,-1.05 -7.25,1.07 13.03,0.79 7.72,-0.81 z"
       pointer-events="none"
       style="fill:#5e1f18"
       inkscape:connector-curvature="0" /><path
       id="path263"
       d="m 441.48743,171.0511 -13.64,1.06 0,17.43 13.64,-3.6 0,-14.89 z"
       pointer-events="none"
       style="fill:#e05243"
       inkscape:connector-curvature="0" /><path
       id="path265"
       d="m 436.15743,173.2811 14.22,2.09 0,25.53 -14.22,-7.22 0,-20.4 z"
       pointer-events="none"
       style="fill:#8c3123"
       inkscape:connector-curvature="0" /><path
       id="path267"
       d="m 420.87743,171.0311 7.11,1.05 0,17.46 -7.11,-3.6 0,-14.91 z"
       pointer-events="none"
       style="fill:#8c3123"
       inkscape:connector-curvature="0" /><path
       id="path269"
       d="m 441.62743,171.0511 -13.5,1.05 -7.25,-1.07 13.03,-0.79 7.72,0.81 z"
       pointer-events="none"
       style="fill:#f2b0a9"
       inkscape:connector-curvature="0" /><path
       id="path271"
       d="m 464.59743,173.2811 -14.22,-1.41 -14.22,1.41 14.22,2.12 14.22,-2.12 z"
       pointer-events="none"
       style="fill:#f2b0a9"
       inkscape:connector-curvature="0" /><path
       id="path273"
       d="m 464.59743,156.5211 -14.22,1.39 -14.22,-1.39 14.22,-2.09 14.22,2.09 z"
       pointer-events="none"
       style="fill:#5e1f18"
       inkscape:connector-curvature="0" /></g></svg>