<?xml version="1.0" encoding="UTF-8" standalone="no"?>
<!-- Generator: Adobe Illustrator 13.0.0, SVG Export Plug-In . SVG Version: 6.00 Build 14948)  -->

<svg
   xmlns:dc="http://purl.org/dc/elements/1.1/"
   xmlns:cc="http://creativecommons.org/ns#"
   xmlns:rdf="http://www.w3.org/1999/02/22-rdf-syntax-ns#"
   xmlns:svg="http://www.w3.org/2000/svg"
   xmlns="http://www.w3.org/2000/svg"
   xmlns:sodipodi="http://sodipodi.sourceforge.net/DTD/sodipodi-0.dtd"
   xmlns:inkscape="http://www.inkscape.org/namespaces/inkscape"
   version="1.1"
   id="Layer_1"
   x="0px"
   y="0px"
   width="1280"
   height="720"
   viewBox="-68.5 -68.5 1280 720"
   enable-background="new -68.5 -68.5 397.5 673.5"
   xml:space="preserve"
   inkscape:version="0.91 r13725"
   sodipodi:docname="cf-bb-s3.svg"><metadata
     id="metadata467"><rdf:RDF><cc:Work
         rdf:about=""><dc:format>image/svg+xml</dc:format><dc:type
           rdf:resource="http://purl.org/dc/dcmitype/StillImage" /><dc:title></dc:title></cc:Work></rdf:RDF></metadata><defs
     id="defs465"><linearGradient
       id="path3947_1_"
       gradientUnits="userSpaceOnUse"
       x1="-141.9691"
       y1="1281.4927"
       x2="-113.5241"
       y2="1296.3914"
       gradientTransform="matrix(1,0,0,-1,563.0854,1821.0303)"><stop
         offset="0"
         style="stop-color:#FFFFFF"
         id="stop293" /><stop
         offset="1"
         style="stop-color:#C0815E"
         id="stop295" /></linearGradient><radialGradient
       id="path3934_1_"
       cx="-158.7982"
       cy="1311.4702"
       r="48.529598"
       gradientTransform="matrix(1,0,0,-1.5817,563.0854,2630.5657)"
       gradientUnits="userSpaceOnUse"><stop
         offset="0"
         style="stop-color:#FFFFFF"
         id="stop300" /><stop
         offset="1"
         style="stop-color:#A94436"
         id="stop302" /></radialGradient><radialGradient
       id="path3934_1_-1"
       cx="-158.7982"
       cy="1311.4702"
       r="48.529598"
       gradientTransform="matrix(1,0,0,-1.5817,563.0854,2630.5657)"
       gradientUnits="userSpaceOnUse"><stop
         offset="0"
         style="stop-color:#FFFFFF"
         id="stop300-3" /><stop
         offset="1"
         style="stop-color:#A94436"
         id="stop302-1" /></radialGradient></defs><sodipodi:namedview
     pagecolor="#000000"
     bordercolor="#666666"
     borderopacity="1"
     objecttolerance="10"
     gridtolerance="10"
     guidetolerance="10"
     inkscape:pageopacity="0"
     inkscape:pageshadow="2"
     inkscape:window-width="1373"
     inkscape:window-height="892"
     id="namedview463"
     showgrid="false"
     inkscape:zoom="0.95833333"
     inkscape:cx="640"
     inkscape:cy="360"
     inkscape:window-x="99"
     inkscape:window-y="43"
     inkscape:window-maximized="0"
     inkscape:current-layer="Layer_1" /><g
     id="g5102"
     transform="translate(43.826087,-313.04348)"><g
       transform="matrix(0.05781293,0,0,0.05781293,88.341613,498.22062)"
       id="Page 1"
       style="fill:#d8d8d8;fill-rule:evenodd"><g
         id="BackBone.JS"><path
           d="M 0,0 0,485 361,690.78502 361,550.90277 119.49609,413.23549 119.49609,197 361,334.66728 361,205.78502 0,0 Z m 0,0"
           id="Path"
           style="fill:#002a41;stroke:#848484;stroke-width:1"
           inkscape:connector-curvature="0" /><path
           d="M 722,0 722,485 361,690.78502 361,550.90277 602.50391,413.23549 602.50391,197 361,334.66728 361,205.78502 722,0 Z m 0,0"
           id="path2996"
           style="fill:#0071b5;stroke:#848484;stroke-width:1"
           inkscape:connector-curvature="0" /><path
           d="m 0,896.78502 0,-485 L 361,206 l 0,139.88225 -241.50391,137.66728 0,205.23549 L 361,551.11775 361,691 0,896.78502 Z m 0,0"
           id="path2998"
           style="fill:#0071b5;stroke:#848484;stroke-width:1"
           inkscape:connector-curvature="0" /><path
           d="m 722,896.78502 0,-485 L 361,206 l 0,139.88225 241.50391,137.66728 0,205.23549 L 361,551.11775 361,691 722,896.78502 Z m 0,0"
           id="path3000"
           style="fill:#002a41;stroke:#848484;stroke-width:1"
           inkscape:connector-curvature="0" /></g></g><path
       inkscape:connector-curvature="0"
       id="path3014"
       d="m 147.28471,510.667 7.59767,0 c 3.42304,3e-5 5.93664,0.58107 7.54082,1.74313 1.60414,1.1621 2.40622,2.91783 2.40624,5.26719 -2e-5,1.60419 -0.48948,2.93992 -1.46837,4.00725 -0.97894,1.06737 -2.40942,1.7526 -4.29145,2.05573 l 0,0.11367 c 2.21044,0.32843 3.8367,1.02633 4.8788,2.09363 1.04205,1.06736 1.56308,2.55469 1.56311,4.46198 -3e-5,2.5515 -0.84631,4.51566 -2.53887,5.89245 -1.6926,1.3768 -4.09253,2.0652 -7.19978,2.0652 l -8.48817,0 z m 1.93258,12.33437 6.10086,0 c 2.60201,3e-5 4.49354,-0.4326 5.67457,-1.29786 1.181,-0.8652 1.7715,-2.2199 1.77152,-4.06406 -2e-5,-1.84416 -0.66631,-3.18306 -1.99888,-4.01672 -1.33261,-0.83363 -3.31886,-1.25047 -5.95877,-1.2505 l -5.5893,0 z m 0,1.70523 0,11.9554 6.51769,0 c 5.12825,3e-5 7.69238,-2.08413 7.6924,-6.25242 -2e-5,-3.80199 -2.70309,-5.70298 -8.10923,-5.70298 z"
       style="font-style:normal;font-variant:normal;font-weight:normal;font-stretch:normal;font-size:medium;line-height:125%;font-family:'Open Sans Light';-inkscape-font-specification:'Open Sans Light';letter-spacing:0px;word-spacing:0px;fill:#999999;fill-opacity:1;stroke:none" /><path
       inkscape:connector-curvature="0"
       id="path3016"
       d="m 184.95094,528.59069 -11.2544,0 -3.86514,9.77654 -2.14099,0 11.14071,-27.81389 1.23154,0 10.91337,27.81389 -2.17888,0 z m -10.55337,-1.7431 9.90918,0 -3.77042,-9.98497 c -0.31579,-0.7831 -0.69472,-1.8694 -1.1368,-3.25886 -0.34106,1.21263 -0.71367,2.31153 -1.11786,3.29676 z"
       style="font-style:normal;font-variant:normal;font-weight:normal;font-stretch:normal;font-size:medium;line-height:125%;font-family:'Open Sans Light';-inkscape-font-specification:'Open Sans Light';letter-spacing:0px;word-spacing:0px;fill:#999999;fill-opacity:1;stroke:none" /><path
       inkscape:connector-curvature="0"
       id="path3018"
       d="m 206.70186,512.01223 c -3.47359,3e-5 -6.20824,1.11157 -8.20396,3.33466 -1.99573,2.22309 -2.99359,5.26722 -2.99359,9.13234 0,3.95356 0.94102,7.02295 2.82307,9.20814 1.88204,2.1852 4.57248,3.2778 8.07133,3.2778 2.32413,0 4.4588,-0.29684 6.40402,-0.8905 l 0,1.70519 c -1.83154,0.6442 -4.11778,0.9663 -6.85874,0.9663 -3.89042,0 -6.95348,-1.2568 -9.18919,-3.77042 -2.23573,-2.5136 -3.35359,-6.02505 -3.35358,-10.53441 -1e-5,-2.81672 0.53366,-5.29875 1.601,-7.44608 1.06733,-2.14729 2.60202,-3.80512 4.60407,-4.97355 2.00203,-1.16833 4.32933,-1.75253 6.98189,-1.75256 2.70306,3e-5 5.12193,0.50526 7.25662,1.51573 l -0.77681,1.74312 c -2.02101,-1.01049 -4.14305,-1.51573 -6.36613,-1.51576 z"
       style="font-style:normal;font-variant:normal;font-weight:normal;font-stretch:normal;font-size:medium;line-height:125%;font-family:'Open Sans Light';-inkscape-font-specification:'Open Sans Light';letter-spacing:0px;word-spacing:0px;fill:#999999;fill-opacity:1;stroke:none" /><path
       inkscape:connector-curvature="0"
       id="path3020"
       d="m 237.60408,538.36723 -2.36835,0 -10.62915,-14.62693 -3.69462,3.25886 0,11.36807 -1.93258,0 0,-27.70023 1.93258,0 0,14.39956 3.06938,-3.06935 10.85651,-11.33021 2.46308,0 -11.34913,11.70914 z"
       style="font-style:normal;font-variant:normal;font-weight:normal;font-stretch:normal;font-size:medium;line-height:125%;font-family:'Open Sans Light';-inkscape-font-specification:'Open Sans Light';letter-spacing:0px;word-spacing:0px;fill:#999999;fill-opacity:1;stroke:none" /><path
       inkscape:connector-curvature="0"
       id="path3022"
       d="m 241.56397,510.667 7.59766,0 c 3.42304,3e-5 5.93664,0.58107 7.54082,1.74313 1.60415,1.1621 2.40623,2.91783 2.40625,5.26719 -2e-5,1.60419 -0.48948,2.93992 -1.46838,4.00725 -0.97894,1.06737 -2.40942,1.7526 -4.29145,2.05573 l 0,0.11367 c 2.21044,0.32843 3.83671,1.02633 4.8788,2.09363 1.04205,1.06736 1.56309,2.55469 1.56311,4.46198 -2e-5,2.5515 -0.84631,4.51566 -2.53887,5.89245 -1.6926,1.3768 -4.09252,2.0652 -7.19978,2.0652 l -8.48816,0 z m 1.93257,12.33437 6.10087,0 c 2.60201,3e-5 4.49353,-0.4326 5.67456,-1.29786 1.181,-0.8652 1.77151,-2.2199 1.77153,-4.06406 -2e-5,-1.84416 -0.66632,-3.18306 -1.99889,-4.01672 -1.33261,-0.83363 -3.31886,-1.25047 -5.95877,-1.2505 l -5.5893,0 z m 0,1.70523 0,11.9554 6.5177,0 c 5.12824,3e-5 7.69237,-2.08413 7.69239,-6.25242 -2e-5,-3.80199 -2.70309,-5.70298 -8.10922,-5.70298 z"
       style="font-style:normal;font-variant:normal;font-weight:normal;font-stretch:normal;font-size:medium;line-height:125%;font-family:'Open Sans Light';-inkscape-font-specification:'Open Sans Light';letter-spacing:0px;word-spacing:0px;fill:#999999;fill-opacity:1;stroke:none" /><path
       inkscape:connector-curvature="0"
       id="path3024"
       d="m 289.17726,524.47923 c -3e-5,4.39566 -1.09895,7.87238 -3.29675,10.43021 -2.19784,2.55782 -5.22933,3.83672 -9.09446,3.83672 -3.85252,0 -6.87769,-1.2789 -9.07551,-3.83672 -2.19783,-2.55783 -3.29674,-6.04719 -3.29674,-10.46811 0,-4.40825 1.10838,-7.87868 3.32516,-10.41127 2.21676,-2.53253 5.24509,-3.79879 9.08499,-3.79882 3.86512,3e-5 6.89029,1.27263 9.07551,3.81779 2.18517,2.54519 3.27777,6.02191 3.2778,10.4302 z m -22.66037,0 c 0,3.96619 0.88418,7.03242 2.65255,9.19868 1.76836,2.16623 4.30723,3.24936 7.61661,3.24936 3.33462,0 5.88296,-1.07364 7.64503,-3.22096 1.76203,-2.1473 2.64306,-5.22299 2.64308,-9.22708 -2e-5,-3.99145 -0.88105,-7.05135 -2.64308,-9.17974 -1.76207,-2.12833 -4.29778,-3.19249 -7.60713,-3.19252 -3.29676,3e-5 -5.83878,1.07369 -7.62609,3.22095 -1.78732,2.14733 -2.68097,5.19776 -2.68097,9.15131 z"
       style="font-style:normal;font-variant:normal;font-weight:normal;font-stretch:normal;font-size:medium;line-height:125%;font-family:'Open Sans Light';-inkscape-font-specification:'Open Sans Light';letter-spacing:0px;word-spacing:0px;fill:#999999;fill-opacity:1;stroke:none" /><path
       inkscape:connector-curvature="0"
       id="path3026"
       d="m 315.66487,538.36723 -1.95152,0 -16.40792,-24.59294 -0.15158,0 c 0.15157,2.93046 0.22736,5.14092 0.22736,6.63139 l 0,17.96155 -1.85678,0 0,-27.70023 1.93257,0 16.38897,24.55507 0.11369,0 c -0.11371,-2.27363 -0.17055,-4.43355 -0.17053,-6.47982 l 0,-18.07525 1.87574,0 z"
       style="font-style:normal;font-variant:normal;font-weight:normal;font-stretch:normal;font-size:medium;line-height:125%;font-family:'Open Sans Light';-inkscape-font-specification:'Open Sans Light';letter-spacing:0px;word-spacing:0px;fill:#999999;fill-opacity:1;stroke:none" /><path
       inkscape:connector-curvature="0"
       id="path3028"
       d="m 338.62838,538.36723 -15.13848,0 0,-27.70023 15.13848,0 0,1.78103 -13.20591,0 0,10.47757 12.46699,0 0,1.781 -12.46699,0 0,11.87963 13.20591,0 z"
       style="font-style:normal;font-variant:normal;font-weight:normal;font-stretch:normal;font-size:medium;line-height:125%;font-family:'Open Sans Light';-inkscape-font-specification:'Open Sans Light';letter-spacing:0px;word-spacing:0px;fill:#999999;fill-opacity:1;stroke:none" /><path
       inkscape:connector-curvature="0"
       id="path3030"
       d="m 344.08505,536.88937 c 0,-1.23783 0.50524,-1.85677 1.51574,-1.85677 1.03575,0 1.55363,0.61894 1.55364,1.85677 -10e-6,1.23786 -0.51789,1.85679 -1.55364,1.85679 -1.0105,0 -1.51574,-0.61893 -1.51574,-1.85679 z"
       style="font-style:normal;font-variant:normal;font-weight:normal;font-stretch:normal;font-size:medium;line-height:125%;font-family:'Open Sans Light';-inkscape-font-specification:'Open Sans Light';letter-spacing:0px;word-spacing:0px;fill:#999999;fill-opacity:1;stroke:none" /><path
       inkscape:connector-curvature="0"
       id="path3032"
       d="m 349.63646,545.35858 c -1.16207,0 -2.11572,-0.1705 -2.86097,-0.51154 l 0,-1.66732 c 0.98524,0.2526 1.92626,0.37893 2.82308,0.37893 3.05674,0 4.58512,-1.66733 4.58512,-5.00196 l 0,-27.88969 1.93257,0 0,27.70023 c 0,4.66089 -2.15994,6.99135 -6.4798,6.99135 z"
       style="font-style:normal;font-variant:normal;font-weight:normal;font-stretch:normal;font-size:medium;line-height:125%;font-family:'Open Sans Light';-inkscape-font-specification:'Open Sans Light';letter-spacing:0px;word-spacing:0px;fill:#999999;fill-opacity:1;stroke:none" /><path
       inkscape:connector-curvature="0"
       id="path3034"
       d="m 379.09873,531.22428 c -2e-5,2.31153 -0.84946,4.14306 -2.54834,5.49459 -1.69891,1.35153 -3.95673,2.02729 -6.77348,2.02729 -3.38516,0 -5.98087,-0.37263 -7.78713,-1.11786 l 0,-1.93256 c 1.99573,0.84629 4.54091,1.26943 7.63556,1.26943 2.2736,0 4.0767,-0.52104 5.40931,-1.5631 1.33257,-1.0421 1.99887,-2.40943 1.99889,-4.10199 -2e-5,-1.0484 -0.22107,-1.91679 -0.66314,-2.60519 -0.44211,-0.6884 -1.16209,-1.3168 -2.15994,-1.8852 -0.99788,-0.5684 -2.46309,-1.181 -4.39566,-1.83786 -2.82939,-0.97256 -4.78407,-2.02413 -5.86403,-3.15462 -1.07997,-1.13047 -1.61995,-2.63676 -1.61995,-4.51883 0,-2.07149 0.81155,-3.76089 2.43466,-5.06825 1.62311,-1.3073 3.71041,-1.96096 6.26192,-1.96099 2.60201,3e-5 5.04615,0.49263 7.33241,1.47786 l -0.70103,1.6673 c -2.2989,-0.95994 -4.49672,-1.43994 -6.59349,-1.43997 -2.04626,3e-5 -3.67568,0.4737 -4.88827,1.42103 -1.2126,0.94736 -1.81889,2.23573 -1.81889,3.86513 0,1.02316 0.18631,1.86312 0.55893,2.51992 0.37261,0.65687 0.98207,1.24736 1.82837,1.77153 0.84628,0.52423 2.29886,1.15263 4.35776,1.88523 2.15992,0.74523 3.78303,1.46836 4.86933,2.16939 1.08626,0.70103 1.87887,1.4968 2.37782,2.3873 0.49891,0.89049 0.74837,1.96732 0.74839,3.23042 z"
       style="font-style:normal;font-variant:normal;font-weight:normal;font-stretch:normal;font-size:medium;line-height:125%;font-family:'Open Sans Light';-inkscape-font-specification:'Open Sans Light';letter-spacing:0px;word-spacing:0px;fill:#999999;fill-opacity:1;stroke:none" /><g
       id="g5263"
       transform="translate(-170.95325,248.31397)"><path
         id="path5265"
         d="m 419.77931,179.20474 c -0.109,-0.23 -0.17,-0.471 -0.17,-0.711 l 0.17,0.711 z"
         pointer-events="none"
         style="fill:#8c3323"
         inkscape:connector-curvature="0" /><path
         id="path5267"
         d="m 473.34931,179.20474 0.17,-0.711 c 0,0.241 -0.06,0.481 -0.17,0.711 z"
         pointer-events="none"
         style="fill:#8c3323"
         inkscape:connector-curvature="0" /><path
         id="path5269"
         d="m 473.51931,176.18474 0,2.31 -0.17,0.711 0,-2.311 0.17,-0.71 z"
         pointer-events="none"
         style="fill:#8c3323"
         inkscape:connector-curvature="0" /><path
         id="path5271"
         d="m 419.77931,176.89474 0,2.311 -0.17,-0.711 0,-2.31 0.17,0.71 z"
         pointer-events="none"
         style="fill:#8c3323"
         inkscape:connector-curvature="0" /><path
         id="path5273"
         d="m 473.51931,171.77474 0,2.31 c 0,0.08 -0.01,0.17 -0.03,0.25 l 0,-2.31 c 0.02,-0.09 0.03,-0.17 0.03,-0.25"
         pointer-events="none"
         style="fill:#8c3323"
         inkscape:connector-curvature="0" /><path
         id="path5275"
         d="m 473.48931,172.02474 0,2.31 c -0.01,0.101 -0.04,0.201 -0.069,0.301 l 0,-2.32 c 0.029,-0.101 0.059,-0.191 0.069,-0.291"
         pointer-events="none"
         style="fill:#8c3323"
         inkscape:connector-curvature="0" /><path
         id="path5277"
         d="m 473.42031,172.31474 0,2.32 c -0.051,0.119 -0.11,0.25 -0.19,0.39 l 0,-2.31 c 0.079,-0.131 0.139,-0.26 0.19,-0.4"
         pointer-events="none"
         style="fill:#8c3323"
         inkscape:connector-curvature="0" /><path
         id="path5279"
         d="m 473.22931,172.71474 0,2.31 c -1.92,3.09 -13.13,5.45 -26.67,5.45 -14.88,0 -26.95,-2.86 -26.95,-6.391 l 0,-2.31 c 0,3.54 12.07,6.38 26.95,6.38 13.54,0.001 24.75,-2.349 26.67,-5.439"
         pointer-events="none"
         style="fill:#8c3323"
         inkscape:connector-curvature="0" /><path
         id="path5281"
         d="m 473.51931,171.77474 0,2.31 c 0,3.53 -12.07,6.391 -26.96,6.391 -14.88,0 -26.95,-2.86 -26.95,-6.391 l 0,-2.31 c 0,3.54 12.07,6.38 26.95,6.38 14.89,0 26.96,-2.84 26.96,-6.38 z"
         pointer-events="none"
         style="fill:#8c3323"
         inkscape:connector-curvature="0" /><path
         id="path5283"
         d="m 446.55931,165.39474 c 14.89,0 26.96,2.859 26.96,6.38 0,3.54 -12.07,6.39 -26.96,6.39 -14.88,0 -26.95,-2.85 -26.95,-6.39 0,-3.521 12.07,-6.38 26.95,-6.38 z"
         pointer-events="none"
         style="fill:#e15343"
         inkscape:connector-curvature="0" /><path
         id="path5285"
         d="m 473.34931,176.89474 0,2.311 -8.811,37.93 0,-2.3 8.811,-37.941 z"
         pointer-events="none"
         style="fill:#8c3323"
         inkscape:connector-curvature="0" /><path
         id="path5287"
         d="m 428.59931,214.83474 0,2.3 -8.82,-37.93 0,-2.311 8.82,37.941 z"
         pointer-events="none"
         style="fill:#8c3323"
         inkscape:connector-curvature="0" /><path
         id="path5289"
         d="m 464.53931,214.83474 0,2.3 c 0,0.06 -0.01,0.12 -0.02,0.18 l 0,-2.32 c 0.01,-0.06 0.02,-0.1 0.02,-0.16"
         pointer-events="none"
         style="fill:#8c3323"
         inkscape:connector-curvature="0" /><path
         id="path5291"
         d="m 464.51931,214.99474 0,2.32 c 0,0.06 -0.02,0.12 -0.04,0.19 l 0,-2.32 c 0.01,-0.061 0.04,-0.13 0.04,-0.19"
         pointer-events="none"
         style="fill:#8c3323"
         inkscape:connector-curvature="0" /><path
         id="path5293"
         d="m 464.47931,215.18474 0,2.32 c -0.04,0.09 -0.08,0.18 -0.14,0.27 l 0,-2.32 c 0.06,-0.09 0.1,-0.18 0.14,-0.27"
         pointer-events="none"
         style="fill:#8c3323"
         inkscape:connector-curvature="0" /><path
         id="path5295"
         d="m 464.33931,215.45374 0,2.32 c -1.271,2.05 -8.74,3.62 -17.78,3.62 -9.931,0 -17.96,-1.9 -17.96,-4.26 l 0,-2.3 c 0,2.35 8.029,4.25 17.96,4.25 9.04,0.001 16.51,-1.569 17.78,-3.63"
         pointer-events="none"
         style="fill:#8c3323"
         inkscape:connector-curvature="0" /><path
         id="path5297"
         d="m 464.53931,214.83474 0,2.3 c 0,2.359 -8.05,4.26 -17.979,4.26 -9.931,0 -17.96,-1.9 -17.96,-4.26 l 0,-2.3 c 0,2.35 8.029,4.25 17.96,4.25 9.929,0 17.979,-1.9 17.979,-4.25 z"
         pointer-events="none"
         style="fill:#8c3323"
         inkscape:connector-curvature="0" /><path
         id="path5299"
         d="m 446.55931,182.56474 c 13.88,0 25.31,-2.47 26.79,-5.67 l -8.811,37.94 c 0,2.35 -8.05,4.25 -17.979,4.25 -9.931,0 -17.96,-1.9 -17.96,-4.25 l -8.82,-37.94 c 1.49,3.2 12.91,5.67 26.78,5.67 z"
         pointer-events="none"
         style="fill:#e15343"
         inkscape:connector-curvature="0" /><path
         id="path5301"
         d="m 473.57931,176.17474 c 0.011,0.04 0.021,0.079 0.03,0.11 l -0.01,-0.061 c -0.01,-0.019 -0.02,-0.029 -0.02,-0.049 z"
         pointer-events="none"
         style="fill:#146eb4"
         inkscape:connector-curvature="0" /><path
         id="path5303"
         d="m 473.54831,176.09474 c -0.02,-0.06 -0.039,-0.13 -0.06,-0.2 0.012,0.07 0.041,0.141 0.06,0.2 z"
         pointer-events="none"
         style="fill:#146eb4"
         inkscape:connector-curvature="0" /></g><g
       transform="matrix(0.40859347,0,0,0.40859347,-166.91217,379.24546)"
       id="g4892"><path
         id="path137"
         d="m 894.16708,191.98684 59.43826,14.52935 0,-112.656511 -59.43826,14.529351 0,83.59781 z"
         pointer-events="none"
         inkscape:connector-curvature="0"
         style="opacity:1;fill:#8c3123" /><path
         id="path139"
         d="m 953.60534,93.859679 11.40735,5.76371 0,101.153111 -11.40735,5.76371 0,-112.680531 z"
         pointer-events="none"
         inkscape:connector-curvature="0"
         style="opacity:1;fill:#e05243" /><path
         id="path141"
         d="m 920.07976,113.96062 -25.91268,-6.48418 0,-43.612068 25.91268,13.088424 0,37.007824 z"
         pointer-events="none"
         inkscape:connector-curvature="0"
         style="opacity:1;fill:#e05243" /><path
         id="path143"
         d="m 894.16708,236.77567 25.91268,-13.08843 0,-36.9838 -25.91268,6.46016 0,43.61207 z"
         pointer-events="none"
         inkscape:connector-curvature="0"
         style="opacity:1;fill:#e05243" /><path
         id="path145-5"
         d="m 920.07976,168.83594 -25.91268,3.33815 0,-43.61207 25.91268,3.29011 0,36.98381 z"
         pointer-events="none"
         inkscape:connector-curvature="0"
         style="opacity:1;fill:#e05243" /><path
         id="path147-3"
         d="m 894.16708,191.98684 -59.43825,14.52935 0,-112.656511 59.43825,14.529351 0,83.59781 z"
         pointer-events="none"
         inkscape:connector-curvature="0"
         style="opacity:1;fill:#e05243" /><path
         id="path149-6"
         d="m 834.72883,93.859679 -11.40735,5.76371 0,101.153111 11.40735,5.76371 0,-112.680531 z"
         pointer-events="none"
         inkscape:connector-curvature="0"
         style="opacity:1;fill:#8c3123" /><path
         id="path151-7"
         d="m 868.25441,113.96062 25.91267,-6.48418 0,-43.612068 -25.91267,13.088424 0,37.007824 z"
         pointer-events="none"
         inkscape:connector-curvature="0"
         style="opacity:1;fill:#8c3123" /><path
         id="path153-2"
         d="m 894.16708,236.77567 -25.91267,-13.08843 0,-36.9838 25.91267,6.46016 0,43.61207 z"
         pointer-events="none"
         inkscape:connector-curvature="0"
         style="opacity:1;fill:#8c3123" /><path
         id="path155-0"
         d="m 868.25441,168.83594 25.91267,3.33815 0,-43.61207 -25.91267,3.29011 0,36.98381 z"
         pointer-events="none"
         inkscape:connector-curvature="0"
         style="opacity:1;fill:#8c3123" /><path
         id="path157-9"
         d="m 920.07976,113.96062 -25.91268,4.75506 -25.91267,-4.75506 25.91267,-6.48418 25.91268,6.48418 z"
         pointer-events="none"
         inkscape:connector-curvature="0"
         style="opacity:1;fill:#5e1f18" /><path
         id="path159-3"
         d="m 920.07976,186.67942 -25.91268,-4.77907 -25.91267,4.77907 25.91267,6.53221 25.91268,-6.53221 z"
         pointer-events="none"
         inkscape:connector-curvature="0"
         style="opacity:1;fill:#f2b0a9" /></g></g><g
     id="g4616"
     transform="matrix(2.5638927,0,0,2.5638927,-589.82816,66.450408)"><path
       id="path239"
       d="m 459.11743,158.7511 13.65,-1.06 0,-17.431 -13.65,3.601 0,14.89 z"
       pointer-events="none"
       style="fill:#8c3123"
       inkscape:connector-curvature="0" /><path
       id="path241"
       d="m 464.44743,156.5211 -14.211,-2.09 0,-25.53 14.211,7.22 0,20.4 z"
       pointer-events="none"
       style="fill:#e05243"
       inkscape:connector-curvature="0" /><path
       id="path243"
       d="m 479.87743,158.7711 -7.109,-1.05 0,-17.461 7.109,3.601 0,14.91 z"
       pointer-events="none"
       style="fill:#e05243"
       inkscape:connector-curvature="0" /><path
       id="path245"
       d="m 459.11743,158.7511 13.5,-1.05 7.26,1.07 -13.04,0.79 -7.72,-0.81 z"
       pointer-events="none"
       style="fill:#5e1f18"
       inkscape:connector-curvature="0" /><path
       id="path247"
       d="m 459.11743,171.0511 13.65,1.06 0,17.43 -13.65,-3.6 0,-14.89 z"
       pointer-events="none"
       style="fill:#8c3123"
       inkscape:connector-curvature="0" /><path
       id="path249"
       d="m 464.44743,173.2811 -14.211,2.09 0,25.53 14.211,-7.22 0,-20.4 z"
       pointer-events="none"
       style="fill:#e05243"
       inkscape:connector-curvature="0" /><path
       id="path251"
       d="m 479.72743,171.0311 -7.09,1.05 0,17.46 7.09,-3.6 0,-14.91 z"
       pointer-events="none"
       style="fill:#e05243"
       inkscape:connector-curvature="0" /><path
       id="path253"
       d="m 459.11743,171.0511 13.5,1.05 7.26,-1.07 -13.04,-0.79 -7.72,0.81 z"
       pointer-events="none"
       style="fill:#f2b0a9"
       inkscape:connector-curvature="0" /><path
       id="path255"
       d="m 441.48743,158.7511 -13.64,-1.06 0,-17.431 13.64,3.601 0,14.89 z"
       pointer-events="none"
       style="fill:#e05243"
       inkscape:connector-curvature="0" /><path
       id="path257"
       d="m 436.15743,156.5211 14.22,-2.09 0,-25.53 -14.22,7.22 0,20.4 z"
       pointer-events="none"
       style="fill:#8c3123"
       inkscape:connector-curvature="0" /><path
       id="path259"
       d="m 420.87743,158.7711 7.11,-1.05 0,-17.461 -7.11,3.601 0,14.91 z"
       pointer-events="none"
       style="fill:#8c3123"
       inkscape:connector-curvature="0" /><path
       id="path261"
       d="m 441.62743,158.7511 -13.5,-1.05 -7.25,1.07 13.03,0.79 7.72,-0.81 z"
       pointer-events="none"
       style="fill:#5e1f18"
       inkscape:connector-curvature="0" /><path
       id="path263"
       d="m 441.48743,171.0511 -13.64,1.06 0,17.43 13.64,-3.6 0,-14.89 z"
       pointer-events="none"
       style="fill:#e05243"
       inkscape:connector-curvature="0" /><path
       id="path265"
       d="m 436.15743,173.2811 14.22,2.09 0,25.53 -14.22,-7.22 0,-20.4 z"
       pointer-events="none"
       style="fill:#8c3123"
       inkscape:connector-curvature="0" /><path
       id="path267"
       d="m 420.87743,171.0311 7.11,1.05 0,17.46 -7.11,-3.6 0,-14.91 z"
       pointer-events="none"
       style="fill:#8c3123"
       inkscape:connector-curvature="0" /><path
       id="path269"
       d="m 441.62743,171.0511 -13.5,1.05 -7.25,-1.07 13.03,-0.79 7.72,0.81 z"
       pointer-events="none"
       style="fill:#f2b0a9"
       inkscape:connector-curvature="0" /><path
       id="path271"
       d="m 464.59743,173.2811 -14.22,-1.41 -14.22,1.41 14.22,2.12 14.22,-2.12 z"
       pointer-events="none"
       style="fill:#f2b0a9"
       inkscape:connector-curvature="0" /><path
       id="path273"
       d="m 464.59743,156.5211 -14.22,1.39 -14.22,-1.39 14.22,-2.09 14.22,2.09 z"
       pointer-events="none"
       style="fill:#5e1f18"
       inkscape:connector-curvature="0" /></g></svg>