<?xml version="1.0" encoding="utf-8"?>
<!-- Generator: Adobe Illustrator 13.0.0, SVG Export Plug-In . SVG Version: 6.00 Build 14948)  -->
<!DOCTYPE svg PUBLIC "-//W3C//DTD SVG 1.1//EN" "http://www.w3.org/Graphics/SVG/1.1/DTD/svg11.dtd">
<svg version="1.1" id="Layer_1" xmlns="http://www.w3.org/2000/svg" xmlns:xlink="http://www.w3.org/1999/xlink" x="0px" y="0px"
	 width="201.181px" height="236.088px" viewBox="0 0 201.181 236.088" enable-background="new 0 0 201.181 236.088"
	 xml:space="preserve">
<path fill="none" stroke="#FFFFFF" stroke-width="0.216" stroke-miterlimit="2.6131" d="M182.913,180.179
	c-0.182-2.74,2.255-5.176,5.42-5.42c2.846,0.244,5.284,2.68,5.421,5.42c-0.137,3.273-2.575,5.711-5.421,5.422
	C185.168,185.89,182.731,183.452,182.913,180.179"/>
<path fill-rule="evenodd" clip-rule="evenodd" fill="#FFFFFF" d="M190.743,183.191c-0.319-0.19-0.359-0.308-0.603-0.603v-1.205
	c0.158-0.584-0.159-0.723-0.602-0.602c0.483-0.463,0.9-0.764,0.602-1.808c0.299-0.948-0.611-1.266-1.808-1.205h-2.409v5.422h0.604
	v-2.409h1.806c1.178,0.094,1.271,0.627,1.206,1.203c0.065,0.089,0.09,0.93,0,1.206H190.743L190.743,183.191z M188.333,180.179
	h-1.806v-1.806h2.408c0.106-0.023,0.73,0.048,0.604,1.204C189.666,180.097,189.086,180.234,188.333,180.179L188.333,180.179z"/>
<path fill-rule="evenodd" clip-rule="evenodd" fill="#FFFFFF" d="M4.751,168.763v12.851c0.332,1.927-0.301,3.27-3.212,3.212v0.803
	h8.835v-0.803c-2.877,0.058-3.55-1.285-3.212-3.212v-12.851H4.751L4.751,168.763z"/>
<polygon fill-rule="evenodd" clip-rule="evenodd" fill="#FFFFFF" points="10.374,168.763 16.798,185.628 17.601,185.628 
	24.829,168.763 22.421,168.763 18.404,178.4 14.389,168.763 10.374,168.763 "/>
<path fill-rule="evenodd" clip-rule="evenodd" fill="#FFFFFF" d="M28.042,168.763v12.851c-0.045,1.927-0.68,3.27-3.212,3.212v0.803
	h10.441v-0.803c-2.487,0.058-3.199-1.285-3.199-3.212l-0.013-12.851H28.042L28.042,168.763z"/>
<path fill-rule="evenodd" clip-rule="evenodd" fill="#FFFFFF" d="M38.483,168.763v13.652c-0.352,1.344-0.866,2.514-3.212,2.41v0.803
	h9.637v-0.803c-2.6,0.104-3.222-1.066-3.222-2.41l0.01-13.652H38.483L38.483,168.763z"/>
<path fill-rule="evenodd" clip-rule="evenodd" fill="#FFFFFF" d="M44.105,168.763c0.09,1.241-0.058,2.46,0,4.016
	c-0.058,8.056,4.738,12.84,11.243,12.84c3.912,0.01,7.74-2.134,8.835-8.021c-1.646,5.508-4.923,6.643-8.033,6.425
	c-4.446,0.218-7.997-3.396-8.031-12.047c0.034-0.896,0.111-2.035,0-3.212H44.105L44.105,168.763z"/>
<path fill-rule="evenodd" clip-rule="evenodd" fill="#FFFFFF" d="M67.396,168.763v13.652c0.063,1.344-0.489,2.514-3.212,2.41v0.803
	h9.638v-0.803c-2.223,0.104-2.808-1.066-2.411-2.41v-8.832c0.533-0.153,1.396-0.153,2.411,0c1.436,2.395,2.95,5.182,4.818,8.03
	c0.375,1.114,1.102,2.386,1.606,4.015h6.425v-0.803c-1.446,0.104-2.687-0.517-4.014-2.41l-4.82-9.637
	c1.35-0.271,3.559-1.699,4.82-4.016h-4.017c-1.168,2.129-3.397,3.36-7.229,3.212v-3.212H67.396L67.396,168.763z"/>
<path fill-rule="evenodd" clip-rule="evenodd" fill="#FFFFFF" d="M84.262,168.763c-0.168,1.241-0.315,2.46,0,4.016
	c-0.315,7.398,4.929,12.84,12.046,12.84c5.508,0.01,11.098-5.404,11.245-12.84c-0.147-1.492-0.312-2.711-0.805-4.016h-4.015
	c0.432,1.288,0.531,2.502,0.803,4.016c-0.271,6.127-2.583,11.565-8.031,11.243c-3.866,0.322-7.418-3.396-7.229-11.243
	c-0.189-1.58-0.109-2.794,0-4.016H84.262L84.262,168.763z"/>
<path fill-rule="evenodd" clip-rule="evenodd" fill="#FFFFFF" d="M109.158,168.763c0.317,2.129,2.242,3.467,6.425,5.622
	c3.832,1.526,4.832,2.831,4.832,5.622c-0.013,2.338-1.724,4.167-4.029,4.015c-2.696,0.152-6.939-1.262-7.228-6.425v8.031
	c0.254-1.182,1.185-1.492,2.409-0.803c1.396,0.345,2.949,0.793,4.818,0.793c4.719,0.01,7.48-3.787,7.229-7.218
	c0.252-4.903-3.267-6.21-6.425-8.031c-1.439-0.573-2.312-1.052-3.212-1.606H109.158L109.158,168.763z"/>
<path fill-rule="evenodd" clip-rule="evenodd" fill="#FFFFFF" d="M125.221,168.763c-0.495,1.241-0.639,2.46-0.803,4.016
	c0.164,7.398,5.407,12.84,12.046,12.84c5.983,0.01,11.572-5.404,11.245-12.84c0.327-1.492,0.167-2.711,0-4.016h-4.017
	c0.104,1.288,0.204,2.502,0,4.016c0.204,6.127-2.104,11.565-7.229,11.243c-4.192,0.322-7.743-3.396-8.031-11.243
	c0.288-1.58,0.366-2.794,0.804-4.016H125.221L125.221,168.763z"/>
<path fill-rule="evenodd" clip-rule="evenodd" fill="#FFFFFF" d="M150.117,168.763v13.652c-0.246,1.344-0.799,2.514-3.212,2.41
	v0.803h9.637v-0.803c-2.532,0.104-3.117-1.066-3.212-2.41v-9.637h6.426c1.876-0.278,3.155,0.412,3.213,3.212v-7.228
	c-0.59,1.81-1.755,2.259-3.213,2.409h-6.426v-2.409H150.117L150.117,168.763z"/>
<path fill-rule="evenodd" clip-rule="evenodd" fill="#FFFFFF" d="M175.015,168.763v13.652c-0.375,1.344-0.994,2.514-3.212,2.41
	v0.803h9.638v-0.803c-2.729,0.104-3.246-1.066-3.214-2.41v-13.652H175.015L175.015,168.763z"/>
<path fill-rule="evenodd" clip-rule="evenodd" fill="#FFFFFF" d="M7.161,168.763v-8.032l3.212,8.032h4.015l-4.819-12.85H1.539v0.803
	c2.912-0.389,3.544,0.956,3.212,3.213v8.834H7.161L7.161,168.763z"/>
<path fill-rule="evenodd" clip-rule="evenodd" fill="#FFFFFF" d="M24.829,168.763l3.212-8.032v8.032h4.017v-8.834
	c0-2.257,0.725-3.602,3.212-3.213v-0.803h-7.229l-5.621,12.85H24.829L24.829,168.763z"/>
<path fill-rule="evenodd" clip-rule="evenodd" fill="#FFFFFF" d="M41.695,168.763v-5.621c0-1.932,0.613-3.104,3.212-3.213h-9.637
	c2.347,0.109,2.861,1.281,3.212,3.213v5.621H41.695L41.695,168.763z"/>
<path fill-rule="evenodd" clip-rule="evenodd" fill="#FFFFFF" d="M48.12,168.763c1.041-5.098,3.715-8.242,8.031-8.032
	c4.454-0.21,6.526,2.854,7.229,7.229h0.804l-0.804-8.835h-0.803c0.167,1.462-0.692,1.74-1.606,1.605
	c-1.744-1.07-3.33-1.382-4.82-1.605c-5.722,0.224-10.302,4.029-12.045,9.638H48.12L48.12,168.763z"/>
<path fill-rule="evenodd" clip-rule="evenodd" fill="#FFFFFF" d="M71.411,168.763v-7.228c0.358-0.291,0.98-0.396,2.411,0
	c2.71-0.396,5.022,1.67,4.818,4.818c0.205,0.923,0.054,1.776,0,2.409h4.017c0.058-0.621,0.256-1.436,0-2.409
	c0.256-3.561-2.226-6.66-8.033-6.425c-1.853-0.235-3.714-0.165-6.425,0c-0.98-0.165-2.292-0.201-4.015,0
	c2.724,0.177,3.276,1.348,3.212,3.213v5.621H71.411L71.411,168.763z"/>
<path fill-rule="evenodd" clip-rule="evenodd" fill="#FFFFFF" d="M88.276,168.763c0.78-5.104,3.226-8.208,7.229-8.032
	c4.186-0.176,6.646,3.484,7.229,8.032h4.015c-1.165-5.002-5.293-9.414-11.243-9.638c-5.201,0.224-9.768,4.029-11.243,9.638H88.276
	L88.276,168.763z"/>
<path fill-rule="evenodd" clip-rule="evenodd" fill="#FFFFFF" d="M113.978,168.763c-1.833-1.16-2.46-2.108-2.41-4.016
	c-0.05-2.369,1.777-3.952,4.016-4.017c3.108,0.064,5.592,1.821,6.425,6.425v-8.03c-0.281,1.292-1.248,1.808-2.408,0.804
	c-1.459-0.269-2.701-0.58-4.017-0.804c-4.343,0.224-7.171,3.493-7.229,7.229c0.058,1.024,0.157,1.817,0.804,2.409H113.978
	L113.978,168.763z"/>
<path fill-rule="evenodd" clip-rule="evenodd" fill="#FFFFFF" d="M129.236,168.763c0.455-5.104,2.897-8.208,7.228-8.032
	c3.859-0.176,6.318,3.484,7.229,8.032h4.017c-1.49-5.002-5.619-9.414-11.245-9.638c-5.524,0.224-10.092,4.029-11.243,9.638H129.236
	L129.236,168.763z"/>
<path fill-rule="evenodd" clip-rule="evenodd" fill="#FFFFFF" d="M153.33,168.763v-7.228h7.229c3.18-0.291,4.316,0.983,4.818,4.015
	v-5.621h-18.472c2.413,0.109,2.966,1.281,3.212,3.213v5.621H153.33L153.33,168.763z"/>
<path fill-rule="evenodd" clip-rule="evenodd" fill="#FFFFFF" d="M162.969,168.763v-1.607
	C162.911,167.976,162.86,168.465,162.969,168.763L162.969,168.763z"/>
<path fill-rule="evenodd" clip-rule="evenodd" fill="#FFFFFF" d="M178.227,168.763v-7.228h3.214
	c2.549-0.259,3.824,1.532,4.015,4.818h0.804l-0.804-6.425h-18.472v6.425c0.517-3.286,1.826-5.077,4.819-4.818h3.212v7.228H178.227
	L178.227,168.763z"/>
<polygon fill-rule="evenodd" clip-rule="evenodd" fill="#FFFFFF" points="138.673,211.522 141.084,211.522 141.084,218.149 
	142.287,218.149 142.287,211.522 144.697,211.522 144.697,210.922 138.673,210.922 138.673,211.522 "/>
<path fill-rule="evenodd" clip-rule="evenodd" fill="#FFFFFF" d="M152.527,218.149v-7.228h-1.204l-2.41,6.022l-1.808-6.022h-1.204
	v7.228h0.602v-4.217c0.059-0.312,0.039-1.225,0-1.807l1.808,6.023h1.205l1.808-6.023c0.276,0.582,0.255,1.495,0,1.807v4.217H152.527
	L152.527,218.149z"/>
<polygon fill-rule="evenodd" clip-rule="evenodd" fill="#FFFFFF" points="169.906,139.844 172.314,139.844 172.314,146.47 
	173.521,146.47 173.521,139.844 175.93,139.844 175.93,139.243 169.906,139.243 169.906,139.844 "/>
<path fill-rule="evenodd" clip-rule="evenodd" fill="#FFFFFF" d="M183.759,146.47v-7.227h-1.204l-2.408,6.022l-1.807-6.022h-1.206
	v7.227h0.603v-4.216c0.059-0.312,0.038-1.225,0-1.807l1.808,6.022h1.204l1.807-6.022c0.277,0.582,0.257,1.495,0,1.807v4.216H183.759
	L183.759,146.47z"/>
<polygon fill-rule="evenodd" clip-rule="evenodd" fill="#FFFFFF" points="5.555,216.723 11.979,233.589 17.601,217.524 
	23.224,233.589 28.846,216.723 27.239,216.723 24.027,226.359 20.814,216.723 15.994,216.723 12.782,226.359 9.569,216.723 
	5.555,216.723 "/>
<path fill-rule="evenodd" clip-rule="evenodd" fill="#FFFFFF" d="M33.664,216.723v13.651c-0.044,1.597-0.488,2.611-2.41,2.41v0.805
	h8.033v-0.805c-2.065,0.201-2.601-0.813-2.41-2.41v-13.651H33.664L33.664,216.723z"/>
<path fill-rule="evenodd" clip-rule="evenodd" fill="#FFFFFF" d="M40.893,216.723v13.651c0.266,1.597-0.182,2.611-2.41,2.41v0.805
	h6.425v-0.805c-1.964,0.201-2.409-0.813-2.409-2.41v-13.651H40.893L40.893,216.723z"/>
<polygon fill-rule="evenodd" clip-rule="evenodd" fill="#FFFFFF" points="44.105,216.723 56.955,233.589 56.955,216.723 
	56.151,216.723 56.151,227.162 48.12,216.723 44.105,216.723 "/>
<path fill-rule="evenodd" clip-rule="evenodd" fill="#FFFFFF" d="M61.773,216.723v13.651c-0.103,1.507-0.579,2.521-2.409,2.41v0.805
	c0.966-0.367,2.098-0.396,3.212,0c2.067-0.396,4.27-0.306,4.819,0c7.508-0.306,12.358-4.54,12.047-11.246
	c0.311-2.151-0.098-3.938-0.804-5.62h-3.212c0.479,1.763,0.876,3.689,0.802,5.62c0.074,6.47-3.88,9.688-8.031,9.638
	c-1.501,0.051-2.513,0.051-3.212,0v-15.258H61.773L61.773,216.723z"/>
<path fill-rule="evenodd" clip-rule="evenodd" fill="#FFFFFF" d="M81.852,216.723c-0.827,1.725-1.229,3.532-1.606,5.62
	c0.377,6.529,4.899,11.237,10.441,11.237c5.343,0.009,10.159-4.678,10.441-11.237c-0.283-1.944-0.705-3.787-1.606-5.62h-3.214
	c0.7,1.779,0.971,3.609,0.804,5.62c0.167,5.425-1.827,10.134-6.425,10.441c-3.43-0.308-6.492-3.524-6.425-10.441
	c-0.067-2.158,0.154-3.955,0.802-5.62H81.852L81.852,216.723z"/>
<polygon fill-rule="evenodd" clip-rule="evenodd" fill="#FFFFFF" points="101.128,216.723 106.748,233.589 111.567,219.131 
	116.386,233.589 122.008,216.723 121.206,216.723 117.992,227.162 113.978,216.723 110.765,216.723 110.765,217.524 
	107.553,227.162 104.34,216.723 101.128,216.723 "/>
<path fill-rule="evenodd" clip-rule="evenodd" fill="#FFFFFF" d="M124.418,216.723C124.163,216.925,124.163,216.956,124.418,216.723
	c-0.255,3.359,1.023,4.671,5.621,7.228c3.611,1.229,4.474,2.358,4.818,4.818c-0.345,1.981-1.83,3.561-4.015,3.212
	c-2.129,0.349-5.786-0.873-6.425-5.621v7.229h0.803c-0.194-1.022,0.609-1.29,1.606-0.805c1.261,0.408,2.6,0.796,4.016,0.796
	c4.267,0.009,6.646-3.279,6.425-6.418c0.221-4.072-2.813-5.202-5.622-6.425c-2.98-1.816-4.199-2.613-4.818-4.015H124.418
	L124.418,216.723z"/>
<path fill-rule="evenodd" clip-rule="evenodd" fill="#FFFFFF" d="M135.661,216.723c0.106,0.468,0.167,0.758,0,0.802h0.803v-0.802
	H135.661L135.661,216.723z"/>
<path fill-rule="evenodd" clip-rule="evenodd" fill="#FFFFFF" d="M9.569,216.723L7.963,211.1c-0.809-1.88-0.264-2.871,2.41-3.212
	H0.736c1.881,0.341,2.529,1.024,3.213,3.212l1.605,5.623H9.569L9.569,216.723z"/>
<path fill-rule="evenodd" clip-rule="evenodd" fill="#FFFFFF" d="M20.814,216.723l-1.605-5.623c-0.795-1.81-0.216-2.871,2.408-3.212
	h-9.637c1.897,0.341,2.543,1.024,3.212,3.212l1.606,4.015l-0.804,1.608H20.814L20.814,216.723z"/>
<path fill-rule="evenodd" clip-rule="evenodd" fill="#FFFFFF" d="M28.846,216.723l1.606-4.82c0.824-2.683,1.677-3.674,3.212-4.015
	h-6.425c1.716,0.341,2.466,1.501,1.606,4.015l-1.606,4.82H28.846L28.846,216.723z"/>
<path fill-rule="evenodd" clip-rule="evenodd" fill="#FFFFFF" d="M36.876,216.723v-3.212c-0.191-1.06,0.345-2.069,2.41-2.411h-8.033
	c1.922,0.342,2.366,1.352,2.41,2.411v3.212H36.876L36.876,216.723z"/>
<path fill-rule="evenodd" clip-rule="evenodd" fill="#FFFFFF" d="M42.499,216.723v-1.608l1.606,1.608h4.015l-4.818-5.623h-5.623
	c1.724,0.342,2.589,1.265,3.214,2.411v3.212H42.499L42.499,216.723z"/>
<path fill-rule="evenodd" clip-rule="evenodd" fill="#FFFFFF" d="M56.955,216.723v-3.212c0.294-1.06,0.799-2.069,3.212-2.411h-7.229
	c2.524,0.342,3.001,1.352,3.212,2.411v3.212H56.955L56.955,216.723z"/>
<path fill-rule="evenodd" clip-rule="evenodd" fill="#FFFFFF" d="M64.986,216.723v-4.017c0.73-0.255,1.861-0.315,2.41,0
	c3.845-0.315,6.364,1.443,8.031,4.017h3.212c-1.797-3.534-5.492-5.582-9.637-5.623c-2.155,0.041-4.357,0.101-6.425,0
	c-1.114,0.101-2.247,0.07-3.212,0c1.83,0.399,2.306,1.412,2.409,3.213v2.41H64.986L64.986,216.723z"/>
<path fill-rule="evenodd" clip-rule="evenodd" fill="#FFFFFF" d="M85.064,216.723c0.748-3.007,2.701-4.837,5.623-4.837
	c2.854,0.017,4.781,2.085,5.621,4.837h3.214c-1.497-3.253-4.646-5.881-8.835-5.623c-3.851-0.258-7.268,2.085-8.835,5.623H85.064
	L85.064,216.723z"/>
<path fill-rule="evenodd" clip-rule="evenodd" fill="#FFFFFF" d="M104.34,216.723l-0.804-2.41c-0.636-2.009-0.16-2.871,1.606-3.213
	h-8.031c1.833,0.342,2.399,0.937,3.212,3.213l0.805,2.41H104.34L104.34,216.723z"/>
<path fill-rule="evenodd" clip-rule="evenodd" fill="#FFFFFF" d="M113.978,216.723l-0.805-2.41c-0.457-1.948,0.048-2.871,2.41-3.213
	h-8.03c1.207,0.342,1.772,0.937,2.408,3.213l0.804,2.41H113.978L113.978,216.723z"/>
<path fill-rule="evenodd" clip-rule="evenodd" fill="#FFFFFF" d="M122.008,216.723l1.606-2.41c0.312-2.009,1.054-2.871,2.41-3.213
	h-5.622c1.503,0.342,2.154,1.352,1.605,4.015l-0.802,1.608H122.008L122.008,216.723z"/>
<path fill-rule="evenodd" clip-rule="evenodd" fill="#FFFFFF" d="M126.827,216.723c0.067-0.188,0.013-0.6,0.013-0.805
	c-0.013-2.452,1.577-3.825,3.199-4.016c2.791,0.19,4.812,1.497,5.622,4.82h0.803V211.1h-0.803c-0.016,0.665-0.85,1.114-2.41,0.803
	c-0.702-0.79-1.769-1.061-2.408-0.803c-4.207-0.258-6.636,2.526-6.425,5.623H126.827L126.827,216.723z"/>
<path fill-rule="evenodd" clip-rule="evenodd" fill="#FFFFFF" d="M183.85,10.546v125.288c-17.324-10.979-40.896-12.77-61.842-8.834
	c-7.583,1.86-14.761,3.685-21.685,6.426v-16.865c8.853-3.014,17.99-5.509,27.308-7.229h0.802l-0.802-40.156
	c-9.548,1.415-18.546,4.745-27.308,8.835V64.356c8.74-3.391,17.77-6.409,27.308-7.229v-0.803V17.774
	c-9.33,1.827-18.488,4.791-27.308,8.834V8.939c20.203-8.362,45.869-12.168,67.464-5.622C173.704,5.118,179.063,7.24,183.85,10.546
	L183.85,10.546z"/>
<path fill-rule="evenodd" clip-rule="evenodd" fill="#FFFFFF" d="M98.718,27.412l-16.866,6.425V17.774
	c5.518-3.112,10.856-5.964,16.866-8.03V27.412L98.718,27.412z"/>
<path fill-rule="evenodd" clip-rule="evenodd" fill="#FFFFFF" d="M11.979,16.169l-6.425,2.408v-5.621
	c2.121-0.516,4.18-1.452,6.425-2.41V16.169L11.979,16.169z"/>
<path fill-rule="evenodd" clip-rule="evenodd" fill="#FFFFFF" d="M28.042,20.184c-3.088,0.991-5.825,2.115-8.833,3.212v-6.425
	c3.027-0.899,5.738-2.158,8.833-3.212V20.184L28.042,20.184z"/>
<polygon fill-rule="evenodd" clip-rule="evenodd" fill="#FFFFFF" points="79.443,29.019 64.184,35.443 64.184,22.594 79.443,16.169 
	79.443,29.019 "/>
<path fill-rule="evenodd" clip-rule="evenodd" fill="#6DC067" stroke="#6DC067" stroke-width="0.4" stroke-miterlimit="2.6131" d="
	M168.59,20.987v38.55c-8.891-2.824-18.405-4.122-28.109-4.016V16.169C150.091,15.633,159.865,17.031,168.59,20.987L168.59,20.987z"
	/>
<polygon fill-rule="evenodd" clip-rule="evenodd" fill="#FFFFFF" points="47.318,33.034 47.318,23.396 60.971,17.774 60.971,27.412 
	47.318,33.034 "/>
<path fill-rule="evenodd" clip-rule="evenodd" fill="#FFFFFF" d="M44.105,25.806L32.86,29.822v-7.229
	c3.582-1.715,7.206-3.317,11.245-4.819V25.806L44.105,25.806z"/>
<path fill-rule="evenodd" clip-rule="evenodd" fill="#F4793B" d="M11.176,33.034l-4.818,2.409v-4.819
	c1.433-0.676,3.206-1.268,4.818-2.41V33.034L11.176,33.034z"/>
<path fill-rule="evenodd" clip-rule="evenodd" fill="#FFFFFF" d="M98.718,44.278c-5.726,2.68-11.15,4.955-16.866,7.227V36.247
	l16.866-6.425V44.278L98.718,44.278z"/>
<path fill-rule="evenodd" clip-rule="evenodd" fill="#F4793B" d="M27.239,37.854l-6.425,3.212v-6.425
	c1.937-0.386,4.126-1.4,6.425-2.41V37.854L27.239,37.854z"/>
<polygon fill-rule="evenodd" clip-rule="evenodd" fill="#F4793B" points="78.639,46.687 65.79,51.505 65.79,41.065 78.639,35.443 
	78.639,46.687 "/>
<path fill-rule="evenodd" clip-rule="evenodd" fill="#F4793B" d="M60.167,45.08c-3.611,1.835-7.415,3.468-11.244,4.82v-8.835
	c3.817-1.784,7.65-3.26,11.244-4.818V45.08L60.167,45.08z"/>
<path fill-rule="evenodd" clip-rule="evenodd" fill="#F4793B" d="M43.302,43.474c-3.152,1.058-6.228,2.267-9.638,3.213v-6.425
	c3.397-1.172,6.444-2.507,9.638-4.015V43.474L43.302,43.474z"/>
<path fill-rule="evenodd" clip-rule="evenodd" fill="#F4793B" d="M11.176,51.505c-1.606,0.386-3.245,1.238-4.818,1.608v-4.82
	l4.818-1.606V51.505L11.176,51.505z"/>
<polygon fill-rule="evenodd" clip-rule="evenodd" fill="#FFFFFF" points="98.718,61.946 81.852,69.175 81.852,53.915 98.718,46.687 
	98.718,61.946 "/>
<path fill-rule="evenodd" clip-rule="evenodd" fill="#F4793B" d="M27.239,56.325c-2.125,0.652-4.448,1.463-6.425,2.408v-5.62
	c1.74-1.19,4.139-1.839,6.425-2.41V56.325L27.239,56.325z"/>
<polygon fill-rule="evenodd" clip-rule="evenodd" fill="#F4793B" points="78.639,63.553 65.79,69.175 65.79,57.932 78.639,53.113 
	78.639,63.553 "/>
<polygon fill-rule="evenodd" clip-rule="evenodd" fill="#F4793B" points="48.924,67.568 48.924,58.733 60.167,53.915 60.167,63.553 
	48.924,67.568 "/>
<path fill-rule="evenodd" clip-rule="evenodd" fill="#F4793B" d="M43.302,61.144l-9.638,4.015v-7.227
	c3.382-0.989,6.463-2.276,9.638-3.212V61.144L43.302,61.144z"/>
<polygon fill-rule="evenodd" clip-rule="evenodd" fill="#FFFFFF" points="5.555,71.583 5.555,66.765 11.979,63.553 11.979,69.175 
	5.555,71.583 "/>
<polygon fill-rule="evenodd" clip-rule="evenodd" fill="#FFFFFF" points="81.852,86.843 81.852,71.583 97.914,64.356 98.718,79.616 
	81.852,86.843 "/>
<path fill-rule="evenodd" clip-rule="evenodd" fill="#FFFFFF" d="M28.042,73.993l-8.833,3.213v-6.425
	c3.043-0.82,5.755-2.075,8.833-3.213V73.993L28.042,73.993z"/>
<path fill-rule="evenodd" clip-rule="evenodd" fill="#FFCB05" stroke="#FFCB05" stroke-width="0.4" stroke-miterlimit="2.6131" d="
	M168.59,72.387v39.354c-8.968-2.575-18.529-3.322-28.109-3.213V68.371C150.041,67.77,160.044,68.856,168.59,72.387L168.59,72.387z"
	/>
<polygon fill-rule="evenodd" clip-rule="evenodd" fill="#FFFFFF" points="79.443,82.828 64.184,88.449 64.184,75.6 79.443,69.979 
	79.443,82.828 "/>
<polygon fill-rule="evenodd" clip-rule="evenodd" fill="#FFFFFF" points="60.971,81.222 48.12,86.843 47.318,86.843 47.318,77.206 
	60.971,71.583 60.971,81.222 "/>
<path fill-rule="evenodd" clip-rule="evenodd" fill="#FFFFFF" d="M44.105,79.616L32.86,83.631v-7.228
	c3.598-1.762,7.302-3.236,11.245-4.82V79.616L44.105,79.616z"/>
<path fill-rule="evenodd" clip-rule="evenodd" fill="#118ACB" d="M11.176,86.843l-4.818,2.411v-4.819
	c1.426-0.593,3.222-1.315,4.818-2.41V86.843L11.176,86.843z"/>
<polygon fill-rule="evenodd" clip-rule="evenodd" fill="#FFFFFF" points="98.718,97.284 81.852,104.513 81.852,88.449 
	97.914,82.024 98.718,82.024 98.718,97.284 "/>
<path fill-rule="evenodd" clip-rule="evenodd" fill="#118ACB" d="M27.239,91.661c-2.279,1.126-4.467,2.22-6.425,3.215v-6.427
	l6.425-2.408C27.296,88.078,27.316,90.093,27.239,91.661L27.239,91.661z"/>
<polygon fill-rule="evenodd" clip-rule="evenodd" fill="#118ACB" points="78.639,100.496 65.79,105.315 65.79,94.071 78.639,89.254 
	78.639,100.496 "/>
<path fill-rule="evenodd" clip-rule="evenodd" fill="#118ACB" d="M60.167,98.891l-11.244,4.818v-8.833
	c3.835-1.858,7.639-3.441,11.244-4.819V98.891L60.167,98.891z"/>
<path fill-rule="evenodd" clip-rule="evenodd" fill="#118ACB" d="M43.302,97.284l-9.638,3.212v-6.425
	c3.439-1.141,6.489-2.583,9.638-4.015V97.284L43.302,97.284z"/>
<path fill-rule="evenodd" clip-rule="evenodd" fill="#118ACB" d="M11.176,105.315c-1.585,0.6-3.251,1.452-4.818,2.41v-4.819
	c1.545-0.98,3.212-1.753,4.818-2.41V105.315L11.176,105.315z"/>
<polygon fill-rule="evenodd" clip-rule="evenodd" fill="#FFFFFF" points="98.718,114.954 96.308,115.756 81.852,122.181 
	81.852,106.921 97.914,99.694 98.718,99.694 98.718,114.954 "/>
<path fill-rule="evenodd" clip-rule="evenodd" fill="#118ACB" d="M27.239,110.136l-6.425,2.408c-0.341-1.604-0.359-3.59,0-5.623
	c1.971-0.712,4.187-1.756,6.425-2.408V110.136L27.239,110.136z"/>
<path fill-rule="evenodd" clip-rule="evenodd" fill="#118ACB" d="M78.639,106.921c0,3.358,0.205,7.099,0,10.441l-12.85,5.622V111.74
	L78.639,106.921L78.639,106.921z"/>
<path fill-rule="evenodd" clip-rule="evenodd" fill="#118ACB" d="M60.167,116.561l-11.244,4.015v-8.835
	c3.841-1.448,7.676-2.978,11.244-4.015V116.561L60.167,116.561z"/>
<path fill-rule="evenodd" clip-rule="evenodd" fill="#118ACB" d="M43.302,114.15l-8.835,4.017c-0.518-2.303-0.541-4.686-0.802-6.427
	l9.638-4.015C43.302,109.833,43.335,112.212,43.302,114.15L43.302,114.15z"/>
<path fill-rule="evenodd" clip-rule="evenodd" fill="#FFFFFF" d="M11.979,122.984c-2.242,0.965-4.224,2-6.425,2.409v-4.818
	c2.125-1.031,4.264-1.865,6.425-2.408V122.984L11.979,122.984z"/>
<path fill-rule="evenodd" clip-rule="evenodd" fill="#FFFFFF" d="M98.718,134.229c-5.869,1.695-11.345,3.841-16.866,6.425v-16.062
	l16.062-7.229h0.804V134.229L98.718,134.229z"/>
<path fill-rule="evenodd" clip-rule="evenodd" fill="#FFFFFF" d="M28.042,127.804l-8.833,3.212v-5.622
	c3.037-1.463,5.774-2.689,8.833-4.015V127.804L28.042,127.804z"/>
<polygon fill-rule="evenodd" clip-rule="evenodd" fill="#FFFFFF" points="79.443,135.834 64.184,142.259 64.184,129.409 
	79.443,122.984 79.443,135.834 "/>
<polygon fill-rule="evenodd" clip-rule="evenodd" fill="#FFFFFF" points="47.318,139.851 47.318,130.214 60.971,124.591 
	60.971,134.229 47.318,139.851 "/>
<path fill-rule="evenodd" clip-rule="evenodd" fill="#FFFFFF" d="M44.105,132.622c-3.914,1.372-7.563,2.82-11.245,4.017v-7.229
	c3.662-1.555,7.366-2.928,11.245-4.818V132.622L44.105,132.622z"/>
<path fill-rule="evenodd" clip-rule="evenodd" fill="#F4793B" d="M100.323,64.356c8.74-3.391,17.77-6.409,27.308-7.229v-0.803
	V17.774c-9.33,1.827-18.488,4.791-27.308,8.834V64.356L100.323,64.356z"/>
<path fill-rule="evenodd" clip-rule="evenodd" fill="#118ACB" d="M100.323,116.561c8.853-3.014,17.99-5.509,27.308-7.229h0.802
	l-0.802-40.156c-9.548,1.415-18.546,4.745-27.308,8.835V116.561L100.323,116.561z"/>
<line fill="none" stroke="#FFFFFF" stroke-width="0.65" stroke-miterlimit="2.6131" x1="0" y1="196.786" x2="189.488" y2="196.786"/>
<path fill-rule="evenodd" clip-rule="evenodd" fill="#FFFFFF" d="M169.513,219.804c-0.667,0.817-1.51,1.227-2.529,1.227
	c-0.968,0-1.778-0.422-2.432-1.266c-0.653-0.843-0.98-2.062-0.98-3.66c0-1.582,0.313-2.77,0.941-3.562
	c0.627-0.791,1.419-1.187,2.372-1.187c1.007,0,1.863,0.438,2.569,1.314c0.706,0.875,1.059,2.084,1.059,3.63
	C170.513,217.817,170.18,218.987,169.513,219.804L169.513,219.804z M159.119,232.968c0.781,1.02,1.768,1.795,2.956,2.326
	c1.188,0.529,2.813,0.794,4.877,0.794c3.471,0,6.189-1.204,8.155-3.614c1.966-2.408,2.947-6.206,2.947-11.392
	c0-3.526-0.47-6.362-1.411-8.512c-0.941-2.148-2.192-3.716-3.755-4.7c-1.562-0.987-3.638-1.481-6.226-1.481
	c-2.157,0-3.944,0.402-5.363,1.203c-1.418,0.801-2.535,1.983-3.353,3.549c-0.816,1.562-1.226,3.297-1.226,5.2
	c0,2.787,0.798,5.094,2.394,6.919c1.595,1.825,3.556,2.737,5.886,2.737c1.177,0,2.219-0.229,3.128-0.689
	c0.908-0.461,1.794-1.183,2.658-2.169c-0.233,3.099-0.586,5.126-1.054,6.085c-0.651,1.299-1.549,1.949-2.696,1.949
	c-0.637,0-1.18-0.229-1.631-0.685c-0.447-0.456-0.765-1.238-0.946-2.348l-7.163,0.996
	C157.727,230.67,158.335,231.946,159.119,232.968L159.119,232.968z"/>
<path fill-rule="evenodd" clip-rule="evenodd" fill="#FFFFFF" d="M182.933,206.86h16.993v6.379h-11.503l-0.614,4.293
	c0.796-0.42,1.583-0.734,2.365-0.945c0.781-0.211,1.551-0.315,2.308-0.315c2.58,0,4.675,0.869,6.284,2.609s2.415,3.93,2.415,6.573
	c0,1.856-0.415,3.644-1.243,5.356c-0.83,1.714-2.005,3.022-3.526,3.925c-1.521,0.902-3.471,1.353-5.848,1.353
	c-1.698,0-3.157-0.18-4.378-0.538c-1.222-0.36-2.256-0.897-3.106-1.612c-0.848-0.712-1.537-1.519-2.066-2.425
	c-0.529-0.901-0.969-2.027-1.322-3.376l7.269-0.885c0.17,1.299,0.578,2.285,1.227,2.96c0.647,0.678,1.417,1.014,2.306,1.014
	c1.008,0,1.838-0.422,2.493-1.264c0.654-0.841,0.98-2.098,0.98-3.77c0-1.709-0.328-2.964-0.986-3.76
	c-0.659-0.795-1.536-1.194-2.631-1.194c-0.691,0-1.354,0.19-1.993,0.569c-0.484,0.274-1.012,0.771-1.585,1.486l-6.138-0.979
	L182.933,206.86L182.933,206.86z"/>
</svg>
